<svg width="104" height="32" viewBox="0 0 104 32" fill="none" xmlns="http://www.w3.org/2000/svg">
<g clip-path="url(#clip0_4432_13503)">
<path d="M5.08279 31.4676C3.01522 28.1243 2.32602 26.9302 1.80913 25.577C0.689192 22.8705 0 19.4477 0 16.3432C0 13.6367 0.430745 10.771 1.29224 8.30338C2.15373 5.91532 3.01522 4.24367 5.16894 0.900391H11.544C8.87335 4.72129 7.92571 6.55213 7.06422 9.4178C6.46118 11.6467 6.11658 13.9551 6.11658 16.184C6.11658 19.2885 6.80577 22.7113 7.92571 25.3382C8.70105 27.0894 9.47639 28.4427 11.544 31.4676H5.08279Z" fill="#EC8460"/>
<path d="M24.0345 0.900391C22.3976 2.17402 19.2963 5.59691 19.2963 10.1342C19.2963 12.7611 24.0345 18.4924 24.0345 22.0745C24.0345 23.9054 23.4314 25.975 22.3976 27.5671C21.5361 28.9203 20.6747 29.7163 18.4348 31.388H13.1797C15.8503 29.4775 19.6409 25.0994 16.7118 18.8108C15.1611 15.4676 13.1797 14.0347 13.1797 10.1342C13.1797 5.59691 16.2811 2.81084 18.6071 0.979993H24.0345V0.900391Z" fill="#EC8460"/>
<path d="M25.498 31.4671C28.341 27.3278 29.2886 25.5765 30.0639 22.7905C30.667 20.6412 31.0116 18.2531 31.0116 15.8651C31.0116 12.8402 30.3224 9.33773 29.0302 6.63126C28.2548 4.88001 27.4795 3.60638 25.498 0.820312H31.9592C34.2852 4.482 35.2329 6.31285 36.0944 9.01932C36.7836 11.4074 37.1282 13.6362 37.1282 16.1039C37.1282 19.3676 36.439 22.7905 35.319 25.4969C34.716 26.9298 34.0268 28.0442 32.0454 31.3875H25.498V31.4671Z" fill="#EC8460"/>
<path d="M48.42 8.1194C47.6446 7.72139 47.0416 7.24378 46.6109 6.60697C46.1801 5.97015 46.0078 5.17413 46.0078 4.37811C46.0078 3.58209 46.1801 2.78607 46.6109 2.14925C47.0416 1.51244 47.6446 0.955224 48.42 0.636816C49.1092 0.159204 49.9707 0 50.9183 0C51.7798 0 52.469 0.159204 53.1582 0.39801C53.8474 0.636816 54.3643 1.03483 54.795 1.59204L53.1582 2.94527C52.5551 2.30846 51.8659 1.99005 51.0045 1.99005C50.4876 1.99005 50.0568 2.06965 49.7122 2.30846C49.3676 2.46766 49.023 2.78607 48.8507 3.18408C48.6784 3.58209 48.5061 3.9801 48.5061 4.45771C48.5923 4.77612 48.6784 5.17413 48.8507 5.57214C49.023 5.97015 49.3676 6.20896 49.7122 6.44776C50.0568 6.60697 50.4876 6.76617 51.0045 6.76617C51.8659 6.76617 52.5551 6.44776 53.1582 5.81095L54.795 7.16418C54.3643 7.64179 53.8474 8.0398 53.1582 8.35821C52.469 8.59702 51.7798 8.75622 50.9183 8.75622C49.9707 8.67662 49.1092 8.43781 48.42 8.1194Z" fill="#EC8460"/>
<path d="M93.9427 30.4C93.5976 30.2333 93.3292 30.0333 93.1375 29.7667C92.9458 29.5 92.8691 29.1667 92.8691 28.8333C92.8691 28.5 92.9458 28.1667 93.1375 27.9C93.3292 27.6333 93.5976 27.4 93.9427 27.2667C94.2494 27.0667 94.6328 27 95.0545 27C95.4379 27 95.7446 27.0667 96.0514 27.1667C96.3581 27.2667 96.5881 27.4333 96.7798 27.6667L96.0514 28.2333C95.783 27.9667 95.4763 27.8333 95.0929 27.8333C94.8628 27.8333 94.6711 27.8667 94.5178 27.9667C94.3644 28.0333 94.211 28.1667 94.1344 28.3333C94.0577 28.5 93.981 28.6667 93.981 28.8667C94.0193 29 94.0577 29.1667 94.1344 29.3333C94.211 29.5 94.3644 29.6 94.5178 29.7C94.6711 29.7667 94.8628 29.8333 95.0929 29.8333C95.4763 29.8333 95.783 29.7 96.0514 29.4333L96.7798 30C96.5881 30.2 96.3581 30.3667 96.0514 30.5C95.7446 30.6 95.4379 30.6667 95.0545 30.6667C94.6328 30.6333 94.2494 30.5333 93.9427 30.4Z" fill="#EC8460"/>
<path d="M58.1546 8.1194C57.3792 7.72139 56.7762 7.24378 56.3454 6.60697C55.9147 5.97015 55.6562 5.17413 55.6562 4.37811C55.6562 3.58209 55.9147 2.78607 56.3454 2.14925C56.7762 1.51244 57.3792 0.955224 58.1546 0.636816C58.9299 0.159204 59.7914 0 60.739 0C61.6867 0 62.5482 0.159204 63.3235 0.557214C64.0989 0.955224 64.7019 1.43284 65.1326 2.06965C65.5634 2.70647 65.8218 3.50249 65.8218 4.29851C65.8218 5.09453 65.5634 5.89055 65.1326 6.52736C64.7019 7.16418 64.0989 7.72139 63.3235 8.0398C62.5482 8.43781 61.6867 8.59702 60.739 8.59702C59.7914 8.67662 58.9299 8.43781 58.1546 8.1194ZM61.9451 6.36816C62.2897 6.20896 62.6343 5.89055 62.8066 5.49254C62.9789 5.09453 63.1512 4.69652 63.1512 4.21891C63.1512 3.74129 63.0651 3.34328 62.8066 2.94527C62.6343 2.54726 62.2897 2.30846 61.9451 2.06965C61.6005 2.06965 61.1698 1.91045 60.739 1.91045C60.3083 1.91045 59.8776 1.99005 59.533 2.22886C59.1884 2.38806 58.8438 2.70647 58.6715 3.10448C58.4992 3.50249 58.3269 3.9005 58.3269 4.37811C58.3269 4.85572 58.413 5.25373 58.6715 5.65174C58.8438 6.04975 59.1884 6.28856 59.533 6.52736C59.8776 6.60697 60.3083 6.68657 60.739 6.68657C61.1698 6.68657 61.6005 6.60697 61.9451 6.36816Z" fill="#EC8460"/>
<path d="M70.1292 1.98905V3.8199H74.092V5.65074H70.1292V8.51642H67.6309V0.158203H74.6951V1.98905H70.1292Z" fill="#EC8460"/>
<path d="M78.6567 1.991V3.82185H82.6196V5.65269H78.6567V8.51837H76.0723V0.160156H83.1365V1.991H78.6567Z" fill="#EC8460"/>
<path d="M92.0959 6.68752V8.51836H84.8594V0.160156H91.9236V1.991H87.4439V3.42384H91.4067V5.17508H87.4439V6.68752H92.0959Z" fill="#EC8460"/>
<path d="M101.403 6.68557V8.51641H94.166V0.158203H101.23V1.98905H96.7505V3.42189H100.713V5.17313H96.7505V6.68557H101.403Z" fill="#EC8460"/>
<path d="M47.6446 21.3348C46.9554 21.1756 46.4386 20.9368 46.0078 20.698L46.8693 18.9467C47.3 19.1855 47.7308 19.4243 48.2477 19.5039C48.7646 19.6631 49.2815 19.7427 49.7984 19.7427C50.746 19.7427 51.2629 19.5039 51.2629 19.0263C51.2629 18.7875 51.0906 18.6283 50.8322 18.4691C50.5737 18.3895 50.143 18.2303 49.4538 18.0711C48.7646 17.9119 48.2477 17.8323 47.7308 17.6731C47.3 17.5139 46.8693 17.2751 46.5247 16.9567C46.1801 16.6383 46.0078 16.1606 46.0078 15.6034C46.0078 15.1258 46.1801 14.6482 46.4386 14.2502C46.697 13.8522 47.2139 13.5338 47.8169 13.295C48.42 13.0562 49.1092 12.9766 49.9707 12.9766C50.5737 12.9766 51.1768 13.0562 51.6936 13.1358C52.2967 13.295 52.8136 13.4542 53.2443 13.693L52.469 15.4442C51.6075 15.0462 50.746 14.8074 49.9707 14.8074C49.4538 14.8074 49.1092 14.887 48.8507 15.0462C48.7646 15.1258 48.6784 15.285 48.6784 15.5238C48.6784 15.7626 48.8507 15.9218 49.1092 16.0014C49.3676 16.081 49.7984 16.2402 50.4014 16.3198C51.0906 16.479 51.6936 16.6383 52.1244 16.7179C52.5551 16.8771 52.9859 17.1159 53.3305 17.4343C53.6751 17.7527 53.8474 18.2303 53.8474 18.7875C53.8474 19.2651 53.6751 19.7427 53.4166 20.1407C53.1582 20.5387 52.6413 20.8572 52.0382 21.096C51.4352 21.3348 50.746 21.494 49.8845 21.494C49.023 21.5736 48.3338 21.494 47.6446 21.3348Z" fill="#EC8460"/>
<path d="M57.5497 14.9637H54.793V13.1328H62.8048V14.9637H60.0481V21.4114H57.5497V14.9637Z" fill="#EC8460"/>
<path d="M65.4754 20.6154C64.7001 19.9786 64.3555 19.0234 64.3555 17.7497V13.1328H66.9399V17.6701C66.9399 19.0234 67.543 19.6602 68.6629 19.6602C69.7828 19.6602 70.3859 19.0234 70.3859 17.6701V13.1328H72.7981V17.7497C72.7981 19.0234 72.4535 19.9786 71.6781 20.6154C70.9028 21.2522 69.869 21.6502 68.5768 21.6502C67.1984 21.5706 66.1646 21.2522 65.4754 20.6154Z" fill="#EC8460"/>
<path d="M75.2969 13.1328H79.5182C80.4658 13.1328 81.4135 13.292 82.1027 13.6104C82.878 13.9288 83.4811 14.4064 83.9118 15.0433C84.3426 15.6801 84.5149 16.3965 84.5149 17.2721C84.5149 18.1477 84.3426 18.8642 83.9118 19.501C83.4811 20.1378 82.878 20.6154 82.1027 20.9338C81.3273 21.2522 80.4658 21.4114 79.5182 21.4114H75.2969V13.1328ZM79.432 19.5806C80.2074 19.5806 80.8104 19.3418 81.3273 18.9438C81.7581 18.5457 82.0165 17.9885 82.0165 17.2721C82.0165 16.5557 81.7581 15.9985 81.3273 15.6005C80.8966 15.2025 80.2074 14.9637 79.432 14.9637H77.7952V19.501H79.432V19.5806Z" fill="#EC8460"/>
<path d="M89.2544 13.1328H86.6699V21.4114H89.2544V13.1328Z" fill="#EC8460"/>
<path d="M93.8225 21.0164C93.0472 20.6183 92.4442 20.1407 92.0134 19.5039C91.5827 18.8671 91.3242 18.0711 91.3242 17.2751C91.3242 16.479 91.5827 15.683 92.0134 15.0462C92.4442 14.4094 93.0472 13.8522 93.8225 13.5338C94.5979 13.1358 95.4594 12.9766 96.407 12.9766C97.3547 12.9766 98.2162 13.1358 98.9915 13.5338C99.7668 13.9318 100.37 14.4094 100.801 15.0462C101.231 15.683 101.49 16.479 101.49 17.2751C101.49 18.0711 101.231 18.8671 100.801 19.5039C100.37 20.1407 99.7668 20.6979 98.9915 21.0164C98.2162 21.4144 97.3547 21.5736 96.407 21.5736C95.3732 21.5736 94.5117 21.4144 93.8225 21.0164ZM97.6131 19.3447C97.9577 19.1855 98.3023 18.8671 98.4746 18.4691C98.6469 18.0711 98.8192 17.6731 98.8192 17.1955C98.8192 16.7179 98.7331 16.3198 98.4746 15.9218C98.3023 15.5238 97.9577 15.285 97.6131 15.0462C97.2685 14.887 96.8378 14.7278 96.407 14.7278C95.9763 14.7278 95.5455 14.8074 95.2009 15.0462C94.8563 15.2054 94.5117 15.5238 94.3394 15.9218C94.1671 16.3198 93.9948 16.7179 93.9948 17.1955C93.9948 17.6731 94.081 18.0711 94.3394 18.4691C94.5117 18.8671 94.8563 19.1059 95.2009 19.3447C95.5455 19.5039 95.9763 19.6631 96.407 19.6631C96.8378 19.6631 97.1824 19.5835 97.6131 19.3447Z" fill="#EC8460"/>
<path d="M50.3153 25.791V30.7264H49.023V30.4079C48.7646 30.6468 48.42 30.806 47.9031 30.806C47.5585 30.806 47.2139 30.7264 46.9554 30.5671C46.697 30.4079 46.4386 30.1691 46.2663 29.9303C46.094 29.6119 46.0078 29.2935 46.0078 28.9751C46.0078 28.5771 46.094 28.2587 46.2663 28.0199C46.4386 27.7811 46.697 27.5423 46.9554 27.3831C47.2139 27.2239 47.5585 27.1443 47.9031 27.1443C48.3338 27.1443 48.7646 27.3035 48.9369 27.5423V25.9502H50.3153V25.791ZM48.7646 29.5323C48.9369 29.3731 49.023 29.1343 49.023 28.8955C49.023 28.6567 48.9369 28.4179 48.7646 28.2587C48.5923 28.0995 48.42 28.0199 48.1615 28.0199C47.9031 28.0199 47.7308 28.0995 47.5585 28.2587C47.3862 28.4179 47.3 28.5771 47.3 28.8955C47.3 29.1343 47.3862 29.3731 47.5585 29.5323C47.7308 29.6915 47.9031 29.7711 48.1615 29.7711C48.42 29.7711 48.5923 29.6915 48.7646 29.5323Z" fill="#EC8460"/>
<path d="M51.3483 26.507C51.176 26.3478 51.0898 26.1886 51.0898 26.0294C51.0898 25.8702 51.176 25.711 51.3483 25.5518C51.5206 25.3926 51.6929 25.3926 51.9513 25.3926C52.2098 25.3926 52.3821 25.4722 52.5544 25.5518C52.7267 25.711 52.8128 25.7906 52.8128 26.0294C52.8128 26.1886 52.7267 26.4274 52.5544 26.507C52.3821 26.6662 52.2098 26.6662 51.9513 26.6662C51.779 26.6662 51.5206 26.5866 51.3483 26.507ZM51.3483 27.0642H52.7267V30.6463H51.3483V27.0642Z" fill="#EC8460"/>
<path d="M57.8955 27.0659V30.0112C57.8955 30.648 57.7232 31.2052 57.2925 31.5237C56.8618 31.8421 56.3449 32.0013 55.5695 32.0013C55.2249 32.0013 54.7942 31.9217 54.5357 31.8421C54.1911 31.7625 53.9327 31.6829 53.6743 31.5237L54.1911 30.648C54.3634 30.7276 54.5357 30.8868 54.7942 30.9664C55.0526 31.046 55.3111 31.046 55.4834 31.046C55.828 31.046 56.0864 30.9664 56.2587 30.8072C56.431 30.648 56.5172 30.4092 56.5172 30.1704V30.0908C56.2587 30.4092 55.9141 30.4888 55.3972 30.4888C55.0526 30.4888 54.708 30.4092 54.4496 30.25C54.1911 30.0908 53.9327 29.9316 53.7604 29.6132C53.5881 29.3744 53.502 29.056 53.502 28.7376C53.502 28.4192 53.5881 28.1008 53.7604 27.862C53.9327 27.6231 54.1911 27.3843 54.4496 27.2251C54.708 27.0659 55.0526 26.9863 55.3972 26.9863C55.9141 26.9863 56.3449 27.1455 56.6033 27.4639V27.0659H57.8955ZM56.2587 29.2948C56.431 29.1356 56.5172 28.9764 56.5172 28.7376C56.5172 28.4988 56.431 28.3396 56.2587 28.1804C56.0864 28.0212 55.9141 27.9416 55.6557 27.9416C55.3972 27.9416 55.2249 28.0212 55.0526 28.1804C54.8803 28.3396 54.7942 28.4988 54.7942 28.7376C54.7942 28.9764 54.8803 29.1356 55.0526 29.2948C55.2249 29.454 55.3972 29.5336 55.6557 29.5336C55.9141 29.454 56.0864 29.3744 56.2587 29.2948Z" fill="#EC8460"/>
<path d="M58.9303 26.507C58.758 26.3478 58.6719 26.1886 58.6719 26.0294C58.6719 25.8702 58.758 25.711 58.9303 25.5518C59.1026 25.3926 59.2749 25.3926 59.5334 25.3926C59.7918 25.3926 59.9641 25.4722 60.1364 25.5518C60.3087 25.711 60.3948 25.7906 60.3948 26.0294C60.3948 26.1886 60.3087 26.4274 60.1364 26.507C59.9641 26.6662 59.7918 26.6662 59.5334 26.6662C59.2749 26.6662 59.1026 26.5866 58.9303 26.507ZM58.8442 27.0642H60.2226V30.6463H58.8442V27.0642Z" fill="#EC8460"/>
<path d="M63.9258 30.4884C63.8396 30.568 63.6673 30.568 63.495 30.6476C63.3227 30.6476 63.1504 30.7272 62.9781 30.7272C62.4613 30.7272 62.1167 30.6476 61.7721 30.4088C61.5136 30.17 61.3413 29.8516 61.3413 29.374V28.18H60.7383V27.2248H61.3413V26.2695H62.7197V27.2248H63.5812V28.18H62.7197V29.374C62.7197 29.5332 62.7197 29.6128 62.8059 29.6924C62.892 29.772 62.9781 29.772 63.0643 29.772C63.2366 29.772 63.3227 29.772 63.495 29.6924L63.9258 30.4884Z" fill="#EC8460"/>
<path d="M67.7153 27.3824C68.0599 27.6212 68.2322 28.0988 68.2322 28.656V30.6461H66.9399V30.1685C66.7676 30.4869 66.3369 30.7257 65.82 30.7257C65.5616 30.7257 65.217 30.6461 65.0447 30.5665C64.7862 30.4869 64.7001 30.3277 64.5278 30.1685C64.4416 30.0093 64.3555 29.85 64.3555 29.6112C64.3555 29.2928 64.5278 28.9744 64.7862 28.8152C65.0447 28.656 65.4754 28.4968 66.0784 28.4968H66.8538C66.8538 28.0988 66.5953 27.9396 65.9923 27.9396C65.82 27.9396 65.6477 27.9396 65.3893 28.0192C65.217 28.0988 65.0447 28.1784 64.8724 28.258L64.4416 27.3824C64.6139 27.2232 64.9585 27.1436 65.217 27.064C65.5615 26.9844 65.82 26.9844 66.1646 26.9844C66.8538 26.9844 67.3707 27.1436 67.7153 27.3824ZM66.5953 29.7704C66.6815 29.6908 66.7676 29.6112 66.8538 29.452V29.1336H66.2507C65.82 29.1336 65.6477 29.2928 65.6477 29.5316C65.6477 29.6112 65.7338 29.6908 65.82 29.7704C65.9061 29.85 65.9923 29.85 66.1646 29.85C66.3369 29.9296 66.5092 29.85 66.5953 29.7704Z" fill="#EC8460"/>
<path d="M70.5581 25.7109H69.1797V30.6463H70.5581V25.7109Z" fill="#EC8460"/>
<path d="M76.7641 27.3824C77.1087 27.6212 77.281 28.0988 77.281 28.656V30.6461H75.9888V30.1685C75.8165 30.4869 75.3857 30.7257 74.8688 30.7257C74.6104 30.7257 74.2658 30.6461 74.0935 30.5665C73.835 30.4869 73.7489 30.3277 73.5766 30.1685C73.4904 30.0093 73.4043 29.85 73.4043 29.6112C73.4043 29.2928 73.5766 28.9744 73.835 28.8152C74.0935 28.656 74.5242 28.4968 75.1273 28.4968H75.9026C75.9026 28.0988 75.6442 27.9396 75.0411 27.9396C74.8688 27.9396 74.6965 27.9396 74.4381 28.0192C74.2658 28.0988 74.0935 28.1784 73.9212 28.258L73.4905 27.3824C73.6627 27.2232 74.0073 27.1436 74.2658 27.064C74.6104 26.9844 74.8688 26.9844 75.2134 26.9844C75.9026 26.9844 76.4195 27.1436 76.7641 27.3824ZM75.6442 29.7704C75.7303 29.6908 75.8165 29.6112 75.9026 29.452V29.1336H75.2996C74.8688 29.1336 74.6965 29.2928 74.6965 29.5316C74.6965 29.6112 74.7827 29.6908 74.8688 29.7704C74.955 29.85 75.0411 29.85 75.2134 29.85C75.3857 29.9296 75.558 29.85 75.6442 29.7704Z" fill="#EC8460"/>
<path d="M82.5362 27.0659V30.0112C82.5362 30.648 82.3639 31.2052 81.9331 31.5237C81.5024 31.8421 80.9855 32.0013 80.2102 32.0013C79.8656 32.0013 79.4348 31.9217 79.1764 31.8421C78.8318 31.7625 78.5733 31.6829 78.3149 31.5237L78.8318 30.648C79.0041 30.7276 79.1764 30.8868 79.4348 30.9664C79.6933 31.046 79.9517 31.046 80.124 31.046C80.4686 31.046 80.727 30.9664 80.8993 30.8072C81.0716 30.648 81.1578 30.4092 81.1578 30.1704V30.0908C80.8993 30.4092 80.5548 30.4888 80.0379 30.4888C79.6933 30.4888 79.3487 30.4092 79.0902 30.25C78.8318 30.0908 78.5733 29.9316 78.401 29.6132C78.2287 29.3744 78.1426 29.056 78.1426 28.7376C78.1426 28.4192 78.2287 28.1008 78.401 27.862C78.5733 27.6231 78.8318 27.3843 79.0902 27.2251C79.3487 27.0659 79.6933 26.9863 80.0379 26.9863C80.5548 26.9863 80.9855 27.1455 81.2439 27.4639V27.0659H82.5362ZM80.8993 29.2948C81.0716 29.1356 81.1578 28.9764 81.1578 28.7376C81.1578 28.4988 81.0716 28.3396 80.8993 28.1804C80.727 28.0212 80.5547 27.9416 80.2963 27.9416C80.0379 27.9416 79.8656 28.0212 79.6933 28.1804C79.521 28.3396 79.4348 28.4988 79.4348 28.7376C79.4348 28.9764 79.521 29.1356 79.6933 29.2948C79.8656 29.454 80.0379 29.5336 80.2963 29.5336C80.5547 29.454 80.727 29.3744 80.8993 29.2948Z" fill="#EC8460"/>
<path d="M87.4457 29.2137H84.6028C84.6889 29.3729 84.7751 29.5321 84.9474 29.6117C85.1197 29.6913 85.292 29.7709 85.5504 29.7709C85.7227 29.7709 85.895 29.7709 86.0673 29.6913C86.2396 29.6117 86.3258 29.5321 86.4981 29.4525L87.1872 30.1689C86.8427 30.5669 86.2396 30.7261 85.5504 30.7261C85.1197 30.7261 84.6889 30.6465 84.3443 30.4873C83.9997 30.3281 83.7413 30.0893 83.569 29.8505C83.3967 29.5321 83.3105 29.2137 83.3105 28.8953C83.3105 28.5769 83.3967 28.2585 83.569 27.9401C83.7413 27.6217 83.9997 27.4625 84.3443 27.3033C84.6889 27.1441 85.0335 27.0645 85.4643 27.0645C85.8089 27.0645 86.2396 27.1441 86.4981 27.3033C86.8427 27.4625 87.1011 27.7013 87.2734 27.9401C87.4457 28.2585 87.5318 28.5769 87.5318 28.8953C87.4457 28.8953 87.4457 28.9749 87.4457 29.2137ZM84.8612 28.0993C84.6889 28.1789 84.6028 28.3381 84.6028 28.5769H86.1535C86.1535 28.4177 86.0673 28.2585 85.895 28.0993C85.7227 28.0197 85.5504 27.9401 85.3781 27.9401C85.2058 27.9401 85.0335 27.9401 84.8612 28.0993Z" fill="#EC8460"/>
<path d="M91.9251 27.3821C92.1836 27.6209 92.3559 28.0189 92.3559 28.5761V30.6458H90.9775V28.8149C90.9775 28.3373 90.8052 28.0985 90.3744 28.0985C90.116 28.0985 89.9437 28.1781 89.7714 28.3373C89.5991 28.4965 89.5991 28.6557 89.5991 28.9741V30.7254H88.2207V27.0637H89.5129V27.4617C89.6852 27.3025 89.8575 27.2229 90.0298 27.1433C90.2021 27.0637 90.4606 27.0637 90.719 27.0637C91.2359 26.9841 91.6667 27.1433 91.9251 27.3821Z" fill="#EC8460"/>
<path d="M101.404 27.0645L99.7669 30.8058C99.5946 31.2834 99.3362 31.5222 99.0777 31.761C98.8193 31.9202 98.4747 31.9998 98.044 31.9998C97.8717 31.9998 97.6132 31.9998 97.4409 31.9202C97.2686 31.8406 97.0963 31.761 96.924 31.6814L97.3548 30.8058C97.4409 30.8854 97.5271 30.8854 97.6132 30.965C97.6994 30.965 97.8717 31.0446 97.9578 31.0446C98.044 31.0446 98.2163 31.0446 98.3024 30.965C98.3886 30.8854 98.4747 30.8057 98.4747 30.7261L96.8379 27.0645H98.2163L99.1639 29.2137L100.112 27.0645H101.404Z" fill="#EC8460"/>
</g>
<defs>
<clipPath id="clip0_4432_13503">
<rect width="104" height="32" fill="white"/>
</clipPath>
</defs>
</svg>
