<svg width="122" height="24" viewBox="0 0 122 24" fill="none" xmlns="http://www.w3.org/2000/svg">
<path d="M58.0516 17.5508C58.0516 16.6417 57.7422 15.9466 57.1236 15.4653C56.5046 14.9733 55.3908 14.4599 53.7821 13.9252C52.1734 13.3797 50.8996 12.8449 49.9611 12.3209C47.4036 10.8877 46.1248 8.95724 46.1248 6.52942C46.1248 5.26738 46.4651 4.1444 47.1458 3.16044C47.8367 2.16578 48.8215 1.39037 50.1005 0.834215C51.3895 0.278086 52.8333 0 54.4318 0C56.0407 0 57.4741 0.304816 58.7323 0.91443C59.9905 1.51337 60.9651 2.36365 61.656 3.46525C62.3573 4.56685 62.7078 5.81819 62.7078 7.21927H58.0672C58.0672 6.14975 57.7422 5.32087 57.0925 4.73263C56.4429 4.1337 55.5302 3.83424 54.3544 3.83424C53.22 3.83424 52.3384 4.08557 51.7093 4.58823C51.0802 5.08022 50.7656 5.73262 50.7656 6.54547C50.7656 7.30483 51.1318 7.9412 51.864 8.45457C52.6065 8.96794 53.6945 9.44921 55.1279 9.89842C57.768 10.7219 59.6913 11.7433 60.8979 12.9626C62.1045 14.1818 62.7078 15.7006 62.7078 17.5187C62.7078 19.5401 61.9705 21.1284 60.4958 22.2835C59.021 23.4278 57.0358 24 54.5402 24C52.8075 24 51.2297 23.6738 49.8066 23.0214C48.3834 22.3584 47.2954 21.4546 46.5425 20.3102C45.8001 19.1658 45.4287 17.8396 45.4287 16.3316H50.0849C50.0849 18.9091 51.5701 20.1979 54.5402 20.1979C55.6436 20.1979 56.5046 19.968 57.1236 19.5081C57.7422 19.0375 58.0516 18.3851 58.0516 17.5508ZM80.0484 13.5562H71.1381V19.8129H81.5954V23.6792H66.4973V0.320869H81.5644V4.21926H71.1381V9.78612H80.0484V13.5562ZM93.2893 15.1284H89.5924V23.6792H84.9515V0.320869H93.3203C95.9811 0.320869 98.0333 0.935833 99.4771 2.16578C100.921 3.39574 101.643 5.13371 101.643 7.3797C101.643 8.97327 101.308 10.3048 100.637 11.3744C99.9772 12.4332 98.9718 13.2781 97.6208 13.9091L102.494 23.4546V23.6792H97.5126L93.2893 15.1284ZM89.5924 11.23H93.3359C94.5011 11.23 95.4036 10.9252 96.0428 10.3155C96.6823 9.6952 97.0021 8.84494 97.0021 7.76472C97.0021 6.66312 96.6977 5.79681 96.0892 5.16579C95.4911 4.53477 94.5681 4.21926 93.3203 4.21926H89.5924V11.23ZM122 4.21926H115.1V23.6792H110.46V4.21926H103.653V0.320869H122V4.21926Z" fill="#313E60"/>
<path d="M15.6826 23.6806H20.3234V0.322266H15.6981V15.7234L6.64859 0.322266H2.00781V23.6806H6.64859V8.31157L15.6826 23.6806Z" fill="#313E60"/>
<path d="M38.4373 0.322266L33.3325 17.8891L28.2586 0.322266H23.1072L30.9193 23.6806H35.7611L43.604 0.322266H38.4373Z" fill="#313E60"/>
</svg>
