<svg width="503" height="524" viewBox="0 0 503 524" fill="none" xmlns="http://www.w3.org/2000/svg">
<path d="M306.631 499.891C293.915 499.891 281.997 500.418 271.696 501.349C294.902 504.136 318.36 504.136 341.566 501.349C331.275 500.377 319.326 499.891 306.631 499.891Z" fill="#647797" stroke="#35425E" stroke-width="2" stroke-linecap="round" stroke-linejoin="round"/>
<path d="M246.937 492.38V492.514C247.144 496.146 256.875 499.374 271.716 501.35C294.922 504.136 318.38 504.136 341.587 501.35C356.417 499.374 366.138 496.177 366.355 492.514V492.38C366.312 491.902 366.163 491.44 365.919 491.027C365.675 490.614 365.343 490.26 364.946 489.99L364.801 489.876C358.676 484.982 334.954 481.33 306.651 481.33C278.348 481.33 254.616 484.982 248.481 489.876L248.325 489.99C247.932 490.262 247.604 490.617 247.364 491.03C247.124 491.443 246.978 491.904 246.937 492.38Z" fill="#647797" stroke="#35425E" stroke-width="2" stroke-linecap="round" stroke-linejoin="round"/>
<path d="M236.116 510.898C236.202 509.656 236.424 508.428 236.78 507.235C238.046 503.477 239.828 499.911 242.075 496.641C243.699 494.044 245.81 491.784 248.294 489.988C247.9 490.26 247.572 490.615 247.332 491.029C247.092 491.442 246.946 491.902 246.905 492.378V492.513C247.112 496.144 256.843 499.372 271.684 501.348C294.891 504.135 318.348 504.135 341.555 501.348C356.385 499.372 366.106 496.175 366.324 492.513V492.378C366.28 491.901 366.131 491.439 365.887 491.026C365.644 490.612 365.311 490.258 364.914 489.988C371.132 494.178 376.563 503.438 377.133 510.95C377.133 517.054 345.566 521.999 306.661 521.999C267.756 521.999 236.137 517.054 236.137 510.95L236.116 510.898Z" fill="#9DB0CE" stroke="#35425E" stroke-width="2" stroke-linecap="round" stroke-linejoin="round"/>
<path d="M296.153 470.105V491.315C296.153 493.022 300.858 494.419 306.662 494.419C312.465 494.419 317.16 493.043 317.16 491.315V470.105H296.153Z" fill="#9DB0CE" stroke="#35425E" stroke-width="2" stroke-linecap="round" stroke-linejoin="round"/>
<path d="M296.153 469.764C296.153 470.975 300.858 471.958 306.662 471.958C312.465 471.958 317.16 470.975 317.16 469.764C317.16 468.554 312.455 467.561 306.662 467.561C300.869 467.561 296.153 468.543 296.153 469.764Z" fill="#35425E" stroke="#35425E" stroke-width="2" stroke-linecap="round" stroke-linejoin="round"/>
<path d="M299.861 337.828V469.483C299.861 469.824 302.887 470.103 306.618 470.103C310.349 470.103 313.375 469.824 313.375 469.483V337.828H299.861Z" fill="#647797" stroke="#35425E" stroke-width="2" stroke-linecap="round" stroke-linejoin="round"/>
<path d="M313.378 403.693C314.963 403.973 315.938 404.366 315.938 404.8C315.938 405.235 314.963 405.618 313.378 405.908C311.153 406.259 308.904 406.425 306.652 406.404C304.378 406.431 302.107 406.257 299.864 405.887C298.319 405.607 297.376 405.225 297.376 404.8C297.376 404.376 298.319 403.993 299.864 403.704" fill="#647797"/>
<path d="M313.378 403.693C314.963 403.973 315.938 404.366 315.938 404.8C315.938 405.235 314.963 405.618 313.378 405.908C311.153 406.259 308.904 406.425 306.652 406.404C304.378 406.431 302.107 406.257 299.864 405.887C298.319 405.607 297.376 405.225 297.376 404.8C297.376 404.376 298.319 403.993 299.864 403.704" stroke="#35425E" stroke-width="2" stroke-linecap="round" stroke-linejoin="round"/>
<path d="M313.378 408.906C314.963 409.186 315.938 409.579 315.938 410.013C315.938 410.448 314.963 410.831 313.378 411.12C311.153 411.471 308.904 411.637 306.652 411.617C304.378 411.643 302.107 411.47 299.864 411.099C298.319 410.82 297.376 410.437 297.376 410.065C297.376 409.693 298.319 409.258 299.864 408.968" fill="#647797"/>
<path d="M313.378 408.906C314.963 409.186 315.938 409.579 315.938 410.013C315.938 410.448 314.963 410.831 313.378 411.12C311.153 411.471 308.904 411.637 306.652 411.617C304.378 411.643 302.107 411.47 299.864 411.099C298.319 410.82 297.376 410.437 297.376 410.065C297.376 409.693 298.319 409.258 299.864 408.968" stroke="#35425E" stroke-width="2" stroke-linecap="round" stroke-linejoin="round"/>
<path d="M313.378 414.111C314.963 414.391 315.938 414.784 315.938 415.218C315.938 415.653 314.963 416.036 313.378 416.325C311.153 416.676 308.904 416.842 306.652 416.822C304.378 416.848 302.107 416.675 299.864 416.305C298.319 416.025 297.376 415.642 297.376 415.218C297.376 414.794 298.319 414.411 299.864 414.122" fill="#647797"/>
<path d="M313.378 414.111C314.963 414.391 315.938 414.784 315.938 415.218C315.938 415.653 314.963 416.036 313.378 416.325C311.153 416.676 308.904 416.842 306.652 416.822C304.378 416.848 302.107 416.675 299.864 416.305C298.319 416.025 297.376 415.642 297.376 415.218C297.376 414.794 298.319 414.411 299.864 414.122" stroke="#35425E" stroke-width="2" stroke-linecap="round" stroke-linejoin="round"/>
<path d="M313.378 419.326C314.963 419.605 315.938 419.999 315.938 420.433C315.938 420.868 314.963 421.25 313.378 421.54C311.153 421.891 308.904 422.057 306.652 422.037C304.378 422.063 302.107 421.89 299.864 421.519C298.319 421.24 297.376 420.857 297.376 420.485C297.376 420.112 298.319 419.678 299.864 419.388" fill="#647797"/>
<path d="M313.378 419.326C314.963 419.605 315.938 419.999 315.938 420.433C315.938 420.868 314.963 421.25 313.378 421.54C311.153 421.891 308.904 422.057 306.652 422.037C304.378 422.063 302.107 421.89 299.864 421.519C298.319 421.24 297.376 420.857 297.376 420.485C297.376 420.112 298.319 419.678 299.864 419.388" stroke="#35425E" stroke-width="2" stroke-linecap="round" stroke-linejoin="round"/>
<path d="M313.378 424.529C314.963 424.809 315.938 425.202 315.938 425.636C315.938 426.071 314.963 426.454 313.378 426.743C311.153 427.094 308.904 427.26 306.652 427.24C304.378 427.266 302.107 427.093 299.864 426.723C298.319 426.443 297.376 426.06 297.376 425.636C297.376 425.212 298.319 424.829 299.864 424.54" fill="#647797"/>
<path d="M313.378 424.529C314.963 424.809 315.938 425.202 315.938 425.636C315.938 426.071 314.963 426.454 313.378 426.743C311.153 427.094 308.904 427.26 306.652 427.24C304.378 427.266 302.107 427.093 299.864 426.723C298.319 426.443 297.376 426.06 297.376 425.636C297.376 425.212 298.319 424.829 299.864 424.54" stroke="#35425E" stroke-width="2" stroke-linecap="round" stroke-linejoin="round"/>
<path d="M313.378 429.744C314.963 430.023 315.938 430.417 315.938 430.851C315.938 431.286 314.963 431.668 313.378 431.958C311.153 432.309 308.904 432.475 306.652 432.455C304.378 432.481 302.107 432.308 299.864 431.937C298.319 431.658 297.376 431.275 297.376 430.851C297.376 430.427 298.319 430.044 299.864 429.754" fill="#647797"/>
<path d="M313.378 429.744C314.963 430.023 315.938 430.417 315.938 430.851C315.938 431.286 314.963 431.668 313.378 431.958C311.153 432.309 308.904 432.475 306.652 432.455C304.378 432.481 302.107 432.308 299.864 431.937C298.319 431.658 297.376 431.275 297.376 430.851C297.376 430.427 298.319 430.044 299.864 429.754" stroke="#35425E" stroke-width="2" stroke-linecap="round" stroke-linejoin="round"/>
<path d="M458.89 227.664L459.035 229.547C459.035 228.926 459.035 228.285 458.963 227.674L458.89 227.664Z" fill="#647797" stroke="#35425E" stroke-width="2" stroke-linecap="round" stroke-linejoin="round"/>
<path d="M193.627 217.328L185.129 268.759C181.521 290.634 186.763 313.045 199.702 331.063C212.641 349.081 232.218 361.232 254.129 364.843L317.916 375.345C324.421 376.423 331.031 376.729 337.607 376.255C340.736 376.037 343.851 375.639 346.934 375.065C355.453 373.46 363.671 370.549 371.299 366.437C372.335 365.899 373.372 365.33 374.325 364.74C384.824 358.523 393.831 350.086 400.711 340.02C407.592 329.955 412.18 318.507 414.152 306.481L422.661 255.05C426.275 233.176 421.038 210.764 408.102 192.743C395.167 174.723 375.591 162.569 353.681 158.955L289.894 148.443C284.134 147.501 278.293 147.155 272.462 147.409H271.726C267.471 147.617 263.24 148.163 259.072 149.044H259.01L258.793 149.095C242.32 152.613 227.291 161.005 215.667 173.177C204.043 185.348 196.362 200.734 193.627 217.328Z" fill="#BED0EA" stroke="#35425E" stroke-width="2" stroke-miterlimit="10"/>
<path d="M278.151 183.202L338.991 193.224C370.757 198.457 392.259 228.407 387.017 260.12L382.039 290.234C376.798 321.946 346.797 343.412 315.032 338.179L254.191 328.157C222.426 322.924 200.924 292.974 206.165 261.261L211.143 231.147C216.385 199.435 246.385 177.969 278.151 183.202Z" fill="#FFFCF5" stroke="#35425E" stroke-width="2" stroke-linecap="round" stroke-linejoin="round"/>
<path d="M228.283 339.515C228.076 340.765 228.246 342.047 228.769 343.201C229.293 344.354 230.148 345.327 231.225 345.995C232.302 346.664 233.554 346.999 234.822 346.958C236.09 346.916 237.317 346.501 238.348 345.763C239.379 345.026 240.168 344 240.615 342.814C241.063 341.629 241.148 340.339 240.86 339.105C240.573 337.872 239.926 336.751 239 335.885C238.075 335.019 236.913 334.446 235.662 334.239C234.83 334.101 233.979 334.128 233.158 334.319C232.337 334.51 231.562 334.86 230.877 335.35C230.191 335.84 229.61 336.46 229.165 337.175C228.719 337.89 228.42 338.685 228.283 339.515Z" fill="#FFFCF5" stroke="#35425E" stroke-width="2" stroke-linecap="round" stroke-linejoin="round"/>
<path d="M360.271 371.411L382.697 365.059L396.17 361.241C400.806 359.495 405.28 357.345 409.539 354.816C420.048 348.605 429.066 340.17 435.958 330.105C442.85 320.039 447.447 308.588 449.428 296.557L450.07 292.656L416.534 303.934C415.855 304.161 415.163 304.348 414.461 304.492L414.13 306.479C412.158 318.505 407.57 329.953 400.689 340.018C393.808 350.084 384.801 358.521 374.303 364.738C373.266 365.328 372.303 365.897 371.277 366.435C367.734 368.359 364.056 370.022 360.271 371.411Z" fill="#35425E" stroke="#35425E" stroke-width="2" stroke-miterlimit="10"/>
<path d="M258.792 149.147L259.01 149.095H259.072C263.24 148.215 267.471 147.669 271.726 147.461H272.462C278.293 147.206 284.134 147.553 289.893 148.495L353.681 158.955C373.586 162.233 391.636 172.574 404.513 188.077C417.39 203.581 424.228 223.204 423.769 243.338C424.298 243.256 424.806 243.142 425.344 243.018L458.984 234.844C459.057 233.075 459.078 231.306 458.984 229.547C458.984 228.926 458.984 228.285 458.912 227.674C458.025 208.542 450.586 190.293 437.838 175.981C425.089 161.668 407.805 152.159 388.875 149.044L325.088 138.532C319.332 137.585 313.494 137.238 307.667 137.497C303.165 137.695 298.687 138.259 294.277 139.184H294.215C290.031 140.064 285.921 141.268 281.924 142.784L258.792 149.147Z" fill="#35425E" stroke="#35425E" stroke-width="2" stroke-miterlimit="10"/>
<path d="M400.481 249.546L393.165 293.817C392.981 294.929 393.018 296.067 393.275 297.166C393.532 298.264 394.003 299.301 394.661 300.218C395.319 301.134 396.152 301.912 397.112 302.507C398.071 303.103 399.139 303.504 400.253 303.687L406.596 304.721C409.222 305.161 411.909 305.08 414.503 304.484C415.205 304.339 415.897 304.152 416.576 303.925L450.06 292.658L455.325 290.899C456.086 290.637 456.762 290.174 457.282 289.561C457.801 288.947 458.146 288.205 458.279 287.412L466.207 239.427L466.393 238.341V238.165C466.787 235.786 466.222 233.348 464.822 231.382C463.423 229.417 461.301 228.084 458.921 227.674C458.921 228.284 458.921 228.926 458.994 229.546C459.066 230.167 458.994 231.078 458.994 231.843C458.985 232.698 458.691 233.526 458.158 234.195C457.625 234.864 456.883 235.336 456.051 235.537L425.281 243.017C424.763 243.141 424.245 243.255 423.706 243.338C421.73 243.648 419.721 243.679 417.737 243.431L410.026 242.396C407.818 242.127 405.592 242.721 403.813 244.053C402.033 245.386 400.84 247.354 400.481 249.546Z" fill="#647797" stroke="#35425E" stroke-width="2" stroke-linecap="round" stroke-linejoin="round"/>
<path d="M288.17 154.889L287.538 158.758C287.316 160.109 287.64 161.493 288.438 162.606C289.237 163.719 290.444 164.471 291.797 164.697L351.035 174.474C352.388 174.692 353.773 174.366 354.886 173.567C355.999 172.768 356.75 171.562 356.973 170.211L357.699 165.866C357.99 164.098 358.76 162.443 359.925 161.081C361.091 159.719 362.607 158.701 364.311 158.137L384.364 151.485C388.786 150.025 393.542 149.903 398.034 151.133C398.09 149.964 397.713 148.815 396.975 147.905C396.238 146.995 395.191 146.387 394.033 146.198L335.013 136.473C330.975 135.809 326.842 135.988 322.877 137L295.445 146.984C293.597 147.458 291.925 148.457 290.634 149.86C289.343 151.263 288.487 153.01 288.17 154.889Z" fill="#647797" stroke="#35425E" stroke-width="2" stroke-linecap="round" stroke-linejoin="round"/>
<path d="M185.19 267.911L186.797 268.531C187.624 268.668 188.47 268.64 189.287 268.449C190.104 268.259 190.875 267.909 191.556 267.421C192.238 266.933 192.816 266.316 193.258 265.604C193.701 264.893 193.998 264.102 194.134 263.276L202.321 213.79C202.597 212.121 202.197 210.41 201.21 209.035C200.223 207.659 198.729 206.731 197.057 206.455C196.482 206.235 195.866 206.145 195.253 206.192C194.64 206.239 194.045 206.422 193.511 206.727C192.977 207.032 192.518 207.451 192.167 207.956C191.816 208.46 191.582 209.036 191.481 209.641L182.599 263.441C182.46 264.369 182.64 265.317 183.111 266.129C183.582 266.941 184.315 267.569 185.19 267.911Z" fill="#647797" stroke="#35425E" stroke-width="2" stroke-linecap="round" stroke-linejoin="round"/>
<path d="M437.646 274.975C434.687 274.975 432.288 272.58 432.288 269.626C432.288 266.672 434.687 264.277 437.646 264.277C440.605 264.277 443.004 266.672 443.004 269.626C443.004 272.58 440.605 274.975 437.646 274.975Z" fill="#BED0EA" stroke="#35425E" stroke-width="2" stroke-linecap="round" stroke-linejoin="round"/>
<path d="M396.895 271.202L415.901 274.306C418.199 274.687 420.553 274.535 422.783 273.861L432.441 270.943" stroke="#35425E" stroke-width="2" stroke-linecap="round" stroke-linejoin="round"/>
<path d="M339.844 147.574L327.304 152.985C325.922 153.585 324.713 154.52 323.786 155.705C322.86 156.891 322.245 158.289 321.998 159.772L320.412 169.415" stroke="#35425E" stroke-width="2" stroke-linecap="round" stroke-linejoin="round"/>
<path d="M197.887 240.586L186.673 238.744" stroke="#35425E" stroke-width="2" stroke-linecap="round" stroke-linejoin="round"/>
<path d="M339.535 150.166C336.165 149.763 333.572 148.278 333.744 146.848C333.915 145.419 336.786 144.586 340.156 144.988C343.526 145.391 346.119 146.876 345.948 148.306C345.776 149.735 342.906 150.568 339.535 150.166Z" fill="#BED0EA" stroke="#35425E" stroke-width="2" stroke-linecap="round" stroke-linejoin="round"/>
<rect width="36.2303" height="10.1895" rx="4" transform="matrix(-0.986564 -0.163375 -0.163909 0.986475 283.012 241.451)" fill="#35425E"/>
<path d="M276.809 250.752L250.127 246.333L249.112 252.439C248.75 254.618 250.224 256.678 252.403 257.039L271.192 260.15C273.372 260.511 275.432 259.037 275.794 256.858L276.809 250.752Z" fill="#35425E"/>
<rect width="36.2303" height="10.1895" rx="4" transform="matrix(-0.986564 -0.163375 -0.163909 0.986475 341.012 253.451)" fill="#35425E"/>
<path d="M334.809 262.752L308.127 258.333L307.112 264.439C306.75 266.618 308.224 268.678 310.403 269.039L329.192 272.15C331.372 272.511 333.432 271.037 333.794 268.858L334.809 262.752Z" fill="#35425E"/>
<g filter="url(#filter0_dd_4921_16554)">
<rect x="20" y="16.5" width="254" height="108" rx="10" fill="white"/>
<path d="M50.72 56.66C49.8667 56.66 49.072 56.5213 48.336 56.244C47.6107 55.956 46.976 55.556 46.432 55.044C45.8987 54.5213 45.4827 53.908 45.184 53.204C44.8853 52.5 44.736 51.732 44.736 50.9C44.736 50.068 44.8853 49.3 45.184 48.596C45.4827 47.892 45.904 47.284 46.448 46.772C46.992 46.2493 47.6267 45.8493 48.352 45.572C49.0773 45.284 49.872 45.14 50.736 45.14C51.6533 45.14 52.4907 45.3 53.248 45.62C54.0053 45.9293 54.6453 46.3933 55.168 47.012L53.824 48.276C53.4187 47.8387 52.9653 47.5133 52.464 47.3C51.9627 47.076 51.4187 46.964 50.832 46.964C50.2453 46.964 49.7067 47.06 49.216 47.252C48.736 47.444 48.3147 47.716 47.952 48.068C47.6 48.42 47.3227 48.836 47.12 49.316C46.928 49.796 46.832 50.324 46.832 50.9C46.832 51.476 46.928 52.004 47.12 52.484C47.3227 52.964 47.6 53.38 47.952 53.732C48.3147 54.084 48.736 54.356 49.216 54.548C49.7067 54.74 50.2453 54.836 50.832 54.836C51.4187 54.836 51.9627 54.7293 52.464 54.516C52.9653 54.292 53.4187 53.956 53.824 53.508L55.168 54.788C54.6453 55.396 54.0053 55.86 53.248 56.18C52.4907 56.5 51.648 56.66 50.72 56.66ZM56.8753 56.5V47.956H65.0673V56.5H63.0833V49.188L63.5473 49.652H58.4113L58.8753 49.188V56.5H56.8753ZM72.9499 56.5V54.772L72.8379 54.404V51.38C72.8379 50.7933 72.6619 50.34 72.3099 50.02C71.9579 49.6893 71.4245 49.524 70.7099 49.524C70.2299 49.524 69.7552 49.5987 69.2859 49.748C68.8272 49.8973 68.4379 50.1053 68.1179 50.372L67.3339 48.916C67.7925 48.564 68.3365 48.3027 68.9659 48.132C69.6059 47.9507 70.2672 47.86 70.9499 47.86C72.1872 47.86 73.1419 48.1587 73.8139 48.756C74.4965 49.3427 74.8379 50.2547 74.8379 51.492V56.5H72.9499ZM70.2619 56.612C69.6219 56.612 69.0619 56.5053 68.5819 56.292C68.1019 56.068 67.7285 55.764 67.4619 55.38C67.2059 54.9853 67.0779 54.5427 67.0779 54.052C67.0779 53.572 67.1899 53.14 67.4139 52.756C67.6485 52.372 68.0272 52.068 68.5499 51.844C69.0725 51.62 69.7659 51.508 70.6299 51.508H73.1099V52.836H70.7739C70.0912 52.836 69.6325 52.948 69.3979 53.172C69.1632 53.3853 69.0459 53.652 69.0459 53.972C69.0459 54.3347 69.1899 54.6227 69.4779 54.836C69.7659 55.0493 70.1659 55.156 70.6779 55.156C71.1685 55.156 71.6059 55.044 71.9899 54.82C72.3845 54.596 72.6672 54.2653 72.8379 53.828L73.1739 55.028C72.9819 55.5293 72.6352 55.9187 72.1339 56.196C71.6432 56.4733 71.0192 56.612 70.2619 56.612ZM81.2008 56.612C80.3048 56.612 79.5048 56.4253 78.8008 56.052C78.1074 55.668 77.5634 55.1453 77.1688 54.484C76.7741 53.8227 76.5768 53.0707 76.5768 52.228C76.5768 51.3747 76.7741 50.6227 77.1688 49.972C77.5634 49.3107 78.1074 48.7933 78.8008 48.42C79.5048 48.0467 80.3048 47.86 81.2008 47.86C82.0328 47.86 82.7634 48.0307 83.3928 48.372C84.0328 48.7027 84.5181 49.1933 84.8488 49.844L83.3128 50.74C83.0568 50.3347 82.7421 50.036 82.3688 49.844C82.0061 49.652 81.6114 49.556 81.1848 49.556C80.6941 49.556 80.2514 49.6627 79.8568 49.876C79.4621 50.0893 79.1528 50.3987 78.9288 50.804C78.7048 51.1987 78.5928 51.6733 78.5928 52.228C78.5928 52.7827 78.7048 53.2627 78.9288 53.668C79.1528 54.0627 79.4621 54.3667 79.8568 54.58C80.2514 54.7933 80.6941 54.9 81.1848 54.9C81.6114 54.9 82.0061 54.804 82.3688 54.612C82.7421 54.42 83.0568 54.1213 83.3128 53.716L84.8488 54.612C84.5181 55.252 84.0328 55.748 83.3928 56.1C82.7634 56.4413 82.0328 56.612 81.2008 56.612ZM86.6096 56.5V47.956H88.6096V53.588L93.3296 47.956H95.1536V56.5H93.1536V50.868L88.4496 56.5H86.6096ZM101.924 56.66C101.22 56.66 100.591 56.5533 100.036 56.34C99.4813 56.1267 99.0013 55.8013 98.596 55.364C98.2013 54.916 97.8973 54.3507 97.684 53.668C97.4707 52.9853 97.364 52.1747 97.364 51.236C97.364 50.5533 97.4227 49.9293 97.54 49.364C97.6573 48.7987 97.8333 48.292 98.068 47.844C98.3027 47.3853 98.596 46.98 98.948 46.628C99.3107 46.276 99.732 45.9827 100.212 45.748C100.692 45.5133 101.236 45.332 101.844 45.204L105.812 44.356L106.1 46.148L102.5 46.884C102.297 46.9267 102.052 46.9907 101.764 47.076C101.487 47.1507 101.199 47.268 100.9 47.428C100.612 47.5773 100.34 47.796 100.084 48.084C99.8387 48.3613 99.636 48.724 99.476 49.172C99.3267 49.6093 99.252 50.1587 99.252 50.82C99.252 51.0227 99.2573 51.1773 99.268 51.284C99.2893 51.38 99.3053 51.4867 99.316 51.604C99.3373 51.7107 99.348 51.8707 99.348 52.084L98.596 51.3C98.8093 50.756 99.1027 50.292 99.476 49.908C99.86 49.5133 100.303 49.2147 100.804 49.012C101.316 48.7987 101.871 48.692 102.468 48.692C103.268 48.692 103.977 48.8573 104.596 49.188C105.215 49.5187 105.7 49.9827 106.052 50.58C106.404 51.1773 106.58 51.8547 106.58 52.612C106.58 53.4013 106.388 54.1 106.004 54.708C105.62 55.316 105.076 55.796 104.372 56.148C103.679 56.4893 102.863 56.66 101.924 56.66ZM102.084 55.044C102.564 55.044 102.985 54.9427 103.348 54.74C103.721 54.5267 104.009 54.2387 104.212 53.876C104.425 53.5133 104.532 53.108 104.532 52.66C104.532 52.212 104.425 51.8227 104.212 51.492C104.009 51.1507 103.721 50.8787 103.348 50.676C102.985 50.4733 102.553 50.372 102.052 50.372C101.572 50.372 101.14 50.468 100.756 50.66C100.383 50.852 100.089 51.1187 99.876 51.46C99.6733 51.7907 99.572 52.1747 99.572 52.612C99.572 53.06 99.6787 53.4707 99.892 53.844C100.105 54.2173 100.399 54.5107 100.772 54.724C101.156 54.9373 101.593 55.044 102.084 55.044ZM112.324 56.612C111.449 56.612 110.671 56.4253 109.988 56.052C109.305 55.668 108.767 55.1453 108.372 54.484C107.977 53.8227 107.78 53.0707 107.78 52.228C107.78 51.3747 107.977 50.6227 108.372 49.972C108.767 49.3107 109.305 48.7933 109.988 48.42C110.671 48.0467 111.449 47.86 112.324 47.86C113.209 47.86 113.993 48.0467 114.676 48.42C115.369 48.7933 115.908 49.3053 116.292 49.956C116.687 50.6067 116.884 51.364 116.884 52.228C116.884 53.0707 116.687 53.8227 116.292 54.484C115.908 55.1453 115.369 55.668 114.676 56.052C113.993 56.4253 113.209 56.612 112.324 56.612ZM112.324 54.9C112.815 54.9 113.252 54.7933 113.636 54.58C114.02 54.3667 114.319 54.0573 114.532 53.652C114.756 53.2467 114.868 52.772 114.868 52.228C114.868 51.6733 114.756 51.1987 114.532 50.804C114.319 50.3987 114.02 50.0893 113.636 49.876C113.252 49.6627 112.82 49.556 112.34 49.556C111.849 49.556 111.412 49.6627 111.028 49.876C110.655 50.0893 110.356 50.3987 110.132 50.804C109.908 51.1987 109.796 51.6733 109.796 52.228C109.796 52.772 109.908 53.2467 110.132 53.652C110.356 54.0573 110.655 54.3667 111.028 54.58C111.412 54.7933 111.844 54.9 112.324 54.9ZM125.986 56.644C126.775 56.644 127.474 56.532 128.082 56.308C128.7 56.084 129.186 55.7747 129.538 55.38C129.89 54.9747 130.066 54.5107 130.066 53.988C130.066 53.3373 129.794 52.8253 129.25 52.452C128.706 52.068 127.959 51.876 127.01 51.876L126.946 52.308C127.5 52.308 127.991 52.2173 128.418 52.036C128.855 51.8547 129.196 51.604 129.442 51.284C129.698 50.9533 129.826 50.5853 129.826 50.18C129.826 49.6893 129.65 49.2627 129.298 48.9C128.946 48.5373 128.466 48.26 127.858 48.068C127.25 47.876 126.556 47.796 125.778 47.828C125.266 47.8387 124.748 47.9133 124.226 48.052C123.714 48.18 123.186 48.3667 122.642 48.612L123.154 50.084C123.623 49.8813 124.082 49.7267 124.53 49.62C124.988 49.5133 125.431 49.46 125.858 49.46C126.263 49.46 126.61 49.5027 126.898 49.588C127.186 49.6627 127.404 49.78 127.554 49.94C127.714 50.0893 127.794 50.2653 127.794 50.468C127.794 50.6707 127.73 50.8467 127.602 50.996C127.474 51.1453 127.287 51.2573 127.042 51.332C126.807 51.4067 126.519 51.444 126.178 51.444H124.69V52.788H126.338C126.882 52.788 127.298 52.8787 127.586 53.06C127.884 53.2307 128.034 53.4867 128.034 53.828C128.034 54.0627 127.943 54.2707 127.762 54.452C127.591 54.6333 127.346 54.772 127.026 54.868C126.706 54.9533 126.322 54.996 125.874 54.996C125.351 54.996 124.828 54.932 124.306 54.804C123.783 54.676 123.314 54.4947 122.898 54.26L122.338 55.748C122.85 56.036 123.42 56.26 124.049 56.42C124.69 56.5693 125.335 56.644 125.986 56.644ZM137.309 56.5V54.772L137.197 54.404V51.38C137.197 50.7933 137.021 50.34 136.669 50.02C136.317 49.6893 135.784 49.524 135.069 49.524C134.589 49.524 134.115 49.5987 133.645 49.748C133.187 49.8973 132.797 50.1053 132.477 50.372L131.693 48.916C132.152 48.564 132.696 48.3027 133.325 48.132C133.965 47.9507 134.627 47.86 135.309 47.86C136.547 47.86 137.501 48.1587 138.173 48.756C138.856 49.3427 139.197 50.2547 139.197 51.492V56.5H137.309ZM134.621 56.612C133.981 56.612 133.421 56.5053 132.941 56.292C132.461 56.068 132.088 55.764 131.821 55.38C131.565 54.9853 131.437 54.5427 131.437 54.052C131.437 53.572 131.549 53.14 131.773 52.756C132.008 52.372 132.387 52.068 132.909 51.844C133.432 51.62 134.125 51.508 134.989 51.508H137.469V52.836H135.133C134.451 52.836 133.992 52.948 133.757 53.172C133.523 53.3853 133.405 53.652 133.405 53.972C133.405 54.3347 133.549 54.6227 133.837 54.836C134.125 55.0493 134.525 55.156 135.037 55.156C135.528 55.156 135.965 55.044 136.349 54.82C136.744 54.596 137.027 54.2653 137.197 53.828L137.533 55.028C137.341 55.5293 136.995 55.9187 136.493 56.196C136.003 56.4733 135.379 56.612 134.621 56.612ZM149.902 56.612C149.027 56.612 148.249 56.4253 147.566 56.052C146.883 55.668 146.345 55.1453 145.95 54.484C145.555 53.8227 145.358 53.0707 145.358 52.228C145.358 51.3747 145.555 50.6227 145.95 49.972C146.345 49.3107 146.883 48.7933 147.566 48.42C148.249 48.0467 149.027 47.86 149.902 47.86C150.787 47.86 151.571 48.0467 152.254 48.42C152.947 48.7933 153.486 49.3053 153.87 49.956C154.265 50.6067 154.462 51.364 154.462 52.228C154.462 53.0707 154.265 53.8227 153.87 54.484C153.486 55.1453 152.947 55.668 152.254 56.052C151.571 56.4253 150.787 56.612 149.902 56.612ZM149.902 54.9C150.393 54.9 150.83 54.7933 151.214 54.58C151.598 54.3667 151.897 54.0573 152.11 53.652C152.334 53.2467 152.446 52.772 152.446 52.228C152.446 51.6733 152.334 51.1987 152.11 50.804C151.897 50.3987 151.598 50.0893 151.214 49.876C150.83 49.6627 150.398 49.556 149.918 49.556C149.427 49.556 148.99 49.6627 148.606 49.876C148.233 50.0893 147.934 50.3987 147.71 50.804C147.486 51.1987 147.374 51.6733 147.374 52.228C147.374 52.772 147.486 53.2467 147.71 53.652C147.934 54.0573 148.233 54.3667 148.606 54.58C148.99 54.7933 149.422 54.9 149.902 54.9ZM157.901 56.5V49.172L158.365 49.652H154.893V47.956H162.893V49.652H159.437L159.901 49.172V56.5H157.901ZM166.907 56.644C167.697 56.644 168.395 56.532 169.003 56.308C169.622 56.084 170.107 55.7747 170.459 55.38C170.811 54.9747 170.987 54.5107 170.987 53.988C170.987 53.3373 170.715 52.8253 170.171 52.452C169.627 52.068 168.881 51.876 167.931 51.876L167.867 52.308C168.422 52.308 168.913 52.2173 169.339 52.036C169.777 51.8547 170.118 51.604 170.363 51.284C170.619 50.9533 170.747 50.5853 170.747 50.18C170.747 49.6893 170.571 49.2627 170.219 48.9C169.867 48.5373 169.387 48.26 168.779 48.068C168.171 47.876 167.478 47.796 166.699 47.828C166.187 47.8387 165.67 47.9133 165.147 48.052C164.635 48.18 164.107 48.3667 163.563 48.612L164.075 50.084C164.545 49.8813 165.003 49.7267 165.451 49.62C165.91 49.5133 166.353 49.46 166.779 49.46C167.185 49.46 167.531 49.5027 167.819 49.588C168.107 49.6627 168.326 49.78 168.475 49.94C168.635 50.0893 168.715 50.2653 168.715 50.468C168.715 50.6707 168.651 50.8467 168.523 50.996C168.395 51.1453 168.209 51.2573 167.963 51.332C167.729 51.4067 167.441 51.444 167.099 51.444H165.611V52.788H167.259C167.803 52.788 168.219 52.8787 168.507 53.06C168.806 53.2307 168.955 53.4867 168.955 53.828C168.955 54.0627 168.865 54.2707 168.683 54.452C168.513 54.6333 168.267 54.772 167.947 54.868C167.627 54.9533 167.243 54.996 166.795 54.996C166.273 54.996 165.75 54.932 165.227 54.804C164.705 54.676 164.235 54.4947 163.819 54.26L163.259 55.748C163.771 56.036 164.342 56.26 164.971 56.42C165.611 56.5693 166.257 56.644 166.907 56.644ZM181.671 56.5V47.956H183.671V56.5H181.671ZM177.207 50.772C178.306 50.772 179.138 51.0173 179.703 51.508C180.279 51.9987 180.567 52.692 180.567 53.588C180.567 54.516 180.247 55.2413 179.607 55.764C178.978 56.276 178.082 56.5267 176.919 56.516L173.047 56.5V47.956H175.047V50.756L177.207 50.772ZM176.743 55.044C177.33 55.0547 177.778 54.932 178.087 54.676C178.396 54.42 178.551 54.0467 178.551 53.556C178.551 53.0653 178.396 52.7133 178.087 52.5C177.788 52.276 177.34 52.1587 176.743 52.148L175.047 52.132V55.028L176.743 55.044ZM186.36 56.5V47.956H190.536C191.57 47.956 192.381 48.148 192.968 48.532C193.565 48.916 193.864 49.46 193.864 50.164C193.864 50.8573 193.586 51.4013 193.032 51.796C192.477 52.18 191.741 52.372 190.824 52.372L191.064 51.876C192.098 51.876 192.866 52.068 193.368 52.452C193.88 52.8253 194.136 53.3747 194.136 54.1C194.136 54.8573 193.853 55.4493 193.288 55.876C192.722 56.292 191.864 56.5 190.712 56.5H186.36ZM188.264 55.044H190.552C191.096 55.044 191.506 54.9587 191.784 54.788C192.061 54.6067 192.2 54.3347 192.2 53.972C192.2 53.588 192.072 53.3053 191.816 53.124C191.56 52.9427 191.16 52.852 190.616 52.852H188.264V55.044ZM188.264 51.524H190.36C190.872 51.524 191.256 51.4333 191.512 51.252C191.778 51.06 191.912 50.7933 191.912 50.452C191.912 50.1 191.778 49.8387 191.512 49.668C191.256 49.4973 190.872 49.412 190.36 49.412H188.264V51.524ZM195.706 58.916L196.634 55.38L196.906 56.564C196.533 56.564 196.218 56.452 195.962 56.228C195.717 55.9933 195.594 55.6787 195.594 55.284C195.594 54.8787 195.717 54.5587 195.962 54.324C196.218 54.0787 196.527 53.956 196.89 53.956C197.263 53.956 197.573 54.0787 197.818 54.324C198.063 54.5693 198.186 54.8893 198.186 55.284C198.186 55.3907 198.175 55.508 198.154 55.636C198.133 55.7533 198.095 55.892 198.042 56.052C197.999 56.212 197.925 56.4147 197.818 56.66L197.002 58.916H195.706ZM208.402 56.612C207.527 56.612 206.749 56.4253 206.066 56.052C205.383 55.668 204.845 55.1453 204.45 54.484C204.055 53.8227 203.858 53.0707 203.858 52.228C203.858 51.3747 204.055 50.6227 204.45 49.972C204.845 49.3107 205.383 48.7933 206.066 48.42C206.749 48.0467 207.527 47.86 208.402 47.86C209.287 47.86 210.071 48.0467 210.754 48.42C211.447 48.7933 211.986 49.3053 212.37 49.956C212.765 50.6067 212.962 51.364 212.962 52.228C212.962 53.0707 212.765 53.8227 212.37 54.484C211.986 55.1453 211.447 55.668 210.754 56.052C210.071 56.4253 209.287 56.612 208.402 56.612ZM208.402 54.9C208.893 54.9 209.33 54.7933 209.714 54.58C210.098 54.3667 210.397 54.0573 210.61 53.652C210.834 53.2467 210.946 52.772 210.946 52.228C210.946 51.6733 210.834 51.1987 210.61 50.804C210.397 50.3987 210.098 50.0893 209.714 49.876C209.33 49.6627 208.898 49.556 208.418 49.556C207.927 49.556 207.49 49.6627 207.106 49.876C206.733 50.0893 206.434 50.3987 206.21 50.804C205.986 51.1987 205.874 51.6733 205.874 52.228C205.874 52.772 205.986 53.2467 206.21 53.652C206.434 54.0573 206.733 54.3667 207.106 54.58C207.49 54.7933 207.922 54.9 208.402 54.9ZM214.938 56.5V47.956H216.938V51.428H221.242V47.956H223.242V56.5H221.242V53.124H216.938V56.5H214.938ZM45.344 76.5V67.956H53.536V76.5H51.552V69.188L52.016 69.652H46.88L47.344 69.188V76.5H45.344ZM60.0426 76.612C59.168 76.612 58.3893 76.4253 57.7066 76.052C57.024 75.668 56.4853 75.1453 56.0906 74.484C55.696 73.8227 55.4986 73.0707 55.4986 72.228C55.4986 71.3747 55.696 70.6227 56.0906 69.972C56.4853 69.3107 57.024 68.7933 57.7066 68.42C58.3893 68.0467 59.168 67.86 60.0426 67.86C60.928 67.86 61.712 68.0467 62.3946 68.42C63.088 68.7933 63.6266 69.3053 64.0106 69.956C64.4053 70.6067 64.6026 71.364 64.6026 72.228C64.6026 73.0707 64.4053 73.8227 64.0106 74.484C63.6266 75.1453 63.088 75.668 62.3946 76.052C61.712 76.4253 60.928 76.612 60.0426 76.612ZM60.0426 74.9C60.5333 74.9 60.9706 74.7933 61.3546 74.58C61.7386 74.3667 62.0373 74.0573 62.2506 73.652C62.4746 73.2467 62.5866 72.772 62.5866 72.228C62.5866 71.6733 62.4746 71.1987 62.2506 70.804C62.0373 70.3987 61.7386 70.0893 61.3546 69.876C60.9706 69.6627 60.5386 69.556 60.0586 69.556C59.568 69.556 59.1306 69.6627 58.7466 69.876C58.3733 70.0893 58.0746 70.3987 57.8506 70.804C57.6266 71.1987 57.5146 71.6733 57.5146 72.228C57.5146 72.772 57.6266 73.2467 57.8506 73.652C58.0746 74.0573 58.3733 74.3667 58.7466 74.58C59.1306 74.7933 59.5626 74.9 60.0426 74.9ZM66.5784 76.5V67.956H68.6744L72.1144 74.02H71.2824L74.8984 67.956H76.7704L76.7864 76.5H74.9784V70.1L75.2984 70.308L72.0984 75.604H71.2344L68.0184 70.164L68.4024 70.068V76.5H66.5784ZM83.277 76.612C82.4023 76.612 81.6237 76.4253 80.941 76.052C80.2583 75.668 79.7197 75.1453 79.325 74.484C78.9303 73.8227 78.733 73.0707 78.733 72.228C78.733 71.3747 78.9303 70.6227 79.325 69.972C79.7197 69.3107 80.2583 68.7933 80.941 68.42C81.6237 68.0467 82.4023 67.86 83.277 67.86C84.1623 67.86 84.9463 68.0467 85.629 68.42C86.3223 68.7933 86.861 69.3053 87.245 69.956C87.6397 70.6067 87.837 71.364 87.837 72.228C87.837 73.0707 87.6397 73.8227 87.245 74.484C86.861 75.1453 86.3223 75.668 85.629 76.052C84.9463 76.4253 84.1623 76.612 83.277 76.612ZM83.277 74.9C83.7677 74.9 84.205 74.7933 84.589 74.58C84.973 74.3667 85.2717 74.0573 85.485 73.652C85.709 73.2467 85.821 72.772 85.821 72.228C85.821 71.6733 85.709 71.1987 85.485 70.804C85.2717 70.3987 84.973 70.0893 84.589 69.876C84.205 69.6627 83.773 69.556 83.293 69.556C82.8023 69.556 82.365 69.6627 81.981 69.876C81.6077 70.0893 81.309 70.3987 81.085 70.804C80.861 71.1987 80.749 71.6733 80.749 72.228C80.749 72.772 80.861 73.2467 81.085 73.652C81.309 74.0573 81.6077 74.3667 81.981 74.58C82.365 74.7933 82.797 74.9 83.277 74.9ZM99.7235 76.5L97.2275 72.404L98.8595 71.396L102.108 76.5H99.7235ZM95.6115 73.076V71.412H98.4755V73.076H95.6115ZM99.0515 72.468L97.1635 72.244L99.7555 67.956H101.884L99.0515 72.468ZM90.6995 76.5H88.3315L91.5635 71.396L93.1955 72.404L90.6995 76.5ZM96.2035 76.5H94.2195V67.956H96.2035V76.5ZM94.8115 73.076H91.9635V71.412H94.8115V73.076ZM91.3715 72.468L88.5395 67.956H90.6675L93.2435 72.244L91.3715 72.468ZM107.297 76.612C106.347 76.612 105.515 76.4253 104.801 76.052C104.097 75.668 103.547 75.1453 103.153 74.484C102.769 73.8227 102.577 73.0707 102.577 72.228C102.577 71.3747 102.763 70.6227 103.137 69.972C103.521 69.3107 104.043 68.7933 104.705 68.42C105.377 68.0467 106.139 67.86 106.993 67.86C107.825 67.86 108.566 68.0413 109.217 68.404C109.867 68.7667 110.379 69.2787 110.753 69.94C111.126 70.6013 111.313 71.38 111.313 72.276C111.313 72.3613 111.307 72.4573 111.297 72.564C111.297 72.6707 111.291 72.772 111.281 72.868H104.161V71.54H110.225L109.441 71.956C109.451 71.4653 109.35 71.0333 109.137 70.66C108.923 70.2867 108.63 69.9933 108.257 69.78C107.894 69.5667 107.473 69.46 106.993 69.46C106.502 69.46 106.07 69.5667 105.697 69.78C105.334 69.9933 105.046 70.292 104.833 70.676C104.63 71.0493 104.529 71.492 104.529 72.004V72.324C104.529 72.836 104.646 73.2893 104.881 73.684C105.115 74.0787 105.446 74.3827 105.873 74.596C106.299 74.8093 106.79 74.916 107.345 74.916C107.825 74.916 108.257 74.8413 108.641 74.692C109.025 74.5427 109.366 74.308 109.665 73.988L110.737 75.22C110.353 75.668 109.867 76.0147 109.281 76.26C108.705 76.4947 108.043 76.612 107.297 76.612ZM114.948 76.5V69.172L115.412 69.652H111.94V67.956H119.94V69.652H116.484L116.948 69.172V76.5H114.948ZM125.813 76.5V67.956H127.813V71.428H132.117V67.956H134.117V76.5H132.117V73.124H127.813V76.5H125.813ZM141.981 76.5V74.772L141.869 74.404V71.38C141.869 70.7933 141.693 70.34 141.341 70.02C140.989 69.6893 140.456 69.524 139.741 69.524C139.261 69.524 138.786 69.5987 138.317 69.748C137.858 69.8973 137.469 70.1053 137.149 70.372L136.365 68.916C136.824 68.564 137.368 68.3027 137.997 68.132C138.637 67.9507 139.298 67.86 139.981 67.86C141.218 67.86 142.173 68.1587 142.845 68.756C143.528 69.3427 143.869 70.2547 143.869 71.492V76.5H141.981ZM139.293 76.612C138.653 76.612 138.093 76.5053 137.613 76.292C137.133 76.068 136.76 75.764 136.493 75.38C136.237 74.9853 136.109 74.5427 136.109 74.052C136.109 73.572 136.221 73.14 136.445 72.756C136.68 72.372 137.058 72.068 137.581 71.844C138.104 71.62 138.797 71.508 139.661 71.508H142.141V72.836H139.805C139.122 72.836 138.664 72.948 138.429 73.172C138.194 73.3853 138.077 73.652 138.077 73.972C138.077 74.3347 138.221 74.6227 138.509 74.836C138.797 75.0493 139.197 75.156 139.709 75.156C140.2 75.156 140.637 75.044 141.021 74.82C141.416 74.596 141.698 74.2653 141.869 73.828L142.205 75.028C142.013 75.5293 141.666 75.9187 141.165 76.196C140.674 76.4733 140.05 76.612 139.293 76.612ZM146.344 76.5V67.956H148.44L151.88 74.02H151.048L154.664 67.956H156.536L156.552 76.5H154.744V70.1L155.064 70.308L151.864 75.604H151L147.784 70.164L148.168 70.068V76.5H146.344ZM167.545 76.612C166.649 76.612 165.849 76.4253 165.145 76.052C164.451 75.668 163.907 75.1453 163.513 74.484C163.118 73.8227 162.921 73.0707 162.921 72.228C162.921 71.3747 163.118 70.6227 163.513 69.972C163.907 69.3107 164.451 68.7933 165.145 68.42C165.849 68.0467 166.649 67.86 167.545 67.86C168.377 67.86 169.107 68.0307 169.737 68.372C170.377 68.7027 170.862 69.1933 171.193 69.844L169.657 70.74C169.401 70.3347 169.086 70.036 168.713 69.844C168.35 69.652 167.955 69.556 167.529 69.556C167.038 69.556 166.595 69.6627 166.201 69.876C165.806 70.0893 165.497 70.3987 165.273 70.804C165.049 71.1987 164.937 71.6733 164.937 72.228C164.937 72.7827 165.049 73.2627 165.273 73.668C165.497 74.0627 165.806 74.3667 166.201 74.58C166.595 74.7933 167.038 74.9 167.529 74.9C167.955 74.9 168.35 74.804 168.713 74.612C169.086 74.42 169.401 74.1213 169.657 73.716L171.193 74.612C170.862 75.252 170.377 75.748 169.737 76.1C169.107 76.4413 168.377 76.612 167.545 76.612ZM174.667 76.5V69.172L175.131 69.652H171.659V67.956H179.659V69.652H176.203L176.667 69.172V76.5H174.667ZM186.294 76.5V74.772L186.182 74.404V71.38C186.182 70.7933 186.006 70.34 185.654 70.02C185.302 69.6893 184.768 69.524 184.054 69.524C183.574 69.524 183.099 69.5987 182.63 69.748C182.171 69.8973 181.782 70.1053 181.462 70.372L180.678 68.916C181.136 68.564 181.68 68.3027 182.31 68.132C182.95 67.9507 183.611 67.86 184.294 67.86C185.531 67.86 186.486 68.1587 187.158 68.756C187.84 69.3427 188.182 70.2547 188.182 71.492V76.5H186.294ZM183.606 76.612C182.966 76.612 182.406 76.5053 181.926 76.292C181.446 76.068 181.072 75.764 180.806 75.38C180.55 74.9853 180.422 74.5427 180.422 74.052C180.422 73.572 180.534 73.14 180.758 72.756C180.992 72.372 181.371 72.068 181.894 71.844C182.416 71.62 183.11 71.508 183.974 71.508H186.454V72.836H184.118C183.435 72.836 182.976 72.948 182.742 73.172C182.507 73.3853 182.39 73.652 182.39 73.972C182.39 74.3347 182.534 74.6227 182.822 74.836C183.11 75.0493 183.51 75.156 184.022 75.156C184.512 75.156 184.95 75.044 185.334 74.82C185.728 74.596 186.011 74.2653 186.182 73.828L186.518 75.028C186.326 75.5293 185.979 75.9187 185.478 76.196C184.987 76.4733 184.363 76.612 183.606 76.612ZM192.433 76.5V69.172L192.897 69.652H189.425V67.956H197.425V69.652H193.969L194.433 69.172V76.5H192.433ZM203.163 70.772C204.262 70.772 205.099 71.0173 205.675 71.508C206.251 71.9987 206.539 72.692 206.539 73.588C206.539 74.516 206.219 75.2413 205.579 75.764C204.939 76.276 204.038 76.5267 202.875 76.516L198.875 76.5V67.956H200.875V70.756L203.163 70.772ZM202.699 75.044C203.286 75.0547 203.734 74.932 204.043 74.676C204.353 74.42 204.507 74.0467 204.507 73.556C204.507 73.0653 204.353 72.7133 204.043 72.5C203.745 72.276 203.297 72.1587 202.699 72.148L200.875 72.132V75.028L202.699 75.044ZM44.096 96.484L44.192 94.804C44.2667 94.8147 44.336 94.8253 44.4 94.836C44.464 94.8467 44.5227 94.852 44.576 94.852C44.9067 94.852 45.1627 94.7507 45.344 94.548C45.5253 94.3453 45.6587 94.0733 45.744 93.732C45.84 93.38 45.904 92.9907 45.936 92.564C45.9787 92.1267 46.0107 91.6893 46.032 91.252L46.176 87.956H53.088V96.5H51.088V89.108L51.552 89.652H47.488L47.92 89.092L47.808 91.348C47.776 92.1053 47.712 92.8093 47.616 93.46C47.5307 94.1 47.392 94.66 47.2 95.14C47.0187 95.62 46.7627 95.9933 46.432 96.26C46.112 96.5267 45.7013 96.66 45.2 96.66C45.04 96.66 44.864 96.644 44.672 96.612C44.4907 96.58 44.2987 96.5373 44.096 96.484ZM56.5495 99.716C56.1335 99.716 55.7175 99.6467 55.3015 99.508C54.8855 99.3693 54.5388 99.1773 54.2615 98.932L55.0615 97.46C55.2642 97.6413 55.4935 97.7853 55.7495 97.892C56.0055 97.9987 56.2668 98.052 56.5335 98.052C56.8962 98.052 57.1895 97.9613 57.4135 97.78C57.6375 97.5987 57.8455 97.2947 58.0375 96.868L58.5335 95.748L58.6935 95.508L61.9255 87.956H63.8455L59.8455 97.188C59.5788 97.828 59.2802 98.3347 58.9495 98.708C58.6295 99.0813 58.2668 99.3427 57.8615 99.492C57.4668 99.6413 57.0295 99.716 56.5495 99.716ZM58.3095 96.804L54.4535 87.956H56.5335L59.6695 95.332L58.3095 96.804ZM70.6266 93.124C70.2213 93.316 69.7893 93.476 69.3306 93.604C68.8826 93.7213 68.408 93.78 67.9066 93.78C66.8293 93.78 65.992 93.5293 65.3946 93.028C64.7973 92.5267 64.4986 91.748 64.4986 90.692V87.956H66.4986V90.564C66.4986 91.1293 66.6586 91.54 66.9786 91.796C67.3093 92.052 67.7626 92.18 68.3386 92.18C68.7226 92.18 69.1066 92.132 69.4906 92.036C69.8746 91.94 70.2533 91.8067 70.6266 91.636V93.124ZM70.4826 96.5V87.956H72.4826V96.5H70.4826ZM80.9161 94.804L80.4841 95.284V87.956H82.4841V95.284L82.0041 94.804H86.2281L85.7641 95.284V87.956H87.7641V96.5H75.1721V87.956H77.1721V95.284L76.7081 94.804H80.9161ZM94.4374 96.612C93.488 96.612 92.656 96.4253 91.9414 96.052C91.2374 95.668 90.688 95.1453 90.2934 94.484C89.9094 93.8227 89.7174 93.0707 89.7174 92.228C89.7174 91.3747 89.904 90.6227 90.2774 89.972C90.6614 89.3107 91.184 88.7933 91.8454 88.42C92.5174 88.0467 93.28 87.86 94.1334 87.86C94.9654 87.86 95.7067 88.0413 96.3574 88.404C97.008 88.7667 97.52 89.2787 97.8934 89.94C98.2667 90.6013 98.4534 91.38 98.4534 92.276C98.4534 92.3613 98.448 92.4573 98.4374 92.564C98.4374 92.6707 98.432 92.772 98.4214 92.868H91.3014V91.54H97.3654L96.5814 91.956C96.592 91.4653 96.4907 91.0333 96.2774 90.66C96.064 90.2867 95.7707 89.9933 95.3974 89.78C95.0347 89.5667 94.6134 89.46 94.1334 89.46C93.6427 89.46 93.2107 89.5667 92.8374 89.78C92.4747 89.9933 92.1867 90.292 91.9734 90.676C91.7707 91.0493 91.6694 91.492 91.6694 92.004V92.324C91.6694 92.836 91.7867 93.2893 92.0214 93.684C92.256 94.0787 92.5867 94.3827 93.0134 94.596C93.44 94.8093 93.9307 94.916 94.4854 94.916C94.9654 94.916 95.3974 94.8413 95.7814 94.692C96.1654 94.5427 96.5067 94.308 96.8054 93.988L97.8774 95.22C97.4934 95.668 97.008 96.0147 96.4214 96.26C95.8454 96.4947 95.184 96.612 94.4374 96.612ZM100.737 92.788L100.353 85.3H102.721L102.321 92.788H100.737ZM101.537 96.612C101.164 96.612 100.854 96.4893 100.609 96.244C100.364 95.9987 100.241 95.7053 100.241 95.364C100.241 95.0227 100.364 94.7347 100.609 94.5C100.854 94.2547 101.164 94.132 101.537 94.132C101.91 94.132 102.214 94.2547 102.449 94.5C102.684 94.7347 102.801 95.0227 102.801 95.364C102.801 95.7053 102.684 95.9987 102.449 96.244C102.214 96.4893 101.91 96.612 101.537 96.612Z" fill="#313E60"/>
<path d="M201 124.471L217.971 107.5L234.941 124.471L223.627 135.784C220.503 138.909 215.438 138.909 212.314 135.784L201 124.471Z" fill="white"/>
</g>
<defs>
<filter id="filter0_dd_4921_16554" x="0" y="0.5" width="294" height="163" filterUnits="userSpaceOnUse" color-interpolation-filters="sRGB">
<feFlood flood-opacity="0" result="BackgroundImageFix"/>
<feColorMatrix in="SourceAlpha" type="matrix" values="0 0 0 0 0 0 0 0 0 0 0 0 0 0 0 0 0 0 127 0" result="hardAlpha"/>
<feOffset dy="2"/>
<feGaussianBlur stdDeviation="5"/>
<feComposite in2="hardAlpha" operator="out"/>
<feColorMatrix type="matrix" values="0 0 0 0 0 0 0 0 0 0 0 0 0 0 0 0 0 0 0.06 0"/>
<feBlend mode="normal" in2="BackgroundImageFix" result="effect1_dropShadow_4921_16554"/>
<feColorMatrix in="SourceAlpha" type="matrix" values="0 0 0 0 0 0 0 0 0 0 0 0 0 0 0 0 0 0 127 0" result="hardAlpha"/>
<feOffset dy="4"/>
<feGaussianBlur stdDeviation="10"/>
<feComposite in2="hardAlpha" operator="out"/>
<feColorMatrix type="matrix" values="0 0 0 0 0.219608 0 0 0 0 0.337255 0 0 0 0 0.356863 0 0 0 0.1 0"/>
<feBlend mode="normal" in2="effect1_dropShadow_4921_16554" result="effect2_dropShadow_4921_16554"/>
<feBlend mode="normal" in="SourceGraphic" in2="effect2_dropShadow_4921_16554" result="shape"/>
</filter>
</defs>
</svg>
