<svg width="416" height="546" viewBox="0 0 416 546" fill="none" xmlns="http://www.w3.org/2000/svg">
<g clip-path="url(#clip0_4220_15578)">
<path d="M177.785 494.143C190.932 494.143 203.254 494.688 213.904 495.651C189.911 498.532 165.658 498.532 141.665 495.651C152.305 494.645 164.659 494.143 177.785 494.143Z" fill="#647797" stroke="#35425E" stroke-width="2" stroke-linecap="round" stroke-linejoin="round"/>
<path d="M239.502 486.375V486.514C239.288 490.269 229.226 493.606 213.883 495.65C189.89 498.531 165.637 498.531 141.644 495.65C126.311 493.606 116.26 490.301 116.035 486.514V486.375C116.08 485.882 116.234 485.404 116.486 484.977C116.738 484.55 117.082 484.183 117.492 483.904L117.642 483.787C123.975 478.727 148.501 474.951 177.763 474.951C207.025 474.951 231.562 478.727 237.905 483.787L238.066 483.904C238.473 484.186 238.812 484.553 239.06 484.98C239.308 485.407 239.459 485.883 239.502 486.375Z" fill="#647797" stroke="#35425E" stroke-width="2" stroke-linecap="round" stroke-linejoin="round"/>
<path d="M250.688 505.523C250.6 504.239 250.37 502.969 250.002 501.736C248.693 497.85 246.85 494.164 244.527 490.782C242.849 488.097 240.665 485.761 238.098 483.904C238.505 484.185 238.844 484.553 239.092 484.98C239.34 485.407 239.491 485.883 239.534 486.375V486.514C239.32 490.269 229.258 493.606 213.915 495.649C189.921 498.53 165.669 498.53 141.676 495.649C126.343 493.606 116.292 490.301 116.067 486.514V486.375C116.112 485.882 116.266 485.404 116.518 484.977C116.77 484.55 117.114 484.183 117.524 483.904C111.095 488.237 105.481 497.81 104.892 505.576C104.892 511.887 137.529 517 177.752 517C217.976 517 250.667 511.887 250.667 505.576L250.688 505.523Z" fill="#9DB0CE" stroke="#35425E" stroke-width="2" stroke-linecap="round" stroke-linejoin="round"/>
<path d="M188.616 463.35V485.278C188.616 487.043 183.752 488.487 177.752 488.487C171.751 488.487 166.897 487.065 166.897 485.278V463.35H188.616Z" fill="#9DB0CE" stroke="#35425E" stroke-width="2" stroke-linecap="round" stroke-linejoin="round"/>
<path d="M188.616 462.995C188.616 464.247 183.752 465.263 177.752 465.263C171.751 465.263 166.897 464.247 166.897 462.995C166.897 461.744 171.762 460.717 177.752 460.717C183.741 460.717 188.616 461.733 188.616 462.995Z" fill="#35425E" stroke="#35425E" stroke-width="2" stroke-linecap="round" stroke-linejoin="round"/>
<path d="M184.783 326.586V462.703C184.783 463.056 181.654 463.345 177.797 463.345C173.939 463.345 170.811 463.056 170.811 462.703V326.586H184.783Z" fill="#647797" stroke="#35425E" stroke-width="2" stroke-linecap="round" stroke-linejoin="round"/>
<path d="M170.809 394.684C169.169 394.972 168.162 395.379 168.162 395.828C168.162 396.277 169.169 396.673 170.809 396.973C173.108 397.336 175.434 397.508 177.763 397.486C180.113 397.514 182.462 397.335 184.781 396.951C186.377 396.663 187.352 396.267 187.352 395.828C187.352 395.39 186.377 394.994 184.781 394.694" fill="#647797"/>
<path d="M170.809 394.684C169.169 394.972 168.162 395.379 168.162 395.828C168.162 396.277 169.169 396.673 170.809 396.973C173.108 397.336 175.434 397.508 177.763 397.486C180.113 397.514 182.462 397.335 184.781 396.951C186.377 396.663 187.352 396.267 187.352 395.828C187.352 395.39 186.377 394.994 184.781 394.694" stroke="#35425E" stroke-width="2" stroke-linecap="round" stroke-linejoin="round"/>
<path d="M170.809 400.074C169.169 400.363 168.162 400.769 168.162 401.219C168.162 401.668 169.169 402.064 170.809 402.363C173.108 402.726 175.434 402.898 177.763 402.877C180.113 402.904 182.462 402.725 184.781 402.342C186.377 402.053 187.352 401.657 187.352 401.272C187.352 400.887 186.377 400.438 184.781 400.138" fill="#647797"/>
<path d="M170.809 400.074C169.169 400.363 168.162 400.769 168.162 401.219C168.162 401.668 169.169 402.064 170.809 402.363C173.108 402.726 175.434 402.898 177.763 402.877C180.113 402.904 182.462 402.725 184.781 402.342C186.377 402.053 187.352 401.657 187.352 401.272C187.352 400.887 186.377 400.438 184.781 400.138" stroke="#35425E" stroke-width="2" stroke-linecap="round" stroke-linejoin="round"/>
<path d="M170.809 405.455C169.169 405.744 168.162 406.15 168.162 406.6C168.162 407.049 169.169 407.445 170.809 407.744C173.108 408.107 175.434 408.279 177.763 408.258C180.113 408.285 182.462 408.106 184.781 407.723C186.377 407.434 187.352 407.038 187.352 406.6C187.352 406.161 186.377 405.765 184.781 405.466" fill="#647797"/>
<path d="M170.809 405.455C169.169 405.744 168.162 406.15 168.162 406.6C168.162 407.049 169.169 407.445 170.809 407.744C173.108 408.107 175.434 408.279 177.763 408.258C180.113 408.285 182.462 408.106 184.781 407.723C186.377 407.434 187.352 407.038 187.352 406.6C187.352 406.161 186.377 405.765 184.781 405.466" stroke="#35425E" stroke-width="2" stroke-linecap="round" stroke-linejoin="round"/>
<path d="M170.809 410.848C169.169 411.136 168.162 411.543 168.162 411.992C168.162 412.441 169.169 412.837 170.809 413.137C173.108 413.5 175.434 413.671 177.763 413.65C180.113 413.677 182.462 413.498 184.781 413.115C186.377 412.826 187.352 412.431 187.352 412.046C187.352 411.661 186.377 411.211 184.781 410.912" fill="#647797"/>
<path d="M170.809 410.848C169.169 411.136 168.162 411.543 168.162 411.992C168.162 412.441 169.169 412.837 170.809 413.137C173.108 413.5 175.434 413.671 177.763 413.65C180.113 413.677 182.462 413.498 184.781 413.115C186.377 412.826 187.352 412.431 187.352 412.046C187.352 411.661 186.377 411.211 184.781 410.912" stroke="#35425E" stroke-width="2" stroke-linecap="round" stroke-linejoin="round"/>
<path d="M170.809 416.227C169.169 416.515 168.162 416.922 168.162 417.371C168.162 417.82 169.169 418.216 170.809 418.516C173.108 418.878 175.434 419.05 177.763 419.029C180.113 419.056 182.462 418.877 184.781 418.494C186.377 418.205 187.352 417.81 187.352 417.371C187.352 416.933 186.377 416.537 184.781 416.237" fill="#647797"/>
<path d="M170.809 416.227C169.169 416.515 168.162 416.922 168.162 417.371C168.162 417.82 169.169 418.216 170.809 418.516C173.108 418.878 175.434 419.05 177.763 419.029C180.113 419.056 182.462 418.877 184.781 418.494C186.377 418.205 187.352 417.81 187.352 417.371C187.352 416.933 186.377 416.537 184.781 416.237" stroke="#35425E" stroke-width="2" stroke-linecap="round" stroke-linejoin="round"/>
<path d="M170.809 421.619C169.169 421.908 168.162 422.314 168.162 422.764C168.162 423.213 169.169 423.609 170.809 423.908C173.108 424.271 175.434 424.443 177.763 424.422C180.113 424.449 182.462 424.27 184.781 423.887C186.377 423.598 187.352 423.202 187.352 422.764C187.352 422.325 186.377 421.929 184.781 421.63" fill="#647797"/>
<path d="M170.809 421.619C169.169 421.908 168.162 422.314 168.162 422.764C168.162 423.213 169.169 423.609 170.809 423.908C173.108 424.271 175.434 424.443 177.763 424.422C180.113 424.449 182.462 424.27 184.781 423.887C186.377 423.598 187.352 423.202 187.352 422.764C187.352 422.325 186.377 421.929 184.781 421.63" stroke="#35425E" stroke-width="2" stroke-linecap="round" stroke-linejoin="round"/>
<path d="M20.3639 212.689L20.2139 214.636C20.2139 213.994 20.2139 213.331 20.2889 212.7L20.3639 212.689Z" fill="#647797" stroke="#35425E" stroke-width="2" stroke-linecap="round" stroke-linejoin="round"/>
<path d="M294.619 202.002L303.405 255.176C307.135 277.793 301.715 300.963 288.338 319.592C274.96 338.22 254.719 350.783 232.066 354.517L166.116 365.374C159.391 366.489 152.558 366.805 145.758 366.316C142.523 366.09 139.303 365.679 136.115 365.086C127.308 363.426 118.81 360.416 110.924 356.164C109.853 355.608 108.781 355.02 107.795 354.41C96.9408 347.983 87.6288 339.259 80.5147 328.853C73.4006 318.446 68.6573 306.61 66.6185 294.176L57.8216 241.002C54.0851 218.386 59.4993 195.215 72.8734 176.583C86.2475 157.952 106.486 145.386 129.139 141.65L195.089 130.782C201.044 129.808 207.083 129.45 213.111 129.712H213.872C218.271 129.927 222.646 130.492 226.955 131.402H227.019L227.244 131.456C244.275 135.093 259.813 143.769 271.832 156.353C283.85 168.938 291.791 184.845 294.619 202.002Z" fill="#BED0EA" stroke="#35425E" stroke-width="2" stroke-miterlimit="10"/>
<path d="M207.227 166.719L144.325 177.081C111.482 182.491 89.2517 213.456 94.671 246.244L99.8172 277.379C105.237 310.166 136.254 332.36 169.096 326.949L231.999 316.587C264.841 311.177 287.072 280.211 281.653 247.424L276.507 216.289C271.087 183.502 240.07 161.308 207.227 166.719Z" fill="#FFFCF5" stroke="#35425E" stroke-width="2" stroke-linecap="round" stroke-linejoin="round"/>
<path d="M258.788 328.332C259.001 329.624 258.826 330.95 258.285 332.142C257.743 333.335 256.86 334.34 255.746 335.032C254.632 335.723 253.338 336.069 252.027 336.026C250.717 335.984 249.448 335.554 248.382 334.791C247.315 334.029 246.5 332.968 246.037 331.743C245.575 330.518 245.487 329.183 245.784 327.908C246.081 326.632 246.751 325.474 247.707 324.578C248.664 323.683 249.865 323.09 251.159 322.876C252.019 322.734 252.898 322.762 253.747 322.959C254.596 323.157 255.398 323.519 256.106 324.026C256.815 324.532 257.416 325.173 257.876 325.912C258.336 326.651 258.646 327.473 258.788 328.332Z" fill="#FFFCF5" stroke="#35425E" stroke-width="2" stroke-linecap="round" stroke-linejoin="round"/>
<path d="M122.325 361.307L99.1384 354.739L85.2091 350.792C80.4154 348.987 75.7902 346.764 71.387 344.149C60.5214 337.728 51.1977 329.007 44.0723 318.601C36.947 308.194 32.1932 296.354 30.1458 283.916L29.4814 279.883L64.1545 291.542C64.8567 291.778 65.5723 291.97 66.2975 292.12L66.6404 294.174C68.6792 306.607 73.4225 318.444 80.5366 328.85C87.6507 339.257 96.9627 347.981 107.817 354.408C108.889 355.017 109.885 355.606 110.946 356.162C114.608 358.152 118.412 359.871 122.325 361.307Z" fill="#35425E" stroke="#35425E" stroke-width="2" stroke-miterlimit="10"/>
<path d="M227.246 131.51L227.021 131.456H226.956C222.647 130.546 218.273 129.981 213.873 129.766H213.113C207.084 129.503 201.045 129.862 195.09 130.836L129.141 141.65C108.561 145.039 89.899 155.731 76.5855 171.759C63.272 187.788 56.2023 208.076 56.6766 228.894C56.1301 228.808 55.6051 228.69 55.0479 228.562L20.2677 220.112C20.1927 218.282 20.1712 216.453 20.2677 214.635C20.2677 213.993 20.2677 213.33 20.3427 212.699C21.2592 192.918 28.9509 174.051 42.1314 159.253C55.312 144.455 73.1821 134.623 92.7533 131.403L158.703 120.535C164.653 119.555 170.69 119.197 176.715 119.465C181.369 119.669 185.999 120.252 190.558 121.209H190.622C194.949 122.119 199.197 123.363 203.33 124.931L227.246 131.51Z" fill="#35425E" stroke="#35425E" stroke-width="2" stroke-miterlimit="10"/>
<path d="M80.7521 235.31L88.3168 281.082C88.5068 282.233 88.468 283.409 88.2025 284.545C87.937 285.68 87.4501 286.752 86.7695 287.7C86.089 288.648 85.2281 289.452 84.2361 290.068C83.244 290.683 82.1403 291.097 80.9879 291.287L74.4304 292.357C71.7155 292.811 68.9376 292.727 66.255 292.111C65.5297 291.961 64.8141 291.768 64.112 291.533L29.4925 279.884L24.0494 278.066C23.2628 277.794 22.564 277.316 22.0266 276.682C21.4892 276.048 21.133 275.28 20.9957 274.461L12.7988 224.849L12.606 223.726V223.544C12.1991 221.084 12.7828 218.563 14.23 216.531C15.6772 214.5 17.8704 213.121 20.3313 212.697C20.3313 213.328 20.3313 213.992 20.2563 214.633C20.1813 215.275 20.2563 216.217 20.2563 217.008C20.2651 217.892 20.5692 218.748 21.1204 219.44C21.6717 220.131 22.4385 220.62 23.2993 220.827L55.1116 228.561C55.6473 228.689 56.1831 228.807 56.7402 228.892C58.7828 229.213 60.8604 229.245 62.912 228.989L70.8838 227.919C73.1665 227.64 75.4686 228.254 77.308 229.632C79.1475 231.01 80.3817 233.045 80.7521 235.31Z" fill="#647797" stroke="#35425E" stroke-width="2" stroke-linecap="round" stroke-linejoin="round"/>
<path d="M196.869 137.446L197.522 141.447C197.752 142.844 197.417 144.274 196.591 145.425C195.766 146.576 194.517 147.354 193.119 147.587L131.873 157.695C130.474 157.921 129.042 157.584 127.891 156.758C126.74 155.932 125.964 154.684 125.733 153.288L124.983 148.796C124.682 146.968 123.886 145.257 122.681 143.849C121.476 142.44 119.908 141.388 118.147 140.805L97.4139 133.927C92.8418 132.418 87.9249 132.291 83.2811 133.563C83.223 132.354 83.6125 131.166 84.3751 130.225C85.1378 129.284 86.2205 128.656 87.417 128.461L148.438 118.406C152.613 117.719 156.885 117.905 160.985 118.951L189.347 129.274C191.258 129.764 192.986 130.797 194.321 132.247C195.656 133.698 196.541 135.504 196.869 137.446Z" fill="#647797" stroke="#35425E" stroke-width="2" stroke-linecap="round" stroke-linejoin="round"/>
<path d="M303.341 254.298L301.681 254.94C300.825 255.081 299.95 255.052 299.106 254.855C298.262 254.658 297.464 254.297 296.76 253.792C296.055 253.287 295.457 252.649 295 251.914C294.543 251.178 294.235 250.36 294.095 249.506L285.63 198.343C285.345 196.617 285.758 194.848 286.779 193.426C287.8 192.004 289.344 191.045 291.073 190.759C291.667 190.531 292.304 190.439 292.938 190.487C293.572 190.536 294.187 190.725 294.739 191.04C295.291 191.355 295.765 191.79 296.128 192.311C296.491 192.832 296.734 193.427 296.838 194.054L306.02 249.677C306.164 250.636 305.978 251.616 305.491 252.456C305.005 253.296 304.247 253.945 303.341 254.298Z" fill="#647797" stroke="#35425E" stroke-width="2" stroke-linecap="round" stroke-linejoin="round"/>
<path d="M42.3286 261.604C45.388 261.604 47.8682 259.128 47.8682 256.073C47.8682 253.019 45.388 250.543 42.3286 250.543C39.2692 250.543 36.7891 253.019 36.7891 256.073C36.7891 259.128 39.2692 261.604 42.3286 261.604Z" fill="#BED0EA" stroke="#35425E" stroke-width="2" stroke-linecap="round" stroke-linejoin="round"/>
<path d="M84.4588 257.703L64.8079 260.912C62.4324 261.306 59.9979 261.149 57.6932 260.452L47.707 257.436" stroke="#35425E" stroke-width="2" stroke-linecap="round" stroke-linejoin="round"/>
<path d="M143.443 129.885L156.408 135.479C157.837 136.099 159.087 137.066 160.045 138.291C161.003 139.517 161.639 140.963 161.894 142.496L163.534 152.466" stroke="#35425E" stroke-width="2" stroke-linecap="round" stroke-linejoin="round"/>
<path d="M290.214 226.049L301.807 224.145" stroke="#35425E" stroke-width="2" stroke-linecap="round" stroke-linejoin="round"/>
<path d="M143.765 132.563C147.249 132.147 149.93 130.611 149.753 129.133C149.576 127.655 146.608 126.794 143.123 127.21C139.639 127.626 136.958 129.161 137.135 130.639C137.312 132.118 140.28 132.979 143.765 132.563Z" fill="#BED0EA" stroke="#35425E" stroke-width="2" stroke-linecap="round" stroke-linejoin="round"/>
<rect width="37.4584" height="10.5349" transform="matrix(0.986564 -0.163374 0.16391 0.986475 145.942 238.004)" fill="#35425E"/>
<rect width="37.4584" height="10.5349" transform="matrix(0.986564 -0.163375 0.163909 0.986475 202.203 226.943)" fill="#35425E"/>
<rect width="27.9618" height="10.5349" transform="matrix(0.986564 -0.163375 0.163909 0.986476 152.353 247.621)" fill="#35425E"/>
<rect width="27.9618" height="10.5349" transform="matrix(0.986564 -0.163374 0.16391 0.986475 208.617 236.559)" fill="#35425E"/>
<g filter="url(#filter0_d_4220_15578)">
<path d="M208.399 10C208.399 4.47716 212.876 0 218.399 0H374C379.523 0 384 4.47715 384 10V83.7412C384 89.348 379.44 93.8688 373.834 93.8054C348.403 93.5175 280.36 93.3301 228.501 98.5C221.433 99.2045 220.001 99 218.001 100.5C215.439 102.421 208.124 105.876 203.5 104C198.056 101.792 197.637 94.6301 200.501 89.5C202.547 85.8333 204.815 82.4522 206.394 80.2136C207.666 78.4098 208.399 76.2685 208.399 74.0613V10Z" fill="white"/>
</g>
<path d="M236.508 31H234.641V25.8438H229.375V31H227.5V19.5781H229.375V24.25H234.641V19.5781H236.508V31ZM242.734 22.1875C243.828 22.1875 244.654 22.4297 245.211 22.9141C245.773 23.3984 246.055 24.1536 246.055 25.1797V31H244.75L244.398 29.7734H244.336C244.091 30.0859 243.839 30.3438 243.578 30.5469C243.318 30.75 243.016 30.901 242.672 31C242.333 31.1042 241.919 31.1562 241.43 31.1562C240.914 31.1562 240.453 31.0625 240.047 30.875C239.641 30.6823 239.32 30.3906 239.086 30C238.852 29.6094 238.734 29.1146 238.734 28.5156C238.734 27.625 239.065 26.9557 239.727 26.5078C240.393 26.0599 241.398 25.8125 242.742 25.7656L244.242 25.7109V25.2578C244.242 24.6589 244.102 24.2318 243.82 23.9766C243.544 23.7214 243.154 23.5938 242.648 23.5938C242.216 23.5938 241.797 23.6562 241.391 23.7812C240.984 23.9062 240.589 24.0599 240.203 24.2422L239.609 22.9453C240.031 22.7214 240.51 22.5391 241.047 22.3984C241.589 22.2578 242.151 22.1875 242.734 22.1875ZM244.234 26.8672L243.117 26.9062C242.201 26.9375 241.557 27.0938 241.188 27.375C240.818 27.6562 240.633 28.0417 240.633 28.5312C240.633 28.9583 240.76 29.2708 241.016 29.4688C241.271 29.6615 241.607 29.7578 242.023 29.7578C242.659 29.7578 243.185 29.5781 243.602 29.2188C244.023 28.8542 244.234 28.3203 244.234 27.6172V26.8672ZM256.18 22.3516V31H254.328V23.8047H250.469V31H248.625V22.3516H256.18ZM260.578 22.3516V26.7656C260.578 26.9062 260.573 27.0859 260.562 27.3047C260.557 27.5182 260.547 27.7422 260.531 27.9766C260.516 28.2057 260.5 28.4167 260.484 28.6094C260.469 28.8021 260.456 28.9453 260.445 29.0391L264.797 22.3516H267.031V31H265.273V26.6328C265.273 26.4036 265.279 26.138 265.289 25.8359C265.305 25.5339 265.32 25.2422 265.336 24.9609C265.357 24.6797 265.37 24.4661 265.375 24.3203L261.039 31H258.812V22.3516H260.578ZM281.914 22.3516V31H269.672V22.3516H271.508V29.5547H274.867V22.3516H276.711V29.5547H280.078V22.3516H281.914ZM286.312 22.3516V26.7656C286.312 26.9062 286.307 27.0859 286.297 27.3047C286.292 27.5182 286.281 27.7422 286.266 27.9766C286.25 28.2057 286.234 28.4167 286.219 28.6094C286.203 28.8021 286.19 28.9453 286.18 29.0391L290.531 22.3516H292.766V31H291.008V26.6328C291.008 26.4036 291.013 26.138 291.023 25.8359C291.039 25.5339 291.055 25.2422 291.07 24.9609C291.091 24.6797 291.104 24.4661 291.109 24.3203L286.773 31H284.547V22.3516H286.312ZM297.258 29.1406L297.367 29.3203C297.273 29.6953 297.154 30.099 297.008 30.5312C296.862 30.9635 296.703 31.3958 296.531 31.8281C296.359 32.2656 296.185 32.6771 296.008 33.0625H294.664C294.773 32.6406 294.878 32.1979 294.977 31.7344C295.081 31.276 295.174 30.8229 295.258 30.375C295.346 29.9219 295.417 29.5104 295.469 29.1406H297.258ZM305.766 22.3516V25.8281H309.812V22.3516H311.656V31H309.812V27.2656H305.766V31H303.922V22.3516H305.766ZM317.672 22.1875C318.766 22.1875 319.591 22.4297 320.148 22.9141C320.711 23.3984 320.992 24.1536 320.992 25.1797V31H319.688L319.336 29.7734H319.273C319.029 30.0859 318.776 30.3438 318.516 30.5469C318.255 30.75 317.953 30.901 317.609 31C317.271 31.1042 316.857 31.1562 316.367 31.1562C315.852 31.1562 315.391 31.0625 314.984 30.875C314.578 30.6823 314.258 30.3906 314.023 30C313.789 29.6094 313.672 29.1146 313.672 28.5156C313.672 27.625 314.003 26.9557 314.664 26.5078C315.331 26.0599 316.336 25.8125 317.68 25.7656L319.18 25.7109V25.2578C319.18 24.6589 319.039 24.2318 318.758 23.9766C318.482 23.7214 318.091 23.5938 317.586 23.5938C317.154 23.5938 316.734 23.6562 316.328 23.7812C315.922 23.9062 315.526 24.0599 315.141 24.2422L314.547 22.9453C314.969 22.7214 315.448 22.5391 315.984 22.3984C316.526 22.2578 317.089 22.1875 317.672 22.1875ZM319.172 26.8672L318.055 26.9062C317.138 26.9375 316.495 27.0938 316.125 27.375C315.755 27.6562 315.57 28.0417 315.57 28.5312C315.57 28.9583 315.698 29.2708 315.953 29.4688C316.208 29.6615 316.544 29.7578 316.961 29.7578C317.596 29.7578 318.122 29.5781 318.539 29.2188C318.961 28.8542 319.172 28.3203 319.172 27.6172V26.8672ZM335.805 22.3516V31H323.562V22.3516H325.398V29.5547H328.758V22.3516H330.602V29.5547H333.969V22.3516H335.805ZM340.203 22.3516V26.7656C340.203 26.9062 340.198 27.0859 340.188 27.3047C340.182 27.5182 340.172 27.7422 340.156 27.9766C340.141 28.2057 340.125 28.4167 340.109 28.6094C340.094 28.8021 340.081 28.9453 340.07 29.0391L344.422 22.3516H346.656V31H344.898V26.6328C344.898 26.4036 344.904 26.138 344.914 25.8359C344.93 25.5339 344.945 25.2422 344.961 24.9609C344.982 24.6797 344.995 24.4661 345 24.3203L340.664 31H338.438V22.3516H340.203ZM237.336 44.3516V53H235.633V48.0625C235.633 47.7396 235.641 47.4167 235.656 47.0938C235.672 46.7708 235.693 46.4635 235.719 46.1719H235.672L233.039 53H231.594L228.984 46.1641H228.93C228.956 46.4609 228.974 46.7682 228.984 47.0859C229 47.4036 229.008 47.7474 229.008 48.1172V53H227.305V44.3516H229.867L232.336 50.8125L234.844 44.3516H237.336ZM243.383 44.1875C244.154 44.1875 244.815 44.3464 245.367 44.6641C245.919 44.9818 246.344 45.4323 246.641 46.0156C246.938 46.599 247.086 47.2969 247.086 48.1094V49.0938H241.312C241.333 49.9323 241.557 50.5781 241.984 51.0312C242.417 51.4844 243.021 51.7109 243.797 51.7109C244.349 51.7109 244.844 51.6589 245.281 51.5547C245.724 51.4453 246.18 51.2865 246.648 51.0781V52.5703C246.216 52.7734 245.776 52.9219 245.328 53.0156C244.88 53.1094 244.344 53.1562 243.719 53.1562C242.87 53.1562 242.122 52.9922 241.477 52.6641C240.836 52.3307 240.333 51.8359 239.969 51.1797C239.609 50.5234 239.43 49.7083 239.43 48.7344C239.43 47.7656 239.594 46.9427 239.922 46.2656C240.25 45.5885 240.711 45.0729 241.305 44.7188C241.898 44.3646 242.591 44.1875 243.383 44.1875ZM243.383 45.5703C242.805 45.5703 242.336 45.7578 241.977 46.1328C241.622 46.5078 241.414 47.0573 241.352 47.7812H245.289C245.284 47.349 245.211 46.9661 245.07 46.6328C244.935 46.2995 244.727 46.0391 244.445 45.8516C244.169 45.6641 243.815 45.5703 243.383 45.5703ZM251 44.3516V47.8281H255.047V44.3516H256.891V53H255.047V49.2656H251V53H249.156V44.3516H251ZM262.961 44.1875C263.732 44.1875 264.393 44.3464 264.945 44.6641C265.497 44.9818 265.922 45.4323 266.219 46.0156C266.516 46.599 266.664 47.2969 266.664 48.1094V49.0938H260.891C260.911 49.9323 261.135 50.5781 261.562 51.0312C261.995 51.4844 262.599 51.7109 263.375 51.7109C263.927 51.7109 264.422 51.6589 264.859 51.5547C265.302 51.4453 265.758 51.2865 266.227 51.0781V52.5703C265.794 52.7734 265.354 52.9219 264.906 53.0156C264.458 53.1094 263.922 53.1562 263.297 53.1562C262.448 53.1562 261.701 52.9922 261.055 52.6641C260.414 52.3307 259.911 51.8359 259.547 51.1797C259.188 50.5234 259.008 49.7083 259.008 48.7344C259.008 47.7656 259.172 46.9427 259.5 46.2656C259.828 45.5885 260.289 45.0729 260.883 44.7188C261.477 44.3646 262.169 44.1875 262.961 44.1875ZM262.961 45.5703C262.383 45.5703 261.914 45.7578 261.555 46.1328C261.201 46.5078 260.992 47.0573 260.93 47.7812H264.867C264.862 47.349 264.789 46.9661 264.648 46.6328C264.513 46.2995 264.305 46.0391 264.023 45.8516C263.747 45.6641 263.393 45.5703 262.961 45.5703ZM275.797 44.3516V51.5781H277.047V56.0469H275.352V53H269.383V56.0469H267.688V51.5781H268.391C268.828 50.9427 269.193 50.2344 269.484 49.4531C269.781 48.6719 270.01 47.849 270.172 46.9844C270.339 46.1146 270.443 45.237 270.484 44.3516H275.797ZM273.977 45.7578H272.062C272 46.4609 271.893 47.1615 271.742 47.8594C271.591 48.5521 271.396 49.2161 271.156 49.8516C270.922 50.4818 270.641 51.0573 270.312 51.5781H273.977V45.7578ZM289.875 44.3516L286.484 48.5234L290.18 53H288.164L284.625 48.6094V53H282.914V48.6094L279.375 53H277.359L281.055 48.5234L277.664 44.3516H279.609L282.914 48.5469V44.3516H284.625V48.5469L287.938 44.3516H289.875ZM294.977 44.1875C295.747 44.1875 296.409 44.3464 296.961 44.6641C297.513 44.9818 297.938 45.4323 298.234 46.0156C298.531 46.599 298.68 47.2969 298.68 48.1094V49.0938H292.906C292.927 49.9323 293.151 50.5781 293.578 51.0312C294.01 51.4844 294.615 51.7109 295.391 51.7109C295.943 51.7109 296.438 51.6589 296.875 51.5547C297.318 51.4453 297.773 51.2865 298.242 51.0781V52.5703C297.81 52.7734 297.37 52.9219 296.922 53.0156C296.474 53.1094 295.938 53.1562 295.312 53.1562C294.464 53.1562 293.716 52.9922 293.07 52.6641C292.43 52.3307 291.927 51.8359 291.562 51.1797C291.203 50.5234 291.023 49.7083 291.023 48.7344C291.023 47.7656 291.188 46.9427 291.516 46.2656C291.844 45.5885 292.305 45.0729 292.898 44.7188C293.492 44.3646 294.185 44.1875 294.977 44.1875ZM294.977 45.5703C294.398 45.5703 293.93 45.7578 293.57 46.1328C293.216 46.5078 293.008 47.0573 292.945 47.7812H296.883C296.878 47.349 296.805 46.9661 296.664 46.6328C296.529 46.2995 296.32 46.0391 296.039 45.8516C295.763 45.6641 295.409 45.5703 294.977 45.5703ZM305.188 44.1875C306.214 44.1875 307.036 44.5625 307.656 45.3125C308.281 46.0625 308.594 47.1771 308.594 48.6562C308.594 49.6354 308.448 50.4609 308.156 51.1328C307.87 51.7995 307.466 52.3047 306.945 52.6484C306.43 52.987 305.828 53.1562 305.141 53.1562C304.703 53.1562 304.323 53.099 304 52.9844C303.677 52.8698 303.401 52.7214 303.172 52.5391C302.943 52.3516 302.75 52.1484 302.594 51.9297H302.484C302.51 52.138 302.534 52.3698 302.555 52.625C302.581 52.875 302.594 53.1042 302.594 53.3125V56.8359H300.75V44.3516H302.25L302.508 45.5469H302.594C302.755 45.3021 302.951 45.0755 303.18 44.8672C303.414 44.6589 303.695 44.4948 304.023 44.375C304.357 44.25 304.745 44.1875 305.188 44.1875ZM304.695 45.6875C304.19 45.6875 303.784 45.7891 303.477 45.9922C303.174 46.1901 302.953 46.4896 302.812 46.8906C302.677 47.2917 302.604 47.7943 302.594 48.3984V48.6562C302.594 49.2969 302.659 49.8411 302.789 50.2891C302.924 50.7318 303.146 51.0703 303.453 51.3047C303.766 51.5339 304.188 51.6484 304.719 51.6484C305.167 51.6484 305.536 51.526 305.828 51.2812C306.125 51.0365 306.346 50.6875 306.492 50.2344C306.638 49.7812 306.711 49.2474 306.711 48.6328C306.711 47.7005 306.544 46.9766 306.211 46.4609C305.883 45.9453 305.378 45.6875 304.695 45.6875ZM310.719 53V44.3516H312.562V47.8047H314.305C315.117 47.8047 315.786 47.8984 316.312 48.0859C316.839 48.2682 317.229 48.5443 317.484 48.9141C317.74 49.2839 317.867 49.7474 317.867 50.3047C317.867 50.8516 317.745 51.3281 317.5 51.7344C317.255 52.1354 316.872 52.4479 316.352 52.6719C315.831 52.8906 315.148 53 314.305 53H310.719ZM312.562 51.6484H314.18C314.732 51.6484 315.177 51.5495 315.516 51.3516C315.859 51.1484 316.031 50.8151 316.031 50.3516C316.031 49.9193 315.872 49.6146 315.555 49.4375C315.242 49.2552 314.784 49.1641 314.18 49.1641H312.562V51.6484ZM319.203 53V44.3516H321.047V53H319.203ZM234.867 66.3516V75H233.016V67.8047H229.156V75H227.312V66.3516H234.867ZM245.156 70.6562C245.156 71.375 245.062 72.013 244.875 72.5703C244.688 73.1276 244.414 73.599 244.055 73.9844C243.695 74.3646 243.263 74.6562 242.758 74.8594C242.253 75.0573 241.682 75.1562 241.047 75.1562C240.453 75.1562 239.909 75.0573 239.414 74.8594C238.919 74.6562 238.49 74.3646 238.125 73.9844C237.766 73.599 237.487 73.1276 237.289 72.5703C237.091 72.013 236.992 71.375 236.992 70.6562C236.992 69.7031 237.156 68.8958 237.484 68.2344C237.818 67.5677 238.292 67.0599 238.906 66.7109C239.521 66.362 240.253 66.1875 241.102 66.1875C241.898 66.1875 242.602 66.362 243.211 66.7109C243.82 67.0599 244.297 67.5677 244.641 68.2344C244.984 68.901 245.156 69.7083 245.156 70.6562ZM238.883 70.6562C238.883 71.2865 238.958 71.8255 239.109 72.2734C239.266 72.7214 239.505 73.0651 239.828 73.3047C240.151 73.5391 240.568 73.6562 241.078 73.6562C241.589 73.6562 242.005 73.5391 242.328 73.3047C242.651 73.0651 242.888 72.7214 243.039 72.2734C243.19 71.8255 243.266 71.2865 243.266 70.6562C243.266 70.026 243.19 69.4922 243.039 69.0547C242.888 68.612 242.651 68.276 242.328 68.0469C242.005 67.8125 241.586 67.6953 241.07 67.6953C240.31 67.6953 239.755 67.9505 239.406 68.4609C239.057 68.9714 238.883 69.7031 238.883 70.6562ZM254.328 66.3516V73.5781H255.578V78.0469H253.883V75H247.914V78.0469H246.219V73.5781H246.922C247.359 72.9427 247.724 72.2344 248.016 71.4531C248.312 70.6719 248.542 69.849 248.703 68.9844C248.87 68.1146 248.974 67.237 249.016 66.3516H254.328ZM252.508 67.7578H250.594C250.531 68.4609 250.424 69.1615 250.273 69.8594C250.122 70.5521 249.927 71.2161 249.688 71.8516C249.453 72.4818 249.172 73.0573 248.844 73.5781H252.508V67.7578ZM260.672 75.1562C259.854 75.1562 259.146 74.9974 258.547 74.6797C257.948 74.362 257.487 73.875 257.164 73.2188C256.841 72.5625 256.68 71.7292 256.68 70.7188C256.68 69.6667 256.857 68.8073 257.211 68.1406C257.565 67.474 258.055 66.9818 258.68 66.6641C259.31 66.3464 260.031 66.1875 260.844 66.1875C261.359 66.1875 261.826 66.2396 262.242 66.3438C262.664 66.4427 263.021 66.5651 263.312 66.7109L262.766 68.1797C262.448 68.0495 262.122 67.9401 261.789 67.8516C261.456 67.763 261.135 67.7188 260.828 67.7188C260.323 67.7188 259.901 67.8307 259.562 68.0547C259.229 68.2786 258.979 68.612 258.812 69.0547C258.651 69.4974 258.57 70.0469 258.57 70.7031C258.57 71.3385 258.654 71.875 258.82 72.3125C258.987 72.7448 259.234 73.0729 259.562 73.2969C259.891 73.5156 260.294 73.625 260.773 73.625C261.247 73.625 261.672 73.5677 262.047 73.4531C262.422 73.3385 262.776 73.1901 263.109 73.0078V74.6016C262.781 74.7891 262.43 74.9271 262.055 75.0156C261.68 75.1094 261.219 75.1562 260.672 75.1562ZM270.5 66.3516H272.523L268.945 70.5078L272.828 75H270.711L266.984 70.6094V75H265.141V66.3516H266.984V70.5469L270.5 66.3516ZM277.625 66.1875C278.719 66.1875 279.544 66.4297 280.102 66.9141C280.664 67.3984 280.945 68.1536 280.945 69.1797V75H279.641L279.289 73.7734H279.227C278.982 74.0859 278.729 74.3438 278.469 74.5469C278.208 74.75 277.906 74.901 277.562 75C277.224 75.1042 276.81 75.1562 276.32 75.1562C275.805 75.1562 275.344 75.0625 274.938 74.875C274.531 74.6823 274.211 74.3906 273.977 74C273.742 73.6094 273.625 73.1146 273.625 72.5156C273.625 71.625 273.956 70.9557 274.617 70.5078C275.284 70.0599 276.289 69.8125 277.633 69.7656L279.133 69.7109V69.2578C279.133 68.6589 278.992 68.2318 278.711 67.9766C278.435 67.7214 278.044 67.5938 277.539 67.5938C277.107 67.5938 276.688 67.6562 276.281 67.7812C275.875 67.9062 275.479 68.0599 275.094 68.2422L274.5 66.9453C274.922 66.7214 275.401 66.5391 275.938 66.3984C276.479 66.2578 277.042 66.1875 277.625 66.1875ZM279.125 70.8672L278.008 70.9062C277.091 70.9375 276.448 71.0938 276.078 71.375C275.708 71.6562 275.523 72.0417 275.523 72.5312C275.523 72.9583 275.651 73.2708 275.906 73.4688C276.161 73.6615 276.497 73.7578 276.914 73.7578C277.549 73.7578 278.076 73.5781 278.492 73.2188C278.914 72.8542 279.125 72.3203 279.125 71.6172V70.8672ZM294.734 66.3516L291.344 70.5234L295.039 75H293.023L289.484 70.6094V75H287.773V70.6094L284.234 75H282.219L285.914 70.5234L282.523 66.3516H284.469L287.773 70.5469V66.3516H289.484V70.5469L292.797 66.3516H294.734ZM295.086 66.3516H297.086L298.859 71.2891C298.938 71.513 299.008 71.7344 299.07 71.9531C299.138 72.1667 299.195 72.3776 299.242 72.5859C299.294 72.7943 299.336 73.0026 299.367 73.2109H299.414C299.466 72.9401 299.539 72.638 299.633 72.3047C299.732 71.9661 299.841 71.6276 299.961 71.2891L301.664 66.3516H303.641L299.93 76.1875C299.716 76.75 299.453 77.2292 299.141 77.625C298.833 78.026 298.469 78.3281 298.047 78.5312C297.625 78.7396 297.143 78.8438 296.602 78.8438C296.341 78.8438 296.115 78.8281 295.922 78.7969C295.729 78.7708 295.565 78.7422 295.43 78.7109V77.2422C295.539 77.2682 295.677 77.2917 295.844 77.3125C296.01 77.3333 296.182 77.3438 296.359 77.3438C296.688 77.3438 296.971 77.2786 297.211 77.1484C297.451 77.0182 297.654 76.8333 297.82 76.5938C297.987 76.3594 298.125 76.0911 298.234 75.7891L298.539 74.9766L295.086 66.3516ZM311.484 67.7969H308.641V75H306.812V67.7969H303.984V66.3516H311.484V67.7969Z" fill="#313E60"/>
</g>
<defs>
<filter id="filter0_d_4220_15578" x="178.751" y="-16" width="225.249" height="144.541" filterUnits="userSpaceOnUse" color-interpolation-filters="sRGB">
<feFlood flood-opacity="0" result="BackgroundImageFix"/>
<feColorMatrix in="SourceAlpha" type="matrix" values="0 0 0 0 0 0 0 0 0 0 0 0 0 0 0 0 0 0 127 0" result="hardAlpha"/>
<feOffset dy="4"/>
<feGaussianBlur stdDeviation="10"/>
<feComposite in2="hardAlpha" operator="out"/>
<feColorMatrix type="matrix" values="0 0 0 0 0.219608 0 0 0 0 0.337255 0 0 0 0 0.356863 0 0 0 0.1 0"/>
<feBlend mode="normal" in2="BackgroundImageFix" result="effect1_dropShadow_4220_15578"/>
<feBlend mode="normal" in="SourceGraphic" in2="effect1_dropShadow_4220_15578" result="shape"/>
</filter>
<clipPath id="clip0_4220_15578">
<rect width="416" height="546" fill="white"/>
</clipPath>
</defs>
</svg>
