<svg width="554" height="516" viewBox="0 0 554 516" fill="none" xmlns="http://www.w3.org/2000/svg">
<path d="M548.292 314.817L3.7168 315.127L103.606 246.113C109.643 242.062 116.75 239.897 124.023 239.895H428.943C436.216 239.896 443.323 242.061 449.36 246.113L548.292 314.817Z" stroke="#35425E" stroke-width="2" stroke-linecap="round" stroke-linejoin="round"/>
<path d="M547.669 314.816H5.29524C2.95756 314.816 1.0625 316.71 1.0625 319.045V330.595C1.0625 332.93 2.95756 334.824 5.29524 334.824H547.669C550.006 334.824 551.901 332.93 551.901 330.595V319.045C551.901 316.71 550.006 314.816 547.669 314.816Z" fill="#9DB0CE" stroke="#35425E" stroke-width="2" stroke-linecap="round" stroke-linejoin="round"/>
<path d="M145.683 232.533H174.892V239.91H142.758V235.456C142.757 235.072 142.832 234.691 142.978 234.336C143.125 233.981 143.341 233.659 143.612 233.387C143.884 233.115 144.207 232.9 144.563 232.754C144.918 232.607 145.299 232.532 145.683 232.533Z" fill="#647797" stroke="#35425E" stroke-width="2" stroke-linecap="round" stroke-linejoin="round"/>
<path d="M87.0935 307.432V333.556C87.0935 335.059 86.496 336.5 85.4322 337.563C84.3685 338.625 82.9257 339.222 81.4214 339.222H60.639C59.1346 339.222 57.6919 338.625 56.6281 337.563C55.5644 336.5 54.9668 335.059 54.9668 333.556V307.432H87.0935Z" fill="#647797" stroke="#35425E" stroke-width="2" stroke-linecap="round" stroke-linejoin="round"/>
<path d="M54.9609 307.432L141.071 233.956C142.157 233.033 143.535 232.524 144.961 232.518H174.862L87.0877 307.432H54.9609Z" fill="#647797" stroke="#35425E" stroke-width="2" stroke-linecap="round" stroke-linejoin="round"/>
<path d="M87.0938 314.816L174.884 239.902V232.533L87.0938 307.448V314.816Z" fill="#647797" stroke="#35425E" stroke-width="2" stroke-linecap="round" stroke-linejoin="round"/>
<path d="M71.028 329.002C73.5762 329.002 75.642 326.938 75.642 324.393C75.642 321.847 73.5762 319.783 71.028 319.783C68.4798 319.783 66.4141 321.847 66.4141 324.393C66.4141 326.938 68.4798 329.002 71.028 329.002Z" fill="#647797" stroke="#35425E" stroke-width="2" stroke-linecap="round" stroke-linejoin="round"/>
<path d="M471.184 307.432V333.556C471.184 335.059 471.781 336.5 472.845 337.563C473.909 338.625 475.351 339.222 476.856 339.222H497.638C499.143 339.222 500.585 338.625 501.649 337.563C502.713 336.5 503.31 335.059 503.31 333.556V307.432H471.184Z" fill="#647797" stroke="#35425E" stroke-width="2" stroke-linecap="round" stroke-linejoin="round"/>
<path d="M503.288 307.432L417.389 234.134C416.159 233.091 414.598 232.518 412.985 232.518H383.363L471.185 307.432H503.288Z" fill="#647797" stroke="#35425E" stroke-width="2" stroke-linecap="round" stroke-linejoin="round"/>
<path d="M471.161 314.816L383.363 239.902V232.533L471.161 307.448V314.816Z" fill="#647797" stroke="#35425E" stroke-width="2" stroke-linecap="round" stroke-linejoin="round"/>
<path d="M487.22 329.002C489.768 329.002 491.834 326.938 491.834 324.393C491.834 321.847 489.768 319.783 487.22 319.783C484.671 319.783 482.605 321.847 482.605 324.393C482.605 326.938 484.671 329.002 487.22 329.002Z" fill="#647797" stroke="#35425E" stroke-width="2" stroke-linecap="round" stroke-linejoin="round"/>
<path d="M176.799 494.819V494.904C176.542 498.418 159.93 501.262 139.451 501.262C118.832 501.262 102.104 498.371 102.104 494.819C102.104 491.267 118.817 488.375 139.451 488.375C160.086 488.375 176.799 491.259 176.799 494.819Z" fill="#647797" stroke="#35425E" stroke-width="2" stroke-linecap="round" stroke-linejoin="round"/>
<path d="M149.737 467.553V493.428C149.737 494.983 145.146 496.235 139.474 496.235C133.802 496.235 129.203 494.975 129.203 493.428V467.553H149.737Z" fill="#9DB0CE" stroke="#35425E" stroke-width="2" stroke-linecap="round" stroke-linejoin="round"/>
<path d="M139.474 470.319C145.142 470.319 149.737 469.063 149.737 467.513C149.737 465.963 145.142 464.707 139.474 464.707C133.806 464.707 129.211 465.963 129.211 467.513C129.211 469.063 133.806 470.319 139.474 470.319Z" fill="#647797" stroke="#35425E" stroke-width="2" stroke-linecap="round" stroke-linejoin="round"/>
<path d="M132.799 467.514V334.824H146.143V467.514" fill="#647797"/>
<path d="M132.799 467.514V334.824H146.143V467.514" stroke="#35425E" stroke-width="2" stroke-linecap="round" stroke-linejoin="round"/>
<path d="M132.853 389.156C131.297 389.459 130.34 389.879 130.34 390.345C130.34 390.812 131.297 391.224 132.853 391.535C135.037 391.915 137.25 392.094 139.467 392.071C141.702 392.099 143.935 391.915 146.135 391.519C147.691 391.216 148.586 390.804 148.586 390.345C148.586 389.887 147.66 389.483 146.135 389.172" fill="#647797"/>
<path d="M132.853 389.156C131.297 389.459 130.34 389.879 130.34 390.345C130.34 390.812 131.297 391.224 132.853 391.535C135.037 391.915 137.25 392.094 139.467 392.071C141.702 392.099 143.935 391.915 146.135 391.519C147.691 391.216 148.586 390.804 148.586 390.345C148.586 389.887 147.66 389.483 146.135 389.172" stroke="#35425E" stroke-width="2" stroke-linecap="round" stroke-linejoin="round"/>
<path d="M132.853 394.76C131.297 395.055 130.34 395.475 130.34 395.949C130.34 396.423 131.297 396.827 132.853 397.138C135.037 397.511 137.251 397.688 139.467 397.667C141.702 397.695 143.935 397.51 146.135 397.115C147.691 396.812 148.586 396.4 148.586 395.949C148.586 395.498 147.66 395.078 146.135 394.768" fill="#647797"/>
<path d="M132.853 394.76C131.297 395.055 130.34 395.475 130.34 395.949C130.34 396.423 131.297 396.827 132.853 397.138C135.037 397.511 137.251 397.688 139.467 397.667C141.702 397.695 143.935 397.51 146.135 397.115C147.691 396.812 148.586 396.4 148.586 395.949C148.586 395.498 147.66 395.078 146.135 394.768" stroke="#35425E" stroke-width="2" stroke-linecap="round" stroke-linejoin="round"/>
<path d="M132.853 400.357C131.297 400.653 130.34 401.08 130.34 401.547C130.34 402.013 131.297 402.425 132.853 402.736C135.037 403.109 137.251 403.286 139.467 403.264C141.702 403.293 143.935 403.108 146.135 402.713C147.691 402.409 148.586 401.998 148.586 401.547C148.586 401.096 147.66 400.676 146.135 400.365" fill="#647797"/>
<path d="M132.853 400.357C131.297 400.653 130.34 401.08 130.34 401.547C130.34 402.013 131.297 402.425 132.853 402.736C135.037 403.109 137.251 403.286 139.467 403.264C141.702 403.293 143.935 403.108 146.135 402.713C147.691 402.409 148.586 401.998 148.586 401.547C148.586 401.096 147.66 400.676 146.135 400.365" stroke="#35425E" stroke-width="2" stroke-linecap="round" stroke-linejoin="round"/>
<path d="M132.853 405.953C131.297 406.249 130.34 406.676 130.34 407.142C130.34 407.609 131.297 408.021 132.853 408.332C135.037 408.705 137.251 408.882 139.467 408.86C141.702 408.889 143.935 408.704 146.135 408.308C147.691 408.005 148.586 407.593 148.586 407.142C148.586 406.692 147.66 406.272 146.135 405.961" fill="#647797"/>
<path d="M132.853 405.953C131.297 406.249 130.34 406.676 130.34 407.142C130.34 407.609 131.297 408.021 132.853 408.332C135.037 408.705 137.251 408.882 139.467 408.86C141.702 408.889 143.935 408.704 146.135 408.308C147.691 408.005 148.586 407.593 148.586 407.142C148.586 406.692 147.66 406.272 146.135 405.961" stroke="#35425E" stroke-width="2" stroke-linecap="round" stroke-linejoin="round"/>
<path d="M132.853 411.588C131.297 411.883 130.34 412.311 130.34 412.777C130.34 413.244 131.297 413.656 132.853 413.966C135.037 414.343 137.251 414.522 139.467 414.503C141.702 414.529 143.935 414.342 146.135 413.943C147.691 413.64 148.586 413.228 148.586 412.777C148.586 412.326 147.66 411.907 146.135 411.596" fill="#647797"/>
<path d="M132.853 411.588C131.297 411.883 130.34 412.311 130.34 412.777C130.34 413.244 131.297 413.656 132.853 413.966C135.037 414.343 137.251 414.522 139.467 414.503C141.702 414.529 143.935 414.342 146.135 413.943C147.691 413.64 148.586 413.228 148.586 412.777C148.586 412.326 147.66 411.907 146.135 411.596" stroke="#35425E" stroke-width="2" stroke-linecap="round" stroke-linejoin="round"/>
<path d="M132.853 417.146C131.297 417.45 130.34 417.869 130.34 418.336C130.34 418.802 131.297 419.214 132.853 419.525C135.037 419.901 137.251 420.08 139.467 420.061C141.702 420.087 143.935 419.9 146.135 419.502C147.691 419.206 148.586 418.794 148.586 418.336C148.586 417.877 147.66 417.465 146.135 417.154" fill="#647797"/>
<path d="M132.853 417.146C131.297 417.45 130.34 417.869 130.34 418.336C130.34 418.802 131.297 419.214 132.853 419.525C135.037 419.901 137.251 420.08 139.467 420.061C141.702 420.087 143.935 419.9 146.135 419.502C147.691 419.206 148.586 418.794 148.586 418.336C148.586 417.877 147.66 417.465 146.135 417.154" stroke="#35425E" stroke-width="2" stroke-linecap="round" stroke-linejoin="round"/>
<path d="M176.799 508.011C176.799 511.57 160.086 514.454 139.451 514.454C118.817 514.454 102.104 511.57 102.104 508.011V494.797C102.104 498.349 118.817 501.241 139.451 501.241C159.907 501.241 176.519 498.396 176.799 494.882V507.987V508.011Z" fill="#9DB0CE" stroke="#35425E" stroke-width="2" stroke-linecap="round" stroke-linejoin="round"/>
<path d="M381.449 494.819V494.904C381.706 498.418 398.318 501.262 418.797 501.262C439.416 501.262 456.144 498.371 456.144 494.819C456.144 491.267 439.431 488.375 418.797 488.375C398.162 488.375 381.449 491.259 381.449 494.819Z" fill="#647797" stroke="#35425E" stroke-width="2" stroke-linecap="round" stroke-linejoin="round"/>
<path d="M408.51 467.553V493.428C408.51 494.983 413.1 496.235 418.773 496.235C424.445 496.235 429.043 494.975 429.043 493.428V467.553H408.51Z" fill="#9DB0CE" stroke="#35425E" stroke-width="2" stroke-linecap="round" stroke-linejoin="round"/>
<path d="M418.773 470.319C424.441 470.319 429.035 469.063 429.035 467.513C429.035 465.963 424.441 464.707 418.773 464.707C413.105 464.707 408.51 465.963 408.51 467.513C408.51 469.063 413.105 470.319 418.773 470.319Z" fill="#647797" stroke="#35425E" stroke-width="2" stroke-linecap="round" stroke-linejoin="round"/>
<path d="M425.448 467.514V334.824H412.104V467.514" fill="#647797"/>
<path d="M425.448 467.514V334.824H412.104V467.514" stroke="#35425E" stroke-width="2" stroke-linecap="round" stroke-linejoin="round"/>
<path d="M425.393 389.156C426.949 389.459 427.906 389.879 427.906 390.345C427.906 390.812 426.949 391.224 425.393 391.535C423.209 391.915 420.995 392.094 418.779 392.071C416.544 392.099 414.311 391.915 412.111 391.519C410.555 391.216 409.66 390.804 409.66 390.345C409.66 389.887 410.586 389.483 412.111 389.172" fill="#647797"/>
<path d="M425.393 389.156C426.949 389.459 427.906 389.879 427.906 390.345C427.906 390.812 426.949 391.224 425.393 391.535C423.209 391.915 420.995 392.094 418.779 392.071C416.544 392.099 414.311 391.915 412.111 391.519C410.555 391.216 409.66 390.804 409.66 390.345C409.66 389.887 410.586 389.483 412.111 389.172" stroke="#35425E" stroke-width="2" stroke-linecap="round" stroke-linejoin="round"/>
<path d="M425.393 394.76C426.949 395.055 427.906 395.475 427.906 395.949C427.906 396.423 426.949 396.827 425.393 397.138C423.208 397.511 420.995 397.688 418.779 397.667C416.544 397.695 414.311 397.51 412.111 397.115C410.555 396.812 409.66 396.4 409.66 395.949C409.66 395.498 410.586 395.078 412.111 394.768" fill="#647797"/>
<path d="M425.393 394.76C426.949 395.055 427.906 395.475 427.906 395.949C427.906 396.423 426.949 396.827 425.393 397.138C423.208 397.511 420.995 397.688 418.779 397.667C416.544 397.695 414.311 397.51 412.111 397.115C410.555 396.812 409.66 396.4 409.66 395.949C409.66 395.498 410.586 395.078 412.111 394.768" stroke="#35425E" stroke-width="2" stroke-linecap="round" stroke-linejoin="round"/>
<path d="M425.393 400.357C426.949 400.653 427.906 401.08 427.906 401.547C427.906 402.013 426.949 402.425 425.393 402.736C423.208 403.109 420.995 403.286 418.779 403.264C416.544 403.293 414.311 403.108 412.111 402.713C410.555 402.409 409.66 401.998 409.66 401.547C409.66 401.096 410.586 400.676 412.111 400.365" fill="#647797"/>
<path d="M425.393 400.357C426.949 400.653 427.906 401.08 427.906 401.547C427.906 402.013 426.949 402.425 425.393 402.736C423.208 403.109 420.995 403.286 418.779 403.264C416.544 403.293 414.311 403.108 412.111 402.713C410.555 402.409 409.66 401.998 409.66 401.547C409.66 401.096 410.586 400.676 412.111 400.365" stroke="#35425E" stroke-width="2" stroke-linecap="round" stroke-linejoin="round"/>
<path d="M425.393 405.953C426.949 406.249 427.906 406.676 427.906 407.142C427.906 407.609 426.949 408.021 425.393 408.332C423.208 408.705 420.995 408.882 418.779 408.86C416.544 408.889 414.311 408.704 412.111 408.308C410.555 408.005 409.66 407.593 409.66 407.142C409.66 406.692 410.586 406.272 412.111 405.961" fill="#647797"/>
<path d="M425.393 405.953C426.949 406.249 427.906 406.676 427.906 407.142C427.906 407.609 426.949 408.021 425.393 408.332C423.208 408.705 420.995 408.882 418.779 408.86C416.544 408.889 414.311 408.704 412.111 408.308C410.555 408.005 409.66 407.593 409.66 407.142C409.66 406.692 410.586 406.272 412.111 405.961" stroke="#35425E" stroke-width="2" stroke-linecap="round" stroke-linejoin="round"/>
<path d="M425.393 411.588C426.949 411.883 427.906 412.311 427.906 412.777C427.906 413.244 426.949 413.656 425.393 413.966C423.209 414.343 420.995 414.522 418.779 414.503C416.544 414.529 414.311 414.342 412.111 413.943C410.555 413.64 409.66 413.228 409.66 412.777C409.66 412.326 410.586 411.907 412.111 411.596" fill="#647797"/>
<path d="M425.393 411.588C426.949 411.883 427.906 412.311 427.906 412.777C427.906 413.244 426.949 413.656 425.393 413.966C423.209 414.343 420.995 414.522 418.779 414.503C416.544 414.529 414.311 414.342 412.111 413.943C410.555 413.64 409.66 413.228 409.66 412.777C409.66 412.326 410.586 411.907 412.111 411.596" stroke="#35425E" stroke-width="2" stroke-linecap="round" stroke-linejoin="round"/>
<path d="M425.393 417.146C426.949 417.45 427.906 417.869 427.906 418.336C427.906 418.802 426.949 419.214 425.393 419.525C423.209 419.901 420.995 420.08 418.779 420.061C416.544 420.087 414.311 419.9 412.111 419.502C410.555 419.206 409.66 418.794 409.66 418.336C409.66 417.877 410.586 417.465 412.111 417.154" fill="#647797"/>
<path d="M425.393 417.146C426.949 417.45 427.906 417.869 427.906 418.336C427.906 418.802 426.949 419.214 425.393 419.525C423.209 419.901 420.995 420.08 418.779 420.061C416.544 420.087 414.311 419.9 412.111 419.502C410.555 419.206 409.66 418.794 409.66 418.336C409.66 417.877 410.586 417.465 412.111 417.154" stroke="#35425E" stroke-width="2" stroke-linecap="round" stroke-linejoin="round"/>
<path d="M381.449 508.011C381.449 511.57 398.162 514.454 418.797 514.454C439.431 514.454 456.144 511.57 456.144 508.011V494.797C456.144 498.349 439.431 501.241 418.797 501.241C398.341 501.241 381.729 498.396 381.449 494.882V507.987V508.011Z" fill="#9DB0CE" stroke="#35425E" stroke-width="2" stroke-linecap="round" stroke-linejoin="round"/>
<path d="M67.3867 327.223L74.6695 321.564" stroke="#35425E" stroke-width="2" stroke-linecap="round" stroke-linejoin="round"/>
<path d="M483.57 321.572L490.799 327.309" stroke="#35425E" stroke-width="2" stroke-linecap="round" stroke-linejoin="round"/>
<path d="M284.018 257.379C275.076 257.379 266.688 257.743 259.444 258.405C275.765 260.366 292.263 260.366 308.584 258.405C301.369 257.743 292.974 257.379 284.018 257.379Z" fill="#647797" stroke="#35425E" stroke-width="2" stroke-linecap="round" stroke-linejoin="round"/>
<path d="M242.046 252.092V252.179C242.199 254.742 249.035 257.013 259.47 258.403C275.791 260.364 292.289 260.364 308.61 258.403C319.039 257.013 325.874 254.763 326.027 252.179V252.092C325.997 251.756 325.892 251.431 325.72 251.14C325.549 250.849 325.315 250.6 325.036 250.41L324.934 250.33C320.62 246.886 303.939 244.316 284.044 244.316C264.149 244.316 247.446 246.886 243.139 250.33L243.022 250.41C242.746 250.601 242.515 250.851 242.346 251.142C242.177 251.433 242.075 251.757 242.046 252.092Z" fill="#647797" stroke="#35425E" stroke-width="2" stroke-linecap="round" stroke-linejoin="round"/>
<path d="M234.462 265.115C234.527 264.242 234.686 263.378 234.935 262.538C235.819 259.892 237.07 257.382 238.652 255.083C239.798 253.259 241.282 251.67 243.024 250.402C242.748 250.594 242.517 250.844 242.348 251.134C242.18 251.425 242.077 251.749 242.048 252.084V252.171C242.201 254.734 249.037 257.005 259.472 258.396C275.794 260.357 292.291 260.357 308.612 258.396C319.041 257.005 325.876 254.756 326.029 252.171V252.084C325.999 251.748 325.894 251.423 325.723 251.132C325.551 250.841 325.318 250.592 325.038 250.402C329.411 253.351 333.23 259.866 333.623 265.152C333.623 269.447 311.425 272.927 284.068 272.927C256.71 272.927 234.462 269.483 234.462 265.159V265.115Z" fill="#9DB0CE" stroke="#35425E" stroke-width="2" stroke-linecap="round" stroke-linejoin="round"/>
<path d="M276.677 236.42V251.344C276.677 252.545 279.985 253.528 284.059 253.528C288.133 253.528 291.441 252.56 291.441 251.344V236.42H276.677Z" fill="#9DB0CE" stroke="#35425E" stroke-width="2" stroke-linecap="round" stroke-linejoin="round"/>
<path d="M276.677 236.178C276.677 237.029 279.978 237.721 284.059 237.721C288.14 237.721 291.441 237.029 291.441 236.178C291.441 235.326 288.14 234.627 284.059 234.627C279.978 234.627 276.677 235.319 276.677 236.178Z" fill="#35425E" stroke="#35425E" stroke-width="2" stroke-linecap="round" stroke-linejoin="round"/>
<path d="M245.354 132.896L250.39 137.926C259.58 147.055 266.866 157.913 271.829 169.873C276.791 181.833 279.33 194.657 279.299 207.604V236.084C279.299 236.491 281.42 236.812 284.036 236.812C286.652 236.812 288.773 236.477 288.773 236.084V207.604C288.808 193.415 286.026 179.36 280.588 166.251C275.151 153.143 267.165 141.242 257.094 131.236L252.051 126.205C251.615 125.749 251.092 125.385 250.513 125.134C249.935 124.883 249.311 124.75 248.68 124.742C248.049 124.735 247.423 124.854 246.838 125.092C246.254 125.33 245.723 125.682 245.277 126.128C244.83 126.574 244.478 127.104 244.24 127.688C244.001 128.272 243.882 128.898 243.89 129.528C243.897 130.159 244.03 130.781 244.281 131.36C244.533 131.938 244.898 132.46 245.354 132.896Z" fill="#647797" stroke="#35425E" stroke-width="2" stroke-linecap="round" stroke-linejoin="round"/>
<path d="M286.202 184.149C287.332 184.105 288.06 184.236 288.126 184.535C288.192 184.833 287.58 185.263 286.53 185.67C285.054 186.241 283.533 186.689 281.983 187.01C280.423 187.364 278.836 187.58 277.239 187.658C276.131 187.658 275.431 187.57 275.366 187.279C275.3 186.988 275.898 186.551 276.911 186.158" stroke="#35425E" stroke-width="2" stroke-linecap="round" stroke-linejoin="round"/>
<path d="M287.206 189.094C288.336 189.057 289.064 189.188 289.13 189.487C289.196 189.785 288.576 190.215 287.527 190.615C286.045 191.178 284.519 191.616 282.965 191.926C281.405 192.272 279.817 192.479 278.22 192.545C277.12 192.545 276.413 192.45 276.355 192.159C276.297 191.867 276.887 191.467 277.907 191.045" stroke="#35425E" stroke-width="2" stroke-linecap="round" stroke-linejoin="round"/>
<path d="M287.973 194.18C289.103 194.267 289.81 194.478 289.839 194.777C289.868 195.075 289.212 195.417 288.126 195.73C286.594 196.13 285.032 196.403 283.455 196.546C281.865 196.72 280.263 196.754 278.667 196.648C277.567 196.56 276.882 196.357 276.852 196.058C276.823 195.76 277.457 195.432 278.514 195.119" stroke="#35425E" stroke-width="2" stroke-linecap="round" stroke-linejoin="round"/>
<path d="M288.439 198.527C289.561 198.651 290.261 198.877 290.283 199.183C290.305 199.488 289.641 199.801 288.541 200.085C286.997 200.432 285.428 200.653 283.848 200.748C282.254 200.873 280.652 200.858 279.06 200.704C277.96 200.58 277.282 200.355 277.26 200.056C277.238 199.758 277.887 199.445 278.958 199.168" stroke="#35425E" stroke-width="2" stroke-linecap="round" stroke-linejoin="round"/>
<path d="M288.678 203.383C289.8 203.55 290.493 203.812 290.5 204.111C290.507 204.409 289.83 204.7 288.715 204.933C287.164 205.226 285.592 205.389 284.014 205.421C282.416 205.48 280.816 205.394 279.234 205.166C278.14 204.999 277.47 204.744 277.463 204.438C277.455 204.133 278.111 203.856 279.197 203.623" stroke="#35425E" stroke-width="2" stroke-linecap="round" stroke-linejoin="round"/>
<path d="M288.797 207.947C289.912 208.115 290.604 208.377 290.611 208.675C290.619 208.974 289.941 209.265 288.833 209.491C287.275 209.777 285.695 209.933 284.111 209.957C282.513 210.011 280.913 209.926 279.33 209.702C278.237 209.534 277.574 209.28 277.567 208.974C277.559 208.668 278.215 208.391 279.294 208.158" stroke="#35425E" stroke-width="2" stroke-linecap="round" stroke-linejoin="round"/>
<path d="M320.037 32.4599L320.715 33.6028C320.511 33.217 320.3 32.8239 320.088 32.4453L320.037 32.4599Z" fill="#647797" stroke="#35425E" stroke-width="2" stroke-linecap="round" stroke-linejoin="round"/>
<path d="M149.552 108.42L160.229 143.54C162.48 150.932 166.168 157.81 171.08 163.779C175.993 169.748 182.035 174.692 188.86 178.329C195.686 181.965 203.161 184.223 210.86 184.972C218.559 185.722 226.331 184.95 233.731 182.699L277.223 169.493C281.649 168.139 285.9 166.269 289.889 163.924C291.796 162.818 293.638 161.603 295.405 160.284C300.276 156.622 304.547 152.226 308.064 147.252C308.545 146.59 308.997 145.92 309.441 145.236C314.123 138.05 317.172 129.926 318.373 121.436C319.574 112.946 318.898 104.296 316.393 96.0952L305.717 61.0052C301.177 46.0815 290.889 33.5703 277.116 26.2227C263.344 18.8751 247.214 17.2928 232.273 21.8238L188.774 35.0662C184.847 36.2545 181.054 37.8477 177.456 39.8201C177.311 39.9075 177.158 39.9876 177.012 40.0822C174.395 41.538 171.897 43.1982 169.542 45.0473H169.506L169.382 45.1419C160.096 52.4787 153.237 62.4397 149.7 73.7268C146.163 85.0139 146.112 97.1036 149.552 108.42Z" fill="#BED0EA" stroke="#35425E" stroke-width="2" stroke-miterlimit="10"/>
<path d="M192.198 60.5942L233.686 48.002C255.348 41.4274 278.243 53.64 284.825 75.2796L291.074 95.8284C297.656 117.468 285.431 140.34 263.769 146.915L222.281 159.507C200.619 166.082 177.723 153.869 171.142 132.229L164.892 111.681C158.311 90.041 170.536 67.1689 192.198 60.5942Z" fill="#FFFCF5" stroke="#35425E" stroke-width="2" stroke-linecap="round" stroke-linejoin="round"/>
<path d="M282.945 150.626C283.204 151.479 283.71 152.236 284.4 152.802C285.089 153.367 285.931 153.716 286.819 153.803C287.707 153.891 288.601 153.714 289.388 153.294C290.175 152.874 290.819 152.23 291.24 151.445C291.661 150.659 291.839 149.766 291.752 148.879C291.665 147.992 291.316 147.151 290.751 146.462C290.185 145.772 289.428 145.266 288.574 145.007C287.72 144.748 286.809 144.748 285.955 145.006C284.812 145.356 283.854 146.143 283.29 147.196C282.726 148.249 282.602 149.482 282.945 150.626Z" fill="#FFFCF5" stroke="#35425E" stroke-width="2" stroke-linecap="round" stroke-linejoin="round"/>
<path d="M302.68 153.828L314.857 142.813L322.145 136.21C329.213 128.66 334.171 119.387 336.521 109.32C338.87 99.2523 338.529 88.7448 335.532 78.8506L334.723 76.1934L317.087 93.7383C316.748 94.1012 316.388 94.4439 316.009 94.7648L316.417 96.1189C318.922 104.32 319.598 112.97 318.397 121.459C317.195 129.949 314.147 138.073 309.465 145.259C309.02 145.944 308.568 146.614 308.087 147.276C306.447 149.589 304.64 151.779 302.68 153.828Z" fill="#35425E" stroke="#35425E" stroke-width="2" stroke-miterlimit="10"/>
<path d="M169.381 45.134L169.505 45.0394H169.542C171.897 43.1903 174.394 41.5302 177.011 40.0744C177.157 39.9797 177.31 39.8996 177.456 39.8123C181.053 37.8423 184.846 36.2516 188.773 35.0657L232.273 21.8232C245.845 17.7006 260.451 18.6114 273.405 24.3882C286.359 30.1651 296.79 40.4195 302.78 53.2659C303.086 53.0548 303.377 52.8145 303.676 52.5743L322.332 36.9585C321.846 35.8179 321.307 34.6992 320.714 33.6024C320.51 33.2165 320.299 32.8234 320.087 32.4448C313.563 20.647 303.181 11.4445 290.679 6.37585C278.177 1.30723 264.312 0.679811 251.402 4.59849L207.91 17.8046C203.972 18.992 200.169 20.5878 196.564 22.5658C193.798 24.0887 191.161 25.8345 188.679 27.7856H188.642C186.277 29.6416 184.059 31.6789 182.011 33.879L169.381 45.134Z" fill="#35425E" stroke="#35425E" stroke-width="2" stroke-miterlimit="10"/>
<path d="M290.028 64.428L299.217 94.6404C299.449 95.3995 299.828 96.1056 300.333 96.7184C300.837 97.3312 301.458 97.8387 302.159 98.2119C302.86 98.585 303.628 98.8166 304.419 98.8933C305.209 98.97 306.007 98.8904 306.767 98.659L311.096 97.3486C312.886 96.814 314.554 95.9362 316.008 94.7641C316.393 94.458 316.761 94.1298 317.108 93.7813L334.744 76.2363L337.506 73.4845C337.91 73.0866 338.196 72.5854 338.334 72.0358C338.471 71.4862 338.455 70.9094 338.286 70.3686L328.331 37.6082L328.105 36.8802L328.069 36.7637C327.575 35.1409 326.459 33.7788 324.964 32.9743C323.47 32.1697 321.717 31.9879 320.089 32.4685C320.3 32.8471 320.512 33.2402 320.716 33.626C320.92 34.0119 321.211 34.5797 321.444 35.082C321.704 35.6266 321.774 36.2426 321.642 36.8314C321.51 37.4201 321.184 37.9475 320.716 38.329L303.692 52.5761C303.393 52.8163 303.102 53.0566 302.796 53.2677C301.648 54.0831 300.389 54.7303 299.057 55.1896L293.883 56.9514C292.394 57.4533 291.159 58.5143 290.44 59.9098C289.72 61.3053 289.572 62.9257 290.028 64.428Z" fill="#647797" stroke="#35425E" stroke-width="2" stroke-linecap="round" stroke-linejoin="round"/>
<path d="M189.707 39.624L190.508 42.2667C190.791 43.186 191.426 43.9563 192.276 44.4091C193.125 44.862 194.119 44.9607 195.041 44.6837L235.436 32.424C236.358 32.1417 237.13 31.5058 237.584 30.6556C238.037 29.8055 238.135 28.8104 237.855 27.8885L236.952 24.9255C236.587 23.7181 236.558 22.4342 236.869 21.2118C237.179 19.9893 237.818 18.8746 238.715 17.9875L249.289 7.56245C251.615 5.26429 254.569 3.70408 257.779 3.0779C257.448 2.32337 256.851 1.71636 256.101 1.37162C255.352 1.02688 254.502 0.968283 253.713 1.20692L213.464 13.4302C210.712 14.2672 208.163 15.6653 205.98 17.5362L191.798 32.3657C190.782 33.2422 190.043 34.3952 189.672 35.6841C189.3 36.9729 189.312 38.3419 189.707 39.624Z" fill="#647797" stroke="#35425E" stroke-width="2" stroke-linecap="round" stroke-linejoin="round"/>
<path d="M160.004 142.965L161.207 142.856C161.772 142.685 162.297 142.405 162.754 142.031C163.21 141.658 163.588 141.197 163.867 140.677C164.145 140.157 164.318 139.588 164.375 139.001C164.433 138.414 164.374 137.822 164.202 137.258L153.919 103.5C153.573 102.363 152.788 101.41 151.739 100.851C150.69 100.291 149.461 100.17 148.322 100.515C147.892 100.555 147.476 100.69 147.104 100.91C146.733 101.13 146.415 101.431 146.173 101.789C145.932 102.147 145.773 102.554 145.709 102.981C145.645 103.408 145.676 103.844 145.801 104.257L156.958 140.941C157.158 141.576 157.57 142.122 158.124 142.49C158.678 142.858 159.342 143.026 160.004 142.965Z" fill="#647797" stroke="#35425E" stroke-width="2" stroke-linecap="round" stroke-linejoin="round"/>
<path d="M319.732 69.3107C317.651 69.3107 315.964 67.6256 315.964 65.547C315.964 63.4683 317.651 61.7832 319.732 61.7832C321.813 61.7832 323.5 63.4683 323.5 65.547C323.5 67.6256 321.813 69.3107 319.732 69.3107Z" fill="#BED0EA" stroke="#35425E" stroke-width="2" stroke-linecap="round" stroke-linejoin="round"/>
<path d="M294.525 79.2068L307.482 75.2756C309.058 74.7998 310.504 73.9706 311.709 72.8514L316.891 67.9883" stroke="#35425E" stroke-width="2" stroke-linecap="round" stroke-linejoin="round"/>
<path d="M219.994 18.9336L213.778 26.2137C213.093 27.0214 212.622 27.9878 212.409 29.0244C212.195 30.061 212.244 31.1346 212.554 32.147L214.55 38.6991" stroke="#35425E" stroke-width="2" stroke-linecap="round" stroke-linejoin="round"/>
<path d="M159.486 121.771L151.842 124.094" stroke="#35425E" stroke-width="2" stroke-linecap="round" stroke-linejoin="round"/>
<path d="M215.93 20.3678C215.592 19.4124 217.143 17.9943 219.394 17.2004C221.644 16.4065 223.742 16.5374 224.08 17.4928C224.418 18.4481 222.867 19.8663 220.617 20.6602C218.366 21.4541 216.268 21.3232 215.93 20.3678Z" fill="#BED0EA" stroke="#35425E" stroke-width="2" stroke-linecap="round" stroke-linejoin="round"/>
<rect width="25.4746" height="7.17045" transform="matrix(-0.937105 0.349046 0.349667 0.936874 209.75 95.5703)" fill="#35425E"/>
<rect width="25.4747" height="7.17043" transform="matrix(-0.937106 0.349044 0.34967 0.936873 248.488 82.2656)" fill="#35425E"/>
<rect width="19.0162" height="7.17047" transform="matrix(-0.937105 0.349048 0.349666 0.936875 209.23 103.414)" fill="#35425E"/>
<rect width="19.0162" height="7.17043" transform="matrix(-0.937105 0.349046 0.349667 0.936874 247.969 90.1094)" fill="#35425E"/>
</svg>
