<svg width="416" height="494" viewBox="0 0 416 494" fill="none" xmlns="http://www.w3.org/2000/svg">
<g clip-path="url(#clip0_4475_13592)">
<path d="M160.44 470.891C173.156 470.891 185.074 471.418 195.376 472.349C172.169 475.136 148.712 475.136 125.505 472.349C135.796 471.377 147.745 470.891 160.44 470.891Z" fill="#647797" stroke="#35425E" stroke-width="2" stroke-linecap="round" stroke-linejoin="round"/>
<path d="M220.135 463.38V463.514C219.927 467.146 210.196 470.374 195.355 472.35C172.149 475.136 148.691 475.136 125.485 472.35C110.654 470.374 100.933 467.177 100.716 463.514V463.38C100.76 462.902 100.909 462.44 101.152 462.027C101.396 461.614 101.728 461.26 102.125 460.99L102.27 460.876C108.395 455.982 132.117 452.33 160.42 452.33C188.723 452.33 212.455 455.982 218.59 460.876L218.746 460.99C219.139 461.262 219.467 461.617 219.707 462.03C219.947 462.443 220.093 462.904 220.135 463.38Z" fill="#647797" stroke="#35425E" stroke-width="2" stroke-linecap="round" stroke-linejoin="round"/>
<path d="M230.954 481.898C230.868 480.656 230.646 479.428 230.291 478.235C229.024 474.477 227.242 470.911 224.995 467.641C223.372 465.044 221.26 462.784 218.777 460.988C219.17 461.26 219.498 461.615 219.738 462.029C219.978 462.442 220.124 462.902 220.165 463.378V463.513C219.958 467.144 210.227 470.372 195.386 472.348C172.18 475.135 148.722 475.135 125.515 472.348C110.685 470.372 100.964 467.175 100.747 463.513V463.378C100.79 462.901 100.939 462.439 101.183 462.026C101.427 461.612 101.759 461.258 102.156 460.988C95.938 465.178 90.5075 474.438 89.9375 481.95C89.9375 488.054 121.505 492.999 160.409 492.999C199.314 492.999 230.933 488.054 230.933 481.95L230.954 481.898Z" fill="#9DB0CE" stroke="#35425E" stroke-width="2" stroke-linecap="round" stroke-linejoin="round"/>
<path d="M170.917 441.105V462.315C170.917 464.022 166.212 465.419 160.408 465.419C154.605 465.419 149.91 464.043 149.91 462.315V441.105H170.917Z" fill="#9DB0CE" stroke="#35425E" stroke-width="2" stroke-linecap="round" stroke-linejoin="round"/>
<path d="M170.917 440.764C170.917 441.975 166.212 442.958 160.408 442.958C154.605 442.958 149.91 441.975 149.91 440.764C149.91 439.554 154.615 438.561 160.408 438.561C166.202 438.561 170.917 439.543 170.917 440.764Z" fill="#35425E" stroke="#35425E" stroke-width="2" stroke-linecap="round" stroke-linejoin="round"/>
<path d="M167.209 308.828V440.483C167.209 440.824 164.183 441.103 160.452 441.103C156.721 441.103 153.695 440.824 153.695 440.483V308.828H167.209Z" fill="#647797" stroke="#35425E" stroke-width="2" stroke-linecap="round" stroke-linejoin="round"/>
<path d="M153.693 374.693C152.107 374.973 151.133 375.366 151.133 375.8C151.133 376.235 152.107 376.618 153.693 376.908C155.917 377.259 158.167 377.425 160.419 377.404C162.692 377.431 164.964 377.257 167.207 376.887C168.751 376.607 169.694 376.225 169.694 375.8C169.694 375.376 168.751 374.993 167.207 374.704" fill="#647797"/>
<path d="M153.693 374.693C152.107 374.973 151.133 375.366 151.133 375.8C151.133 376.235 152.107 376.618 153.693 376.908C155.917 377.259 158.167 377.425 160.419 377.404C162.692 377.431 164.964 377.257 167.207 376.887C168.751 376.607 169.694 376.225 169.694 375.8C169.694 375.376 168.751 374.993 167.207 374.704" stroke="#35425E" stroke-width="2" stroke-linecap="round" stroke-linejoin="round"/>
<path d="M153.693 379.906C152.107 380.186 151.133 380.579 151.133 381.013C151.133 381.448 152.107 381.831 153.693 382.12C155.917 382.471 158.167 382.637 160.419 382.617C162.692 382.643 164.964 382.47 167.207 382.099C168.751 381.82 169.694 381.437 169.694 381.065C169.694 380.693 168.751 380.258 167.207 379.968" fill="#647797"/>
<path d="M153.693 379.906C152.107 380.186 151.133 380.579 151.133 381.013C151.133 381.448 152.107 381.831 153.693 382.12C155.917 382.471 158.167 382.637 160.419 382.617C162.692 382.643 164.964 382.47 167.207 382.099C168.751 381.82 169.694 381.437 169.694 381.065C169.694 380.693 168.751 380.258 167.207 379.968" stroke="#35425E" stroke-width="2" stroke-linecap="round" stroke-linejoin="round"/>
<path d="M153.693 385.111C152.107 385.391 151.133 385.784 151.133 386.218C151.133 386.653 152.107 387.036 153.693 387.325C155.917 387.676 158.167 387.842 160.419 387.822C162.692 387.848 164.964 387.675 167.207 387.305C168.751 387.025 169.694 386.642 169.694 386.218C169.694 385.794 168.751 385.411 167.207 385.122" fill="#647797"/>
<path d="M153.693 385.111C152.107 385.391 151.133 385.784 151.133 386.218C151.133 386.653 152.107 387.036 153.693 387.325C155.917 387.676 158.167 387.842 160.419 387.822C162.692 387.848 164.964 387.675 167.207 387.305C168.751 387.025 169.694 386.642 169.694 386.218C169.694 385.794 168.751 385.411 167.207 385.122" stroke="#35425E" stroke-width="2" stroke-linecap="round" stroke-linejoin="round"/>
<path d="M153.693 390.326C152.107 390.605 151.133 390.999 151.133 391.433C151.133 391.868 152.107 392.25 153.693 392.54C155.917 392.891 158.167 393.057 160.419 393.037C162.692 393.063 164.964 392.89 167.207 392.519C168.751 392.24 169.694 391.857 169.694 391.485C169.694 391.112 168.751 390.678 167.207 390.388" fill="#647797"/>
<path d="M153.693 390.326C152.107 390.605 151.133 390.999 151.133 391.433C151.133 391.868 152.107 392.25 153.693 392.54C155.917 392.891 158.167 393.057 160.419 393.037C162.692 393.063 164.964 392.89 167.207 392.519C168.751 392.24 169.694 391.857 169.694 391.485C169.694 391.112 168.751 390.678 167.207 390.388" stroke="#35425E" stroke-width="2" stroke-linecap="round" stroke-linejoin="round"/>
<path d="M153.693 395.529C152.107 395.809 151.133 396.202 151.133 396.636C151.133 397.071 152.107 397.454 153.693 397.743C155.917 398.094 158.167 398.26 160.419 398.24C162.692 398.266 164.964 398.093 167.207 397.723C168.751 397.443 169.694 397.06 169.694 396.636C169.694 396.212 168.751 395.829 167.207 395.54" fill="#647797"/>
<path d="M153.693 395.529C152.107 395.809 151.133 396.202 151.133 396.636C151.133 397.071 152.107 397.454 153.693 397.743C155.917 398.094 158.167 398.26 160.419 398.24C162.692 398.266 164.964 398.093 167.207 397.723C168.751 397.443 169.694 397.06 169.694 396.636C169.694 396.212 168.751 395.829 167.207 395.54" stroke="#35425E" stroke-width="2" stroke-linecap="round" stroke-linejoin="round"/>
<path d="M153.693 400.744C152.107 401.023 151.133 401.417 151.133 401.851C151.133 402.286 152.107 402.668 153.693 402.958C155.917 403.309 158.167 403.475 160.419 403.455C162.692 403.481 164.964 403.308 167.207 402.937C168.751 402.658 169.694 402.275 169.694 401.851C169.694 401.427 168.751 401.044 167.207 400.754" fill="#647797"/>
<path d="M153.693 400.744C152.107 401.023 151.133 401.417 151.133 401.851C151.133 402.286 152.107 402.668 153.693 402.958C155.917 403.309 158.167 403.475 160.419 403.455C162.692 403.481 164.964 403.308 167.207 402.937C168.751 402.658 169.694 402.275 169.694 401.851C169.694 401.427 168.751 401.044 167.207 400.754" stroke="#35425E" stroke-width="2" stroke-linecap="round" stroke-linejoin="round"/>
<path d="M8.18023 198.664L8.03516 200.547C8.03516 199.926 8.03516 199.285 8.1077 198.674L8.18023 198.664Z" fill="#647797" stroke="#35425E" stroke-width="2" stroke-linecap="round" stroke-linejoin="round"/>
<path d="M273.445 188.328L281.943 239.759C285.55 261.634 280.308 284.045 267.369 302.063C254.43 320.081 234.853 332.232 212.942 335.843L149.155 346.345C142.65 347.423 136.041 347.729 129.464 347.255C126.335 347.037 123.221 346.639 120.137 346.065C111.619 344.46 103.4 341.549 95.7723 337.437C94.736 336.899 93.6996 336.33 92.7462 335.74C82.2474 329.523 73.2407 321.086 66.3598 311.02C59.479 300.955 54.8911 289.507 52.9192 277.481L44.4107 226.05C40.7967 204.176 46.0334 181.764 58.969 163.743C71.9047 145.723 91.4801 133.569 113.39 129.955L177.178 119.443C182.937 118.501 188.779 118.155 194.609 118.409H195.345C199.6 118.617 203.831 119.163 207.999 120.044H208.061L208.279 120.095C224.751 123.613 239.78 132.005 251.404 144.177C263.029 156.348 270.709 171.734 273.445 188.328Z" fill="#BED0EA" stroke="#35425E" stroke-width="2" stroke-miterlimit="10"/>
<path d="M188.918 154.202L128.077 164.224C96.3117 169.457 74.8098 199.407 80.0515 231.12L85.0289 261.234C90.2706 292.946 120.271 314.412 152.037 309.179L212.877 299.157C244.643 293.924 266.145 263.974 260.903 232.261L255.926 202.147C250.684 170.435 220.683 148.969 188.918 154.202Z" fill="#FFFCF5" stroke="#35425E" stroke-width="2" stroke-linecap="round" stroke-linejoin="round"/>
<path d="M238.788 310.515C238.994 311.765 238.825 313.047 238.301 314.201C237.777 315.354 236.923 316.327 235.845 316.995C234.768 317.664 233.516 317.999 232.249 317.958C230.981 317.916 229.754 317.501 228.722 316.763C227.691 316.026 226.902 315 226.455 313.814C226.008 312.629 225.922 311.339 226.21 310.105C226.497 308.872 227.145 307.751 228.07 306.885C228.996 306.019 230.157 305.446 231.409 305.239C232.24 305.101 233.091 305.128 233.912 305.319C234.733 305.51 235.508 305.86 236.194 306.35C236.879 306.84 237.461 307.46 237.906 308.175C238.351 308.89 238.651 309.685 238.788 310.515Z" fill="#FFFCF5" stroke="#35425E" stroke-width="2" stroke-linecap="round" stroke-linejoin="round"/>
<path d="M106.799 342.411L84.3722 336.059L70.8996 332.241C66.2631 330.495 61.7895 328.345 57.5307 325.816C47.0213 319.605 38.0033 311.17 31.1115 301.105C24.2198 291.039 19.6219 279.588 17.6416 267.557L16.999 263.656L50.5353 274.934C51.2144 275.161 51.9066 275.348 52.608 275.492L52.9397 277.479C54.9117 289.505 59.4995 300.953 66.3803 311.018C73.2612 321.084 82.2679 329.521 92.7667 335.738C93.803 336.328 94.7668 336.897 95.7928 337.435C99.3351 339.359 103.014 341.022 106.799 342.411Z" fill="#35425E" stroke="#35425E" stroke-width="2" stroke-miterlimit="10"/>
<path d="M208.279 120.147L208.061 120.095H207.999C203.831 119.215 199.6 118.669 195.345 118.461H194.609C188.779 118.206 182.937 118.553 177.178 119.495L113.391 129.955C93.4857 133.233 75.4353 143.574 62.5582 159.077C49.6812 174.581 42.8434 194.204 43.3021 214.338C42.7735 214.256 42.2657 214.142 41.7268 214.018L8.08684 205.844C8.01429 204.075 7.99356 202.306 8.08684 200.547C8.08684 199.926 8.08684 199.285 8.15939 198.674C9.04586 179.542 16.4854 161.293 29.2338 146.981C41.9822 132.668 59.2665 123.159 78.196 120.044L141.983 109.532C147.739 108.585 153.577 108.238 159.405 108.497C163.906 108.695 168.384 109.259 172.794 110.184H172.856C177.041 111.064 181.15 112.268 185.147 113.784L208.279 120.147Z" fill="#35425E" stroke="#35425E" stroke-width="2" stroke-miterlimit="10"/>
<path d="M66.589 220.546L73.9056 264.817C74.0894 265.929 74.0518 267.067 73.7951 268.166C73.5383 269.264 73.0673 270.301 72.4091 271.218C71.7508 272.134 70.9182 272.912 69.9587 273.507C68.9992 274.103 67.9316 274.504 66.817 274.687L60.4745 275.721C57.8486 276.161 55.1618 276.08 52.5671 275.484C51.8657 275.339 51.1735 275.152 50.4944 274.925L17.0099 263.658L11.7452 261.899C10.9844 261.637 10.3085 261.174 9.78876 260.561C9.26898 259.947 8.92453 259.205 8.79164 258.412L0.863544 210.427L0.677008 209.341V209.165C0.283453 206.786 0.848091 204.348 2.24782 202.382C3.64756 200.417 5.76883 199.084 8.14909 198.674C8.14909 199.284 8.1491 199.926 8.07656 200.546C8.00401 201.167 8.07656 202.078 8.07656 202.843C8.085 203.698 8.37915 204.526 8.91233 205.195C9.44552 205.864 10.1872 206.336 11.0198 206.537L41.7891 214.017C42.3072 214.141 42.8254 214.255 43.3643 214.338C45.3399 214.648 47.3494 214.679 49.3337 214.431L57.0442 213.396C59.252 213.127 61.4786 213.721 63.2578 215.053C65.037 216.386 66.2307 218.354 66.589 220.546Z" fill="#647797" stroke="#35425E" stroke-width="2" stroke-linecap="round" stroke-linejoin="round"/>
<path d="M178.898 125.889L179.531 129.758C179.752 131.109 179.429 132.493 178.63 133.606C177.832 134.719 176.624 135.471 175.271 135.697L116.033 145.474C114.68 145.692 113.295 145.366 112.182 144.567C111.069 143.768 110.319 142.562 110.095 141.211L109.37 136.866C109.079 135.098 108.309 133.443 107.143 132.081C105.978 130.719 104.461 129.701 102.758 129.137L82.7043 122.485C78.2821 121.025 73.5264 120.903 69.0348 122.133C68.9787 120.964 69.3553 119.815 70.093 118.905C70.8307 117.995 71.8778 117.387 73.0351 117.198L132.055 107.473C136.094 106.809 140.226 106.988 144.191 108L171.623 117.984C173.472 118.458 175.143 119.457 176.434 120.86C177.726 122.263 178.582 124.01 178.898 125.889Z" fill="#647797" stroke="#35425E" stroke-width="2" stroke-linecap="round" stroke-linejoin="round"/>
<path d="M281.88 238.911L280.274 239.531C279.446 239.668 278.6 239.64 277.783 239.449C276.967 239.259 276.196 238.909 275.514 238.421C274.833 237.933 274.254 237.316 273.812 236.604C273.37 235.893 273.072 235.102 272.936 234.276L264.749 184.79C264.474 183.121 264.873 181.41 265.861 180.035C266.848 178.659 268.342 177.731 270.014 177.455C270.588 177.235 271.204 177.145 271.817 177.192C272.43 177.239 273.026 177.422 273.559 177.727C274.093 178.032 274.552 178.451 274.903 178.956C275.254 179.46 275.489 180.036 275.589 180.641L284.471 234.441C284.61 235.369 284.43 236.317 283.959 237.129C283.489 237.941 282.755 238.569 281.88 238.911Z" fill="#647797" stroke="#35425E" stroke-width="2" stroke-linecap="round" stroke-linejoin="round"/>
<path d="M29.4253 245.975C32.3844 245.975 34.7833 243.58 34.7833 240.626C34.7833 237.672 32.3844 235.277 29.4253 235.277C26.4662 235.277 24.0674 237.672 24.0674 240.626C24.0674 243.58 26.4662 245.975 29.4253 245.975Z" fill="#BED0EA" stroke="#35425E" stroke-width="2" stroke-linecap="round" stroke-linejoin="round"/>
<path d="M70.1748 242.202L51.1681 245.306C48.8705 245.687 46.5158 245.535 44.2867 244.861L34.6279 241.943" stroke="#35425E" stroke-width="2" stroke-linecap="round" stroke-linejoin="round"/>
<path d="M127.226 118.574L139.765 123.985C141.147 124.585 142.356 125.52 143.283 126.705C144.21 127.891 144.825 129.289 145.071 130.772L146.657 140.415" stroke="#35425E" stroke-width="2" stroke-linecap="round" stroke-linejoin="round"/>
<path d="M269.184 211.586L280.397 209.744" stroke="#35425E" stroke-width="2" stroke-linecap="round" stroke-linejoin="round"/>
<path d="M127.536 121.166C130.906 120.763 133.499 119.278 133.328 117.848C133.156 116.419 130.286 115.586 126.916 115.988C123.545 116.391 120.952 117.876 121.124 119.306C121.295 120.735 124.166 121.568 127.536 121.166Z" fill="#BED0EA" stroke="#35425E" stroke-width="2" stroke-linecap="round" stroke-linejoin="round"/>
<rect width="36.2303" height="10.1895" transform="matrix(0.986564 -0.163374 0.16391 0.986475 129.642 223.148)" fill="#35425E"/>
<rect width="36.2303" height="10.1895" transform="matrix(0.986564 -0.163375 0.163909 0.986475 184.059 212.451)" fill="#35425E"/>
<rect width="27.0451" height="10.1895" transform="matrix(0.986564 -0.163375 0.163909 0.986476 135.842 232.451)" fill="#35425E"/>
<rect width="27.0451" height="10.1895" transform="matrix(0.986564 -0.163374 0.16391 0.986475 190.262 221.752)" fill="#35425E"/>
<g filter="url(#filter0_d_4475_13592)">
<path d="M200 18C200 12.4772 204.477 8 210 8H360C365.523 8 370 12.4772 370 18V92C370 97.5229 365.523 102 360 102H208.44C208.147 102 207.856 102.013 207.564 102.039C204.902 102.278 190.952 103.548 190.5 104C190 104.5 188.059 105.229 187.999 105C187.926 104.715 189.07 101.567 189.346 101.002C190.782 98.0542 195.302 91.802 197.971 88.2033C199.277 86.4419 200 84.312 200 82.119V18Z" fill="white"/>
</g>
<path d="M227.367 29.0078C226.82 29.0078 226.331 29.1068 225.898 29.3047C225.471 29.5026 225.109 29.7891 224.812 30.1641C224.516 30.5339 224.289 30.9844 224.133 31.5156C223.977 32.0417 223.898 32.6354 223.898 33.2969C223.898 34.1823 224.023 34.9453 224.273 35.5859C224.523 36.2214 224.904 36.7109 225.414 37.0547C225.924 37.3932 226.57 37.5625 227.352 37.5625C227.836 37.5625 228.307 37.5156 228.766 37.4219C229.224 37.3281 229.698 37.2005 230.188 37.0391V38.6328C229.724 38.8151 229.255 38.9479 228.781 39.0312C228.307 39.1146 227.76 39.1562 227.141 39.1562C225.974 39.1562 225.005 38.9141 224.234 38.4297C223.469 37.9453 222.896 37.263 222.516 36.3828C222.141 35.5026 221.953 34.4714 221.953 33.2891C221.953 32.4245 222.073 31.6328 222.312 30.9141C222.552 30.1953 222.901 29.5755 223.359 29.0547C223.818 28.5286 224.383 28.125 225.055 27.8438C225.732 27.5573 226.505 27.4141 227.375 27.4141C227.948 27.4141 228.51 27.4792 229.062 27.6094C229.62 27.7344 230.135 27.9141 230.609 28.1484L229.953 29.6953C229.557 29.5078 229.143 29.3464 228.711 29.2109C228.279 29.0755 227.831 29.0078 227.367 29.0078ZM240.008 30.3516V39H238.156V31.8047H234.297V39H232.453V30.3516H240.008ZM247.078 30.1875C248.104 30.1875 248.927 30.5625 249.547 31.3125C250.172 32.0625 250.484 33.1771 250.484 34.6562C250.484 35.6354 250.339 36.4609 250.047 37.1328C249.76 37.7995 249.357 38.3047 248.836 38.6484C248.32 38.987 247.719 39.1562 247.031 39.1562C246.594 39.1562 246.214 39.099 245.891 38.9844C245.568 38.8698 245.292 38.7214 245.062 38.5391C244.833 38.3516 244.641 38.1484 244.484 37.9297H244.375C244.401 38.138 244.424 38.3698 244.445 38.625C244.471 38.875 244.484 39.1042 244.484 39.3125V42.8359H242.641V30.3516H244.141L244.398 31.5469H244.484C244.646 31.3021 244.841 31.0755 245.07 30.8672C245.305 30.6589 245.586 30.4948 245.914 30.375C246.247 30.25 246.635 30.1875 247.078 30.1875ZM246.586 31.6875C246.081 31.6875 245.674 31.7891 245.367 31.9922C245.065 32.1901 244.844 32.4896 244.703 32.8906C244.568 33.2917 244.495 33.7943 244.484 34.3984V34.6562C244.484 35.2969 244.549 35.8411 244.68 36.2891C244.815 36.7318 245.036 37.0703 245.344 37.3047C245.656 37.5339 246.078 37.6484 246.609 37.6484C247.057 37.6484 247.427 37.526 247.719 37.2812C248.016 37.0365 248.237 36.6875 248.383 36.2344C248.529 35.7812 248.602 35.2474 248.602 34.6328C248.602 33.7005 248.435 32.9766 248.102 32.4609C247.773 31.9453 247.268 31.6875 246.586 31.6875ZM260.266 34.6562C260.266 35.375 260.172 36.013 259.984 36.5703C259.797 37.1276 259.523 37.599 259.164 37.9844C258.805 38.3646 258.372 38.6562 257.867 38.8594C257.362 39.0573 256.792 39.1562 256.156 39.1562C255.562 39.1562 255.018 39.0573 254.523 38.8594C254.029 38.6562 253.599 38.3646 253.234 37.9844C252.875 37.599 252.596 37.1276 252.398 36.5703C252.201 36.013 252.102 35.375 252.102 34.6562C252.102 33.7031 252.266 32.8958 252.594 32.2344C252.927 31.5677 253.401 31.0599 254.016 30.7109C254.63 30.362 255.362 30.1875 256.211 30.1875C257.008 30.1875 257.711 30.362 258.32 30.7109C258.93 31.0599 259.406 31.5677 259.75 32.2344C260.094 32.901 260.266 33.7083 260.266 34.6562ZM253.992 34.6562C253.992 35.2865 254.068 35.8255 254.219 36.2734C254.375 36.7214 254.615 37.0651 254.938 37.3047C255.26 37.5391 255.677 37.6562 256.188 37.6562C256.698 37.6562 257.115 37.5391 257.438 37.3047C257.76 37.0651 257.997 36.7214 258.148 36.2734C258.299 35.8255 258.375 35.2865 258.375 34.6562C258.375 34.026 258.299 33.4922 258.148 33.0547C257.997 32.612 257.76 32.276 257.438 32.0469C257.115 31.8125 256.695 31.6953 256.18 31.6953C255.419 31.6953 254.865 31.9505 254.516 32.4609C254.167 32.9714 253.992 33.7031 253.992 34.6562ZM265.859 39.1562C265.042 39.1562 264.333 38.9974 263.734 38.6797C263.135 38.362 262.674 37.875 262.352 37.2188C262.029 36.5625 261.867 35.7292 261.867 34.7188C261.867 33.6667 262.044 32.8073 262.398 32.1406C262.753 31.474 263.242 30.9818 263.867 30.6641C264.497 30.3464 265.219 30.1875 266.031 30.1875C266.547 30.1875 267.013 30.2396 267.43 30.3438C267.852 30.4427 268.208 30.5651 268.5 30.7109L267.953 32.1797C267.635 32.0495 267.31 31.9401 266.977 31.8516C266.643 31.763 266.323 31.7188 266.016 31.7188C265.51 31.7188 265.089 31.8307 264.75 32.0547C264.417 32.2786 264.167 32.612 264 33.0547C263.839 33.4974 263.758 34.0469 263.758 34.7031C263.758 35.3385 263.841 35.875 264.008 36.3125C264.174 36.7448 264.422 37.0729 264.75 37.2969C265.078 37.5156 265.482 37.625 265.961 37.625C266.435 37.625 266.859 37.5677 267.234 37.4531C267.609 37.3385 267.964 37.1901 268.297 37.0078V38.6016C267.969 38.7891 267.617 38.9271 267.242 39.0156C266.867 39.1094 266.406 39.1562 265.859 39.1562ZM272.094 30.3516V34.7656C272.094 34.9062 272.089 35.0859 272.078 35.3047C272.073 35.5182 272.062 35.7422 272.047 35.9766C272.031 36.2057 272.016 36.4167 272 36.6094C271.984 36.8021 271.971 36.9453 271.961 37.0391L276.312 30.3516H278.547V39H276.789V34.6328C276.789 34.4036 276.794 34.138 276.805 33.8359C276.82 33.5339 276.836 33.2422 276.852 32.9609C276.872 32.6797 276.885 32.4661 276.891 32.3203L272.555 39H270.328V30.3516H272.094ZM284.039 30.3516H286.039L287.812 35.2891C287.891 35.513 287.961 35.7344 288.023 35.9531C288.091 36.1667 288.148 36.3776 288.195 36.5859C288.247 36.7943 288.289 37.0026 288.32 37.2109H288.367C288.419 36.9401 288.492 36.638 288.586 36.3047C288.685 35.9661 288.794 35.6276 288.914 35.2891L290.617 30.3516H292.594L288.883 40.1875C288.669 40.75 288.406 41.2292 288.094 41.625C287.786 42.026 287.422 42.3281 287 42.5312C286.578 42.7396 286.096 42.8438 285.555 42.8438C285.294 42.8438 285.068 42.8281 284.875 42.7969C284.682 42.7708 284.518 42.7422 284.383 42.7109V41.2422C284.492 41.2682 284.63 41.2917 284.797 41.3125C284.964 41.3333 285.135 41.3438 285.312 41.3438C285.641 41.3438 285.924 41.2786 286.164 41.1484C286.404 41.0182 286.607 40.8333 286.773 40.5938C286.94 40.3594 287.078 40.0911 287.188 39.7891L287.492 38.9766L284.039 30.3516ZM305.617 30.3516V39H303.766V31.8047H299.906V39H298.062V30.3516H305.617ZM315.906 34.6562C315.906 35.375 315.812 36.013 315.625 36.5703C315.438 37.1276 315.164 37.599 314.805 37.9844C314.445 38.3646 314.013 38.6562 313.508 38.8594C313.003 39.0573 312.432 39.1562 311.797 39.1562C311.203 39.1562 310.659 39.0573 310.164 38.8594C309.669 38.6562 309.24 38.3646 308.875 37.9844C308.516 37.599 308.237 37.1276 308.039 36.5703C307.841 36.013 307.742 35.375 307.742 34.6562C307.742 33.7031 307.906 32.8958 308.234 32.2344C308.568 31.5677 309.042 31.0599 309.656 30.7109C310.271 30.362 311.003 30.1875 311.852 30.1875C312.648 30.1875 313.352 30.362 313.961 30.7109C314.57 31.0599 315.047 31.5677 315.391 32.2344C315.734 32.901 315.906 33.7083 315.906 34.6562ZM309.633 34.6562C309.633 35.2865 309.708 35.8255 309.859 36.2734C310.016 36.7214 310.255 37.0651 310.578 37.3047C310.901 37.5391 311.318 37.6562 311.828 37.6562C312.339 37.6562 312.755 37.5391 313.078 37.3047C313.401 37.0651 313.638 36.7214 313.789 36.2734C313.94 35.8255 314.016 35.2865 314.016 34.6562C314.016 34.026 313.94 33.4922 313.789 33.0547C313.638 32.612 313.401 32.276 313.078 32.0469C312.755 31.8125 312.336 31.6953 311.82 31.6953C311.06 31.6953 310.505 31.9505 310.156 32.4609C309.807 32.9714 309.633 33.7031 309.633 34.6562ZM319.781 30.3516V34.7656C319.781 34.9062 319.776 35.0859 319.766 35.3047C319.76 35.5182 319.75 35.7422 319.734 35.9766C319.719 36.2057 319.703 36.4167 319.688 36.6094C319.672 36.8021 319.659 36.9453 319.648 37.0391L324 30.3516H326.234V39H324.477V34.6328C324.477 34.4036 324.482 34.138 324.492 33.8359C324.508 33.5339 324.523 33.2422 324.539 32.9609C324.56 32.6797 324.573 32.4661 324.578 32.3203L320.242 39H318.016V30.3516H319.781ZM332.359 39.1562C331.542 39.1562 330.833 38.9974 330.234 38.6797C329.635 38.362 329.174 37.875 328.852 37.2188C328.529 36.5625 328.367 35.7292 328.367 34.7188C328.367 33.6667 328.544 32.8073 328.898 32.1406C329.253 31.474 329.742 30.9818 330.367 30.6641C330.997 30.3464 331.719 30.1875 332.531 30.1875C333.047 30.1875 333.513 30.2396 333.93 30.3438C334.352 30.4427 334.708 30.5651 335 30.7109L334.453 32.1797C334.135 32.0495 333.81 31.9401 333.477 31.8516C333.143 31.763 332.823 31.7188 332.516 31.7188C332.01 31.7188 331.589 31.8307 331.25 32.0547C330.917 32.2786 330.667 32.612 330.5 33.0547C330.339 33.4974 330.258 34.0469 330.258 34.7031C330.258 35.3385 330.341 35.875 330.508 36.3125C330.674 36.7448 330.922 37.0729 331.25 37.2969C331.578 37.5156 331.982 37.625 332.461 37.625C332.935 37.625 333.359 37.5677 333.734 37.4531C334.109 37.3385 334.464 37.1901 334.797 37.0078V38.6016C334.469 38.7891 334.117 38.9271 333.742 39.0156C333.367 39.1094 332.906 39.1562 332.359 39.1562ZM342.188 30.3516H344.211L340.633 34.5078L344.516 39H342.398L338.672 34.6094V39H336.828V30.3516H338.672V34.5469L342.188 30.3516ZM349.312 30.1875C350.406 30.1875 351.232 30.4297 351.789 30.9141C352.352 31.3984 352.633 32.1536 352.633 33.1797V39H351.328L350.977 37.7734H350.914C350.669 38.0859 350.417 38.3438 350.156 38.5469C349.896 38.75 349.594 38.901 349.25 39C348.911 39.1042 348.497 39.1562 348.008 39.1562C347.492 39.1562 347.031 39.0625 346.625 38.875C346.219 38.6823 345.898 38.3906 345.664 38C345.43 37.6094 345.312 37.1146 345.312 36.5156C345.312 35.625 345.643 34.9557 346.305 34.5078C346.971 34.0599 347.977 33.8125 349.32 33.7656L350.82 33.7109V33.2578C350.82 32.6589 350.68 32.2318 350.398 31.9766C350.122 31.7214 349.732 31.5938 349.227 31.5938C348.794 31.5938 348.375 31.6562 347.969 31.7812C347.562 31.9062 347.167 32.0599 346.781 32.2422L346.188 30.9453C346.609 30.7214 347.089 30.5391 347.625 30.3984C348.167 30.2578 348.729 30.1875 349.312 30.1875ZM350.812 34.8672L349.695 34.9062C348.779 34.9375 348.135 35.0938 347.766 35.375C347.396 35.6562 347.211 36.0417 347.211 36.5312C347.211 36.9583 347.339 37.2708 347.594 37.4688C347.849 37.6615 348.185 37.7578 348.602 37.7578C349.237 37.7578 349.763 37.5781 350.18 37.2188C350.602 36.8542 350.812 36.3203 350.812 35.6172V34.8672ZM357.055 37.1406L357.164 37.3203C357.07 37.6953 356.951 38.099 356.805 38.5312C356.659 38.9635 356.5 39.3958 356.328 39.8281C356.156 40.2656 355.982 40.6771 355.805 41.0625H354.461C354.57 40.6406 354.674 40.1979 354.773 39.7344C354.878 39.276 354.971 38.8229 355.055 38.375C355.143 37.9219 355.214 37.5104 355.266 37.1406H357.055ZM229.867 52.3516V61H228.016V53.8047H224.156V61H222.312V52.3516H229.867ZM240.156 56.6562C240.156 57.375 240.062 58.013 239.875 58.5703C239.688 59.1276 239.414 59.599 239.055 59.9844C238.695 60.3646 238.263 60.6562 237.758 60.8594C237.253 61.0573 236.682 61.1562 236.047 61.1562C235.453 61.1562 234.909 61.0573 234.414 60.8594C233.919 60.6562 233.49 60.3646 233.125 59.9844C232.766 59.599 232.487 59.1276 232.289 58.5703C232.091 58.013 231.992 57.375 231.992 56.6562C231.992 55.7031 232.156 54.8958 232.484 54.2344C232.818 53.5677 233.292 53.0599 233.906 52.7109C234.521 52.362 235.253 52.1875 236.102 52.1875C236.898 52.1875 237.602 52.362 238.211 52.7109C238.82 53.0599 239.297 53.5677 239.641 54.2344C239.984 54.901 240.156 55.7083 240.156 56.6562ZM233.883 56.6562C233.883 57.2865 233.958 57.8255 234.109 58.2734C234.266 58.7214 234.505 59.0651 234.828 59.3047C235.151 59.5391 235.568 59.6562 236.078 59.6562C236.589 59.6562 237.005 59.5391 237.328 59.3047C237.651 59.0651 237.888 58.7214 238.039 58.2734C238.19 57.8255 238.266 57.2865 238.266 56.6562C238.266 56.026 238.19 55.4922 238.039 55.0547C237.888 54.612 237.651 54.276 237.328 54.0469C237.005 53.8125 236.586 53.6953 236.07 53.6953C235.31 53.6953 234.755 53.9505 234.406 54.4609C234.057 54.9714 233.883 55.7031 233.883 56.6562ZM244.031 52.3516V56.7656C244.031 56.9062 244.026 57.0859 244.016 57.3047C244.01 57.5182 244 57.7422 243.984 57.9766C243.969 58.2057 243.953 58.4167 243.938 58.6094C243.922 58.8021 243.909 58.9453 243.898 59.0391L248.25 52.3516H250.484V61H248.727V56.6328C248.727 56.4036 248.732 56.138 248.742 55.8359C248.758 55.5339 248.773 55.2422 248.789 54.9609C248.81 54.6797 248.823 54.4661 248.828 54.3203L244.492 61H242.266V52.3516H244.031ZM256.609 61.1562C255.792 61.1562 255.083 60.9974 254.484 60.6797C253.885 60.362 253.424 59.875 253.102 59.2188C252.779 58.5625 252.617 57.7292 252.617 56.7188C252.617 55.6667 252.794 54.8073 253.148 54.1406C253.503 53.474 253.992 52.9818 254.617 52.6641C255.247 52.3464 255.969 52.1875 256.781 52.1875C257.297 52.1875 257.763 52.2396 258.18 52.3438C258.602 52.4427 258.958 52.5651 259.25 52.7109L258.703 54.1797C258.385 54.0495 258.06 53.9401 257.727 53.8516C257.393 53.763 257.073 53.7188 256.766 53.7188C256.26 53.7188 255.839 53.8307 255.5 54.0547C255.167 54.2786 254.917 54.612 254.75 55.0547C254.589 55.4974 254.508 56.0469 254.508 56.7031C254.508 57.3385 254.591 57.875 254.758 58.3125C254.924 58.7448 255.172 59.0729 255.5 59.2969C255.828 59.5156 256.232 59.625 256.711 59.625C257.185 59.625 257.609 59.5677 257.984 59.4531C258.359 59.3385 258.714 59.1901 259.047 59.0078V60.6016C258.719 60.7891 258.367 60.9271 257.992 61.0156C257.617 61.1094 257.156 61.1562 256.609 61.1562ZM266.438 52.3516H268.461L264.883 56.5078L268.766 61H266.648L262.922 56.6094V61H261.078V52.3516H262.922V56.5469L266.438 52.3516ZM273.023 52.3516H275.023L276.797 57.2891C276.875 57.513 276.945 57.7344 277.008 57.9531C277.076 58.1667 277.133 58.3776 277.18 58.5859C277.232 58.7943 277.273 59.0026 277.305 59.2109H277.352C277.404 58.9401 277.477 58.638 277.57 58.3047C277.669 57.9661 277.779 57.6276 277.898 57.2891L279.602 52.3516H281.578L277.867 62.1875C277.654 62.75 277.391 63.2292 277.078 63.625C276.771 64.026 276.406 64.3281 275.984 64.5312C275.562 64.7396 275.081 64.8438 274.539 64.8438C274.279 64.8438 274.052 64.8281 273.859 64.7969C273.667 64.7708 273.503 64.7422 273.367 64.7109V63.2422C273.477 63.2682 273.615 63.2917 273.781 63.3125C273.948 63.3333 274.12 63.3438 274.297 63.3438C274.625 63.3438 274.909 63.2786 275.148 63.1484C275.388 63.0182 275.591 62.8333 275.758 62.5938C275.924 62.3594 276.062 62.0911 276.172 61.7891L276.477 60.9766L273.023 52.3516ZM292.914 52.3516V61H291.211V56.0625C291.211 55.7396 291.219 55.4167 291.234 55.0938C291.25 54.7708 291.271 54.4635 291.297 54.1719H291.25L288.617 61H287.172L284.562 54.1641H284.508C284.534 54.4609 284.552 54.7682 284.562 55.0859C284.578 55.4036 284.586 55.7474 284.586 56.1172V61H282.883V52.3516H285.445L287.914 58.8125L290.422 52.3516H292.914ZM297.359 52.3516V55.8281H301.406V52.3516H303.25V61H301.406V57.2656H297.359V61H295.516V52.3516H297.359ZM305.875 61V52.3516H307.719V55.8047H309.461C310.273 55.8047 310.943 55.8984 311.469 56.0859C311.995 56.2682 312.385 56.5443 312.641 56.9141C312.896 57.2839 313.023 57.7474 313.023 58.3047C313.023 58.8516 312.901 59.3281 312.656 59.7344C312.411 60.1354 312.029 60.4479 311.508 60.6719C310.987 60.8906 310.305 61 309.461 61H305.875ZM307.719 59.6484H309.336C309.888 59.6484 310.333 59.5495 310.672 59.3516C311.016 59.1484 311.188 58.8151 311.188 58.3516C311.188 57.9193 311.029 57.6146 310.711 57.4375C310.398 57.2552 309.94 57.1641 309.336 57.1641H307.719V59.6484ZM314.359 61V52.3516H316.203V61H314.359ZM320.594 52.3516V56.7656C320.594 56.9062 320.589 57.0859 320.578 57.3047C320.573 57.5182 320.562 57.7422 320.547 57.9766C320.531 58.2057 320.516 58.4167 320.5 58.6094C320.484 58.8021 320.471 58.9453 320.461 59.0391L324.812 52.3516H327.047V61H325.289V56.6328C325.289 56.4036 325.294 56.138 325.305 55.8359C325.32 55.5339 325.336 55.2422 325.352 54.9609C325.372 54.6797 325.385 54.4661 325.391 54.3203L321.055 61H318.828V52.3516H320.594ZM326.398 48.7109C326.346 49.2474 326.201 49.7109 325.961 50.1016C325.727 50.487 325.37 50.7839 324.891 50.9922C324.411 51.2005 323.781 51.3047 323 51.3047C322.193 51.3047 321.555 51.2057 321.086 51.0078C320.617 50.8047 320.279 50.5104 320.07 50.125C319.862 49.7344 319.737 49.263 319.695 48.7109H321.367C321.419 49.2891 321.57 49.6797 321.82 49.8828C322.07 50.0807 322.474 50.1797 323.031 50.1797C323.51 50.1797 323.893 50.0729 324.18 49.8594C324.471 49.6458 324.646 49.263 324.703 48.7109H326.398ZM331.539 59.1406L331.648 59.3203C331.555 59.6953 331.435 60.099 331.289 60.5312C331.143 60.9635 330.984 61.3958 330.812 61.8281C330.641 62.2656 330.466 62.6771 330.289 63.0625H328.945C329.055 62.6406 329.159 62.1979 329.258 61.7344C329.362 61.276 329.456 60.8229 329.539 60.375C329.628 59.9219 329.698 59.5104 329.75 59.1406H331.539ZM229.867 74.3516V83H228.016V75.8047H224.156V83H222.312V74.3516H229.867ZM240.156 78.6562C240.156 79.375 240.062 80.013 239.875 80.5703C239.688 81.1276 239.414 81.599 239.055 81.9844C238.695 82.3646 238.263 82.6562 237.758 82.8594C237.253 83.0573 236.682 83.1562 236.047 83.1562C235.453 83.1562 234.909 83.0573 234.414 82.8594C233.919 82.6562 233.49 82.3646 233.125 81.9844C232.766 81.599 232.487 81.1276 232.289 80.5703C232.091 80.013 231.992 79.375 231.992 78.6562C231.992 77.7031 232.156 76.8958 232.484 76.2344C232.818 75.5677 233.292 75.0599 233.906 74.7109C234.521 74.362 235.253 74.1875 236.102 74.1875C236.898 74.1875 237.602 74.362 238.211 74.7109C238.82 75.0599 239.297 75.5677 239.641 76.2344C239.984 76.901 240.156 77.7083 240.156 78.6562ZM233.883 78.6562C233.883 79.2865 233.958 79.8255 234.109 80.2734C234.266 80.7214 234.505 81.0651 234.828 81.3047C235.151 81.5391 235.568 81.6562 236.078 81.6562C236.589 81.6562 237.005 81.5391 237.328 81.3047C237.651 81.0651 237.888 80.7214 238.039 80.2734C238.19 79.8255 238.266 79.2865 238.266 78.6562C238.266 78.026 238.19 77.4922 238.039 77.0547C237.888 76.612 237.651 76.276 237.328 76.0469C237.005 75.8125 236.586 75.6953 236.07 75.6953C235.31 75.6953 234.755 75.9505 234.406 76.4609C234.057 76.9714 233.883 77.7031 233.883 78.6562ZM244.031 74.3516V78.7656C244.031 78.9062 244.026 79.0859 244.016 79.3047C244.01 79.5182 244 79.7422 243.984 79.9766C243.969 80.2057 243.953 80.4167 243.938 80.6094C243.922 80.8021 243.909 80.9453 243.898 81.0391L248.25 74.3516H250.484V83H248.727V78.6328C248.727 78.4036 248.732 78.138 248.742 77.8359C248.758 77.5339 248.773 77.2422 248.789 76.9609C248.81 76.6797 248.823 76.4661 248.828 76.3203L244.492 83H242.266V74.3516H244.031ZM256.609 83.1562C255.792 83.1562 255.083 82.9974 254.484 82.6797C253.885 82.362 253.424 81.875 253.102 81.2188C252.779 80.5625 252.617 79.7292 252.617 78.7188C252.617 77.6667 252.794 76.8073 253.148 76.1406C253.503 75.474 253.992 74.9818 254.617 74.6641C255.247 74.3464 255.969 74.1875 256.781 74.1875C257.297 74.1875 257.763 74.2396 258.18 74.3438C258.602 74.4427 258.958 74.5651 259.25 74.7109L258.703 76.1797C258.385 76.0495 258.06 75.9401 257.727 75.8516C257.393 75.763 257.073 75.7188 256.766 75.7188C256.26 75.7188 255.839 75.8307 255.5 76.0547C255.167 76.2786 254.917 76.612 254.75 77.0547C254.589 77.4974 254.508 78.0469 254.508 78.7031C254.508 79.3385 254.591 79.875 254.758 80.3125C254.924 80.7448 255.172 81.0729 255.5 81.2969C255.828 81.5156 256.232 81.625 256.711 81.625C257.185 81.625 257.609 81.5677 257.984 81.4531C258.359 81.3385 258.714 81.1901 259.047 81.0078V82.6016C258.719 82.7891 258.367 82.9271 257.992 83.0156C257.617 83.1094 257.156 83.1562 256.609 83.1562ZM266.438 74.3516H268.461L264.883 78.5078L268.766 83H266.648L262.922 78.6094V83H261.078V74.3516H262.922V78.5469L266.438 74.3516ZM277.016 74.1875C277.651 74.1875 278.221 74.2734 278.727 74.4453C279.237 74.612 279.641 74.8646 279.938 75.2031C280.234 75.5417 280.383 75.9635 280.383 76.4688C280.383 76.9896 280.232 77.4062 279.93 77.7188C279.633 78.026 279.229 78.2474 278.719 78.3828V78.4531C279.078 78.5417 279.404 78.6693 279.695 78.8359C279.987 78.9974 280.219 79.2161 280.391 79.4922C280.568 79.763 280.656 80.112 280.656 80.5391C280.656 81.0234 280.513 81.4635 280.227 81.8594C279.945 82.2552 279.513 82.5703 278.93 82.8047C278.346 83.0391 277.604 83.1562 276.703 83.1562C276.271 83.1562 275.859 83.1328 275.469 83.0859C275.083 83.0443 274.732 82.9844 274.414 82.9062C274.096 82.8229 273.82 82.724 273.586 82.6094V81.0312C273.945 81.2031 274.38 81.3594 274.891 81.5C275.401 81.6354 275.948 81.7031 276.531 81.7031C276.964 81.7031 277.354 81.6641 277.703 81.5859C278.057 81.5026 278.336 81.3672 278.539 81.1797C278.747 80.9922 278.852 80.7422 278.852 80.4297C278.852 80.1432 278.76 79.9062 278.578 79.7188C278.396 79.5312 278.122 79.3932 277.758 79.3047C277.393 79.2109 276.932 79.1641 276.375 79.1641H275.344V77.8125H276.25C277.016 77.8125 277.615 77.7292 278.047 77.5625C278.484 77.3906 278.703 77.0938 278.703 76.6719C278.703 76.3177 278.549 76.0521 278.242 75.875C277.935 75.6979 277.464 75.6094 276.828 75.6094C276.391 75.6094 275.958 75.6589 275.531 75.7578C275.104 75.8516 274.677 75.987 274.25 76.1641L273.672 74.8125C274.146 74.6198 274.654 74.4688 275.195 74.3594C275.737 74.2448 276.344 74.1875 277.016 74.1875ZM284.484 74.3516V77.8281H288.531V74.3516H290.375V83H288.531V79.2656H284.484V83H282.641V74.3516H284.484ZM296.391 74.1875C297.484 74.1875 298.31 74.4297 298.867 74.9141C299.43 75.3984 299.711 76.1536 299.711 77.1797V83H298.406L298.055 81.7734H297.992C297.747 82.0859 297.495 82.3438 297.234 82.5469C296.974 82.75 296.672 82.901 296.328 83C295.99 83.1042 295.576 83.1562 295.086 83.1562C294.57 83.1562 294.109 83.0625 293.703 82.875C293.297 82.6823 292.977 82.3906 292.742 82C292.508 81.6094 292.391 81.1146 292.391 80.5156C292.391 79.625 292.721 78.9557 293.383 78.5078C294.049 78.0599 295.055 77.8125 296.398 77.7656L297.898 77.7109V77.2578C297.898 76.6589 297.758 76.2318 297.477 75.9766C297.201 75.7214 296.81 75.5938 296.305 75.5938C295.872 75.5938 295.453 75.6562 295.047 75.7812C294.641 75.9062 294.245 76.0599 293.859 76.2422L293.266 74.9453C293.688 74.7214 294.167 74.5391 294.703 74.3984C295.245 74.2578 295.807 74.1875 296.391 74.1875ZM297.891 78.8672L296.773 78.9062C295.857 78.9375 295.214 79.0938 294.844 79.375C294.474 79.6562 294.289 80.0417 294.289 80.5312C294.289 80.9583 294.417 81.2708 294.672 81.4688C294.927 81.6615 295.263 81.7578 295.68 81.7578C296.315 81.7578 296.841 81.5781 297.258 81.2188C297.68 80.8542 297.891 80.3203 297.891 79.6172V78.8672ZM305.727 74.1875C306.497 74.1875 307.159 74.3464 307.711 74.6641C308.263 74.9818 308.688 75.4323 308.984 76.0156C309.281 76.599 309.43 77.2969 309.43 78.1094V79.0938H303.656C303.677 79.9323 303.901 80.5781 304.328 81.0312C304.76 81.4844 305.365 81.7109 306.141 81.7109C306.693 81.7109 307.188 81.6589 307.625 81.5547C308.068 81.4453 308.523 81.2865 308.992 81.0781V82.5703C308.56 82.7734 308.12 82.9219 307.672 83.0156C307.224 83.1094 306.688 83.1562 306.062 83.1562C305.214 83.1562 304.466 82.9922 303.82 82.6641C303.18 82.3307 302.677 81.8359 302.312 81.1797C301.953 80.5234 301.773 79.7083 301.773 78.7344C301.773 77.7656 301.938 76.9427 302.266 76.2656C302.594 75.5885 303.055 75.0729 303.648 74.7188C304.242 74.3646 304.935 74.1875 305.727 74.1875ZM305.727 75.5703C305.148 75.5703 304.68 75.7578 304.32 76.1328C303.966 76.5078 303.758 77.0573 303.695 77.7812H307.633C307.628 77.349 307.555 76.9661 307.414 76.6328C307.279 76.2995 307.07 76.0391 306.789 75.8516C306.513 75.6641 306.159 75.5703 305.727 75.5703ZM318.031 75.7969H315.188V83H313.359V75.7969H310.531V74.3516H318.031V75.7969Z" fill="#313E60"/>
</g>
<defs>
<filter id="filter0_d_4475_13592" x="167.996" y="-8" width="222.004" height="137.043" filterUnits="userSpaceOnUse" color-interpolation-filters="sRGB">
<feFlood flood-opacity="0" result="BackgroundImageFix"/>
<feColorMatrix in="SourceAlpha" type="matrix" values="0 0 0 0 0 0 0 0 0 0 0 0 0 0 0 0 0 0 127 0" result="hardAlpha"/>
<feOffset dy="4"/>
<feGaussianBlur stdDeviation="10"/>
<feComposite in2="hardAlpha" operator="out"/>
<feColorMatrix type="matrix" values="0 0 0 0 0.219608 0 0 0 0 0.337255 0 0 0 0 0.356863 0 0 0 0.1 0"/>
<feBlend mode="normal" in2="BackgroundImageFix" result="effect1_dropShadow_4475_13592"/>
<feBlend mode="normal" in="SourceGraphic" in2="effect1_dropShadow_4475_13592" result="shape"/>
</filter>
<clipPath id="clip0_4475_13592">
<rect width="416" height="494" fill="white"/>
</clipPath>
</defs>
</svg>
