<svg width="74" height="89" viewBox="0 0 66 49" fill="none" xmlns="http://www.w3.org/2000/svg">
<circle cx="17.74" cy="23.58" r="0.78" fill="white"/>
<circle cx="20.8601" cy="23.5798" r="0.78" fill="white"/>
<circle cx="23.98" cy="23.58" r="0.78" fill="white"/>
<circle cx="27.1001" cy="23.58" r="0.78" fill="white"/>
<circle cx="30.2199" cy="23.5798" r="0.78" fill="white"/>
<circle cx="33.3401" cy="23.58" r="0.78" fill="white"/>
<circle cx="36.4602" cy="23.5798" r="0.78" fill="white"/>
<circle cx="39.58" cy="23.58" r="0.78" fill="white"/>
<circle cx="17.74" cy="26.7" r="0.78" fill="white"/>
<circle cx="20.8601" cy="26.6998" r="0.78" fill="white"/>
<circle cx="23.98" cy="26.7" r="0.78" fill="white"/>
<circle cx="27.1001" cy="26.7" r="0.78" fill="white"/>
<circle cx="30.2199" cy="26.6998" r="0.78" fill="white"/>
<circle cx="33.3401" cy="26.7" r="0.78" fill="white"/>
<circle cx="36.4602" cy="26.6998" r="0.78" fill="white"/>
<circle cx="39.58" cy="26.7" r="0.78" fill="white"/>
<circle cx="17.74" cy="29.82" r="0.78" fill="white"/>
<circle cx="20.8601" cy="29.8198" r="0.78" fill="white"/>
<circle cx="23.98" cy="29.82" r="0.78" fill="white"/>
<circle cx="27.1001" cy="29.82" r="0.78" fill="white"/>
<circle cx="30.2199" cy="29.8198" r="0.78" fill="white"/>
<circle cx="33.3401" cy="29.82" r="0.78" fill="white"/>
<circle cx="36.4602" cy="29.8198" r="0.78" fill="white"/>
<circle cx="39.58" cy="29.82" r="0.78" fill="white"/>
<circle cx="17.74" cy="32.94" r="0.78" fill="white"/>
<circle cx="20.8601" cy="32.9402" r="0.78" fill="white"/>
<circle cx="23.98" cy="32.94" r="0.78" fill="white"/>
<circle cx="27.1001" cy="32.94" r="0.78" fill="white"/>
<circle cx="30.2199" cy="32.9402" r="0.78" fill="white"/>
<circle cx="33.3401" cy="32.94" r="0.78" fill="white"/>
<circle cx="36.4602" cy="32.9402" r="0.78" fill="white"/>
<circle cx="39.58" cy="32.94" r="0.78" fill="white"/>
<circle cx="17.74" cy="36.06" r="0.78" fill="white"/>
<circle cx="20.8601" cy="36.0602" r="0.78" fill="white"/>
<circle cx="23.98" cy="36.06" r="0.78" fill="white"/>
<circle cx="27.1001" cy="36.06" r="0.78" fill="white"/>
<circle cx="30.2199" cy="36.0602" r="0.78" fill="white"/>
<circle cx="33.3401" cy="36.06" r="0.78" fill="white"/>
<circle cx="36.4602" cy="36.0602" r="0.78" fill="white"/>
<circle cx="39.58" cy="36.06" r="0.78" fill="white"/>
<circle cx="17.74" cy="39.18" r="0.78" fill="white"/>
<circle cx="20.8601" cy="39.1801" r="0.78" fill="white"/>
<circle cx="23.98" cy="39.18" r="0.78" fill="white"/>
<circle cx="27.1001" cy="39.18" r="0.78" fill="white"/>
<circle cx="30.2199" cy="39.1801" r="0.78" fill="white"/>
<circle cx="33.3401" cy="39.18" r="0.78" fill="white"/>
<circle cx="36.4602" cy="39.1801" r="0.78" fill="white"/>
<circle cx="39.58" cy="39.18" r="0.78" fill="white"/>
<circle cx="17.74" cy="42.3" r="0.78" fill="white"/>
<circle cx="20.8601" cy="42.3001" r="0.78" fill="white"/>
<circle cx="23.98" cy="42.3" r="0.78" fill="white"/>
<circle cx="27.1001" cy="42.3" r="0.78" fill="white"/>
<circle cx="30.2199" cy="42.3001" r="0.78" fill="white"/>
<circle cx="33.3401" cy="42.3" r="0.78" fill="white"/>
<circle cx="36.4602" cy="42.3001" r="0.78" fill="white"/>
<circle cx="39.58" cy="42.3" r="0.78" fill="white"/>
<circle cx="17.74" cy="45.42" r="0.78" fill="white"/>
<circle cx="20.8601" cy="45.4201" r="0.78" fill="white"/>
<circle cx="23.98" cy="45.42" r="0.78" fill="white"/>
<circle cx="27.1001" cy="45.42" r="0.78" fill="white"/>
<circle cx="30.2199" cy="45.4201" r="0.78" fill="white"/>
<circle cx="33.3401" cy="45.42" r="0.78" fill="white"/>
<circle cx="36.4602" cy="45.4201" r="0.78" fill="white"/>
<circle cx="39.58" cy="45.42" r="0.78" fill="white"/>
<circle cx="17.74" cy="48.5399" r="0.78" fill="white"/>
<circle cx="20.8601" cy="48.5401" r="0.78" fill="white"/>
<circle cx="23.98" cy="48.5399" r="0.78" fill="white"/>
<circle cx="27.1001" cy="48.5399" r="0.78" fill="white"/>
<circle cx="30.2199" cy="48.5401" r="0.78" fill="white"/>
<circle cx="33.3401" cy="48.5399" r="0.78" fill="white"/>
<circle cx="36.4602" cy="48.5401" r="0.78" fill="white"/>
<circle cx="39.58" cy="48.5399" r="0.78" fill="white"/>
</svg>