<svg width="640" height="447" viewBox="0 0 640 447" fill="none" xmlns="http://www.w3.org/2000/svg">
    <path d="M632 0C636.418 0 640 3.58172 640 8V439C640 443.418 636.418 447 632 447H8C3.58172 447 2.01336e-08 443.418 0 439V8C0 3.58172 3.58172 6.44255e-08 8 0H632ZM34 367C31.7909 367 30 368.791 30 371V413C30 415.209 31.7909 417 34 417H126C128.209 417 130 415.209 130 413V371C130 368.791 128.209 367 126 367H34ZM144 367C141.791 367 140 368.791 140 371V413C140 415.209 141.791 417 144 417H236C238.209 417 240 415.209 240 413V371C240 368.791 238.209 367 236 367H144Z" fill="white"/>
    </svg>