<svg width="32" height="32" viewBox="0 0 32 32" fill="none" xmlns="http://www.w3.org/2000/svg">
<path d="M18.8278 16L31.414 3.41516C32.1953 2.63388 32.1953 1.36718 31.414 0.58596C30.6327 -0.19532 29.366 -0.19532 28.5848 0.58596L16 13.1721L3.41516 0.58596C2.63388 -0.19532 1.36718 -0.19532 0.58596 0.58596C-0.195258 1.36724 -0.19532 2.63394 0.58596 3.41516L13.1721 16L0.58596 28.5848C-0.19532 29.3661 -0.19532 30.6328 0.58596 31.414C1.36724 32.1952 2.63394 32.1953 3.41516 31.414L16 18.8278L28.5848 31.414C29.366 32.1953 30.6327 32.1953 31.4139 31.414C32.1952 30.6327 32.1952 29.366 31.4139 28.5848L18.8278 16Z" fill="white"/>
</svg>
