<svg width="16" height="16" viewBox="0 0 16 16" fill="none" xmlns="http://www.w3.org/2000/svg">
<path d="M8.56529 1.83392C8.25288 1.5215 7.74634 1.5215 7.43392 1.83392L1.83392 7.43392C1.5215 7.74634 1.5215 8.25288 1.83392 8.56529C2.14634 8.87771 2.65288 8.87771 2.96529 8.56529L3.19961 8.33098V13.5996C3.19961 14.0414 3.55778 14.3996 3.99961 14.3996H5.59961C6.04144 14.3996 6.39961 14.0414 6.39961 13.5996V11.9996C6.39961 11.5578 6.75778 11.1996 7.19961 11.1996H8.79961C9.24144 11.1996 9.59961 11.5578 9.59961 11.9996V13.5996C9.59961 14.0414 9.95778 14.3996 10.3996 14.3996H11.9996C12.4414 14.3996 12.7996 14.0414 12.7996 13.5996V8.33098L13.0339 8.56529C13.3463 8.87771 13.8529 8.87771 14.1653 8.56529C14.4777 8.25288 14.4777 7.74634 14.1653 7.43392L8.56529 1.83392Z" fill="#D3D5D6"/>
</svg>
