<svg width="24" height="24" viewBox="0 0 24 24" fill="none" xmlns="http://www.w3.org/2000/svg">
<path d="M6 14.5C4.89543 14.5 4 13.6046 4 12.5C4 11.3954 4.89543 10.5 6 10.5C7.10457 10.5 8 11.3954 8 12.5C8 13.0304 7.78929 13.5391 7.41421 13.9142C7.03914 14.2893 6.53043 14.5 6 14.5Z" fill="white"/>
<path d="M10.0858 12.5C10.0858 13.6046 10.9812 14.5 12.0858 14.5C12.6162 14.5 13.1249 14.2893 13.5 13.9142C13.8751 13.5391 14.0858 13.0304 14.0858 12.5C14.0858 11.3954 13.1904 10.5 12.0858 10.5C10.9812 10.5 10.0858 11.3954 10.0858 12.5Z" fill="white"/>
<path d="M16 12.5C16 13.6046 16.8954 14.5 18 14.5C18.5304 14.5 19.0391 14.2893 19.4142 13.9142C19.7893 13.5391 20 13.0304 20 12.5C20 11.3954 19.1046 10.5 18 10.5C16.8954 10.5 16 11.3954 16 12.5Z" fill="white"/>
</svg>
