<svg width="24" height="24" viewBox="0 0 24 24" fill="none" xmlns="http://www.w3.org/2000/svg">
<path d="M12 22C6.47967 21.994 2.00606 17.5204 2 12V11.8C2.10993 6.30455 6.63459 1.92797 12.1307 2.0009C17.6268 2.07382 22.0337 6.5689 21.9978 12.0654C21.9619 17.5618 17.4966 21.9989 12 22ZM11.984 20H12C16.4167 19.9956 19.9942 16.4127 19.992 11.996C19.9898 7.57931 16.4087 4.00002 11.992 4.00002C7.57528 4.00002 3.99421 7.57931 3.992 11.996C3.98979 16.4127 7.56729 19.9956 11.984 20Z" fill="#FF7860"/>
<path d="M13.0581 14.3901H11.3003L11.0513 7H13.3071L13.0581 14.3901ZM12.1792 15.5474C12.5356 15.5474 12.8213 15.6523 13.0361 15.8623C13.2559 16.0723 13.3657 16.3408 13.3657 16.668C13.3657 16.9903 13.2559 17.2564 13.0361 17.4663C12.8213 17.6763 12.5356 17.7813 12.1792 17.7813C11.8276 17.7813 11.542 17.6763 11.3223 17.4663C11.1074 17.2564 11 16.9903 11 16.668C11 16.3457 11.1074 16.0796 11.3223 15.8696C11.542 15.6548 11.8276 15.5474 12.1792 15.5474Z" fill="#FF7860"/>
</svg>
