<svg width="24" height="25" viewBox="0 0 24 25" fill="none" xmlns="http://www.w3.org/2000/svg">
<path d="M8 3.5V6.5C8 7.03043 7.78929 7.53914 7.41421 7.91421C7.03914 8.28929 6.53043 8.5 6 8.5H3M21 8.5H18C17.4696 8.5 16.9609 8.28929 16.5858 7.91421C16.2107 7.53914 16 7.03043 16 6.5V3.5M16 21.5V18.5C16 17.9696 16.2107 17.4609 16.5858 17.0858C16.9609 16.7107 17.4696 16.5 18 16.5H21M3 16.5H6C6.53043 16.5 7.03914 16.7107 7.41421 17.0858C7.78929 17.4609 8 17.9696 8 18.5V21.5" stroke="#E0E0E2" stroke-width="2" stroke-linecap="round" stroke-linejoin="round"/>
</svg>
