<svg width="34" height="34" viewBox="0 0 34 34" fill="none" xmlns="http://www.w3.org/2000/svg">
<path d="M10.4 3C9.49826 3 8.63346 3.35821 7.99584 3.99584C7.35821 4.63346 7 5.49826 7 6.4V26.8C7 27.7017 7.35821 28.5665 7.99584 29.2042C8.63346 29.8418 9.49826 30.2 10.4 30.2H26.55C26.7754 30.2 26.9916 30.1104 27.151 29.951C27.3104 29.7916 27.4 29.5754 27.4 29.35C27.4 29.1246 27.3104 28.9084 27.151 28.749C26.9916 28.5896 26.7754 28.5 26.55 28.5H10.4C9.94913 28.5 9.51673 28.3209 9.19792 28.0021C8.87911 27.6833 8.7 27.2509 8.7 26.8H25.7C26.1509 26.8 26.5833 26.6209 26.9021 26.3021C27.2209 25.9833 27.4 25.5509 27.4 25.1V6.4C27.4 5.49826 27.0418 4.63346 26.4042 3.99584C25.7665 3.35821 24.9017 3 24 3H10.4ZM15.092 10.4953C14.8255 10.764 14.668 11.122 14.65 11.5C14.65 11.7254 14.5604 11.9416 14.401 12.101C14.2416 12.2604 14.0254 12.35 13.8 12.35C13.5746 12.35 13.3584 12.2604 13.199 12.101C13.0396 11.9416 12.95 11.7254 12.95 11.5C12.95 10.8795 13.188 10.0227 13.868 9.3172C14.565 8.593 15.653 8.1 17.2 8.1C18.747 8.1 19.835 8.5913 20.532 9.3172C21.212 10.0227 21.45 10.8795 21.45 11.5C21.45 13.2782 20.209 14.1299 19.2791 14.5923C19.0597 14.6997 18.8375 14.8012 18.6127 14.8966L18.594 14.9051C18.4103 14.9825 18.2289 15.0653 18.05 15.1533V16.6C18.0502 16.8254 17.9609 17.0417 17.8016 17.2013C17.6424 17.3609 17.4263 17.4506 17.2009 17.4508C16.9754 17.4511 16.7591 17.3617 16.5996 17.2025C16.44 17.0432 16.3502 16.8271 16.35 16.6017V14.9C16.35 14.4784 16.5676 14.1758 16.7631 13.9905C16.9484 13.8171 17.1711 13.693 17.3496 13.6029C17.523 13.5145 17.7202 13.4295 17.9004 13.353L17.9378 13.336C18.1384 13.2493 18.3322 13.166 18.5209 13.0708C19.291 12.6866 19.75 12.2718 19.75 11.5C19.732 11.122 19.5745 10.764 19.308 10.4953C18.985 10.157 18.373 9.8 17.2 9.8C16.027 9.8 15.415 10.1587 15.092 10.4953ZM17.2 21.7C16.8618 21.7 16.5375 21.5657 16.2984 21.3266C16.0593 21.0875 15.925 20.7632 15.925 20.425C15.925 20.0868 16.0593 19.7625 16.2984 19.5234C16.5375 19.2843 16.8618 19.15 17.2 19.15C17.5382 19.15 17.8625 19.2843 18.1016 19.5234C18.3407 19.7625 18.475 20.0868 18.475 20.425C18.475 20.7632 18.3407 21.0875 18.1016 21.3266C17.8625 21.5657 17.5382 21.7 17.2 21.7Z" fill="#93969D"/>
</svg>
