<svg width="34" height="34" viewBox="0 0 34 34" fill="none" xmlns="http://www.w3.org/2000/svg">
<path d="M18.3333 3V11.0004C18.3332 11.3507 18.402 11.6977 18.5359 12.0214C18.6699 12.3451 18.8663 12.6392 19.1139 12.887C19.3616 13.1348 19.6556 13.3313 19.9792 13.4654C20.3028 13.5995 20.6497 13.6686 21 13.6686H29V27.0039C29 27.7112 28.719 28.3895 28.219 28.8896C27.7189 29.3898 27.0406 29.6707 26.3333 29.6707H14.3333V24.7758C15.1558 23.7596 15.6239 22.5026 15.6664 21.196C15.7089 19.8894 15.3236 18.6046 14.569 17.5371C13.8144 16.4696 12.7318 15.6777 11.4859 15.282C10.24 14.8862 8.89893 14.9082 7.66667 15.3446V5.66681C7.66667 4.95952 7.94762 4.28121 8.44772 3.78109C8.94781 3.28097 9.62609 3 10.3333 3H18.3333ZM20.3333 3.6667V11.0004C20.3333 11.1772 20.4036 11.3468 20.5286 11.4718C20.6536 11.5969 20.8232 11.6671 21 11.6671H28.3333L20.3333 3.6667ZM14.3333 21.0036C14.3333 21.6165 14.2126 22.2233 13.9781 22.7896C13.7436 23.3558 13.3998 23.8702 12.9665 24.3036C12.5332 24.737 12.0187 25.0807 11.4525 25.3153C10.8863 25.5498 10.2795 25.6705 9.66667 25.6705C9.05383 25.6705 8.447 25.5498 7.88081 25.3153C7.31462 25.0807 6.80018 24.737 6.36683 24.3036C5.93349 23.8702 5.58975 23.3558 5.35523 22.7896C5.12071 22.2233 5 21.6165 5 21.0036C5 19.7659 5.49167 18.5788 6.36683 17.7036C7.242 16.8284 8.42899 16.3367 9.66667 16.3367C10.9043 16.3367 12.0913 16.8284 12.9665 17.7036C13.8417 18.5788 14.3333 19.7659 14.3333 21.0036ZM6.33333 25.9932V30.0521C6.33309 30.2394 6.38844 30.4226 6.49236 30.5785C6.59628 30.7343 6.74411 30.8559 6.91713 30.9277C7.09015 30.9995 7.28058 31.0184 7.46432 30.9819C7.64807 30.9454 7.81686 30.8552 7.94933 30.7228L9.66667 29.0054L11.384 30.7228C11.5165 30.8552 11.6853 30.9454 11.869 30.9819C12.0528 31.0184 12.2432 30.9995 12.4162 30.9277C12.5892 30.8559 12.7371 30.7343 12.841 30.5785C12.9449 30.4226 13.0002 30.2394 13 30.0521V25.9932C12.0133 26.6523 10.8533 27.004 9.66667 27.0039C8.48006 27.004 7.32006 26.6523 6.33333 25.9932Z" fill="#93969D"/>
</svg>
