<svg width="38" height="48" viewBox="0 0 38 48" fill="none" xmlns="http://www.w3.org/2000/svg">
<path d="M11.8253 16.492C7.89215 19.5125 4.52169 22.1007 4.33998 22.241L4 22.5039L5.03751 23.8418L6.07503 25.1856L6.28019 25.022C6.39742 24.9285 9.30481 22.6967 12.7515 20.0617L19.0059 15.265L25.2661 20.0617C28.7069 22.6967 31.6143 24.9285 31.7315 25.022L31.9367 25.1856L32.9683 23.8476L34 22.5156L33.8769 22.3987C33.8066 22.3403 32.8453 21.5983 31.7433 20.7511L29.7327 19.2204V13.7986L27.5815 13.8103L25.4244 13.8278L25.4068 14.8327C25.4009 15.3877 25.3775 15.8434 25.3599 15.8434C25.3423 15.8434 23.9062 14.7509 22.1712 13.4188C20.4302 12.0867 19 10.9942 18.9941 11C18.9824 11 15.7585 13.4714 11.8253 16.492Z" fill="white"/>
<path d="M13.8359 21.4405L8.68933 25.3901V36H16.9543V28.2295H21.4091V36H29.3224V25.3901L24.1876 21.4464C21.3623 19.2788 19.0293 17.5027 19.0117 17.4969C18.9941 17.491 16.6612 19.2671 13.8359 21.4405Z" fill="white"/>
</svg>
