<svg width="34" height="34" viewBox="0 0 34 34" fill="none" xmlns="http://www.w3.org/2000/svg">
<path d="M13.1042 5.84391V8.50016H20.8958V5.84391C20.8958 5.68113 20.8638 5.51994 20.8015 5.36954C20.7392 5.21915 20.6479 5.0825 20.5328 4.9674C20.4177 4.85229 20.281 4.76098 20.1306 4.69869C19.9802 4.63639 19.819 4.60433 19.6562 4.60433H14.3438C14.015 4.60433 13.6997 4.73493 13.4672 4.9674C13.2348 5.19986 13.1042 5.51515 13.1042 5.84391ZM11.3333 8.50016V5.84391C11.3333 5.0455 11.6505 4.27979 12.2151 3.71523C12.7796 3.15066 13.5453 2.8335 14.3438 2.8335H19.6562C20.4547 2.8335 21.2204 3.15066 21.7849 3.71523C22.3495 4.27979 22.6667 5.0455 22.6667 5.84391V8.50016H25.3229C26.4971 8.50016 27.6231 8.96659 28.4533 9.79683C29.2836 10.6271 29.75 11.7531 29.75 12.9272V15.4064C29.75 16.1109 29.4701 16.7865 28.972 17.2847C28.4739 17.7828 27.7982 18.0627 27.0938 18.0627H19.8333V17.7085C19.8333 17.3328 19.6841 16.9724 19.4184 16.7068C19.1527 16.4411 18.7924 16.2918 18.4167 16.2918H15.5833C15.2076 16.2918 14.8473 16.4411 14.5816 16.7068C14.3159 16.9724 14.1667 17.3328 14.1667 17.7085V18.0627H6.90625C6.20177 18.0627 5.52614 17.7828 5.028 17.2847C4.52985 16.7865 4.25 16.1109 4.25 15.4064V12.9272C4.25 11.7531 4.71642 10.6271 5.54666 9.79683C6.3769 8.96659 7.50295 8.50016 8.67708 8.50016H11.3333ZM14.1667 19.8335H6.90625C5.94811 19.835 5.01559 19.5242 4.25 18.9481V23.9064C4.25 25.0805 4.71642 26.2066 5.54666 27.0368C6.3769 27.8671 7.50295 28.3335 8.67708 28.3335H25.3229C26.4971 28.3335 27.6231 27.8671 28.4533 27.0368C29.2836 26.2066 29.75 25.0805 29.75 23.9064V18.9481C28.9844 19.5242 28.0519 19.835 27.0938 19.8335H19.8333V20.5418C19.8333 20.9176 19.6841 21.2779 19.4184 21.5436C19.1527 21.8092 18.7924 21.9585 18.4167 21.9585H15.5833C15.2076 21.9585 14.8473 21.8092 14.5816 21.5436C14.3159 21.2779 14.1667 20.9176 14.1667 20.5418V19.8335Z" fill="#93969D"/>
</svg>
