<svg width="34" height="34" viewBox="0 0 34 34" fill="none" xmlns="http://www.w3.org/2000/svg">
<path fill-rule="evenodd" clip-rule="evenodd" d="M18.4279 4.38064C18.1818 4.13692 17.848 4 17.5 4C17.152 4 16.8182 4.13692 16.5721 4.38064C15.5089 5.43368 13.9825 6.05771 12.3944 6.38272C10.8167 6.70513 9.31394 6.70253 8.45688 6.60763C8.27345 6.58752 8.0878 6.60596 7.91205 6.66173C7.7363 6.7175 7.5744 6.80936 7.43692 6.93131C7.29944 7.05325 7.18947 7.20255 7.11418 7.36944C7.03889 7.53634 6.99999 7.71708 7 7.89988V19.6004C7 21.2904 7.7455 22.7842 8.7115 24.014C9.68012 25.2465 10.9388 26.306 12.1437 27.1589C13.6533 28.2161 15.2619 29.1273 16.9474 29.8799L16.9711 29.8903L16.9789 29.8942H16.9829C17.1462 29.9638 17.3221 29.9998 17.4999 30C17.6777 30.0002 17.8536 29.9647 18.0171 29.8955L17.5 28.7007C18.0171 29.8968 18.0184 29.8955 18.0184 29.8955L18.0211 29.8942L18.0276 29.8903L18.0539 29.8799L18.1392 29.8422C18.6134 29.6281 19.0817 29.4014 19.5436 29.1623C20.6919 28.5688 21.7987 27.8995 22.8563 27.1589C24.0612 26.306 25.3199 25.2478 26.2885 24.014C27.2545 22.7855 28 21.2904 28 19.6004V7.89988C28 7.71708 27.9611 7.53634 27.8858 7.36944C27.8105 7.20255 27.7006 7.05325 27.5631 6.93131C27.4256 6.80936 27.2637 6.7175 27.0879 6.66173C26.9122 6.60596 26.7266 6.58752 26.5431 6.60763C25.6861 6.70253 24.1833 6.70513 22.6056 6.38272C21.0175 6.05771 19.4911 5.43368 18.4279 4.38064Z" fill="#93969D"/>
</svg>
