<svg width="34" height="34" viewBox="0 0 34 34" fill="none" xmlns="http://www.w3.org/2000/svg">
<path d="M18.7143 11.3125V4H11C10.318 4 9.66396 4.25681 9.18173 4.71393C8.69949 5.17105 8.42857 5.79103 8.42857 6.4375V18.625H17.8571C18.5391 18.625 19.1932 18.8818 19.6754 19.3389C20.1577 19.796 20.4286 20.416 20.4286 21.0625C20.4286 21.709 20.1577 22.329 19.6754 22.7861C19.1932 23.2432 18.5391 23.5 17.8571 23.5H8.42857V27.5625C8.42857 28.209 8.69949 28.829 9.18173 29.2861C9.66396 29.7432 10.318 30 11 30H26.4286C27.1106 30 27.7646 29.7432 28.2468 29.2861C28.7291 28.829 29 28.209 29 27.5625V13.75H21.2857C20.6037 13.75 19.9497 13.4932 19.4674 13.0361C18.9852 12.579 18.7143 11.959 18.7143 11.3125ZM11.8571 16.1875C11.8571 15.972 11.9474 15.7653 12.1082 15.613C12.2689 15.4606 12.487 15.375 12.7143 15.375H24.7143C24.9416 15.375 25.1596 15.4606 25.3204 15.613C25.4811 15.7653 25.5714 15.972 25.5714 16.1875C25.5714 16.403 25.4811 16.6097 25.3204 16.762C25.1596 16.9144 24.9416 17 24.7143 17H12.7143C12.487 17 12.2689 16.9144 12.1082 16.762C11.9474 16.6097 11.8571 16.403 11.8571 16.1875ZM11.8571 25.9375C11.8571 25.722 11.9474 25.5153 12.1082 25.363C12.2689 25.2106 12.487 25.125 12.7143 25.125H24.7143C24.9416 25.125 25.1596 25.2106 25.3204 25.363C25.4811 25.5153 25.5714 25.722 25.5714 25.9375C25.5714 26.153 25.4811 26.3597 25.3204 26.512C25.1596 26.6644 24.9416 26.75 24.7143 26.75H12.7143C12.487 26.75 12.2689 26.6644 12.1082 26.512C11.9474 26.3597 11.8571 26.153 11.8571 25.9375ZM20.4286 11.3125V4.40625L28.5714 12.125H21.2857C21.0584 12.125 20.8404 12.0394 20.6796 11.887C20.5189 11.7347 20.4286 11.528 20.4286 11.3125ZM5.85714 20.25C5.62981 20.25 5.4118 20.3356 5.25105 20.488C5.09031 20.6403 5 20.847 5 21.0625C5 21.278 5.09031 21.4847 5.25105 21.637C5.4118 21.7894 5.62981 21.875 5.85714 21.875H17.8571C18.0845 21.875 18.3025 21.7894 18.4632 21.637C18.624 21.4847 18.7143 21.278 18.7143 21.0625C18.7143 20.847 18.624 20.6403 18.4632 20.488C18.3025 20.3356 18.0845 20.25 17.8571 20.25H5.85714Z" fill="#93969D"/>
</svg>
