<svg width="34" height="34" viewBox="0 0 34 34" fill="none" xmlns="http://www.w3.org/2000/svg">
<path d="M9.05392 13.3743L9.05108 13.3771L9.04542 13.3813L9.03125 13.3927C8.96977 13.4393 8.91022 13.4885 8.85275 13.54C8.70443 13.6714 8.5617 13.8089 8.42492 13.9523C8.08491 14.3107 7.64858 14.8433 7.23917 15.5559C6.41467 16.9938 5.72192 19.1373 6.1115 22.0032C6.49542 24.8323 7.684 27.1967 9.69283 28.8457C11.696 30.489 14.4075 31.3333 17.6871 31.3333C21.0687 31.3333 23.7688 30.0654 25.5552 27.8908C27.3261 25.7361 28.1166 22.7965 27.9282 19.5835C27.7468 16.5008 26.0681 14.1619 24.5848 12.0964L24.1612 11.5057C22.5434 9.222 21.267 7.11825 21.5772 4.17442C21.5929 4.02625 21.5773 3.87645 21.5313 3.73472C21.4854 3.593 21.4101 3.46253 21.3105 3.35178C21.2108 3.24103 21.089 3.15248 20.9528 3.09187C20.8167 3.03127 20.6694 2.99997 20.5204 3C19.9792 3 19.3587 3.16717 18.7609 3.41933C18.0686 3.71614 17.4154 4.09676 16.8158 4.55267C15.5054 5.5415 14.195 7.03183 13.4966 9.02367C12.7996 11.0098 13.1537 12.9025 13.6637 14.2809C13.9995 15.1862 13.6354 16.0801 13.0872 16.3408C12.8539 16.4511 12.587 16.467 12.3422 16.3852C12.0975 16.3033 11.8939 16.1301 11.7739 15.9016L10.6321 13.7327C10.5606 13.5966 10.4605 13.4777 10.3386 13.384C10.2167 13.2904 10.076 13.2244 9.92606 13.1904C9.77616 13.1565 9.62069 13.1555 9.47036 13.1875C9.32004 13.2194 9.17844 13.2837 9.05533 13.3757" fill="#93969D"/>
</svg>
