<?xml version="1.0" encoding="UTF-8"?>
<!DOCTYPE svg PUBLIC "-//W3C//DTD SVG 1.0//EN" "http://www.w3.org/TR/2001/REC-SVG-20010904/DTD/svg10.dtd">
<!-- Creator: CorelDRAW 2018 -->
<svg xmlns="http://www.w3.org/2000/svg" xml:space="preserve" width="85.1mm" height="97.5mm" version="1.0" style="shape-rendering:geometricPrecision; text-rendering:geometricPrecision; image-rendering:optimizeQuality; fill-rule:evenodd; clip-rule:evenodd"
viewBox="0 0 8510 9750"
 xmlns:xlink="http://www.w3.org/1999/xlink"
 xmlns:dc="http://purl.org/dc/elements/1.1/"
 xmlns:cc="http://creativecommons.org/ns#"
 xmlns:rdf="http://www.w3.org/1999/02/22-rdf-syntax-ns#"
 xmlns:svg="http://www.w3.org/2000/svg"
 xmlns:sodipodi="http://sodipodi.sourceforge.net/DTD/sodipodi-0.dtd"
 xmlns:inkscape="http://www.inkscape.org/namespaces/inkscape"
 sodipodi:docname="COA_of_the_Zaporozhskaja_oblaste_wo_crown.svg"
 inkscape:version="0.92.0 r15299">
 <defs>
  <style type="text/css">
   <![CDATA[
    .str12 {stroke:black;stroke-width:100;stroke-miterlimit:22.9256}
    .str1 {stroke:#E72F33;stroke-width:10.58;stroke-miterlimit:22.9256}
    .str2 {stroke:black;stroke-width:13.23;stroke-miterlimit:22.9256}
    .str7 {stroke:black;stroke-width:15.88;stroke-miterlimit:22.9256}
    .str0 {stroke:#20A652;stroke-width:15.88;stroke-miterlimit:22.9256}
    .str8 {stroke:black;stroke-width:31.75;stroke-miterlimit:22.9256}
    .str4 {stroke:black;stroke-width:39.69;stroke-miterlimit:22.9256}
    .str3 {stroke:black;stroke-width:39.69;stroke-miterlimit:22.9256}
    .str11 {stroke:black;stroke-width:40.46;stroke-miterlimit:22.9256}
    .str13 {stroke:black;stroke-width:66.15;stroke-miterlimit:22.9256}
    .str6 {stroke:black;stroke-width:7.62;stroke-miterlimit:22.9256}
    .str10 {stroke:#DEE1E2;stroke-width:7.62;stroke-miterlimit:22.9256}
    .str9 {stroke:#FEFBFD;stroke-width:7.62;stroke-miterlimit:22.9256}
    .str5 {stroke:black;stroke-width:39.7;stroke-linejoin:round;stroke-miterlimit:22.9256}
    .str14 {stroke:black;stroke-width:39.7;stroke-linecap:round;stroke-linejoin:round;stroke-miterlimit:22.9256}
    .fil10 {fill:none}
    .fil9 {fill:black}
    .fil1 {fill:#00A637}
    .fil3 {fill:#CBCDD1}
    .fil6 {fill:#DEE1E2}
    .fil0 {fill:#DFE2E4}
    .fil8 {fill:#E6E7E9}
    .fil2 {fill:#E82517}
    .fil7 {fill:#F7CF18}
    .fil4 {fill:#F9FBFB}
    .fil5 {fill:#FEFBFD}
   ]]>
  </style>
 </defs>
 <g id="Layer_x0020_1">
  <metadata id="CorelCorpID_0Corel-Layer"/>
  <sodipodi:namedview id="namedview45" pagecolor="#ffffff" bordercolor="#666666" borderopacity="1.0" inkscape:pageshadow="2" inkscape:pageopacity="0.0" inkscape:pagecheckerboard="0" showgrid="false" inkscape:zoom="1" inkscape:cx="-175.27121" inkscape:cy="248.92967" inkscape:window-width="1920" inkscape:window-height="1017" inkscape:window-x="-8" inkscape:window-y="-8" inkscape:window-maximized="1" inkscape:current-layer="layer10" inkscape:snap-others="true" inkscape:snap-nodes="true" showguides="true" fit-margin-top="1" fit-margin-left="2" fit-margin-right="2" fit-margin-bottom="1" inkscape:snap-global="false"/>
  <g id="_700984536">
   <g>
    <path class="fil0" d="M3764.31 6985.98c-85.29,136.42 -199.07,292.46 -351.34,359.61 -121.09,53.39 -282.59,62.82 -411.4,31.94 -304.3,-72.81 -536.54,-253.14 -790.87,-421.87 -173.1,-114.8 -432.9,-276.98 -633.09,-334.45 -141.93,-40.73 -253.91,-43.15 -304.43,-6.56 -7.3,5.29 -13.23,12.28 -13.23,15.5 0,3.22 4.34,12.69 9.66,21.08 41.53,65.5 19.25,146.46 -63.05,163.45 -91.27,18.86 -160.26,-84.77 -127.62,-159.23l18.22 28.33c36.89,56.2 80.31,75.55 107.85,48.01 12.61,-12.62 12.27,-26.42 -1.29,-49.09 -22.47,-37.56 -27.45,-57.41 -19.9,-79.58 13.9,-40.8 72.37,-74.06 146.66,-83.41 61.61,-7.75 177.13,1.11 237.4,18.19 254.48,72.1 508.98,237.31 728.22,386.24 208.28,141.49 463.52,315.37 709.31,374.75 125.59,30.35 276.89,21.78 392.9,-36.43 149.79,-75.17 231.27,-207.41 318.43,-343.75 82.07,-128.38 232.55,-198.7 380.41,-217.08 80.01,-9.94 220.34,-13.35 281.66,-6.13 75.76,8.93 164.95,32.45 221.23,58.34 92.39,42.51 141.83,86.46 204.17,181.54 108.25,165.08 214.23,320.17 418.52,370.16 203.65,49.8 465.76,-62.27 644.74,-164.07 209.03,-118.94 417.53,-282.94 630.67,-411.51 191.41,-115.47 473.17,-245.96 697.55,-206.91 83.68,14.56 120.15,37.88 130.59,83.41 4.89,21.34 0.26,44.43 -14.99,74.72 -13.47,26.78 -14.45,41.21 -3.57,52.09 16.58,16.58 46.77,16.4 71.16,-0.41 24.82,-17.1 40.51,-47.31 52.4,-74.31 23.46,80.17 -21.7,157.45 -108.07,158.01 -56.71,0.37 -111.2,-40.6 -111.2,-99.77 0,-18.15 11.78,-46.57 27.65,-66.77 8.1,-10.3 14.68,-20.87 14.68,-23.46 0,-5.31 -19.37,-19.63 -34.21,-25.27 -124.34,-47.32 -261.56,5.01 -377.96,48.99 -79.64,30.09 -116.89,48.07 -246.03,118.8 -343.27,188.04 -703.77,510.42 -1080.31,602.39 -95.28,23.27 -191.61,31.12 -286.04,15.02 -136.75,-23.33 -249.19,-98.1 -356.44,-217.94 -125.81,-140.56 -154.12,-295.35 -351.24,-366.69 -141.05,-51.07 -398.55,-53.2 -539.48,0.74 -101.33,38.76 -161.31,92.17 -218.32,183.38z"/>
    <path class="fil1 str0" d="M93.65 2266.63c2.66,-1185.05 6.34,-2156.16 8.19,-2158.01 1.85,-1.85 1875.37,-4.34 4163.36,-5.53l4160.02 -2.17 0 2155.77 0 2155.76 -2068.71 4.41c-1137.79,2.42 -3013.47,4.41 -4168.19,4.41l-2099.5 0 4.83 -2154.64z"/>
    <path class="fil2 str1" d="M4232.31 9566.16c-25.17,-79.09 -89.5,-172.99 -171.95,-251.01 -63.82,-60.39 -78.52,-70.6 -162.07,-112.64 -157.61,-79.3 -260.09,-115.06 -395.31,-137.92l-116.77 -19.74 -1226.38 0 -1226.39 0 -136.46 -32.06c-99.47,-23.37 -159.8,-41.75 -222.54,-67.8 -83.23,-34.56 -89.64,-38.7 -193.78,-125.04l-107.7 -89.3 -54.43 -99.22c-65.29,-119.02 -94.06,-201.18 -118.09,-337.34l-17.51 -99.22 2.65 -1866.74c1.46,-1026.71 3.99,-1867.91 5.63,-1869.36 1.64,-1.44 1877.47,-4.65 4168.49,-7.12l4165.53 -4.49 -0.7 812.21c-0.38,446.72 -2.79,1331.63 -5.34,1966.46l14.2 1059.29c-2.2,542.97 -656.67,760.98 -1108.63,759.35l-973.2 -3.52 -1170.78 -4.23 -82.68 14.35c-45.48,7.9 -140.73,27.36 -211.67,43.24 -111.28,24.92 -139.75,34.03 -207.43,66.35 -99.43,47.48 -184.5,112.46 -246.74,188.48 -77.81,95.03 -125.28,160.49 -146.35,201.82 -35.86,70.33 -36.03,70.38 -53.59,15.18l-0.01 0.02z"/>
    <g>
     <path class="fil3" d="M2087.29 1337.98c-34.61,-7.7 -67.47,-24.71 -125.45,-64.94 -106.49,-73.9 -99.52,-68.63 -593.03,-447.26 -90.05,-69.09 -179.35,-137.58 -198.44,-152.21 -19.09,-14.62 -34.39,-26.9 -34.01,-27.28 0.38,-0.38 122.3,75.73 270.94,169.12 148.64,93.4 321.93,202.17 385.11,241.72 115.67,72.42 152.23,95.63 209.71,133.15 34.13,22.28 46.73,27.96 74.58,33.65 21.93,4.48 38.81,1.87 60.16,-9.3 19.33,-10.11 27.52,-19.35 60.76,-68.56 16.72,-24.74 32.33,-47.67 34.7,-50.96l4.31 -5.98 43.04 26.9c23.67,14.8 43.27,27.13 43.56,27.4 1.12,1.08 -101.23,141.07 -111.63,152.69 -10.94,12.22 -31.26,30.27 -38.34,34.06 -2,1.07 -8.79,3.37 -15.07,5.11 -13.31,3.68 -58.68,5.39 -70.9,2.67l0 0.02z"/>
     <path class="fil4" d="M2162.32 1158.32c-6.02,-4.55 -19.88,-14.88 -30.79,-22.94l-19.84 -14.66 26.01 -37.18c14.3,-20.45 26.43,-37.63 26.95,-38.18 0.83,-0.88 60.25,35.17 64.33,39.03 1.31,1.24 -2.96,8.16 -25.67,41.63 -14.98,22.08 -27.87,40.25 -28.64,40.37 -0.77,0.12 -6.33,-3.51 -12.35,-8.06l0 -0.01z"/>
     <path class="fil5" d="M2376.4 1293c-56.19,-36.18 -102.49,-66.11 -102.9,-66.53 -0.41,-0.41 12.05,-18.45 27.69,-40.07l28.43 -39.32 3.62 2.16c7.95,4.75 199.56,128.46 200.85,129.67 1.06,1 -5.1,10.35 -26.26,39.89 -15.21,21.22 -28.01,38.9 -28.46,39.28 -0.44,0.38 -46.78,-28.91 -102.96,-65.09l-0.01 0.01z"/>
     <path class="fil5" d="M2529.48 1391.47c-23.32,-15.06 -42.93,-27.92 -43.58,-28.57 -1.07,-1.07 8.06,-14.3 52.07,-75.46l3.09 -4.3 44.78 28.88c24.63,15.88 44.96,29.06 45.18,29.28 0.62,0.62 -57.26,77.75 -58.27,77.64 -0.49,-0.05 -19.97,-12.41 -43.28,-27.47l0.01 0z"/>
     <path class="fil5" d="M3158.58 1794.7c-245.65,-157.97 -453.51,-291.71 -461.91,-297.21l-15.28 -9.99 28 -37.26c15.4,-20.49 29.35,-36.89 31,-36.44 2.51,0.69 873.16,561.17 904.66,582.37l10.51 7.08 -23.09 37.23c-12.7,20.47 -24.03,38.18 -25.17,39.34 -1.15,1.16 -203.07,-127.14 -448.72,-285.11l0 -0.01z"/>
     <path class="fil5" d="M4168.59 2443.93c-244.63,-157.58 -446.89,-287.8 -449.48,-289.38 -3.79,-2.31 0.01,-10.33 19.55,-41.19 13.34,-21.08 25.1,-38.45 26.13,-38.62 1.78,-0.28 897.77,576.3 903.32,581.29 3.09,2.78 -46.71,74.92 -51.51,74.61 -1.79,-0.11 -203.41,-129.14 -448.01,-286.72l0 0.01z"/>
     <path class="fil5" d="M5015.05 2987.93c-145.13,-93.23 -265.83,-171.4 -268.23,-173.7 -3.61,-3.47 -0.05,-10.27 20.77,-39.63 13.82,-19.49 25.51,-35.88 25.98,-36.42 0.47,-0.54 115.93,73.2 256.58,163.86l255.73 164.84 -12.42 44.23c-6.83,24.33 -12.9,44.7 -13.48,45.28 -0.58,0.58 -119.8,-75.23 -264.93,-168.46z"/>
     <path class="fil6" d="M5344.26 3230.8c-10.52,-6.96 -28.69,-17.94 -40.37,-24.39l-21.23 -11.73 1.5 -14.89 1.5 -14.89 13.95 -50.01c9.32,-33.42 13.7,-50.38 13.21,-51.12 -0.41,-0.61 -18.7,-12.7 -40.65,-26.85 -21.95,-14.15 -39.98,-25.79 -40.06,-25.87 -0.08,-0.08 1.07,-2.7 2.56,-5.83 3.43,-7.2 14.27,-36.39 20.37,-54.81 2.56,-7.75 4.96,-13.98 5.33,-13.85 0.37,0.13 72.5,45.88 160.3,101.65l159.63 101.4 -3.78 2.17c-6.06,3.48 -14.72,11.25 -19.41,17.41 -5.77,7.57 -9.47,14.79 -12.14,23.65 -1.9,6.3 -2.21,8.84 -2.29,18.49 -0.05,6.15 -0.21,10.83 -0.36,10.39 -0.42,-1.23 -2.27,-1.09 -48.04,3.67l-42.94 4.46 -20.36 -3.46 -20.36 -3.46 -19.82 -16.15c-10.9,-8.88 -19.97,-16 -20.15,-15.81 -0.19,0.19 -1.43,12.4 -2.76,27.16 -2.95,32.6 -3.26,35.38 -3.96,35.35 -0.3,-0.01 -9.16,-5.72 -19.69,-12.68l0.02 0z"/>
     <path class="fil7" d="M5311.74 3398.48c-1.49,-3.33 -6.36,-13.82 -10.81,-23.33l-8.1 -17.28 11.81 -5.95 11.81 -5.95 11.95 -16.51c10.56,-14.58 13.69,-20.15 26.79,-47.62l14.83 -31.1 2.64 -28.54c1.45,-15.69 2.84,-28.74 3.09,-28.99 0.24,-0.24 7.73,5.44 16.62,12.64l16.17 13.09 21.31 3.58 21.31 3.58 43.16 -4.58c42.67,-4.53 43.18,-4.56 44.89,-2.33 0.95,1.24 7.04,11.73 13.54,23.31l11.81 21.05 -22.5 22.4c-26.7,26.58 -11.2,17.8 -133.6,75.67 -74.04,35.01 -91.3,42.92 -93.55,42.92 -0.26,0 -1.69,-2.72 -3.18,-6.05l0.01 -0.01z"/>
     <path class="fil7" d="M5605.37 3267.03c-19.35,-3.15 -35.98,-13.64 -46.48,-29.32 -4.75,-7.1 -7.84,-14.52 -9.75,-23.44 -1.32,-6.15 -1.33,-18.25 -0.02,-24.3 3.19,-14.76 10.19,-26.75 21.37,-36.59 21.65,-19.07 54.45,-22.32 79.72,-7.91 5.53,3.16 9.07,5.81 13.79,10.35 18.19,17.49 24.54,43.66 16.33,67.23 -7.63,21.9 -26.6,38.22 -50.42,43.39 -5.16,1.12 -19.21,1.46 -24.54,0.59z"/>
     <path class="fil8" d="M7000.9 3983.15c-9.5,-4.63 -51.5,-24.93 -93.31,-45.09 -64.02,-30.87 -295.51,-146.42 -298.02,-148.76 -1.54,-1.43 31.25,-43.04 39.45,-50.06 10.24,-8.77 24.14,-13.61 41.19,-14.35 20.33,-0.88 38.29,2.71 58.6,11.72 14.68,6.51 55.84,27.26 81.59,41.14 20.68,11.14 125.31,63.23 127.01,63.23 1.64,0 161.73,-328.66 160.47,-329.45 -0.63,-0.39 -18.14,-1.59 -38.91,-2.67 -38.84,-2.01 -76.33,-6.51 -156.41,-18.79 -48,-7.36 -67.49,-14.05 -96.5,-33.16 -11.5,-7.57 -18.64,-14.97 -20.34,-21.05 -4.03,-14.41 -7,-42.08 -7,-65.18l0 -15.81 3.17 0.55c1.74,0.3 11.46,1.6 21.6,2.88 10.14,1.28 53.68,8.55 96.77,16.14 57.01,10.05 96.69,16.3 145.73,22.96 59.33,8.05 217.67,31.1 218.69,31.83 0.43,0.31 -264.69,560.55 -265.79,561.64 -0.39,0.39 -8.49,-3.09 -17.99,-7.72z"/>
     <path class="fil7" d="M6843.28 3776.47c-92.34,-46.47 -110.6,-54.53 -130.24,-57.52 -42.3,-6.44 -69.33,7.58 -99.65,51.64l-9.74 14.16 -29.69 -14.91c-45.45,-22.83 -160.62,-86.26 -224.2,-123.48 -94.38,-55.26 -84.73,-47 -100.83,-86.28 -28.73,-70.13 -53.01,-102.97 -87.57,-118.49 -23.3,-10.46 -67.61,-16.32 -176.54,-23.36 -136.76,-8.84 -186.2,-17.66 -320.27,-57.12 -75.19,-22.13 -118.46,-37.54 -130.82,-46.58 -5.1,-3.73 -3.34,-6.39 18.16,-27.34l23.81 -23.2 11.08 4.63c14.6,6.1 43.31,5.9 58.46,-0.42 47.62,-19.84 60.02,-83.27 23.02,-117.76 -17.97,-16.75 -50.19,-24.41 -74.33,-17.68 -6.74,1.88 -33.89,-14.19 -168.65,-99.82 -88.34,-56.13 -162.65,-102.84 -165.15,-103.8 -3.06,-1.17 -5.83,2.31 -8.52,10.7 -4.23,13.21 -23.11,63.94 -24.39,65.51 -0.55,0.67 -423.01,-270.39 -427.49,-274.29 -0.57,-0.49 82.38,-118.99 85.42,-122.04 0.62,-0.62 104.24,61.86 230.26,138.85 421.76,257.66 620.84,378.12 654.84,396.23 45.87,24.44 100.23,47.29 154.55,64.97 113.68,36.99 194.44,52.66 431.48,83.69 69,9.03 157.71,21.64 197.13,28.02 90.27,14.6 117.19,18.62 184.48,27.52l54.14 7.16 1.64 36.27c0.96,21.35 3.66,41.06 6.54,47.9 6.18,14.67 33.99,33.64 65.25,44.51 23.54,8.18 148.01,27.46 209.49,32.44l32.77 2.66 -75.49 154.62c-41.52,85.04 -76.85,155.08 -78.52,155.63 -1.67,0.56 -51.36,-23.31 -110.43,-53.04l0 0.02z"/>
     <path class="fil7" d="M4223.29 2360.27c-248.21,-160.02 -452.2,-291.82 -453.32,-292.9 -1.61,-1.55 4.47,-12.32 29.1,-51.59 17.12,-27.3 32.04,-50.6 33.15,-51.78 1.65,-1.75 50.98,27.92 266.6,160.32 145.51,89.35 353.64,217.04 462.51,283.74 108.87,66.7 198.44,121.76 199.04,122.35 1.12,1.09 -82.02,119.56 -84.47,120.37 -0.74,0.24 -204.43,-130.48 -452.61,-290.5l0 -0.01z"/>
     <path class="fil7" d="M3210.67 1707.27c-247.31,-159.47 -453.86,-292.71 -459.01,-296.09l-9.36 -6.15 27.77 -37.38c15.28,-20.56 28.65,-37.99 29.72,-38.73 1.25,-0.86 45.48,25.38 123.32,73.17 558.36,342.79 797.77,490.04 799.37,491.64 1.41,1.41 -5.76,13.95 -29.01,50.75 -16.98,26.88 -31.39,49.74 -32.01,50.8 -0.75,1.27 -153.39,-96.25 -450.79,-288.02l0 0.01z"/>
     <path class="fil7" d="M2589.49 1307.07c-24.23,-15.65 -44.06,-28.84 -44.06,-29.3 -0.02,-0.94 48.79,-69.42 51.75,-72.6 1.76,-1.9 4.49,-0.42 47.34,25.78 25.01,15.29 45.94,28.22 46.51,28.74 1.16,1.05 -54.45,75.97 -56.32,75.89 -0.64,-0.03 -20.99,-12.86 -45.22,-28.51z"/>
     <path class="fil9 str2" d="M5072.6 3227.36c-0.34,-0.13 -0.72,-0.41 -0.84,-0.6 -0.49,-0.8 -0.08,-3.04 1.05,-5.71 3.27,-7.72 6.99,-13.24 16.25,-24.11 10.34,-12.14 31.19,-27.64 51.59,-38.36 7.56,-3.97 22.24,-11.31 26.6,-13.31 8.6,-3.93 20.2,-7.8 39.6,-13.2 5.7,-1.59 11.18,-3.14 12.18,-3.45l1.81 -0.57 29.15 18.72c16.03,10.29 29.3,18.87 29.48,19.05 0.24,0.24 0.21,1.34 -0.08,4.21 -0.21,2.13 -0.44,3.9 -0.47,3.94 -0.24,0.24 -22.97,0.7 -40.81,0.84 -11.8,0.08 -22.88,0.29 -24.62,0.45 -4.96,0.44 -10.5,1.32 -20.16,3.19 -4.91,0.95 -11.33,2.17 -14.26,2.72 -10,1.86 -17.07,3.8 -28.22,7.75 -3.41,1.21 -10.34,3.62 -15.41,5.37 -13.87,4.79 -18.93,6.94 -25.92,11.01 -1.43,0.83 -5.41,2.95 -8.85,4.72 -11.24,5.75 -14.14,7.57 -21.69,13.62 -2.75,2.2 -5.17,4 -5.38,3.99 -0.21,-0.01 -0.65,-0.13 -0.99,-0.27l-0.01 0z"/>
     <path class="fil5 str3" d="M1058.17 592c271.11,207.36 541.27,416.03 812.98,622.58 49.46,32.66 96.56,69.41 147.56,99.4 51.11,30.41 98.63,38.47 154.46,20.64 27.68,-18.1 49.32,-42.84 69.36,-72.46 28.81,-39.83 57.62,-79.65 86.43,-119.48l-164.55 -102.64 -57.02 81.46c22.81,16.84 45.62,33.67 68.43,50.51 -16.88,30.63 -48.41,50.14 -83.41,51.41 -20.82,-2.86 -43.75,-8.65 -62.45,-18.94 -126.5,-84.12 -256.89,-162.27 -384.99,-243.93 -195.6,-122.85 -391.2,-245.7 -586.79,-368.55l-0.01 0z"/>
     <line class="fil10 str4" x1="2175.81" y1="1172" x2="2234.46" y2= "1085.65" />
     <line class="fil10 str4" x1="2268.67" y1="1227.39" x2="5282.69" y2= "3164.52" />
     <polyline class="fil10 str4" points="2328.96,1142.67 5310.39,3065.13 5282.69,3164.51 "/>
     <path class="fil10 str4" d="M2309.41 1022.11c1138.29,696.29 2272.81,1398.83 3413.47,2091.17 278.24,167.84 570.37,152.08 923.46,219.04 215.4,25.45 428.44,66.24 643.49,94.44"/>
     <line class="fil10 str4" x1="7289.83" y1="3426.76" x2="7020.26" y2= "3995.86" />
     <path class="fil10 str4" d="M7020.26 3995.86c-257.52,-124.73 -516.65,-247.99 -760.34,-398.6 -29.14,-65.7 -49.17,-152.72 -135.35,-162.66 -147.34,-21.33 -235.33,-0.01 -442.6,-64.1 -80.99,-24.95 -105.91,-27.49 -161.66,-58.94"/>
     <line class="fil10 str4" x1="2479.66" y1="1363.43" x2="2596.96" y2= "1199.69" />
     <polygon class="fil10 str4" points="5324.47,3404.88 5499.58,3321.93 5520.32,3311.56 5568.7,3264.33 5539.9,3213.64 5451.19,3222.86 5409.72,3215.95 5372.86,3186 5367.1,3249.36 5338.3,3310.42 5314.11,3343.83 5288.77,3356.5 5312.96,3408.34 "/>
     <polyline class="fil10 str4" points="5282.69,3164.52 5279.54,3196.37 5323.32,3220.56 5367.1,3249.36 "/>
     <path class="fil6 str3" d="M5686.73 3202.12c0,-37.73 -31.8,-68.5 -70.8,-68.5 -39,0 -70.8,30.77 -70.8,68.5 0,37.73 31.8,68.5 70.8,68.5 39,0 70.8,-30.77 70.8,-68.5z"/>
     <path class="fil10 str4" d="M5556.73 3012.42c70.39,-10.04 73.14,-67.87 180.34,-69.22 187.5,-2.36 225.35,177.83 181.4,235.87 -4.88,5.11 -9.76,10.22 -14.64,15.33"/>
     <path class="fil10 str4" d="M5228.93 3009.74c6.51,-8.14 29.32,-78.2 29.32,-78.2"/>
     <line class="fil10 str4" x1="5258.25" y1="2931.54" x2="5585.31" y2= "3139.26" />
     <polygon class="fil6 str5" points="2559.29,1443.29 2661.88,1507.07 2813.8,1303.71 2711.21,1239.93 "/>
     <polygon class="fil6 str5" points="3597.18,2103.96 3699.71,2167.66 3841.1,1942.68 3738.57,1878.98 "/>
     <polygon class="fil6 str5" points="4609.59,2751.62 4726.69,2825.64 4898.87,2582.38 4781.77,2508.36 "/>
     <path class="fil10 str4" d="M6795.61 3352.69c-0.21,20.66 -0.26,41.51 2.86,61.7 2.39,11.71 2.22,25.18 10.76,33.7 8.98,8.42 22.02,15.88 33.64,22.89 23.09,11.65 45.42,17.41 68.96,20.7 43.9,6.71 87.05,12.59 130.59,18.45 24.1,1.28 48.21,2.56 72.31,3.85 -52.68,107.8 -105.36,215.6 -158.03,323.4 -50.37,-24.16 -100.59,-48.62 -149.52,-75.62 -23.11,-11.68 -46.18,-23.89 -70.15,-33.6 -24.72,-7.03 -52.55,-11.7 -76.53,0.34 -17.53,6.79 -26.49,23.94 -38.6,37.2 -5.78,7.8 -11.57,15.59 -17.35,23.39"/>
     <path class="fil10 str6" d="M5222.27 3126.13c-14.87,4.68 -26.76,6.96 -44.2,13.35 -6.39,1.82 -16.53,6.48 -43.01,20.39 -24.83,14.39 -35.31,24.41 -43.35,31.75 -7.03,8.38 -14.68,16.41 -19.19,26.52 -1.94,4.1 -5.26,10.76 1.88,10.99 10.26,-7.85 9.39,-9.3 32.71,-20.75 9.69,-5.73 12.79,-7.39 30.8,-13.41 17.28,-5.86 26.04,-10.02 44.44,-12.88 29.74,-6.1 32.34,-5.99 48.8,-5.71 29.86,-0.43 39.26,-0.27 51.55,-1.28"/>
     <path class="fil9 str7" d="M5819.84 3149.7c-25.92,-13.44 -51.84,-26.87 -77.76,-40.31 25.38,-4.07 33.53,-5.15 45.61,-27.68 5.43,-10.13 8.73,-19.99 7.38,-35.11 -1.63,-18.26 6.25,-6.62 7.95,-3.88 11.7,18.85 9.36,41.9 9.42,63.94 0.06,21.69 -0.15,22.71 7.4,43.04z"/>
     <g>
      <path class="fil5" d="M6388.39 1338.75c34.61,-7.7 67.47,-24.71 125.45,-64.94 106.49,-73.9 99.52,-68.63 593.03,-447.26 90.05,-69.09 179.35,-137.58 198.44,-152.21 19.09,-14.62 34.39,-26.9 34.01,-27.28 -0.38,-0.38 -122.3,75.73 -270.94,169.12 -148.64,93.4 -321.93,202.17 -385.11,241.72 -115.67,72.42 -152.23,95.63 -209.71,133.15 -34.13,22.28 -46.73,27.96 -74.58,33.65 -21.93,4.48 -38.81,1.87 -60.16,-9.3 -19.33,-10.11 -27.52,-19.35 -60.76,-68.56 -16.72,-24.74 -32.33,-47.67 -34.7,-50.96l-4.31 -5.98 -43.04 26.9c-23.67,14.8 -43.27,27.13 -43.56,27.4 -1.12,1.08 101.23,141.07 111.63,152.69 10.94,12.22 31.26,30.27 38.34,34.06 2,1.07 8.79,3.37 15.07,5.11 13.31,3.68 58.68,5.39 70.9,2.67l0 0.02z"/>
      <path class="fil5" d="M6313.37 1159.1c6.02,-4.55 19.88,-14.88 30.79,-22.94l19.84 -14.66 -26.01 -37.18c-14.3,-20.45 -26.43,-37.63 -26.95,-38.18 -0.83,-0.88 -60.25,35.17 -64.33,39.03 -1.31,1.24 2.96,8.16 25.67,41.63 14.98,22.08 27.87,40.25 28.64,40.37 0.77,0.12 6.33,-3.51 12.35,-8.06l0 -0.01z"/>
      <path class="fil5" d="M6099.28 1293.78c56.19,-36.18 102.49,-66.11 102.9,-66.53 0.41,-0.41 -12.05,-18.45 -27.69,-40.07l-28.43 -39.32 -3.62 2.16c-7.95,4.75 -199.56,128.46 -200.85,129.67 -1.06,1 5.1,10.35 26.26,39.89 15.21,21.22 28.01,38.9 28.46,39.28 0.44,0.38 46.78,-28.91 102.96,-65.09l0.01 0.01z"/>
      <path class="fil5" d="M5946.21 1392.25c23.32,-15.06 42.93,-27.92 43.58,-28.57 1.07,-1.07 -8.06,-14.3 -52.07,-75.46l-3.09 -4.3 -44.78 28.88c-24.63,15.88 -44.96,29.06 -45.18,29.28 -0.62,0.62 57.26,77.75 58.27,77.64 0.49,-0.05 19.97,-12.41 43.28,-27.47l-0.01 0z"/>
      <path class="fil5" d="M5317.1 1795.48c245.65,-157.97 453.51,-291.71 461.91,-297.21l15.28 -9.99 -28 -37.26c-15.4,-20.49 -29.35,-36.89 -31,-36.44 -2.51,0.69 -873.16,561.17 -904.66,582.37l-10.51 7.08 23.09 37.23c12.7,20.47 24.03,38.18 25.17,39.34 1.15,1.16 203.07,-127.14 448.72,-285.11l0 -0.01z"/>
      <path class="fil5" d="M4307.09 2444.71c244.63,-157.58 446.89,-287.8 449.48,-289.38 3.79,-2.31 -0.01,-10.33 -19.55,-41.19 -13.34,-21.08 -25.1,-38.45 -26.13,-38.62 -1.78,-0.28 -897.77,576.3 -903.32,581.29 -3.09,2.78 46.71,74.92 51.51,74.61 1.79,-0.11 203.41,-129.14 448.01,-286.72l0 0.01z"/>
      <path class="fil5" d="M3460.63 2988.71c145.13,-93.23 265.83,-171.4 268.23,-173.7 3.61,-3.47 0.05,-10.27 -20.77,-39.63 -13.82,-19.49 -25.51,-35.88 -25.98,-36.42 -0.47,-0.54 -115.93,73.2 -256.58,163.86l-255.73 164.84 12.42 44.23c6.83,24.33 12.9,44.7 13.48,45.28 0.58,0.58 119.8,-75.23 264.93,-168.46z"/>
      <path class="fil7" d="M3182.85 3358.65c-3.94,-1.98 -7.87,-3.97 -11.81,-5.95 -7.92,-7.49 -15.84,-14.97 -23.76,-22.46 -10.56,-14.58 -13.69,-20.15 -26.79,-47.62 -4.94,-10.37 -9.89,-20.73 -14.83,-31.1 -30.13,10.1 -60.27,20.21 -90.4,30.31 -21.4,9.92 -42.8,19.83 -64.2,29.75l116.16 50.82c74.04,35.01 91.3,42.92 93.55,42.92 0.55,0 19.08,-40.26 22.08,-46.67z"/>
      <path class="fil7" d="M2870.31 3267.81c19.35,-3.15 35.98,-13.64 46.48,-29.32 4.75,-7.1 7.84,-14.52 9.75,-23.44 1.32,-6.15 1.33,-18.25 0.02,-24.3 -3.19,-14.76 -10.19,-26.75 -21.37,-36.59 -21.65,-19.07 -54.45,-22.32 -79.72,-7.91 -5.53,3.16 -9.07,5.81 -13.79,10.35 -18.19,17.49 -24.54,43.66 -16.33,67.23 7.63,21.9 26.6,38.22 50.42,43.39 5.16,1.12 19.21,1.46 24.54,0.59z"/>
      <path class="fil6" d="M1474.78 3983.93c9.5,-4.63 51.5,-24.93 93.31,-45.09 64.02,-30.87 295.51,-146.42 298.02,-148.76 1.54,-1.43 -31.25,-43.04 -39.45,-50.06 -10.24,-8.77 -24.14,-13.61 -41.19,-14.35 -20.33,-0.88 -38.29,2.71 -58.6,11.72 -14.68,6.51 -55.84,27.26 -81.59,41.14 -20.68,11.14 -125.31,63.23 -127.01,63.23 -1.64,0 -161.73,-328.66 -160.47,-329.45 0.63,-0.39 18.14,-1.59 38.91,-2.67 38.84,-2.01 76.33,-6.51 156.41,-18.79 48,-7.36 67.49,-14.05 96.5,-33.16 11.5,-7.57 18.64,-14.97 20.34,-21.05 4.03,-14.41 7,-42.08 7,-65.18l0 -15.81 -3.17 0.55c-1.74,0.3 -11.46,1.6 -21.6,2.88 -10.14,1.28 -53.68,8.55 -96.77,16.14 -57.01,10.05 -96.69,16.3 -145.73,22.96 -59.33,8.05 -217.67,31.1 -218.69,31.83 -0.43,0.31 264.69,560.55 265.79,561.64 0.39,0.39 8.49,-3.09 17.99,-7.72z"/>
      <path class="fil7" d="M3191.83 3196.37l-36.12 -132.08c102.92,-65.04 516.33,-329.02 520.25,-332.44 0.57,-0.49 -82.38,-118.99 -85.42,-122.04 -0.62,-0.62 -104.24,61.86 -230.26,138.85 -421.76,257.66 -620.84,378.12 -654.84,396.23 -45.87,24.44 -100.23,47.29 -154.55,64.97 -113.68,36.99 -194.44,52.66 -431.48,83.69 -69,9.03 -157.71,21.64 -197.13,28.02 -90.27,14.6 -117.19,18.62 -184.48,27.52l-54.14 7.16 -1.64 36.27c-0.96,21.35 -3.66,41.06 -6.54,47.9 -6.18,14.67 -33.99,33.64 -65.25,44.51 -23.54,8.18 -148.01,27.46 -209.49,32.44l-32.77 2.66 75.49 154.62c41.52,85.04 76.85,155.08 78.52,155.63 1.67,0.56 51.36,-23.31 110.43,-53.04 92.34,-46.47 110.6,-54.53 130.24,-57.52 42.3,-6.44 69.33,7.58 99.65,51.64l9.74 14.16 29.69 -14.91c45.45,-22.83 160.62,-86.26 224.2,-123.48 94.38,-55.26 84.73,-47 100.83,-86.28 28.73,-70.13 53.01,-102.97 87.57,-118.49 23.3,-10.46 67.61,-16.32 176.54,-23.36 136.76,-8.84 186.2,-17.66 320.27,-57.12 137.17,-40.37 250.71,-104.34 380.69,-165.51z"/>
      <path class="fil7" d="M4252.4 2361.05c248.2,-160.02 452.19,-291.82 453.31,-292.9 1.61,-1.55 -4.47,-12.32 -29.1,-51.59 -17.12,-27.3 -32.04,-50.6 -33.15,-51.78 -1.65,-1.75 -50.98,27.92 -266.6,160.32 -145.5,89.35 -353.64,217.04 -462.51,283.74 -108.87,66.7 -198.44,121.76 -199.04,122.35 -1.12,1.09 82.02,119.56 84.47,120.37 0.74,0.24 204.43,-130.48 452.62,-290.5l0 -0.01z"/>
      <path class="fil7" d="M5265.01 1708.04c247.31,-159.46 453.86,-292.7 459.01,-296.08l9.36 -6.15 -27.77 -37.38c-15.28,-20.56 -28.65,-37.99 -29.72,-38.73 -1.25,-0.86 -45.48,25.38 -123.32,73.17 -558.36,342.79 -797.77,490.04 -799.37,491.64 -1.41,1.41 5.76,13.95 29.01,50.75 16.98,26.88 31.39,49.74 32.01,50.8 0.75,1.27 153.39,-96.25 450.79,-288.02z"/>
      <path class="fil7" d="M5886.2 1307.85c24.23,-15.65 44.06,-28.84 44.06,-29.3 0.02,-0.94 -48.79,-69.42 -51.75,-72.6 -1.76,-1.9 -4.49,-0.42 -47.34,25.78 -25.01,15.29 -45.94,28.22 -46.51,28.74 -1.16,1.05 54.45,75.97 56.32,75.89 0.64,-0.03 20.99,-12.86 45.22,-28.51z"/>
      <path class="fil7 str2" d="M3403.93 3227.54c0.98,-1.59 -1.59,-7.02 -2.47,-8.86 -3,-6.22 -6.87,-11.62 -14.83,-20.96 -25.93,-30.44 -79.63,-54.25 -117.79,-64.87 -5.7,-1.59 -11.18,-3.14 -12.18,-3.45 -4.28,-1.36 -25.99,14.96 -30.96,18.15 -16.03,10.29 -29.3,18.87 -29.48,19.05 -0.4,0.4 0.36,7.89 0.55,8.15 0.24,0.24 22.97,0.7 40.81,0.84 49.01,0.33 120.44,17.78 159.13,48.83 1.18,0.94 5.63,5.68 7.22,3.12z"/>
     </g>
     <path class="fil0" d="M2942.48 3227.19c0,-0.08 0.26,-1.07 0.58,-2.2 3.31,-11.55 3.93,-26.89 1.58,-38.88 -2.29,-11.69 -6.6,-22.18 -13.17,-32.09l-2.48 -3.73 7.87 -8.1c13.78,-14.19 17.67,-18.63 29.4,-33.6 11.74,-14.97 18.71,-25.37 23.21,-34.62l1.39 -2.85 4.97 -2.04c2.73,-1.12 6.15,-2.46 7.6,-2.97l2.63 -0.93 4.68 0.19c8.74,0.35 13.25,1.1 16.45,2.76 0.92,0.47 2.59,1.15 3.72,1.51 4.13,1.3 8.39,4.19 11.31,7.68 2.28,2.73 5.89,8.38 7.97,12.48 2.32,4.57 3.66,8.17 4.81,12.92 1.57,6.47 1.25,9.17 -2.55,21.13 -1.12,3.54 -2.2,7.02 -2.39,7.75 -0.19,0.72 -1.79,5.59 -3.55,10.82 -3.48,10.32 -5.46,14.84 -7.77,17.69 -0.78,0.97 -1.93,2.61 -2.56,3.65 -2.69,4.5 -6.55,9.65 -11.09,14.76 -5.22,5.88 -14.63,15.41 -17.51,17.72 -4.76,3.82 -23.2,15.89 -27.11,17.73 -4.85,2.28 -12.92,5.66 -22.8,9.54l-8.62 3.38 -3.29 0.24c-1.81,0.13 -3.29,0.16 -3.29,0.08l0.01 -0.02z"/>
     <path class="fil10 str4" d="M7413.2 592c-271.11,207.36 -541.27,416.03 -812.98,622.58 -49.46,32.66 -96.56,69.41 -147.56,99.4 -51.11,30.41 -98.63,38.47 -154.46,20.64 -27.68,-18.1 -49.32,-42.84 -69.36,-72.46 -28.81,-39.83 -57.62,-79.65 -86.43,-119.48"/>
     <polyline class="fil10 str4" points="6142.41,1142.68 6306.96,1040.04 6363.98,1121.5 "/>
     <path class="fil10 str4" d="M6363.98 1121.5c-22.81,16.84 -45.62,33.67 -68.43,50.51 16.88,30.63 48.41,50.14 83.41,51.41 20.82,-2.86 43.75,-8.65 62.45,-18.94 126.5,-84.12 256.89,-162.27 384.99,-243.93 195.6,-122.85 391.2,-245.7 586.79,-368.55"/>
     <line class="fil10 str4" x1="7413.19" y1="592" x2="7413.2" y2= "592" />
     <line class="fil10 str4" x1="6295.56" y1="1172" x2="6236.91" y2= "1085.65" />
     <line class="fil10 str4" x1="6202.7" y1="1227.39" x2="3188.69" y2= "3164.52" />
     <polyline class="fil10 str4" points="6142.42,1142.67 3160.99,3065.13 3188.69,3164.51 "/>
     <path class="fil10 str4" d="M6161.97 1022.11c-1138.29,696.29 -2272.81,1398.83 -3413.47,2091.17 -278.24,167.84 -570.37,152.08 -923.46,219.04 -215.4,25.45 -428.44,66.24 -643.49,94.44"/>
     <line class="fil10 str4" x1="1181.55" y1="3426.76" x2="1451.12" y2= "3995.86" />
     <path class="fil10 str4" d="M1451.12 3995.86c257.52,-124.73 516.65,-247.99 760.34,-398.6 29.14,-65.7 49.17,-152.72 135.35,-162.66 147.34,-21.33 235.33,-0.01 442.6,-64.1 80.99,-24.95 105.91,-27.49 161.66,-58.94"/>
     <line class="fil10 str4" x1="5991.72" y1="1363.43" x2="5874.41" y2= "1199.69" />
     <path class="fil10 str4" d="M2893.92 3337.92c19.04,-8.79 38.09,-17.57 57.13,-26.36 62.23,31.16 143.65,77.69 207.37,96.78 8.06,-17.28 16.13,-34.56 24.19,-51.84 -47.88,-23.91 -55.93,-59.65 -78.33,-107.14 14.59,-9.6 29.19,-19.2 43.78,-28.8"/>
     <polyline class="fil10 str4" points="3188.69,3164.52 3191.84,3196.37 3148.06,3220.56 3104.28,3249.36 "/>
     <path class="fil6 str3" d="M2926.25 3202.12c0,-37.73 -31.8,-68.5 -70.8,-68.5 -39,0 -70.8,30.77 -70.8,68.5 0,37.73 31.8,68.5 70.8,68.5 39,0 70.8,-30.77 70.8,-68.5z"/>
     <path class="fil10 str4" d="M2914.64 3012.42c-70.39,-10.04 -73.14,-67.87 -180.34,-69.22 -187.5,-2.36 -225.35,177.83 -181.4,235.87 4.88,5.11 9.76,10.22 14.64,15.33"/>
     <polygon class="fil6 str5" points="5912.07,1443.29 5809.48,1507.07 5657.57,1303.71 5760.16,1239.93 "/>
     <polygon class="fil6 str5" points="4874.18,2103.95 4771.65,2167.66 4630.26,1942.68 4732.79,1878.97 "/>
     <polygon class="fil6 str5" points="3861.79,2751.62 3744.69,2825.64 3572.51,2582.39 3689.6,2508.37 "/>
     <path class="fil10 str4" d="M1675.76 3352.69c0.21,20.66 0.26,41.51 -2.86,61.7 -2.39,11.71 -2.22,25.18 -10.76,33.7 -8.98,8.42 -22.02,15.88 -33.64,22.89 -23.09,11.65 -45.42,17.41 -68.96,20.7 -43.9,6.71 -87.05,12.59 -130.59,18.45 -24.1,1.28 -48.21,2.56 -72.31,3.85 52.68,107.8 105.36,215.6 158.03,323.4 50.37,-24.16 100.59,-48.62 149.52,-75.62 23.11,-11.68 46.18,-23.89 70.15,-33.6 24.72,-7.03 52.55,-11.7 76.53,0.34 17.53,6.79 26.49,23.94 38.6,37.2 5.78,7.8 11.57,15.59 17.35,23.39"/>
     <path class="fil9 str7" d="M2651.53 3149.7c25.92,-13.44 51.84,-26.87 77.76,-40.31 -18.55,-2.98 -28.26,-0.73 -40.15,-16.32 -9.76,-12.85 -11.79,-30.9 -12.84,-46.47 3.98,-17.9 -6.63,-6.83 -7.95,-3.88 -10.77,16.6 -9.35,26.12 -9.35,44.16 0.02,27.98 3.34,43.77 -7.47,62.82z"/>
     <path class="fil10 str8" d="M2907.15 3153.13c16.19,-16.19 32.92,-31.95 46.71,-50.32 10.33,-12.98 20.59,-26.24 26.92,-41.71 0,0 16.56,-7.74 24.81,-9.44 9.49,0.9 19.49,0.08 28.1,4.89 8.61,2.43 15.54,7.65 20.78,14.84 6.48,8.92 11.72,19.03 13.84,29.94 3.63,12.24 -3.49,24.71 -6.15,36.63 -4.34,10.64 -6.09,22.63 -13.91,31.53 -6.48,11.17 -15.31,20.52 -24.36,29.6 -9.05,10.27 -21.54,16.4 -32.51,24.31 -12.62,6.52 -26.14,11.29 -39.32,16.59 -11.39,0.81 -22.77,1.62 -34.16,2.44"/>
     <line class="fil10 str4" x1="2951.06" y1="3311.57" x2="3104.28" y2= "3249.36" />
    </g>
    <path class="fil6" d="M4252.31 5056.88l0 -63.3 118.51 -73.05c65.19,-40.17 124.08,-76.48 130.88,-80.69l12.35 -7.65 3.24 54.01 3.24 54.02 -3.35 2.44c-1.84,1.34 -62.2,41.84 -134.11,89.98l-130.75 87.54 -0.01 -63.3z"/>
    <path class="fil6" d="M4252.7 5182.83l0.43 -58.38 133.38 -89.33c73.37,-49.13 133.61,-89.11 133.88,-88.84 0.71,0.71 7.61,115.52 6.98,116.06 -0.3,0.26 -60.66,39.52 -134.13,87.27 -73.48,47.75 -135.24,87.89 -137.27,89.21l-3.69 2.4 0.42 -58.39z"/>
    <path class="fil6" d="M4252.31 5304.47l0 -58.48 136.95 -89.1c75.33,-49.01 137.45,-88.61 138.05,-88.01 0.83,0.83 8.51,113.38 7.8,114.28 -0.08,0.11 -55.87,35.58 -123.97,78.84 -68.1,43.26 -131.7,83.67 -141.33,89.8l-17.5 11.15 0 -58.48z"/>
    <path class="fil6" d="M4252.7 5554.28l0.43 -68.04 141.38 -88.23c77.77,-48.53 142.23,-89.08 143.26,-90.1 8.59,-8.59 -18.61,7.63 -142.4,84.89l-142.24 88.78 -0.43 -55.61c-0.24,-30.59 -0.13,-56.41 0.26,-57.39 0.77,-2 281.09,-180.56 282.01,-179.63 1.58,1.58 13.95,223.5 12.5,224.4 -0.88,0.54 -66.93,47.54 -146.79,104.44 -79.86,56.9 -145.91,103.7 -146.79,104 -1.04,0.36 -1.46,-23.38 -1.18,-67.49l-0.01 -0.02z"/>
    <path class="fil6" d="M5081.63 5360.15c0.03,-0.67 14.58,-23.22 32.34,-50.1l32.28 -48.88 36.49 -1.93c20.07,-1.06 86.92,-4.64 148.55,-7.96 61.63,-3.32 112.4,-5.69 112.82,-5.27 0.71,0.71 -50.33,96.65 -52.97,99.56 -0.85,0.94 -211.77,11.7 -309.17,15.77 -0.21,0.01 -0.38,-0.53 -0.35,-1.2l0.01 0.01z"/>
    <path class="fil6" d="M5042.92 5418.1l34.72 -52.66 42.29 -1.97c209.68,-9.75 261.9,-12.03 264.68,-11.59 2.79,0.45 -0.44,7.26 -24.79,52.23 -15.4,28.44 -28.44,51 -28.98,50.13 -0.83,-1.34 -262.66,11.76 -309.99,15.51l-12.65 1 34.72 -52.65z"/>
    <path class="fil6" d="M4955.73 5550.6c6.94,-10.62 21.04,-32.12 31.33,-47.78l18.72 -28.47 70.07 -3.75c38.54,-2.06 111.67,-6.04 162.53,-8.83 50.85,-2.8 92.46,-4.83 92.46,-4.52 0,0.55 -53.75,100.03 -54.51,100.87 -0.27,0.3 -319.77,11.64 -332.01,11.78 -0.66,0.01 4.47,-8.68 11.4,-19.3l0.01 0z"/>
    <path class="fil6" d="M4883.01 5661.61c0.34,-0.88 13.45,-21.14 29.13,-45.01l28.51 -43.4 11.34 -0.01c6.24,-0.01 77.34,-2.24 158.01,-4.97 80.67,-2.73 150.4,-4.74 154.95,-4.48l8.28 0.48 -25.13 46.43 -25.13 46.43 -37.71 0.37c-52.21,0.52 -215.1,3.43 -263.16,4.71 -25.92,0.69 -39.5,0.5 -39.1,-0.55l0.01 0z"/>
    <path class="fil6" d="M4811.12 5770.98c0,-1.25 65.03,-100.33 67.41,-102.71 1.3,-1.29 49.8,-2.62 165.57,-4.52 90.05,-1.48 166.84,-2.94 170.63,-3.26l6.89 -0.57 -5.52 9.98c-3.04,5.49 -14.81,27.21 -26.17,48.27 -11.36,21.06 -21.2,38.85 -21.86,39.55 -0.83,0.87 -321.97,13.68 -355.72,14.2 -0.67,0.01 -1.22,-0.41 -1.22,-0.93l-0.01 -0.01z"/>
    <path class="fil6" d="M3669.69 5719.86c-17.7,-27.63 -32.18,-51.06 -32.18,-52.06 0,-1 29.79,-66.51 66.21,-145.57 36.41,-79.06 67.79,-147.3 69.74,-151.64l3.53 -7.89 31.68 41.14c17.42,22.63 31.49,41.78 31.26,42.57 -1.34,4.47 -135.93,321.61 -136.9,322.55 -0.64,0.63 -15.64,-21.47 -33.34,-49.1z"/>
    <path class="fil6" d="M3601.77 5613.93l-31.38 -48.97 2.2 -5.39c6.79,-16.63 131.07,-289.39 131.87,-289.41 0.53,-0.01 4.23,4.19 8.22,9.35 3.99,5.15 19.49,25.22 34.45,44.59l27.19 35.22 -69.26 150.47c-38.09,82.76 -69.86,151.07 -70.58,151.79 -0.72,0.72 -15.44,-20.72 -32.7,-47.65l-0.01 0z"/>
    <path class="fil6" d="M3535.19 5510.13c-24.63,-38.36 -30.6,-48.73 -28.88,-50.1 1.2,-0.95 29.88,-65.59 63.74,-143.64l61.56 -141.92 35.27 45.74 35.27 45.74 -2.81 4.94c-1.55,2.72 -31.61,68.54 -66.8,146.28 -35.2,77.73 -64.51,141.33 -65.15,141.33 -0.64,0 -15.13,-21.77 -32.2,-48.37z"/>
    <path class="fil6" d="M3469.97 5408.45c-31.18,-48.58 -31.46,-49.1 -29.37,-54.17 11.68,-28.43 120.2,-268.42 121.31,-268.28 3,0.38 68.72,87.19 66.84,88.29 -1.03,0.6 -29.35,64.54 -62.94,142.1 -33.59,77.55 -61.81,141.03 -62.71,141.06 -0.9,0.03 -15.81,-22.02 -33.12,-48.99l-0.01 -0.01z"/>
    <path class="fil6" d="M3403.44 5304.77c-23.79,-37.13 -30.56,-48.84 -28.98,-50.1 1.14,-0.9 26.78,-58.83 56.98,-128.72 30.2,-69.89 55.78,-128.76 56.84,-130.81 1.82,-3.51 3.97,-1.08 37.13,41.84 19.69,25.48 34.37,45.88 33.31,46.29 -1.04,0.4 -28.96,61.3 -62.04,135.34 -33.08,74.04 -60.61,134.61 -61.18,134.61 -0.57,0 -15,-21.8 -32.08,-48.45l0.02 0z"/>
    <path class="fil5" d="M3278.1 5351.87c-56.45,-2.22 -115.18,-4.19 -130.51,-4.37l-27.87 -0.34 -27.04 -50.71c-14.87,-27.89 -26.3,-51.45 -25.39,-52.36 0.9,-0.91 64.62,1.39 141.58,5.1 76.97,3.71 143.86,6.74 148.66,6.74 8.73,0 17.29,11.46 65.06,87.16l8.74 13.85 -25.29 -0.52c-13.91,-0.28 -71.48,-2.33 -127.93,-4.55l-0.01 0z"/>
    <path class="fil5" d="M3389.84 5454.99c-189.76,-4.86 -214.1,-5.4 -215.05,-4.82 -1.03,0.62 -53.99,-98.02 -53.1,-98.9 0.29,-0.29 70.89,1.98 156.88,5.06 127.49,4.56 156.62,5.9 157.83,7.22 0.82,0.89 14.08,21.32 29.48,45.4 15.4,24.08 28.75,44.94 29.68,46.37 1.62,2.48 1.56,2.58 -1.61,2.43 -1.82,-0.08 -48.66,-1.32 -104.1,-2.74l-0.01 -0.02z"/>
    <path class="fil5" d="M3447.44 5562.62c-47.2,-0.49 -114.94,-1.25 -150.52,-1.68l-64.7 -0.78 -28.32 -53.14 -28.32 -53.14 3.73 -0.31c2.05,-0.16 74.7,1.48 161.44,3.66 125.21,3.15 158,4.29 159.15,5.49 0.8,0.84 15.06,22.78 31.69,48.76 16.63,25.98 31,48.4 31.93,49.83l1.69 2.59 -15.97 -0.19c-8.79,-0.11 -54.59,-0.59 -101.8,-1.08l0 -0.01z"/>
    <path class="fil5" d="M3535 5664.07c-45.3,-1.11 -106.74,-2.6 -136.51,-3.3 -29.78,-0.7 -66.92,-1.6 -82.54,-2.01 -27.15,-0.71 -28.41,-0.65 -28.81,1.42 -0.24,1.29 -10.89,-17.49 -26.51,-46.78 -14.35,-26.91 -25.96,-49.07 -25.81,-49.23 0.16,-0.16 74.86,0.48 166.01,1.42 130.4,1.35 166.03,2.02 167.12,3.17 1.05,1.11 57.61,88.94 61.95,96.21 0.65,1.09 -0.76,1.4 -5.83,1.28 -3.68,-0.08 -43.76,-1.07 -89.06,-2.19l-0.01 0.01z"/>
    <path class="fil5" d="M3510.28 5760.44l-176.21 -9.37 -23.52 -44.11c-12.93,-24.26 -23.25,-44.37 -22.92,-44.7 0.56,-0.56 345.51,7.33 345.86,7.92 0.08,0.16 12.11,18.94 26.7,41.75 14.6,22.81 28.94,45.23 31.88,49.83l5.34 8.35 -5.46 -0.16c-3.01,-0.08 -84.76,-4.36 -181.67,-9.52l0 0.01z"/>
    <path class="fil5" d="M5076.45 5355.27c-0.59,-1.53 -26.09,-64.73 -56.66,-140.45 -30.57,-75.72 -55.6,-138.23 -55.61,-138.91 -0.02,-0.89 60.79,-77.49 68.33,-86.08 0.67,-0.77 109.73,258.89 111.38,265.2 0.35,1.34 -10.83,19.36 -31.95,51.49 -17.87,27.18 -32.92,49.9 -33.45,50.48 -0.56,0.61 -1.42,-0.13 -2.04,-1.73z"/>
    <path class="fil5" d="M5001.62 5464.71c-1.2,-2.8 -28.47,-68.91 -60.61,-146.92l-58.44 -141.83 38.97 -48.42c21.43,-26.63 39.28,-48.08 39.67,-47.68 0.38,0.41 26.22,64.05 57.4,141.44l56.71 140.7 -34.76 52.84c-19.12,29.06 -35.21,53.32 -35.76,53.9 -0.59,0.62 -1.91,-1.05 -3.18,-4.03z"/>
    <path class="fil5" d="M4935.94 5558.99c-1.91,-4.59 -30.21,-73.35 -62.89,-152.78 -58.39,-141.93 -59.38,-144.48 -57.41,-147.08 4.77,-6.29 64.23,-79.81 64.4,-79.64 0.11,0.11 27.49,66.44 60.85,147.41l60.66 147.21 -30.74 46.62c-16.91,25.64 -30.89,46.62 -31.07,46.62 -0.19,0 -1.89,-3.76 -3.8,-8.35l0 -0.01z"/>
    <path class="fil5" d="M4810.46 5505.98c-36.27,-85.7 -65.95,-156.46 -65.95,-157.25 0,-2.19 65.91,-83.45 66.83,-82.41 0.93,1.05 125.55,304 125.55,305.2 0,1.23 -58.96,90.28 -59.77,90.27 -0.39,0 -30.39,-70.12 -66.66,-155.82l0 0.01z"/>
    <path class="fil5" d="M4739.63 5605.06c-37.17,-90.12 -67.74,-164.51 -67.93,-165.31 -0.44,-1.82 68.48,-87.84 69.57,-86.84 0.44,0.4 30.63,71.17 67.09,157.27l66.29 156.54 -33 50.25c-18.15,27.64 -33.33,50.63 -33.72,51.1 -0.4,0.47 -31.13,-72.89 -68.3,-163.01z"/>
    <path class="fil5" d="M4103.94 5517.04c-79.52,-58.62 -144.77,-106.77 -145.01,-107 -1.08,-1.05 8.44,-106.55 9.58,-106.11 1.48,0.57 278.48,181.44 279.72,182.64 0.48,0.47 0.74,31.5 0.58,68.95l-0.3 68.11 -144.57 -106.59z"/>
    <path class="fil5" d="M4109.05 5391.09c-76.63,-50.05 -139.79,-91.16 -140.35,-91.35 -0.94,-0.33 6.51,-99.88 8.32,-111.04l0.78 -4.81 135.65 91.17 135.64 91.17 0 57.93c0,31.86 -0.16,57.93 -0.36,57.93 -0.19,0 -63.04,-40.95 -139.67,-91l-0.01 0z"/>
    <path class="fil5" d="M4113.43 5270.84c-73.67,-49.58 -134.37,-90.64 -134.9,-91.23 -0.87,-0.97 8.2,-117.67 9.21,-118.45 0.24,-0.19 59.01,41.25 130.6,92.08l130.17 92.4 0.3 57.74c0.16,31.76 -0.11,57.71 -0.58,57.68 -0.48,-0.03 -61.14,-40.64 -134.8,-90.22z"/>
    <path class="fil5" d="M4119.49 5149.73c-72.83,-51.68 -129.72,-91.3 -130.62,-90.97 -1.29,0.47 -1.46,-0.69 -0.89,-6.06 0.38,-3.66 2.29,-26.6 4.23,-51 1.94,-24.39 3.9,-45.8 4.35,-47.57 0.81,-3.19 1.68,-2.62 126.67,83.87l125.85 87.08 0 58.12c0,31.97 -0.13,58.11 -0.29,58.1 -0.16,-0.01 -58.34,-41.22 -129.3,-91.57z"/>
    <path class="fil5" d="M4123.52 5033.86c-68.75,-47.56 -125.37,-86.83 -125.83,-87.28 -0.87,-0.85 7.72,-108.25 8.74,-109.27 0.52,-0.52 237.69,154.82 241.22,157.99 1.14,1.02 1.39,14.6 1.15,63.16l-0.3 61.86 -124.98 -86.46z"/>
    <line class="fil10" x1="4253.86" y1="8331.08" x2="4255.06" y2= "8781.49" />
    <path class="fil5 str9" d="M5154.48 8195.25c-152.9,-137.69 -278.27,-251.57 -278.59,-253.05 -0.53,-2.43 165.54,-13.27 209.58,-13.68l17.92 -0.16 40.43 62.6c154.19,238.78 298.01,460.91 297.03,461.87 -0.64,0.63 -133.46,-119.87 -286.37,-257.57l0 -0.01z"/>
    <path class="fil5 str9" d="M3070.67 8437.48c5.5,-24.09 208.66,-719.83 210.81,-722.11 1.33,-1.41 28.56,41.11 60.52,94.49 31.96,53.38 60.02,100.03 62.35,103.67 3.86,6.02 -8.64,26.47 -139.85,228.86 -201.17,310.29 -196.36,306.18 -193.83,295.09z"/>
    <path class="fil5 str9" d="M4148.29 8404.89c-56.71,-195.03 -102.64,-355.11 -102.05,-355.73 0.58,-0.62 46.26,19.4 101.49,44.49l100.41 45.62 2.4 191.75c1.32,105.46 2.05,245.01 1.63,310.11l0.87 124.07 -104.75 -360.31z"/>
    <path class="fil6 str10" d="M3072.84 8446.13c1.47,-3.95 331.89,-511.15 339.61,-521.39l4.97 -6.6 119.66 10.56c65.81,5.81 119.56,11.35 119.45,12.31 -0.13,0.96 -118.24,103.66 -262.5,228.21 -335.6,289.76 -322.7,280.97 -321.19,276.9l0 0.01z"/>
    <path class="fil6 str10" d="M4256.74 8613.19c-0.6,-83.71 -1.08,-224.1 -1.07,-311.99l0.02 -159.8 107.91 -49.16c59.35,-27.04 108.13,-48.57 108.39,-47.86 0.34,0.93 -203.47,688.42 -214.06,722.04 -0.71,2.24 -0.59,-69.52 -1.19,-153.23z"/>
    <path class="fil6 str10" d="M5326.56 8266.3c-65.38,-101.85 -142.21,-221.01 -170.74,-264.8 -28.53,-43.79 -51.65,-80.53 -51.38,-81.64 0.69,-2.86 114.05,-207.96 114.63,-207.39 0.95,0.95 227.39,738 226.89,738.5 -0.29,0.28 -54.01,-82.82 -119.39,-184.67l-0.01 0z"/>
    <path class="fil9" d="M4158.58 6807.53c0,-0.16 25.97,-40.21 26.35,-40.62 0.13,-0.16 4.04,-0.5 8.66,-0.78 12.01,-0.71 38.44,-2.02 38.57,-1.9 0.03,0.03 0.11,8.6 0.16,19.04l0.08 18.99 -2.34 0.05c-22.13,0.6 -48.16,2.47 -66.58,4.77 -5.22,0.65 -4.89,0.62 -4.89,0.43l-0.01 0.02z"/>
    <path class="fil9" d="M4348.42 6806.89c-4.89,-0.61 -23.03,-2.4 -29.09,-2.87 -11.9,-0.92 -24.37,-1.55 -41.29,-2.08l-5.77 -0.19 0 -19.23 0 -19.23 0.66 -0.19c1.76,-0.47 37.58,0.01 47.34,0.64l3.12 0.21 14.07 21.59c7.74,11.88 14.03,21.62 13.98,21.65 -0.05,0.03 -1.4,-0.11 -3.01,-0.31l-0.01 0.01z"/>
    <line class="fil10 str11" x1="1540.55" y1="6514.8" x2="7020.59" y2= "6507.78" />
    <line class="fil10 str4" x1="4250.4" y1="4898.05" x2="4253.86" y2= "8331.08" />
    <polyline class="fil10 str4" points="5200.81,8074.18 3697.88,5767.46 3324.8,5185.83 "/>
    <polyline class="fil10 str4" points="3314.21,8070.34 4817.95,5756.05 5196.74,5180.94 "/>
    <polygon class="fil10 str4" points="3489.35,4987.07 3373.68,5254.26 3059.24,5239.6 3332.95,5752.8 3704.41,5772.35 3842.89,5444.88 "/>
    <polyline class="fil10 str4" points="3116.26,5348.75 3435.58,5360.15 3559.4,5083.18 "/>
    <polyline class="fil10 str4" points="3629.46,5174.43 3505.64,5459.54 3174.91,5451.39 "/>
    <polyline class="fil10 str4" points="3233.56,5562.18 3567.55,5565.44 3702.77,5267.3 "/>
    <polyline class="fil10 str4" points="3776.09,5360.16 3634.35,5668.08 3287.33,5659.93 "/>
    <polygon class="fil10 str4" points="4004.45,4832.92 4248.54,4993.58 4515.78,4828.84 4551.06,5412.99 4250.39,5627.27 3956.63,5410.69 "/>
    <polyline class="fil10 str4" points="3968.16,5301.26 4250.4,5485.58 4538.4,5305.86 "/>
    <polyline class="fil10 str4" points="3973.92,5179.14 4251.55,5365.77 4536.09,5184.9 "/>
    <polyline class="fil10 str4" points="3988.9,5059.33 4250.4,5244.81 4530.33,5062.79 "/>
    <polyline class="fil10 str4" points="3992.36,4945.28 4250.4,5123.84 4522.27,4941.82 "/>
    <polygon class="fil10 str4" points="5033.81,4985.44 5147.85,5259.15 5449.25,5242.86 5169.03,5760.95 4807.35,5773.98 4668.87,5438.36 "/>
    <polyline class="fil10 str4" points="4962.13,5076.67 5077.8,5363.41 5393.87,5348.75 "/>
    <polyline class="fil10 str4" points="4880.67,5176.06 5002.86,5472.58 5330.33,5454.66 "/>
    <polyline class="fil10 str4" points="4810.61,5259.15 4939.32,5571.95 5276.57,5560.55 "/>
    <polyline class="fil10 str4" points="4740.56,5345.49 4875.78,5664.81 5221.17,5658.29 "/>
    <polygon class="fil10 str4" points="3407.88,7914.75 3280.8,7702.95 3062.49,8458.9 3665.3,7937.55 "/>
    <polygon class="fil10 str4" points="4255.06,8139.58 4040.02,8041.83 4255.06,8781.49 4476.63,8038.57 "/>
    <polygon class="fil10 str4" points="4864.38,7937.56 5098.99,7924.53 5219.55,7706.22 5454.16,8468.69 "/>
    <g>
     <polyline class="fil10 str12" points="65.24,82.94 8437.07,82.94 8437.07,8060.67 "/>
     <path class="fil10 str12" d="M8437.07 8060.67c-0.48,716.55 -372.75,1003.12 -1104.38,1000.18"/>
     <line class="fil10 str12" x1="7332.69" y1="9060.85" x2="5356.26" y2= "9052.91" />
     <path class="fil10 str12" d="M5356.26 9052.91c-562.86,-2.25 -826.46,109.7 -1098.38,594.15 -257.85,-441.05 -512.18,-585.45 -1039.47,-585.45"/>
     <line class="fil10 str12" x1="3218.41" y1="9061.61" x2="1162.61" y2= "9061.59" />
     <path class="fil10 str12" d="M1162.61 9061.59c-742.22,-0.01 -1097.37,-315.61 -1097.37,-1063.53"/>
     <line class="fil10 str12" x1="65.24" y1="7998.06" x2="65.24" y2= "82.94" />
     <line class="fil10 str13" x1="64.87" y1="4440.51" x2="8465.13" y2= "4431.16" />
    </g>
    <path class="fil6" d="M3878.14 6439.24c-182.84,78.45 -268.73,195.25 -366.28,362.15 -109.58,187.52 -270.96,280.17 -490.36,271.77 -235.41,-9.05 -538.6,-161.32 -733.75,-281.33 -231.64,-142.45 -433.19,-241.63 -692.16,-322.97 -142.92,-44.91 -336.06,-39.91 -465.86,37.88 -51.49,30.86 -77.12,60.49 -98.19,113.48 -44.82,112.79 37.25,250.41 176.41,234 96.16,-11.32 146.66,-91.71 118.96,-182.53 -4.56,-14.96 -8.27,-28.7 -8.27,-30.49 0,-5.58 23.35,-12.78 48.83,-15.09 49.93,-4.51 171.16,22.35 259.05,57.41 186.71,74.49 387.71,198.99 557.18,310.42 256.62,168.78 523.4,359.8 824.52,432.63 144.81,35 278.17,21.05 414.36,-42.06 201.69,-93.42 259.05,-213.1 379.66,-377.69 55.98,-76.42 104.07,-127.88 194.74,-160.66 154.94,-56.02 357.34,-59.63 510.68,0.46 177.85,69.75 222.35,222.86 332.43,357.12 104.1,126.93 233.72,206.18 379.39,231.41 96.06,16.64 203.11,5.61 311.97,-22.28 439.5,-112.6 717.86,-396.49 1093.52,-609.01 113.39,-64.16 283.55,-142.78 407.85,-166.32 50.39,-9.54 156.28,-11.64 161.49,-3.2 0.93,1.5 -1.46,8.81 -5.27,16.28 -9.71,19.03 -16.02,41.42 -16.07,56.74 -0.23,79.02 71.86,156.26 152.86,151.55 132.39,-7.56 196.89,-133.09 145.1,-251.19 -73.14,-166.79 -313.98,-186.9 -469.23,-164.17 -187.89,27.49 -445.67,152.51 -609.16,246.09 -179.64,102.85 -351.86,202.14 -544.15,282.41 -183.43,76.57 -325,123.76 -524.62,79.32 -94.27,-20.98 -211.66,-96.58 -278.23,-179.16 -182.21,-226.06 -181.14,-403.83 -518.47,-475.63 -97.1,-20.67 -174.99,-24.97 -272.84,-24.48 -140.03,0.64 -244.3,10.61 -376.09,67.14z"/>
    <path class="fil5" d="M3878.14 6439.24c-182.84,78.45 -268.73,195.25 -366.28,362.15 -109.58,187.52 -270.96,280.17 -490.36,271.77 -235.41,-9.05 -538.6,-161.32 -733.75,-281.33 -231.64,-142.45 -433.19,-241.63 -692.16,-322.97 -142.92,-44.91 -336.06,-39.91 -465.86,37.88 -51.49,30.86 -77.12,60.49 -98.19,113.48 -12.15,30.57 -14.96,62.95 -9.86,93.61 2,-11.94 5.25,-23.8 9.86,-35.4 21.07,-52.99 46.7,-82.62 98.19,-113.48 129.8,-77.79 322.94,-62.79 465.86,-17.88 462.68,145.32 1010.95,608.35 1425.91,624.3 219.4,7.72 420.78,-96.98 530.36,-268.41 203.06,-317.61 314.96,-392.45 702.37,-392.45 443.76,0 446.38,70.24 709.86,407.23 128.9,164.86 378.86,269.63 584.75,244.35 479.92,-58.95 960.87,-568.35 1452.86,-640.33 155.25,-22.73 396.09,-22.62 469.23,144.17 7.76,17.7 12.89,35.56 15.59,53.17 5.61,-35.16 0.96,-73.65 -15.59,-111.38 -73.14,-166.79 -313.98,-186.9 -469.23,-164.17 -187.89,27.49 -445.67,152.51 -609.16,246.09 -179.64,102.85 -351.86,202.14 -544.15,282.41 -183.43,76.57 -325,123.76 -524.62,79.32 -94.27,-20.98 -211.66,-96.58 -278.23,-179.16 -182.21,-226.06 -181.14,-403.83 -518.47,-475.63 -97.1,-20.67 -174.99,-24.97 -272.84,-24.48 -140.03,0.64 -244.3,10.61 -376.09,67.14zm3297.25 249.02l0 0c10.64,0.85 17.67,2.27 18.92,4.29 0.93,1.5 -1.46,8.81 -5.27,16.28 -5.11,10.02 -9.29,20.98 -12.1,31.34 -2.62,-10.76 -4,-21.77 -3.97,-32.81 0.02,-5.59 0.87,-12.13 2.42,-19.1z"/>
    <path class="fil10 str14" d="M3878.14 6439.24c-182.84,78.45 -268.73,195.25 -366.28,362.15 -109.58,187.52 -270.96,280.17 -490.36,271.77 -235.41,-9.05 -538.6,-161.32 -733.75,-281.33 -231.64,-142.45 -433.19,-241.63 -692.16,-322.97 -142.92,-44.91 -336.06,-39.91 -465.86,37.88 -51.49,30.86 -77.12,60.49 -98.19,113.48 -44.82,112.79 37.25,250.41 176.41,234 96.16,-11.32 146.66,-91.71 118.96,-182.53 -4.56,-14.96 -8.27,-28.7 -8.27,-30.49 0,-5.58 23.35,-12.78 48.83,-15.09 49.93,-4.51 171.16,22.35 259.05,57.41 186.71,74.49 387.71,198.99 557.18,310.42 256.62,168.78 523.4,359.8 824.52,432.63 144.81,35 278.17,21.05 414.36,-42.06 201.69,-93.42 259.05,-213.1 379.66,-377.69 55.98,-76.42 104.07,-127.88 194.74,-160.66 154.94,-56.02 357.34,-59.63 510.68,0.46 177.85,69.75 222.35,222.86 332.43,357.12 104.1,126.93 233.72,206.18 379.39,231.41 96.06,16.64 203.11,5.61 311.97,-22.28 439.5,-112.6 717.86,-396.49 1093.52,-609.01 113.39,-64.16 283.55,-142.78 407.85,-166.32 50.39,-9.54 156.28,-11.64 161.49,-3.2 0.93,1.5 -1.46,8.81 -5.27,16.28 -9.71,19.03 -16.02,41.42 -16.07,56.74 -0.23,79.02 71.86,156.26 152.86,151.55 132.39,-7.56 196.89,-133.09 145.1,-251.19 -73.14,-166.79 -313.98,-186.9 -469.23,-164.17 -187.89,27.49 -445.67,152.51 -609.16,246.09 -179.64,102.85 -351.86,202.14 -544.15,282.41 -183.43,76.57 -325,123.76 -524.62,79.32 -94.27,-20.98 -211.66,-96.58 -278.23,-179.16 -182.21,-226.06 -181.14,-403.83 -518.47,-475.63 -97.1,-20.67 -174.99,-24.97 -272.84,-24.48 -140.03,0.64 -244.3,10.61 -376.09,67.14z"/>
   </g>
  </g>
 </g>
</svg>
