<svg width="120" height="24" viewBox="0 0 120 24" fill="none" xmlns="http://www.w3.org/2000/svg">
<g clip-path="url(#clip0_13884_12132)">
<path d="M56.0526 17.5508C56.0526 16.6417 55.7432 15.9466 55.1245 15.4653C54.5056 14.9733 53.3918 14.4599 51.7831 13.9252C50.1744 13.3797 48.9006 12.8449 47.9621 12.3209C45.4046 10.8877 44.1258 8.95724 44.1258 6.52942C44.1258 5.26738 44.4661 4.1444 45.1468 3.16044C45.8377 2.16578 46.8225 1.39037 48.1015 0.834215C49.3905 0.278086 50.8342 0 52.4328 0C54.0417 0 55.4751 0.304816 56.7332 0.91443C57.9914 1.51337 58.9661 2.36365 59.657 3.46525C60.3582 4.56685 60.7088 5.81819 60.7088 7.21927H56.0682C56.0682 6.14975 55.7432 5.32087 55.0935 4.73263C54.4438 4.1337 53.5312 3.83424 52.3554 3.83424C51.221 3.83424 50.3393 4.08557 49.7102 4.58823C49.0811 5.08022 48.7666 5.73262 48.7666 6.54547C48.7666 7.30484 49.1327 7.9412 49.865 8.45457C50.6075 8.96794 51.6955 9.44921 53.1288 9.89842C55.769 10.7219 57.6923 11.7433 58.8989 12.9626C60.1055 14.1818 60.7088 15.7006 60.7088 17.5187C60.7088 19.5401 59.9715 21.1284 58.4968 22.2835C57.022 23.4278 55.0367 24 52.5412 24C50.8084 24 49.2307 23.6738 47.8076 23.0214C46.3844 22.3584 45.2964 21.4546 44.5435 20.3102C43.801 19.1658 43.4297 17.8396 43.4297 16.3316H48.0859C48.0859 18.9091 49.5711 20.1979 52.5412 20.1979C53.6446 20.1979 54.5056 19.968 55.1245 19.5081C55.7432 19.0375 56.0526 18.3851 56.0526 17.5508ZM78.0494 13.5562H69.1391V19.8129H79.5963V23.6792H64.4983V0.320869H79.5653V4.21926H69.1391V9.78612H78.0494V13.5562ZM91.2903 15.1284H87.5933V23.6792H82.9525V0.320869H91.3213C93.982 0.320869 96.0343 0.935833 97.478 2.16578C98.9218 3.39574 99.6439 5.13371 99.6439 7.3797C99.6439 8.97327 99.3085 10.3048 98.6382 11.3744C97.9781 12.4332 96.9727 13.2781 95.6218 13.9091L100.495 23.4546V23.6792H95.5136L91.2903 15.1284ZM87.5933 11.23H91.3369C92.5021 11.23 93.4045 10.9252 94.0438 10.3155C94.6833 9.6952 95.0031 8.84494 95.0031 7.76472C95.0031 6.66312 94.6987 5.79681 94.0902 5.16579C93.4921 4.53477 92.5691 4.21926 91.3213 4.21926H87.5933V11.23ZM120.001 4.21926H113.101V23.6792H108.461V4.21926H101.654V0.320869H120.001V4.21926Z" fill="black"/>
<path d="M36.4374 0.322266L31.3327 17.8891L26.2588 0.322266H21.1074L28.9195 23.6806H33.7613L41.6042 0.322266H36.4374Z" fill="black"/>
<path d="M3.88043 24.0519L0 24.0519V2.37695L18.432 24.0519L13.5815 24.0519L3.88043 12.2292V24.0519Z" fill="black"/>
<path d="M14.5522 -0.0521278L18.4326 -0.0521297V21.6228L0.000574112 -0.0521297L4.85111 -0.0521278L14.5522 11.7706V-0.0521278Z" fill="black"/>
</g>
<defs>
<clipPath id="clip0_13884_12132">
<rect width="120" height="24" fill="white"/>
</clipPath>
</defs>
</svg>
