<svg xmlns="http://www.w3.org/2000/svg" viewBox="0 0 16 16" width="16" height="16" preserveAspectRatio="xMidYMid meet" style="width: 100%;height: 100%;/* transform: translate3d(0px, 0px, 0px); */"><defs><clipPath id="__lottie_element_30"><rect width="16" height="16" x="0" y="0"></rect></clipPath></defs><g clip-path="url(#__lottie_element_30)"><g transform="matrix(1,0,0,1,0,0)" opacity="1" style="display: block;"><g opacity="1" transform="matrix(1,0,0,1,12.267000198364258,12.267999649047852)"><path stroke-linecap="butt" stroke-linejoin="miter" fill-opacity="0" stroke-miterlimit="10" stroke="rgb(255,255,255)" stroke-opacity="1" stroke-width="2" d=" M1.8209999799728394,1.8209999799728394 C0.2669999897480011,0.2669999897480011 -2.7320001125335693,-2.7320001125335693 -2.7320001125335693,-2.7320001125335693"></path></g></g><g transform="matrix(0.9987385272979736,-0.019539548084139824,0.019539548084139824,0.9987385272979736,-0.10966873168945312,0.12480592727661133)" opacity="1" style="display: block;"><g opacity="1" transform="matrix(1,0,0,1,6,6)"><path stroke-linecap="butt" stroke-linejoin="miter" fill-opacity="0" stroke-miterlimit="10" stroke-dasharray=" 28" stroke-dashoffset="0" stroke="rgb(255,255,255)" stroke-opacity="1" stroke-width="2" d=" M5,0 C5,-2.760999917984009 2.76200008392334,-5 0,-5 C-2.76200008392334,-5 -5,-2.760999917984009 -5,0 C-5,2.760999917984009 -2.76200008392334,5 0,5 C2.76200008392334,5 5,2.760999917984009 5,0z"></path></g></g></g></svg>