<svg width="106" height="130" viewBox="0 0 106 130" fill="none" xmlns="http://www.w3.org/2000/svg">
<g style="mix-blend-mode:multiply">
<path d="M62.0676 129.686L0.239815 95.7863L24.065 82.7297L89.3419 118.492C89.3419 118.492 75.5247 125.995 70.9617 128.561C67.9018 130.283 63.7404 130.173 62.0635 129.686H62.0676Z" fill="#E2E7E8"/>
</g>
<path d="M2.14063 92.0802L23.8458 80.0651L23.8913 80.0376H23.8955L85.6281 114.373L62.1631 129.721L-6.86646e-05 95.5978C-6.86646e-05 94.3047 0.956413 92.7247 2.14063 92.0802Z" fill="url(#paint0_linear_14904_26993)"/>
<path d="M64.3077 126.199L85.632 114.357V116.7L62.167 129.717C62.167 128.42 63.1277 126.844 64.3077 126.195V126.199Z" fill="url(#paint1_linear_14904_26993)"/>
<g style="mix-blend-mode:multiply">
<path d="M76.2648 114.801L78.3393 115.957L80.422 114.821L78.3517 113.677L76.2648 114.801Z" fill="#DDE4E8"/>
</g>
<g style="mix-blend-mode:multiply">
<path d="M71.5661 112.2L73.6406 113.351L75.7316 112.219L73.6571 111.064L71.5661 112.2Z" fill="#DDE4E8"/>
</g>
<g style="mix-blend-mode:multiply">
<path d="M69.1847 110.871L71.2551 112.031L73.3419 110.891L71.2675 109.747L69.1847 110.871Z" fill="#DDE4E8"/>
</g>
<g style="mix-blend-mode:multiply">
<path d="M66.7958 109.562L68.8786 110.71L70.9572 109.586L68.8951 108.427L66.7958 109.562Z" fill="#DDE4E8"/>
</g>
<g style="mix-blend-mode:multiply">
<path d="M61.6115 122.642L63.6943 123.786L65.7853 122.67L63.7067 121.507L61.6115 122.642Z" fill="#DDE4E8"/>
</g>
<g style="mix-blend-mode:multiply">
<path d="M59.239 121.318L61.3217 122.466L63.4044 121.338L61.3341 120.19L59.239 121.318Z" fill="#DDE4E8"/>
</g>
<g style="mix-blend-mode:multiply">
<path d="M56.8454 119.993L58.9281 121.145L61.0109 120.017L58.9406 118.861L56.8454 119.993Z" fill="#DDE4E8"/>
</g>
<g style="mix-blend-mode:multiply">
<path d="M64.4101 108.234L66.4887 109.381L68.5714 108.253L66.5011 107.106L64.4101 108.234Z" fill="#DDE4E8"/>
</g>
<g style="mix-blend-mode:multiply">
<path d="M72.7175 116.692L74.7961 117.851L76.8829 116.716L74.8085 115.568L72.7175 116.692Z" fill="#DDE4E8"/>
</g>
<g style="mix-blend-mode:multiply">
<path d="M70.3322 115.363L72.4108 116.523L74.506 115.387L72.4191 114.247L70.3322 115.363Z" fill="#DDE4E8"/>
</g>
<g style="mix-blend-mode:multiply">
<path d="M67.955 114.051L70.0253 115.194L72.1163 114.07L70.0377 112.923L67.955 114.051Z" fill="#DDE4E8"/>
</g>
<g style="mix-blend-mode:multiply">
<path d="M65.5832 112.726L67.6493 113.882L69.7404 112.746L67.6618 111.598L65.5832 112.726Z" fill="#DDE4E8"/>
</g>
<g style="mix-blend-mode:multiply">
<path d="M63.1362 111.386L65.2106 112.526L67.3058 111.406L65.2231 110.25L63.1362 111.386Z" fill="#DDE4E8"/>
</g>
<g style="mix-blend-mode:multiply">
<path d="M60.7633 110.065L62.8295 111.209L64.9122 110.085L62.8419 108.926L60.7633 110.065Z" fill="#DDE4E8"/>
</g>
<g style="mix-blend-mode:multiply">
<path d="M58.374 108.733L60.4401 109.889L62.5353 108.753L60.4526 107.601L58.374 108.733Z" fill="#DDE4E8"/>
</g>
<g style="mix-blend-mode:multiply">
<path d="M55.9884 107.412L58.0629 108.564L60.1456 107.436L58.0795 106.276L55.9884 107.412Z" fill="#DDE4E8"/>
</g>
<g style="mix-blend-mode:multiply">
<path d="M53.6364 106.104L55.7109 107.263L57.8019 106.123L55.7316 104.987L53.6364 106.104Z" fill="#DDE4E8"/>
</g>
<g style="mix-blend-mode:multiply">
<path d="M51.2558 104.783L53.3427 105.942L55.4171 104.806L53.3551 103.663L51.2558 104.783Z" fill="#DDE4E8"/>
</g>
<g style="mix-blend-mode:multiply">
<path d="M48.872 103.474L50.9506 104.618L53.0333 103.494L50.963 102.338L48.872 103.474Z" fill="#DDE4E8"/>
</g>
<g style="mix-blend-mode:multiply">
<path d="M46.4897 102.146L48.5641 103.305L50.6593 102.165L48.5766 101.022L46.4897 102.146Z" fill="#DDE4E8"/>
</g>
<g style="mix-blend-mode:multiply">
<path d="M44.0551 100.797L46.1254 101.941L48.2247 100.825L46.142 99.6655L44.0551 100.797Z" fill="#DDE4E8"/>
</g>
<g style="mix-blend-mode:multiply">
<path d="M41.6791 99.4769L43.7577 100.621L45.8322 99.4966L43.7701 98.345L41.6791 99.4769Z" fill="#DDE4E8"/>
</g>
<g style="mix-blend-mode:multiply">
<path d="M39.2934 98.1603L41.3554 99.3041L43.463 98.18L41.3679 97.0166L39.2934 98.1603Z" fill="#DDE4E8"/>
</g>
<g style="mix-blend-mode:multiply">
<path d="M36.9213 96.8356L38.9833 97.9833L41.0743 96.8553L38.9958 95.6958L36.9213 96.8356Z" fill="#DDE4E8"/>
</g>
<g style="mix-blend-mode:multiply">
<path d="M59.6649 105.6L61.7311 106.744L63.8097 105.624L61.7435 104.461L59.6649 105.6Z" fill="#DDE4E8"/>
</g>
<g style="mix-blend-mode:multiply">
<path d="M57.2768 104.276L59.3471 105.423L61.4464 104.299L59.3595 103.14L57.2768 104.276Z" fill="#DDE4E8"/>
</g>
<g style="mix-blend-mode:multiply">
<path d="M54.8908 102.943L56.9694 104.099L59.048 102.967L56.9818 101.819L54.8908 102.943Z" fill="#DDE4E8"/>
</g>
<g style="mix-blend-mode:multiply">
<path d="M52.5065 101.627L54.5934 102.778L56.672 101.65L54.6058 100.495L52.5065 101.627Z" fill="#DDE4E8"/>
</g>
<g style="mix-blend-mode:multiply">
<path d="M47.6994 98.9584L49.7656 100.114L51.8566 98.978L49.7821 97.8264L47.6994 98.9584Z" fill="#DDE4E8"/>
</g>
<g style="mix-blend-mode:multiply">
<path d="M45.3061 97.6375L47.3888 98.7812L49.4757 97.6572L47.4013 96.5134L45.3061 97.6375Z" fill="#DDE4E8"/>
</g>
<g style="mix-blend-mode:multiply">
<path d="M42.9374 96.317L45.016 97.4725L47.0988 96.3406L45.0285 95.189L42.9374 96.317Z" fill="#DDE4E8"/>
</g>
<g style="mix-blend-mode:multiply">
<path d="M40.5485 94.9845L42.6271 96.1361L44.714 95.0041L42.6395 93.8525L40.5485 94.9845Z" fill="#DDE4E8"/>
</g>
<g style="mix-blend-mode:multiply">
<path d="M33.0168 106.775L35.0829 107.919L37.174 106.795L35.0954 105.647L33.0168 106.775Z" fill="#DDE4E8"/>
</g>
<g style="mix-blend-mode:multiply">
<path d="M30.632 105.455L32.7106 106.599L34.7892 105.479L32.723 104.323L30.632 105.455Z" fill="#DDE4E8"/>
</g>
<g style="mix-blend-mode:multiply">
<path d="M28.2426 104.134L30.3254 105.278L32.4122 104.154L30.3378 102.995L28.2426 104.134Z" fill="#DDE4E8"/>
</g>
<g style="mix-blend-mode:multiply">
<path d="M25.8701 102.81L27.9445 103.95L30.0314 102.83L27.9569 101.678L25.8701 102.81Z" fill="#DDE4E8"/>
</g>
<g style="mix-blend-mode:multiply">
<path d="M36.3459 92.6461L38.4079 93.8016L40.5031 92.6657L38.4203 91.5181L36.3459 92.6461Z" fill="#DDE4E8"/>
</g>
<g style="mix-blend-mode:multiply">
<path d="M33.9611 91.3255L36.0356 92.4771L38.1183 91.3452L36.048 90.1975L33.9611 91.3255Z" fill="#DDE4E8"/>
</g>
<g style="mix-blend-mode:multiply">
<path d="M31.5754 90.0048L33.6499 91.1524L35.7492 90.0283L33.6623 88.8689L31.5754 90.0048Z" fill="#DDE4E8"/>
</g>
<g style="mix-blend-mode:multiply">
<path d="M17.7126 90.1934L19.7912 91.349L21.8781 90.2131L19.7995 89.0654L17.7126 90.1934Z" fill="#DDE4E8"/>
</g>
<g style="mix-blend-mode:multiply">
<path d="M15.3363 88.8729L17.4108 90.0284L19.4894 88.8965L17.4232 87.7449L15.3363 88.8729Z" fill="#DDE4E8"/>
</g>
<g style="mix-blend-mode:multiply">
<path d="M12.9521 87.5602L15.0348 88.7118L17.1134 87.5838L15.0472 86.4243L12.9521 87.5602Z" fill="#DDE4E8"/>
</g>
<g style="mix-blend-mode:multiply">
<path d="M15.2324 91.5415L17.2985 92.6971L19.3937 91.5651L17.311 90.4214L15.2324 91.5415Z" fill="#DDE4E8"/>
</g>
<g style="mix-blend-mode:multiply">
<path d="M12.8444 90.2171L14.9189 91.3805L17.0099 90.2407L14.9313 89.0969L12.8444 90.2171Z" fill="#DDE4E8"/>
</g>
<g style="mix-blend-mode:multiply">
<path d="M10.4582 88.9044L12.5451 90.0481L14.632 88.9319L12.5575 87.7725L10.4582 88.9044Z" fill="#DDE4E8"/>
</g>
<g style="mix-blend-mode:multiply">
<path d="M32.8395 94.5481L34.9057 95.7036L36.9884 94.5678L34.9181 93.428L32.8395 94.5481Z" fill="#DDE4E8"/>
</g>
<g style="mix-blend-mode:multiply">
<path d="M30.4531 93.2239L32.5151 94.3716L34.6144 93.2475L32.5317 92.1038L30.4531 93.2239Z" fill="#DDE4E8"/>
</g>
<g style="mix-blend-mode:multiply">
<path d="M28.0559 91.9073L30.1427 93.051L32.2296 91.9269L30.1552 90.7832L28.0559 91.9073Z" fill="#DDE4E8"/>
</g>
<g style="mix-blend-mode:multiply">
<path d="M30.3422 95.8964L32.4125 97.048L34.4952 95.916L32.4249 94.7566L30.3422 95.8964Z" fill="#DDE4E8"/>
</g>
<g style="mix-blend-mode:multiply">
<path d="M27.9572 94.576L30.0399 95.7237L32.1144 94.5957L30.0524 93.448L27.9572 94.576Z" fill="#DDE4E8"/>
</g>
<g style="mix-blend-mode:multiply">
<path d="M25.5678 93.267L27.6506 94.4029L29.7374 93.2906L27.663 92.1272L25.5678 93.267Z" fill="#DDE4E8"/>
</g>
<g style="mix-blend-mode:multiply">
<path d="M12.7477 92.8936L14.8181 94.0452L16.9132 92.9133L14.8305 91.7656L12.7477 92.8936Z" fill="#DDE4E8"/>
</g>
<g style="mix-blend-mode:multiply">
<path d="M10.3593 91.5653L12.442 92.7247L14.5206 91.5849L12.4545 90.4333L10.3593 91.5653Z" fill="#DDE4E8"/>
</g>
<g style="mix-blend-mode:multiply">
<path d="M5.49361 91.5928L7.57634 92.7405L12.1476 90.2683L10.0731 89.1206L5.49361 91.5928Z" fill="#DDE4E8"/>
</g>
<g style="mix-blend-mode:multiply">
<path d="M10.2592 94.23L12.3337 95.3895L14.4288 94.2497L12.3502 93.106L10.2592 94.23Z" fill="#DDE4E8"/>
</g>
<g style="mix-blend-mode:multiply">
<path d="M7.87103 92.9131L9.94134 94.0608L12.0324 92.9367L9.95791 91.7891L7.87103 92.9131Z" fill="#DDE4E8"/>
</g>
<g style="mix-blend-mode:multiply">
<path d="M24.8095 86.3615L26.8922 87.5052L28.9708 86.3851L26.9047 85.2178L24.8095 86.3615Z" fill="#DDE4E8"/>
</g>
<g style="mix-blend-mode:multiply">
<path d="M22.4331 85.0367L24.5075 86.1765L26.6027 85.0564L24.5199 83.9048L22.4331 85.0367Z" fill="#DDE4E8"/>
</g>
<g style="mix-blend-mode:multiply">
<path d="M20.0602 83.7164L22.1222 84.868L24.2091 83.7361L22.1347 82.5806L20.0602 83.7164Z" fill="#DDE4E8"/>
</g>
<g style="mix-blend-mode:multiply">
<path d="M22.7607 98.2584L24.8351 99.4139L26.922 98.282L24.8475 97.1265L22.7607 98.2584Z" fill="#DDE4E8"/>
</g>
<g style="mix-blend-mode:multiply">
<path d="M22.6489 100.931L24.7275 102.083L26.8185 100.951L24.7399 99.8032L22.6489 100.931Z" fill="#DDE4E8"/>
</g>
<g style="mix-blend-mode:multiply">
<path d="M20.268 99.6146L22.3425 100.758L24.4376 99.6303L22.3549 98.4827L20.268 99.6146Z" fill="#DDE4E8"/>
</g>
<g style="mix-blend-mode:multiply">
<path d="M17.8864 98.282L19.965 99.4376L22.0519 98.3017L19.9774 97.158L17.8864 98.282Z" fill="#DDE4E8"/>
</g>
<g style="mix-blend-mode:multiply">
<path d="M69.2759 117.505L72.3151 119.188L74.3937 118.064L71.3627 116.385L69.2759 117.505Z" fill="#DDE4E8"/>
</g>
<g style="mix-blend-mode:multiply">
<path d="M66.8779 116.185L68.9565 117.34L71.0558 116.208L68.9731 115.061L66.8779 116.185Z" fill="#DDE4E8"/>
</g>
<g style="mix-blend-mode:multiply">
<path d="M64.5138 114.86L66.5842 116.02L68.671 114.884L66.5966 113.744L64.5138 114.86Z" fill="#DDE4E8"/>
</g>
<g style="mix-blend-mode:multiply">
<path d="M62.1164 113.54L64.1909 114.695L66.2902 113.563L64.2033 112.419L62.1164 113.54Z" fill="#DDE4E8"/>
</g>
<g style="mix-blend-mode:multiply">
<path d="M59.6906 112.192L61.7609 113.339L63.8478 112.215L61.7733 111.064L59.6906 112.192Z" fill="#DDE4E8"/>
</g>
<g style="mix-blend-mode:multiply">
<path d="M57.3056 110.871L59.3759 112.03L61.4669 110.895L59.3883 109.735L57.3056 110.871Z" fill="#DDE4E8"/>
</g>
<g style="mix-blend-mode:multiply">
<path d="M54.9165 109.554L56.9909 110.694L59.0861 109.578L57.0033 108.415L54.9165 109.554Z" fill="#DDE4E8"/>
</g>
<g style="mix-blend-mode:multiply">
<path d="M52.5443 108.226L54.6105 109.374L56.6974 108.249L54.6229 107.098L52.5443 108.226Z" fill="#DDE4E8"/>
</g>
<g style="mix-blend-mode:multiply">
<path d="M50.1965 106.925L52.2751 108.084L54.3536 106.945L52.2875 105.797L50.1965 106.925Z" fill="#DDE4E8"/>
</g>
<g style="mix-blend-mode:multiply">
<path d="M47.8027 105.604L49.8979 106.76L51.9806 105.628L49.9103 104.48L47.8027 105.604Z" fill="#DDE4E8"/>
</g>
<g style="mix-blend-mode:multiply">
<path d="M45.4342 104.276L47.5045 105.439L49.5831 104.296L47.5211 103.156L45.4342 104.276Z" fill="#DDE4E8"/>
</g>
<g style="mix-blend-mode:multiply">
<path d="M43.0459 102.967L45.1286 104.115L47.2238 102.987L45.141 101.839L43.0459 102.967Z" fill="#DDE4E8"/>
</g>
<g style="mix-blend-mode:multiply">
<path d="M40.6025 101.615L42.6852 102.759L44.7804 101.635L42.6977 100.475L40.6025 101.615Z" fill="#DDE4E8"/>
</g>
<g style="mix-blend-mode:multiply">
<path d="M38.2379 100.287L40.2917 101.442L42.3868 100.31L40.3083 99.147L38.2379 100.287Z" fill="#DDE4E8"/>
</g>
<g style="mix-blend-mode:multiply">
<path d="M34.4201 98.1798L37.923 100.114L40.0099 98.9895L36.5069 97.0439L34.4201 98.1798Z" fill="#DDE4E8"/>
</g>
<g style="mix-blend-mode:multiply">
<path d="M65.6782 118.236L69.8229 120.536L71.9181 119.4L67.7526 117.093L65.6782 118.236Z" fill="#DDE4E8"/>
</g>
<g style="mix-blend-mode:multiply">
<path d="M63.256 116.884L65.3388 118.044L67.4132 116.904L65.347 115.768L63.256 116.884Z" fill="#DDE4E8"/>
</g>
<g style="mix-blend-mode:multiply">
<path d="M60.871 115.568L62.9455 116.723L65.0324 115.591L62.9579 114.436L60.871 115.568Z" fill="#DDE4E8"/>
</g>
<g style="mix-blend-mode:multiply">
<path d="M58.4985 114.247L60.5729 115.403L62.6515 114.267L60.5853 113.119L58.4985 114.247Z" fill="#DDE4E8"/>
</g>
<g style="mix-blend-mode:multiply">
<path d="M56.0515 112.899L58.1301 114.043L60.2169 112.919L58.1425 111.755L56.0515 112.899Z" fill="#DDE4E8"/>
</g>
<g style="mix-blend-mode:multiply">
<path d="M53.6701 111.575L55.7404 112.73L57.8273 111.594L55.757 110.447L53.6701 111.575Z" fill="#DDE4E8"/>
</g>
<g style="mix-blend-mode:multiply">
<path d="M51.289 110.254L53.3593 111.406L55.4503 110.278L53.3717 109.114L51.289 110.254Z" fill="#DDE4E8"/>
</g>
<g style="mix-blend-mode:multiply">
<path d="M48.9006 108.933L50.9751 110.077L53.0743 108.957L50.9833 107.794L48.9006 108.933Z" fill="#DDE4E8"/>
</g>
<g style="mix-blend-mode:multiply">
<path d="M46.5651 107.632L48.6354 108.78L50.7306 107.652L48.6479 106.504L46.5651 107.632Z" fill="#DDE4E8"/>
</g>
<g style="mix-blend-mode:multiply">
<path d="M44.1757 106.308L46.2584 107.46L48.337 106.328L46.275 105.176L44.1757 106.308Z" fill="#DDE4E8"/>
</g>
<g style="mix-blend-mode:multiply">
<path d="M41.7866 104.987L43.8693 106.143L45.9562 105.007L43.8817 103.855L41.7866 104.987Z" fill="#DDE4E8"/>
</g>
<g style="mix-blend-mode:multiply">
<path d="M39.414 103.667L41.4884 104.814L43.5753 103.686L41.5009 102.535L39.414 103.667Z" fill="#DDE4E8"/>
</g>
<g style="mix-blend-mode:multiply">
<path d="M36.9745 102.315L39.0573 103.47L41.1359 102.338L39.0738 101.183L36.9745 102.315Z" fill="#DDE4E8"/>
</g>
<g style="mix-blend-mode:multiply">
<path d="M31.9358 99.5162L36.594 102.102L38.6974 100.974L34.0309 98.3882L31.9358 99.5162Z" fill="#DDE4E8"/>
</g>
<g style="mix-blend-mode:multiply">
<path d="M61.9225 118.881L67.3012 121.864L69.3839 120.732L64.0135 117.753L61.9225 118.881Z" fill="#DDE4E8"/>
</g>
<g style="mix-blend-mode:multiply">
<path d="M35.8936 108.375L56.0336 119.541L58.1163 118.413L37.9929 107.243L35.8936 108.375Z" fill="#DDE4E8"/>
</g>
<g style="mix-blend-mode:multiply">
<path d="M59.571 117.576L61.6496 118.736L63.7365 117.596L61.6661 116.448L59.571 117.576Z" fill="#DDE4E8"/>
</g>
<g style="mix-blend-mode:multiply">
<path d="M57.1935 116.256L59.2721 117.411L61.3507 116.275L59.2845 115.124L57.1935 116.256Z" fill="#DDE4E8"/>
</g>
<g style="mix-blend-mode:multiply">
<path d="M54.7597 114.908L56.8342 116.051L58.921 114.927L56.8466 113.776L54.7597 114.908Z" fill="#DDE4E8"/>
</g>
<g style="mix-blend-mode:multiply">
<path d="M52.3747 113.583L54.445 114.734L56.5402 113.603L54.4574 112.451L52.3747 113.583Z" fill="#DDE4E8"/>
</g>
<g style="mix-blend-mode:multiply">
<path d="M49.9848 112.262L52.0676 113.414L54.1544 112.286L52.0758 111.126L49.9848 112.262Z" fill="#DDE4E8"/>
</g>
<g style="mix-blend-mode:multiply">
<path d="M47.612 110.938L49.6864 112.093L51.7609 110.954L49.6988 109.81L47.612 110.938Z" fill="#DDE4E8"/>
</g>
<g style="mix-blend-mode:multiply">
<path d="M45.2641 109.641L47.3385 110.788L49.4171 109.66L47.3509 108.505L45.2641 109.641Z" fill="#DDE4E8"/>
</g>
<g style="mix-blend-mode:multiply">
<path d="M42.8871 108.32L44.9533 109.472L47.0402 108.34L44.9657 107.18L42.8871 108.32Z" fill="#DDE4E8"/>
</g>
<g style="mix-blend-mode:multiply">
<path d="M40.4938 107.004L42.5807 108.143L44.6593 107.019L42.5931 105.86L40.4938 107.004Z" fill="#DDE4E8"/>
</g>
<g style="mix-blend-mode:multiply">
<path d="M38.1088 105.671L40.1916 106.827L42.2785 105.695L40.204 104.547L38.1088 105.671Z" fill="#DDE4E8"/>
</g>
<g style="mix-blend-mode:multiply">
<path d="M35.6786 104.319L37.7531 105.467L39.84 104.343L37.7655 103.195L35.6786 104.319Z" fill="#DDE4E8"/>
</g>
<g style="mix-blend-mode:multiply">
<path d="M29.4187 100.849L35.3315 104.13L37.4308 103.006L31.5138 99.7126L29.4187 100.849Z" fill="#DDE4E8"/>
</g>
<path d="M76.2453 114.687L78.3197 115.843L80.4025 114.707L78.3322 113.563L76.2453 114.687Z" fill="#E2ECF2"/>
<path d="M76.5018 114.542L78.3113 115.552L80.129 114.562L78.3237 113.567L76.5018 114.542Z" fill="white"/>
<path d="M71.5449 112.086L73.6193 113.241L75.7062 112.109L73.6317 110.95L71.5449 112.086Z" fill="#E2ECF2"/>
<path d="M71.8065 111.944L73.616 112.946L75.4337 111.96L73.6284 110.954L71.8065 111.944Z" fill="white"/>
<path d="M69.1652 110.757L71.2397 111.917L73.3224 110.781L71.2521 109.633L69.1652 110.757Z" fill="#E2ECF2"/>
<path d="M69.4252 110.616L71.2305 111.626L73.0441 110.631L71.2429 109.637L69.4252 110.616Z" fill="white"/>
<path d="M66.7753 109.448L68.8581 110.596L70.9367 109.468L68.8705 108.312L66.7753 109.448Z" fill="#E2ECF2"/>
<path d="M67.0319 109.303L68.8496 110.305L70.6632 109.322L68.862 108.312L67.0319 109.303Z" fill="white"/>
<path d="M61.5913 122.532L63.674 123.672L65.7609 122.552L63.6864 121.396L61.5913 122.532Z" fill="#E2ECF2"/>
<path d="M61.852 122.387L63.6697 123.381L65.4874 122.407L63.678 121.396L61.852 122.387Z" fill="white"/>
<path d="M59.2194 121.204L61.3022 122.352L63.3849 121.224L61.3146 120.076L59.2194 121.204Z" fill="#E2ECF2"/>
<path d="M59.4792 121.062L61.2927 122.061L63.1105 121.078L61.3052 120.076L59.4792 121.062Z" fill="white"/>
<path d="M56.8259 119.879L58.9086 121.035L60.9913 119.899L58.921 118.748L56.8259 119.879Z" fill="#E2ECF2"/>
<path d="M57.0858 119.738L58.9036 120.74L60.713 119.754L58.9118 118.748L57.0858 119.738Z" fill="white"/>
<path d="M64.3906 108.12L66.465 109.271L68.5519 108.139L66.4816 106.996L64.3906 108.12Z" fill="#E2ECF2"/>
<path d="M64.6554 107.978L66.4607 108.976L68.2785 107.994L66.469 106.996L64.6554 107.978Z" fill="white"/>
<path d="M72.696 116.578L74.7746 117.737L76.8615 116.601L74.787 115.454L72.696 116.578Z" fill="#E2ECF2"/>
<path d="M72.9567 116.436L74.7703 117.446L76.588 116.456L74.7827 115.454L72.9567 116.436Z" fill="white"/>
<path d="M70.3108 115.25L72.3852 116.405L74.4845 115.273L72.4018 114.133L70.3108 115.25Z" fill="#E2ECF2"/>
<path d="M70.5717 115.104L72.3811 116.118L74.2072 115.124L72.3936 114.133L70.5717 115.104Z" fill="white"/>
<path d="M67.9345 113.933L70.0048 115.081L72.0958 113.96L70.0172 112.813L67.9345 113.933Z" fill="#E2ECF2"/>
<path d="M68.1954 113.791L69.9966 114.79L71.8185 113.811L70.009 112.813L68.1954 113.791Z" fill="white"/>
<path d="M65.5617 112.612L67.6237 113.772L69.7189 112.632L67.6403 111.484L65.5617 112.612Z" fill="#E2ECF2"/>
<path d="M65.8185 112.471L67.6197 113.477L69.4415 112.486L67.6321 111.488L65.8185 112.471Z" fill="white"/>
<path d="M63.1106 111.272L65.1892 112.412L67.2843 111.295L65.2016 110.136L63.1106 111.272Z" fill="#E2ECF2"/>
<path d="M63.3766 111.126L65.1819 112.121L67.0079 111.146L65.1943 110.136L63.3766 111.126Z" fill="white"/>
<path d="M60.7377 109.951L62.808 111.099L64.8908 109.967L62.8163 108.812L60.7377 109.951Z" fill="#E2ECF2"/>
<path d="M60.9996 109.806L62.8008 110.804L64.6144 109.822L62.8091 108.815L60.9996 109.806Z" fill="white"/>
<path d="M58.3566 108.623L60.4186 109.774L62.5138 108.642L60.4311 107.487L58.3566 108.623Z" fill="#E2ECF2"/>
<path d="M58.6144 108.477L60.4114 109.48L62.2374 108.493L60.4238 107.491L58.6144 108.477Z" fill="white"/>
<path d="M55.9679 107.298L58.0465 108.45L60.1251 107.322L58.059 106.163L55.9679 107.298Z" fill="#E2ECF2"/>
<path d="M56.2296 107.157L58.0391 108.159L59.8527 107.176L58.0515 106.166L56.2296 107.157Z" fill="white"/>
<path d="M53.621 105.99L55.6913 107.149L57.7824 106.009L55.712 104.873L53.621 105.99Z" fill="#E2ECF2"/>
<path d="M53.8766 105.848L55.6819 106.858L57.5079 105.864L55.7026 104.873L53.8766 105.848Z" fill="white"/>
<path d="M51.2319 104.669L53.3188 105.828L55.4015 104.693L53.3353 103.549L51.2319 104.669Z" fill="#E2ECF2"/>
<path d="M51.496 104.531L53.3137 105.534L55.1232 104.547L53.322 103.549L51.496 104.531Z" fill="white"/>
<path d="M48.8505 103.36L50.9291 104.504L53.0118 103.38L50.9415 102.224L48.8505 103.36Z" fill="#E2ECF2"/>
<path d="M49.1105 103.215L50.9199 104.213L52.7335 103.234L50.9324 102.228L49.1105 103.215Z" fill="white"/>
<path d="M46.4702 102.032L48.5446 103.191L50.6398 102.051L48.557 100.908L46.4702 102.032Z" fill="#E2ECF2"/>
<path d="M46.7301 101.89L48.5396 102.896L50.3615 101.906L48.5479 100.912L46.7301 101.89Z" fill="white"/>
<path d="M44.0307 100.687L46.1093 101.831L48.2003 100.711L46.1217 99.5515L44.0307 100.687Z" fill="#E2ECF2"/>
<path d="M44.2956 100.542L46.1009 101.536L47.9269 100.562L46.1133 99.5515L44.2956 100.542Z" fill="white"/>
<path d="M41.6576 99.3629L43.7362 100.507L45.8107 99.3865L43.7445 98.231L41.6576 99.3629Z" fill="#E2ECF2"/>
<path d="M41.9183 99.2175L43.7278 100.216L45.5372 99.2371L43.7361 98.231L41.9183 99.2175Z" fill="white"/>
<path d="M39.2729 98.0463L41.3349 99.19L43.4425 98.066L41.3474 96.9026L39.2729 98.0463Z" fill="#E2ECF2"/>
<path d="M39.5338 97.9011L41.3309 98.8955L43.1652 97.9168L41.3433 96.9067L39.5338 97.9011Z" fill="white"/>
<path d="M36.9008 96.7218L38.9628 97.8695L41.0538 96.7454L38.9753 95.5859L36.9008 96.7218Z" fill="#E2ECF2"/>
<path d="M37.1566 96.5764L38.9578 97.5786L40.7755 96.596L38.9661 95.5898L37.1566 96.5764Z" fill="white"/>
<path d="M59.6454 105.49L61.7116 106.63L63.7902 105.51L61.724 104.346L59.6454 105.49Z" fill="#E2ECF2"/>
<path d="M59.9061 105.345L61.7031 106.339L63.5167 105.36L61.7156 104.346L59.9061 105.345Z" fill="white"/>
<path d="M57.2553 104.162L59.3256 105.314L61.4249 104.182L59.3381 103.026L57.2553 104.162Z" fill="#E2ECF2"/>
<path d="M57.5172 104.017L59.3226 105.019L61.1486 104.036L59.3308 103.026L57.5172 104.017Z" fill="white"/>
<path d="M54.8713 102.83L56.9499 103.981L59.0285 102.849L56.9623 101.706L54.8713 102.83Z" fill="#E2ECF2"/>
<path d="M55.132 102.688L56.9414 103.69L58.755 102.704L56.9538 101.709L55.132 102.688Z" fill="white"/>
<path d="M52.4819 101.513L54.5688 102.665L56.6515 101.537L54.5812 100.381L52.4819 101.513Z" fill="#E2ECF2"/>
<path d="M52.7467 101.372L54.5645 102.374L56.3781 101.391L54.5769 100.385L52.7467 101.372Z" fill="white"/>
<path d="M47.6747 98.8443L49.7451 99.9998L51.8361 98.864L49.7575 97.7163L47.6747 98.8443Z" fill="#E2ECF2"/>
<path d="M47.9357 98.6989L49.741 99.709L51.5587 98.7185L49.7493 97.7163L47.9357 98.6989Z" fill="white"/>
<path d="M45.2858 97.5237L47.3686 98.6675L49.4513 97.5434L47.381 96.3997L45.2858 97.5237Z" fill="#E2ECF2"/>
<path d="M45.5458 97.3783L47.3635 98.3766L49.173 97.3979L47.3718 96.4036L45.5458 97.3783Z" fill="white"/>
<path d="M42.9169 96.2069L44.9955 97.3585L47.0783 96.2226L45.0079 95.075L42.9169 96.2069Z" fill="#E2ECF2"/>
<path d="M43.1776 96.0615L44.9871 97.0637L46.8048 96.0772L44.9995 95.075L43.1776 96.0615Z" fill="white"/>
<path d="M40.528 94.8707L42.6066 96.0223L44.6935 94.8943L42.619 93.7388L40.528 94.8707Z" fill="#E2ECF2"/>
<path d="M40.7887 94.7253L42.5982 95.7315L44.4201 94.7449L42.6106 93.7388L40.7887 94.7253Z" fill="white"/>
<path d="M32.9919 106.662L35.0622 107.805L37.1574 106.681L35.0746 105.534L32.9919 106.662Z" fill="#E2ECF2"/>
<path d="M33.257 106.516L35.054 107.515L36.88 106.536L35.0664 105.534L33.257 106.516Z" fill="white"/>
<path d="M30.6103 105.345L32.6889 106.489L34.7716 105.365L32.7013 104.209L30.6103 105.345Z" fill="#E2ECF2"/>
<path d="M30.8681 105.2L32.6858 106.194L34.4952 105.215L32.6941 104.213L30.8681 105.2Z" fill="white"/>
<path d="M28.2211 104.016L30.3039 105.168L32.3908 104.036L30.3163 102.881L28.2211 104.016Z" fill="#E2ECF2"/>
<path d="M28.4828 103.875L30.2964 104.873L32.1183 103.891L30.3088 102.881L28.4828 103.875Z" fill="white"/>
<path d="M25.8444 102.696L27.923 103.84L30.0099 102.716L27.9354 101.564L25.8444 102.696Z" fill="#E2ECF2"/>
<path d="M26.1105 102.55L27.9199 103.549L29.7335 102.57L27.9282 101.564L26.1105 102.55Z" fill="white"/>
<path d="M36.3254 92.5321L38.3874 93.6915L40.4826 92.5517L38.3998 91.4041L36.3254 92.5321Z" fill="#E2ECF2"/>
<path d="M36.5853 92.3866L38.3782 93.3967L40.2042 92.4063L38.3906 91.4041L36.5853 92.3866Z" fill="white"/>
<path d="M33.9355 91.2115L36.0141 92.3631L38.0968 91.2351L36.0265 90.0835L33.9355 91.2115Z" fill="#E2ECF2"/>
<path d="M34.1962 91.0661L36.0098 92.0683L37.8234 91.0857L36.0181 90.0835L34.1962 91.0661Z" fill="white"/>
<path d="M31.5549 89.8907L33.6294 91.0384L35.7286 89.9143L33.6418 88.7588L31.5549 89.8907Z" fill="#E2ECF2"/>
<path d="M31.8158 89.7492L33.6253 90.7515L35.4513 89.7689L33.6336 88.7588L31.8158 89.7492Z" fill="white"/>
<path d="M17.6921 90.0757L19.7707 91.2352L21.8576 90.0993L19.7831 88.9556L17.6921 90.0757Z" fill="#E2ECF2"/>
<path d="M17.953 89.9342L19.7625 90.9443L21.5802 89.9539L19.7749 88.9556L17.953 89.9342Z" fill="white"/>
<path d="M15.3158 88.7589L17.3903 89.9144L19.4689 88.7785L17.4027 87.6309L15.3158 88.7589Z" fill="#E2ECF2"/>
<path d="M15.5756 88.6174L17.3809 89.6235L19.1945 88.6331L17.3933 87.6309L15.5756 88.6174Z" fill="white"/>
<path d="M12.9347 87.4501L15.0092 88.5978L17.0919 87.4698L15.0258 86.3103L12.9347 87.4501Z" fill="#E2ECF2"/>
<path d="M13.1906 87.3086L15.0042 88.3069L16.8136 87.3204L15.0166 86.3142L13.1906 87.3086Z" fill="white"/>
<path d="M15.2119 91.4278L17.278 92.5833L19.3732 91.4513L17.2904 90.3076L15.2119 91.4278Z" fill="#E2ECF2"/>
<path d="M15.4728 91.2863L17.2698 92.2924L19.0958 91.3059L17.2781 90.3076L15.4728 91.2863Z" fill="white"/>
<path d="M12.8229 90.1031L14.8974 91.2625L16.9884 90.1266L14.914 88.9829L12.8229 90.1031Z" fill="#E2ECF2"/>
<path d="M13.0829 89.9618L14.8924 90.9719L16.7101 89.9814L14.9048 88.9871L13.0829 89.9618Z" fill="white"/>
<path d="M10.4377 88.7904L12.5246 89.9341L14.6115 88.814L12.537 87.6584L10.4377 88.7904Z" fill="#E2ECF2"/>
<path d="M10.7028 88.6489L12.5164 89.6433L14.3341 88.6685L12.5288 87.6584L10.7028 88.6489Z" fill="white"/>
<path d="M32.8139 94.4383L34.8842 95.5899L36.9669 94.454L34.8966 93.3181L32.8139 94.4383Z" fill="#E2ECF2"/>
<path d="M33.078 94.2928L34.875 95.299L36.6886 94.3086L34.8874 93.3181L33.078 94.2928Z" fill="white"/>
<path d="M30.4377 93.1138L32.4956 94.2576L34.5949 93.1335L32.5121 91.9897L30.4377 93.1138Z" fill="#E2ECF2"/>
<path d="M30.6935 92.9684L32.4905 93.9628L34.3165 92.9881L32.5029 91.9897L30.6935 92.9684Z" fill="white"/>
<path d="M28.0354 91.7933L30.1264 92.9409L32.2091 91.8129L30.1388 90.6692L28.0354 91.7933Z" fill="#E2ECF2"/>
<path d="M28.3004 91.6478L30.1182 92.6501L31.9318 91.6675L30.1265 90.6731L28.3004 91.6478Z" fill="white"/>
<path d="M30.3207 95.7824L32.391 96.9339L34.4738 95.802L32.4076 94.6465L30.3207 95.7824Z" fill="#E2ECF2"/>
<path d="M30.5814 95.6369L32.3826 96.6431L34.2003 95.6566L32.395 94.6465L30.5814 95.6369Z" fill="white"/>
<path d="M27.9357 94.4617L30.0185 95.6133L32.0929 94.4814L30.0309 93.3337L27.9357 94.4617Z" fill="#E2ECF2"/>
<path d="M28.1967 94.3205L30.0102 95.3188L31.8156 94.3362L30.0227 93.3379L28.1967 94.3205Z" fill="white"/>
<path d="M25.5515 93.153L27.6342 94.2888L29.7169 93.1766L27.6466 92.0132L25.5515 93.153Z" fill="#E2ECF2"/>
<path d="M25.8114 93.0115L27.625 93.9941L29.4386 93.0272L27.6333 92.0171L25.8114 93.0115Z" fill="white"/>
<path d="M12.7282 92.7796L14.7985 93.9312L16.8937 92.7993L14.811 91.6516L12.7282 92.7796Z" fill="#E2ECF2"/>
<path d="M12.9882 92.6342L14.7893 93.6364L16.6154 92.6538L14.8018 91.6516L12.9882 92.6342Z" fill="white"/>
<path d="M10.3381 91.4513L12.4208 92.6107L14.4952 91.4709L12.4332 90.3193L10.3381 91.4513Z" fill="#E2ECF2"/>
<path d="M10.5985 91.3098L12.4121 92.316L14.2257 91.3255L12.4204 90.3193L10.5985 91.3098Z" fill="white"/>
<path d="M5.4731 91.4788L7.5517 92.6264L12.1271 90.1543L10.0485 89.0066L5.4731 91.4788Z" fill="#E2ECF2"/>
<path d="M5.73404 91.3373L7.54763 92.3356L11.8497 90.0049L10.0403 89.0066L5.73404 91.3373Z" fill="white"/>
<path d="M10.2397 94.116L12.3183 95.2755L14.4093 94.1396L12.3307 92.988L10.2397 94.116Z" fill="#E2ECF2"/>
<path d="M10.4997 93.9745L12.3091 94.9846L14.131 93.9902L12.3174 92.9958L10.4997 93.9745Z" fill="white"/>
<g style="mix-blend-mode:multiply">
<path d="M20.0935 91.4944L22.1679 92.6578L24.2589 91.518L22.1803 90.3743L20.0935 91.4944Z" fill="#DDE4E8"/>
</g>
<g style="mix-blend-mode:multiply">
<path d="M17.6103 92.8465L19.6806 93.9981L21.7716 92.8661L19.6889 91.7224L17.6103 92.8465Z" fill="#DDE4E8"/>
</g>
<g style="mix-blend-mode:multiply">
<path d="M15.1286 94.1986L17.1989 95.3462L19.2941 94.2221L17.2113 93.0706L15.1286 94.1986Z" fill="#DDE4E8"/>
</g>
<g style="mix-blend-mode:multiply">
<path d="M12.6401 95.5347L14.7145 96.6942L16.8097 95.5544L14.727 94.4106L12.6401 95.5347Z" fill="#DDE4E8"/>
</g>
<path d="M20.0729 91.3807L22.1474 92.5401L24.2384 91.4043L22.164 90.2566L20.0729 91.3807Z" fill="#E2ECF2"/>
<path d="M20.3339 91.2389L22.1433 92.249L23.9611 91.2586L22.1516 90.2603L20.3339 91.2389Z" fill="white"/>
<g style="mix-blend-mode:multiply">
<path d="M20.1054 88.8965L22.1799 90.056L24.2667 88.9162L22.1923 87.7764L20.1054 88.8965Z" fill="#DDE4E8"/>
</g>
<g style="mix-blend-mode:multiply">
<path d="M17.725 87.576L19.7995 88.7354L21.8781 87.5996L19.8119 86.4519L17.725 87.576Z" fill="#DDE4E8"/>
</g>
<g style="mix-blend-mode:multiply">
<path d="M15.3439 86.267L17.4225 87.4147L19.5011 86.2866L17.4349 85.1272L15.3439 86.267Z" fill="#DDE4E8"/>
</g>
<path d="M20.0817 88.7825L22.1603 89.9459L24.2472 88.8061L22.1727 87.6624L20.0817 88.7825Z" fill="#E2ECF2"/>
<path d="M20.3458 88.641L22.1511 89.6472L23.9689 88.6607L22.1636 87.6624L20.3458 88.641Z" fill="white"/>
<path d="M17.7087 87.4659L19.779 88.6214L21.8576 87.4855L19.7914 86.3379L17.7087 87.4659Z" fill="#E2ECF2"/>
<path d="M17.9693 87.3205L19.7747 88.3306L21.5841 87.3401L19.7829 86.3379L17.9693 87.3205Z" fill="white"/>
<path d="M15.3236 86.153L17.4022 87.3006L19.4767 86.1765L17.4147 85.0171L15.3236 86.153Z" fill="#E2ECF2"/>
<path d="M15.5802 86.0075L17.3938 87.0098L19.2033 86.0272L17.4104 85.0171L15.5802 86.0075Z" fill="white"/>
<g style="mix-blend-mode:multiply">
<path d="M22.4821 90.2012L24.5566 91.3607L26.6476 90.2248L24.569 89.0771L22.4821 90.2012Z" fill="#DDE4E8"/>
</g>
<path d="M22.4626 90.0872L24.537 91.2466L26.6281 90.1108L24.5495 88.967L22.4626 90.0872Z" fill="#E2ECF2"/>
<path d="M22.7226 89.9457L24.532 90.9519L26.3497 89.9614L24.5403 88.967L22.7226 89.9457Z" fill="white"/>
<path d="M17.5888 92.7325L19.655 93.888L21.7501 92.7521L19.6715 91.6084L17.5888 92.7325Z" fill="#E2ECF2"/>
<path d="M17.8536 92.591L19.6507 93.5932L21.4767 92.6106L19.6631 91.6084L17.8536 92.591Z" fill="white"/>
<path d="M15.1091 94.0846L17.1794 95.2322L19.2745 94.1042L17.1918 92.9565L15.1091 94.0846Z" fill="#E2ECF2"/>
<path d="M15.369 93.9391L17.1702 94.9413L18.9962 93.9548L17.1826 92.9604L15.369 93.9391Z" fill="white"/>
<path d="M12.6206 95.4246L14.695 96.5802L16.7902 95.4443L14.7074 94.2966L12.6206 95.4246Z" fill="#E2ECF2"/>
<path d="M12.8805 95.2792L14.69 96.2893L16.5118 95.2949L14.6983 94.2966L12.8805 95.2792Z" fill="white"/>
<path d="M7.84955 92.8033L9.924 93.951L12.0109 92.823L9.93642 91.6753L7.84955 92.8033Z" fill="#E2ECF2"/>
<path d="M8.11463 92.6579L9.91579 93.6562L11.7335 92.6775L9.92822 91.6753L8.11463 92.6579Z" fill="white"/>
<path d="M24.789 86.2475L26.8676 87.3912L28.9503 86.271L26.8842 85.1077L24.789 86.2475Z" fill="#E2ECF2"/>
<path d="M25.0538 86.102L26.8633 87.1003L28.6769 86.1217L26.8757 85.1116L25.0538 86.102Z" fill="white"/>
<path d="M22.4126 84.923L24.487 86.0628L26.5822 84.9426L24.4994 83.791L22.4126 84.923Z" fill="#E2ECF2"/>
<path d="M22.6735 84.7815L24.4829 85.7719L26.3048 84.7972L24.4912 83.791L22.6735 84.7815Z" fill="white"/>
<path d="M20.0397 83.6063L22.0976 84.754L24.1886 83.626L22.1142 82.4705L20.0397 83.6063Z" fill="#E2ECF2"/>
<path d="M20.2965 83.4609L22.0935 84.4592L23.9113 83.4766L22.1059 82.4705L20.2965 83.4609Z" fill="white"/>
<path d="M22.7392 98.1483L24.8136 99.2999L26.9005 98.168L24.8261 97.0125L22.7392 98.1483Z" fill="#E2ECF2"/>
<path d="M23.0011 98.0031L24.8106 99.0093L26.6242 98.0228L24.8188 97.0166L23.0011 98.0031Z" fill="white"/>
<path d="M22.6274 100.817L24.706 101.969L26.797 100.837L24.7184 99.6853L22.6274 100.817Z" fill="#E2ECF2"/>
<path d="M22.8891 100.672L24.6985 101.678L26.5245 100.691L24.7109 99.6931L22.8891 100.672Z" fill="white"/>
<path d="M20.2465 99.4967L22.321 100.644L24.4161 99.5202L22.3334 98.3687L20.2465 99.4967Z" fill="#E2ECF2"/>
<path d="M20.5084 99.3512L22.3138 100.353L24.1398 99.3709L22.3262 98.3726L20.5084 99.3512Z" fill="white"/>
<path d="M17.8659 98.168L19.9445 99.3275L22.0314 98.1877L19.9569 97.0439L17.8659 98.168Z" fill="#E2ECF2"/>
<path d="M18.1276 98.0226L19.937 99.0327L21.7589 98.0422L19.9495 97.0439L18.1276 98.0226Z" fill="white"/>
<path d="M69.2546 117.391L72.2938 119.074L74.3683 117.95L71.3415 116.271L69.2546 117.391Z" fill="#E2ECF2"/>
<path d="M69.5163 117.25L72.2864 118.783L74.0958 117.804L71.334 116.271L69.5163 117.25Z" fill="white"/>
<path d="M66.8581 116.071L68.9367 117.23L71.0402 116.091L68.9533 114.947L66.8581 116.071Z" fill="#E2ECF2"/>
<path d="M67.1191 115.929L68.9327 116.939L70.7628 115.945L68.9451 114.947L67.1191 115.929Z" fill="white"/>
<path d="M64.4943 114.746L66.5646 115.906L68.6515 114.766L66.577 113.634L64.4943 114.746Z" fill="#E2ECF2"/>
<path d="M64.7543 114.605L66.5554 115.615L68.3732 114.624L66.5679 113.634L64.7543 114.605Z" fill="white"/>
<path d="M62.0969 113.43L64.1713 114.585L66.2706 113.449L64.1838 112.306L62.0969 113.43Z" fill="#E2ECF2"/>
<path d="M62.3568 113.284L64.1622 114.29L65.9923 113.304L64.1746 112.31L62.3568 113.284Z" fill="white"/>
<path d="M59.6701 112.081L61.7404 113.225L63.8273 112.101L61.757 110.946L59.6701 112.081Z" fill="#E2ECF2"/>
<path d="M59.93 111.936L61.7354 112.931L63.549 111.952L61.7436 110.95L59.93 111.936Z" fill="white"/>
<path d="M57.2851 110.757L59.3554 111.917L61.4464 110.781L59.3678 109.621L57.2851 110.757Z" fill="#E2ECF2"/>
<path d="M57.5417 110.615L59.347 111.626L61.173 110.635L59.3594 109.629L57.5417 110.615Z" fill="white"/>
<path d="M54.896 109.441L56.9704 110.58L59.0656 109.464L56.9828 108.301L54.896 109.441Z" fill="#E2ECF2"/>
<path d="M55.1559 109.299L56.9654 110.286L58.7872 109.315L56.9736 108.301L55.1559 109.299Z" fill="white"/>
<path d="M52.5229 108.112L54.589 109.264L56.6759 108.136L54.6015 106.984L52.5229 108.112Z" fill="#E2ECF2"/>
<path d="M52.7836 107.971L54.5806 108.969L56.4025 107.99L54.593 106.984L52.7836 107.971Z" fill="white"/>
<path d="M50.1708 106.815L52.2536 107.967L54.3322 106.835L52.266 105.683L50.1708 106.815Z" fill="#E2ECF2"/>
<path d="M50.4367 106.67L52.2461 107.68L54.0597 106.685L52.2585 105.683L50.4367 106.67Z" fill="white"/>
<path d="M47.7822 105.491L49.8774 106.65L51.9601 105.51L49.8898 104.37L47.7822 105.491Z" fill="#E2ECF2"/>
<path d="M48.0473 105.349L49.8692 106.359L51.6827 105.365L49.8816 104.37L48.0473 105.349Z" fill="white"/>
<path d="M45.4137 104.162L47.484 105.325L49.5626 104.182L47.4965 103.042L45.4137 104.162Z" fill="#E2ECF2"/>
<path d="M45.6703 104.02L47.4797 105.034L49.2892 104.036L47.488 103.046L45.6703 104.02Z" fill="white"/>
<path d="M43.0246 102.853L45.1074 104.001L47.1984 102.873L45.1198 101.725L43.0246 102.853Z" fill="#E2ECF2"/>
<path d="M43.2856 102.708L45.0991 103.71L46.921 102.727L45.1116 101.725L43.2856 102.708Z" fill="white"/>
<path d="M40.5813 101.501L42.664 102.649L44.755 101.521L42.6764 100.361L40.5813 101.501Z" fill="#E2ECF2"/>
<path d="M40.8471 101.356L42.6607 102.354L44.4826 101.375L42.669 100.361L40.8471 101.356Z" fill="white"/>
<path d="M38.2133 100.177L40.2712 101.328L42.3663 100.196L40.2877 99.033L38.2133 100.177Z" fill="#E2ECF2"/>
<path d="M38.4701 100.031L40.2671 101.037L42.089 100.051L40.2795 99.0369L38.4701 100.031Z" fill="white"/>
<path d="M34.3998 98.066L37.9027 99.9998L39.9855 98.8757L36.4825 96.9302L34.3998 98.066Z" fill="#E2ECF2"/>
<path d="M34.6605 97.9206L37.8943 99.7089L39.712 98.7303L36.4741 96.9302L34.6605 97.9206Z" fill="white"/>
<path d="M65.6567 118.122L69.8056 120.422L71.8966 119.286L67.7353 116.979L65.6567 118.122Z" fill="#E2ECF2"/>
<path d="M65.9135 117.977L69.7974 120.131L71.6193 119.141L67.7271 116.983L65.9135 117.977Z" fill="white"/>
<path d="M63.2345 116.771L65.3173 117.926L67.3917 116.79L65.3297 115.654L63.2345 116.771Z" fill="#E2ECF2"/>
<path d="M63.4996 116.629L65.3091 117.635L67.1144 116.645L65.3215 115.654L63.4996 116.629Z" fill="white"/>
<path d="M60.8498 115.454L62.9242 116.609L65.007 115.477L62.9367 114.326L60.8498 115.454Z" fill="#E2ECF2"/>
<path d="M61.1105 115.312L62.9158 116.318L64.7335 115.332L62.9282 114.326L61.1105 115.312Z" fill="white"/>
<path d="M58.477 114.129L60.5514 115.289L62.63 114.157L60.5638 113.005L58.477 114.129Z" fill="#E2ECF2"/>
<path d="M58.7379 113.988L60.5432 114.998L62.3527 114.007L60.5556 113.005L58.7379 113.988Z" fill="white"/>
<path d="M56.0302 112.785L58.1088 113.929L60.1915 112.805L58.1212 111.645L56.0302 112.785Z" fill="#E2ECF2"/>
<path d="M56.2909 112.64L58.1004 113.638L59.9181 112.659L58.1128 111.645L56.2909 112.64Z" fill="white"/>
<path d="M53.6486 111.461L55.7189 112.62L57.8058 111.48L55.7355 110.333L53.6486 111.461Z" fill="#E2ECF2"/>
<path d="M53.9105 111.315L55.7158 112.325L57.5294 111.335L55.7241 110.336L53.9105 111.315Z" fill="white"/>
<path d="M51.2677 110.14L53.3381 111.292L55.4249 110.164L53.3505 109.004L51.2677 110.14Z" fill="#E2ECF2"/>
<path d="M51.5294 109.999L53.3306 110.997L55.1525 110.014L53.343 109.004L51.5294 109.999Z" fill="white"/>
<path d="M48.8835 108.819L50.9497 109.963L53.049 108.843L50.9662 107.679L48.8835 108.819Z" fill="#E2ECF2"/>
<path d="M49.14 108.678L50.9454 109.672L52.7755 108.694L50.9536 107.684L49.14 108.678Z" fill="white"/>
<path d="M46.5397 107.518L48.6142 108.666L50.7052 107.542L48.6266 106.39L46.5397 107.518Z" fill="#E2ECF2"/>
<path d="M46.8056 107.377L48.6067 108.375L50.4327 107.397L48.6192 106.39L46.8056 107.377Z" fill="white"/>
<path d="M44.1552 106.19L46.2379 107.346L48.3165 106.214L46.2504 105.066L44.1552 106.19Z" fill="#E2ECF2"/>
<path d="M44.4159 106.049L46.2336 107.055L48.0431 106.068L46.2461 105.066L44.4159 106.049Z" fill="white"/>
<path d="M41.7661 104.873L43.8447 106.029L45.9357 104.893L43.8612 103.745L41.7661 104.873Z" fill="#E2ECF2"/>
<path d="M42.027 104.728L43.8406 105.738L45.6583 104.748L43.853 103.745L42.027 104.728Z" fill="white"/>
<path d="M39.3935 103.553L41.4721 104.7L43.5548 103.572L41.4804 102.421L39.3935 103.553Z" fill="#E2ECF2"/>
<path d="M39.6544 103.407L41.4639 104.409L43.2775 103.427L41.4722 102.421L39.6544 103.407Z" fill="white"/>
<path d="M36.9591 102.201L39.0377 103.356L41.1163 102.224L39.0502 101.069L36.9591 102.201Z" fill="#E2ECF2"/>
<path d="M37.2189 102.055L39.0283 103.062L40.8419 102.075L39.0408 101.073L37.2189 102.055Z" fill="white"/>
<path d="M31.9152 99.4064L36.5734 101.989L38.6769 100.861L34.0104 98.2705L31.9152 99.4064Z" fill="#E2ECF2"/>
<path d="M32.1762 99.2609L36.5652 101.698L38.3995 100.715L34.0022 98.2744L32.1762 99.2609Z" fill="white"/>
<path d="M61.902 118.767L67.2807 121.746L69.3634 120.618L63.9889 117.639L61.902 118.767Z" fill="#E2ECF2"/>
<path d="M62.1617 118.622L67.2713 121.459L69.089 120.473L63.9795 117.639L62.1617 118.622Z" fill="white"/>
<path d="M35.8741 108.261L56.0141 119.427L58.0968 118.299L37.9734 107.133L35.8741 108.261Z" fill="#E2ECF2"/>
<path d="M36.1348 108.116L56.0056 119.137L57.8234 118.154L37.9649 107.133L36.1348 108.116Z" fill="white"/>
<path d="M59.5497 117.462L61.6325 118.622L63.7111 117.482L61.6408 116.334L59.5497 117.462Z" fill="#E2ECF2"/>
<path d="M59.8104 117.321L61.624 118.331L63.4376 117.336L61.6323 116.338L59.8104 117.321Z" fill="white"/>
<path d="M57.173 116.141L59.2516 117.297L61.3302 116.161L59.264 115.01L57.173 116.141Z" fill="#E2ECF2"/>
<path d="M57.4337 116L59.2473 117.002L61.0568 116.016L59.2556 115.014L57.4337 116Z" fill="white"/>
<path d="M54.7382 114.793L56.8085 115.937L58.8995 114.813L56.8251 113.661L54.7382 114.793Z" fill="#E2ECF2"/>
<path d="M55.0001 114.652L56.8054 115.646L58.6232 114.668L56.8179 113.661L55.0001 114.652Z" fill="white"/>
<path d="M52.3532 113.469L54.4235 114.617L56.5187 113.493L54.436 112.337L52.3532 113.469Z" fill="#E2ECF2"/>
<path d="M52.6151 113.327L54.4204 114.326L56.2423 113.343L54.4287 112.341L52.6151 113.327Z" fill="white"/>
<path d="M49.9643 112.152L52.047 113.3L54.1339 112.172L52.0553 111.013L49.9643 112.152Z" fill="#E2ECF2"/>
<path d="M50.2252 112.007L52.0388 113.005L53.8566 112.023L52.0513 111.017L50.2252 112.007Z" fill="white"/>
<path d="M47.5915 110.824L49.6659 111.98L51.7404 110.844L49.6783 109.696L47.5915 110.824Z" fill="#E2ECF2"/>
<path d="M47.8524 110.679L49.6577 111.689L51.463 110.698L49.6701 109.696L47.8524 110.679Z" fill="white"/>
<path d="M45.2445 109.527L47.3231 110.678L49.3976 109.546L47.3356 108.391L45.2445 109.527Z" fill="#E2ECF2"/>
<path d="M45.5043 109.382L47.3137 110.388L49.1232 109.397L47.322 108.395L45.5043 109.382Z" fill="white"/>
<path d="M42.8676 108.206L44.9338 109.358L47.0206 108.226L44.9462 107.066L42.8676 108.206Z" fill="#E2ECF2"/>
<path d="M43.1283 108.061L44.9253 109.063L46.7472 108.08L44.9377 107.066L43.1283 108.061Z" fill="white"/>
<path d="M40.4704 106.89L42.5573 108.029L44.6359 106.905L42.5738 105.746L40.4704 106.89Z" fill="#E2ECF2"/>
<path d="M40.7343 106.744L42.552 107.739L44.3615 106.76L42.5603 105.746L40.7343 106.744Z" fill="white"/>
<path d="M38.0893 105.557L40.172 106.713L42.2589 105.581L40.1845 104.429L38.0893 105.557Z" fill="#E2ECF2"/>
<path d="M38.35 105.416L40.1636 106.422L41.9855 105.435L40.176 104.433L38.35 105.416Z" fill="white"/>
<path d="M35.654 104.205L37.7326 105.353L39.8195 104.229L37.745 103.081L35.654 104.205Z" fill="#E2ECF2"/>
<path d="M35.9191 104.064L37.7285 105.062L39.5421 104.083L37.7368 103.081L35.9191 104.064Z" fill="white"/>
<path d="M29.3972 100.734L35.31 104.016L37.4093 102.896L31.4924 99.5986L29.3972 100.734Z" fill="#E2ECF2"/>
<path d="M29.6591 100.589L35.3028 103.725L37.1329 102.747L31.4851 99.5986L29.6591 100.589Z" fill="white"/>
<g style="mix-blend-mode:multiply">
<path d="M57.931 81.4642C53.0285 84.1408 53.0285 88.4917 57.931 91.1682L61.6907 93.2395C66.5849 95.92 74.5266 95.92 79.4001 93.2395C84.2861 90.5551 84.2861 86.216 79.4001 83.5394L75.628 81.4682C70.7297 78.7837 62.8086 78.7837 57.931 81.4682V81.4642Z" fill="#E2E7E8"/>
</g>
<path d="M53.3264 84.4159H53.492C53.8895 83.0285 55.0489 81.6961 57.0033 80.627C61.8809 77.9544 69.7978 77.9544 74.7003 80.627L78.4724 82.7062C80.3895 83.7556 81.5447 85.0644 81.9547 86.4282H82.1368V87.5916H82.1286C82.112 89.3367 80.8947 91.0817 78.4683 92.4102C73.5947 95.0907 65.6489 95.0907 60.7547 92.4102L56.9991 90.3468C54.4692 88.9594 53.256 87.1278 53.3388 85.3159H53.3222V84.4198L53.3264 84.4159Z" fill="url(#paint2_linear_14904_26993)"/>
<path d="M57.0072 79.4833C52.1047 82.1598 52.1047 86.5107 57.0072 89.1873L60.7627 91.2586C65.6569 93.943 73.5986 93.943 78.4763 91.2586C83.3622 88.5741 83.3622 84.235 78.4763 81.5585L74.7042 79.4872C69.8017 76.8028 61.8848 76.8028 57.0072 79.4872V79.4833Z" fill="url(#paint3_linear_14904_26993)"/>
<path d="M72.6128 87.0413L62.9817 81.7668V60.6726L72.6128 65.955L73.6935 74.6214L72.6128 87.0413Z" fill="#C4CED6"/>
<path d="M72.6347 87.0415L74.6056 85.9489V64.8547L72.6347 65.9474V87.0415Z" fill="#AFBBC4"/>
<path d="M33.8778 50.7132L105.109 44.2596L105.999 38.5606L35.2566 0L33.8778 0.746765V50.7132Z" fill="#FCFCFC"/>
<path d="M104.223 89.2383L33.8777 50.6934V0.734863L104.223 39.2837V89.2383Z" fill="#D6DEE5"/>
<path d="M99.8341 82.6393L36.9629 48.186L36.996 7.73096L99.6436 42.1804L99.8341 82.6393Z" fill="#BEC7D0"/>
<path d="M99.8341 81.5193L38.7102 48.021V8.78833L99.8341 42.2827V81.5193Z" fill="url(#paint4_linear_14904_26993)"/>
<path d="M105.999 38.5605L104.223 39.2837V89.2384L105.817 88.4798L105.999 38.5605Z" fill="#BEC7D0"/>
<mask id="mask0_14904_26993" style="mask-type:luminance" maskUnits="userSpaceOnUse" x="38" y="8" width="62" height="74">
<path d="M99.8341 81.5193L64.5229 62.1663L56.1464 69.3352L45.3932 65.5857L46.743 52.423L38.7102 48.021V8.78833L99.8341 42.2827V81.5193Z" fill="white"/>
</mask>
<g mask="url(#mask0_14904_26993)">
<g style="mix-blend-mode:multiply">
<path d="M55.3302 29.5286L39.9188 36.78V47.333L50.4236 53.091L59.0236 50.8192L76.7579 41.8266L55.3302 29.5286Z" fill="#E2E7E8"/>
</g>
<path d="M67.4455 8.15917L47.0198 19.3842L40.7302 15.9334L61.1849 4.71619L60.7874 4.49609L39.9186 15.9334L47.0198 19.8244L67.8927 8.38713L67.4455 8.15917Z" fill="#656565"/>
<path d="M66.6925 8.59556L47.0204 19.3843L40.7308 15.9335L61.1855 4.71631H61.1896V5.72641L66.6925 8.59556Z" fill="#252728"/>
<path d="M47.0242 51.2203L67.8888 39.787V8.38745L47.0242 19.8247L46.548 33.8836L47.0242 51.2203Z" fill="#252728"/>
<path d="M47.0245 51.2202L39.9192 47.3292V15.9297L47.0245 19.8247V51.2202Z" fill="url(#paint5_linear_14904_26993)"/>
<path d="M66.6925 8.59547L47.0204 19.3843L41.6252 16.4247L61.1896 5.72632L66.6925 8.59547Z" fill="#FCFBFA"/>
<path d="M45.3927 21.4636L41.5502 19.3569V33.2468L45.3927 35.3534V21.4636Z" fill="#FCFBFA"/>
<path d="M44.8136 31.3918L42.1346 29.9219V30.0909L44.8136 31.5569V31.3918Z" fill="#BBBCBB"/>
<path d="M44.8136 30.6489L42.1346 29.179V29.348L44.8136 30.8179V30.6489Z" fill="#BBBCBB"/>
<path d="M44.8136 29.906L42.1346 28.436V28.605L44.8136 30.075V29.906Z" fill="#BBBCBB"/>
<path d="M44.8136 29.163L42.1346 27.697V27.866L44.8136 29.3281V29.163Z" fill="#BBBCBB"/>
<path d="M44.8136 28.4204L42.1346 26.9543V27.1194L44.8136 28.5894V28.4204Z" fill="#BBBCBB"/>
<path d="M44.8136 27.6774L42.1346 26.2114V26.3804L44.8136 27.8464V27.6774Z" fill="#BBBCBB"/>
<path d="M44.8136 26.9345L42.1346 25.4685V25.6336L44.8136 27.1035V26.9345Z" fill="#BBBCBB"/>
<path d="M44.8136 26.1955L42.1346 24.7256V24.8946L44.8136 26.3606V26.1955Z" fill="#BBBCBB"/>
<path d="M44.8136 25.4529L42.1346 23.9829V24.1519L44.8136 25.6219V25.4529Z" fill="#BBBCBB"/>
<path d="M44.8136 22.7881L42.1346 21.3181V22.6387L44.8136 24.1087V22.7881Z" fill="#BBBCBB"/>
<path d="M44.962 43.6384C44.962 44.6721 44.2002 45.0887 43.2561 44.5739C42.312 44.0551 41.5502 42.8013 41.5502 41.7676C41.5502 40.7339 42.3162 40.3134 43.2561 40.8322C44.2002 41.3471 44.962 42.6048 44.962 43.6384Z" fill="#252728"/>
<path d="M44.7599 44.4208C44.4659 44.8452 43.9028 44.9278 43.261 44.5741C42.3169 44.0592 41.5509 42.8015 41.5509 41.7678C41.5509 41.2961 41.7083 40.9581 41.9733 40.7773C41.8449 40.9699 41.7704 41.2333 41.7704 41.5516C41.7704 42.5814 42.5322 43.8391 43.4763 44.354C43.9897 44.6369 44.4493 44.6409 44.7599 44.4247V44.4208Z" fill="#5A5A5A"/>
<g style="mix-blend-mode:overlay">
<path d="M65.6456 9.61743L47.1826 19.8245L47.0252 47.9854L46.8762 19.966L40.4458 16.2204L47.0252 19.6988L65.6456 9.61743Z" fill="#B6BDBF"/>
</g>
<g style="mix-blend-mode:multiply">
<path d="M63.4005 33.7927L47.9891 41.0403V51.5932L58.4939 57.3512L67.094 55.0795L84.8283 46.0908L63.4005 33.7927Z" fill="#E2E7E8"/>
</g>
<path d="M75.511 12.4236L55.0894 23.6447L48.7998 20.1939L69.2545 8.9806L68.857 8.7605L47.9882 20.1939L55.0894 24.0849L75.9581 12.6515L75.511 12.4236Z" fill="#656565"/>
<path d="M74.7618 12.86L55.0897 23.6448L48.8001 20.194L69.2548 8.98071H69.259V9.98688L74.7618 12.86Z" fill="#252728"/>
<path d="M55.0935 55.4803L75.9581 44.0469V12.6514L55.0935 24.0847L54.6132 38.1475L55.0935 55.4803Z" fill="#252728"/>
<path d="M55.0939 55.4807L47.9886 51.5897V20.1941L55.0939 24.0851V55.4807Z" fill="url(#paint6_linear_14904_26993)"/>
<path d="M74.7618 12.8599L55.0897 23.6448L49.6945 20.6852L69.259 9.98682L74.7618 12.8599Z" fill="#FCFBFA"/>
<path d="M53.463 25.7238L49.6164 23.6211V37.5109L53.463 39.6176V25.7238Z" fill="#FCFBFA"/>
<path d="M52.879 35.656L50.2001 34.186V34.3511L52.879 35.8211V35.656Z" fill="#BBBCBB"/>
<path d="M52.879 34.9131L50.2001 33.4431V33.6121L52.879 35.0781V34.9131Z" fill="#BBBCBB"/>
<path d="M52.879 34.1704L50.2001 32.7004V32.8694L52.879 34.3394V34.1704Z" fill="#BBBCBB"/>
<path d="M52.879 33.4275L50.2001 31.9575V32.1265L52.879 33.5925V33.4275Z" fill="#BBBCBB"/>
<path d="M52.879 32.6845L50.2001 31.2146V31.3836L52.879 32.8536V32.6845Z" fill="#BBBCBB"/>
<path d="M52.879 31.9416L50.2001 30.4756V30.6407L52.879 32.1106V31.9416Z" fill="#BBBCBB"/>
<path d="M52.879 31.1987L50.2001 29.7288V29.8978L52.879 31.3677V31.1987Z" fill="#BBBCBB"/>
<path d="M52.879 30.456L50.2001 28.99V29.1551L52.879 30.625V30.456Z" fill="#BBBCBB"/>
<path d="M52.879 29.7133L50.2001 28.2473V28.4124L52.879 29.8823V29.7133Z" fill="#BBBCBB"/>
<path d="M52.879 27.0485L50.2001 25.5825V26.9031L52.879 28.3691V27.0485Z" fill="#BBBCBB"/>
<path d="M53.0324 47.9029C53.0324 48.9365 52.2705 49.3531 51.3264 48.8383C50.3865 48.3195 49.6205 47.0657 49.6205 46.032C49.6205 44.9983 50.3865 44.5778 51.3264 45.0966C52.2705 45.6115 53.0324 46.8692 53.0324 47.9029Z" fill="#252728"/>
<path d="M52.8253 48.6849C52.5313 49.1094 51.9682 49.1919 51.3264 48.8382C50.3824 48.3233 49.6163 47.0656 49.6163 46.032C49.6163 45.5642 49.7737 45.2223 50.0387 45.0415C49.9103 45.2341 49.8358 45.4974 49.8358 45.8158C49.8358 46.8455 50.5977 48.1032 51.5417 48.6181C52.0552 48.9011 52.5148 48.905 52.8253 48.6889V48.6849Z" fill="#5A5A5A"/>
<g style="mix-blend-mode:overlay">
<path d="M73.715 13.8818L55.2519 24.085L55.0946 52.2498L54.9455 24.2265L48.5151 20.4809L55.0946 23.9632L73.715 13.8818Z" fill="#B6BDBF"/>
</g>
<path d="M74.2649 24.9614L53.8433 36.1786L47.5537 32.7317L68.0084 21.5145L67.6067 21.2983L46.7421 32.7317L53.8433 36.6227L74.712 25.1854L74.2649 24.9614Z" fill="#359DB5"/>
<path d="M73.5158 25.3939L53.8436 36.1788L47.554 32.7318L68.0087 21.5146H68.0129V22.5247L73.5158 25.3939Z" fill="#1D7085"/>
<path d="M53.8433 68.0184L74.712 56.5851V25.1855L53.8433 36.6228L53.3713 50.6817L53.8433 68.0184Z" fill="#1D7085"/>
<path d="M53.8429 68.0183L46.7417 64.1273V32.7278L53.8429 36.6228V68.0183Z" fill="#46B4C6"/>
<path d="M73.5158 25.3938L53.8436 36.1787L48.4484 33.223L68.0129 22.5247L73.5158 25.3938Z" fill="#FCFBFA"/>
<path d="M52.2169 38.2617L48.3744 36.155V50.0488L52.2169 52.1515V38.2617Z" fill="#FCFBFA"/>
<path d="M51.6329 48.1897L48.954 46.7236V46.8887L51.6329 48.3587V48.1897Z" fill="#BBBCBB"/>
<path d="M51.6329 47.4472L48.954 45.9812V46.1463L51.6329 47.6162V47.4472Z" fill="#BBBCBB"/>
<path d="M51.6329 46.7043L48.954 45.2383V45.4034L51.6329 46.8733V46.7043Z" fill="#BBBCBB"/>
<path d="M51.6329 45.9614L48.954 44.4954V44.6604L51.6329 46.1304V45.9614Z" fill="#BBBCBB"/>
<path d="M51.6329 45.2224L48.954 43.7524V43.9175L51.6329 45.3875V45.2224Z" fill="#BBBCBB"/>
<path d="M51.6329 44.4795L48.954 43.0095V43.1746L51.6329 44.6445V44.4795Z" fill="#BBBCBB"/>
<path d="M51.6329 43.7365L48.954 42.2666V42.4356L51.6329 43.9016V43.7365Z" fill="#BBBCBB"/>
<path d="M51.6329 42.9939L48.954 41.5239V41.6929L51.6329 43.1589V42.9939Z" fill="#BBBCBB"/>
<path d="M51.6329 42.2512L48.954 40.7812V40.9503L51.6329 42.4202V42.2512Z" fill="#BBBCBB"/>
<path d="M51.6329 39.5864L48.954 38.1165V39.437L51.6329 40.907V39.5864Z" fill="#BBBCBB"/>
<path d="M51.7853 60.4368C51.7853 60.7591 51.7108 61.0224 51.5741 61.2189C51.2636 61.439 50.8081 61.4311 50.2905 61.1482C49.3465 60.6333 48.5846 59.3756 48.5846 58.3458C48.5846 58.0275 48.6591 57.7641 48.7875 57.5715C49.098 57.3436 49.5576 57.3475 50.0752 57.6305C51.0151 58.1493 51.7811 59.407 51.7811 60.4368H51.7853Z" fill="#252728"/>
<path d="M51.579 61.2189C51.4341 61.4311 51.2146 61.5608 50.9579 61.5883C50.9206 61.5922 50.8875 61.5962 50.8461 61.5962C50.6142 61.5962 50.3534 61.5215 50.0842 61.3761C49.1402 60.8612 48.3742 59.6035 48.3742 58.5659V58.558C48.3742 58.503 48.3742 58.448 48.3824 58.3969C48.3824 58.3497 48.3907 58.3065 48.399 58.2672C48.4197 58.1571 48.4445 58.051 48.486 57.9645C48.5025 57.9213 48.5232 57.882 48.5439 57.8427C48.5605 57.8113 48.5812 57.7837 48.6019 57.7562C48.635 57.7169 48.6681 57.6816 48.7013 57.654C48.7302 57.6226 48.7634 57.599 48.7965 57.5754C48.6681 57.768 48.5936 58.0314 48.5936 58.3497C48.5936 59.3795 49.3555 60.6372 50.2995 61.152C50.8171 61.4311 51.2726 61.439 51.5831 61.2228L51.579 61.2189Z" fill="#359DB5"/>
<g style="mix-blend-mode:overlay">
<path d="M72.463 26.4197L54 36.6228L53.8426 64.7837L53.6977 36.7643L47.2632 33.0148L53.8426 36.501L72.463 26.4197Z" fill="#B6BDBF"/>
</g>
<g style="mix-blend-mode:multiply">
<path d="M74.712 25.1855L54.1207 36.7918L53.8433 68.0184L66.642 61.0067L74.712 33.0187V25.1855Z" fill="#E2E7E8"/>
</g>
<g style="mix-blend-mode:multiply">
<path d="M82.0487 43.8938L66.6415 51.1453V61.6982L77.1462 67.4562L85.7422 65.1845L103.481 56.1958L82.0487 43.8938Z" fill="#E2E7E8"/>
</g>
<path d="M94.1633 22.5286L73.7376 33.7497L67.448 30.2988L87.9068 19.0816L87.5052 18.8655L66.6406 30.2988L73.7376 34.1899L94.6105 22.7565L94.1633 22.5286Z" fill="#656565"/>
<path d="M93.4113 22.9608L73.7392 33.7496L67.4495 30.2987L87.9084 19.0815H87.9125V20.0916L93.4113 22.9608Z" fill="#252728"/>
<path d="M73.7417 65.5853L94.6105 54.1519V22.7563L73.7417 34.1897L73.2656 48.2485L73.7417 65.5853Z" fill="#252728"/>
<path d="M73.7433 65.5854L66.6421 61.6944V30.2988L73.7433 34.1899V65.5854Z" fill="url(#paint7_linear_14904_26993)"/>
<path d="M93.4113 22.9609L73.7392 33.7497L68.3481 30.7902L87.9125 20.0918L93.4113 22.9609Z" fill="#FCFBFA"/>
<path d="M72.1154 35.8288L68.2687 33.7222V47.6159L72.1154 49.7226V35.8288Z" fill="#FCFBFA"/>
<path d="M71.5314 45.7568L68.8524 44.2908V44.4558L71.5314 45.9258V45.7568Z" fill="#BBBCBB"/>
<path d="M71.5314 45.018L68.8524 43.5481V43.7132L71.5314 45.1831V45.018Z" fill="#BBBCBB"/>
<path d="M71.5314 44.2751L68.8524 42.8052V42.9742L71.5314 44.4402V44.2751Z" fill="#BBBCBB"/>
<path d="M71.5314 43.5325L68.8524 42.0625V42.2315L71.5314 43.6975V43.5325Z" fill="#BBBCBB"/>
<path d="M71.5314 42.7895L68.8524 41.3196V41.4886L71.5314 42.9546V42.7895Z" fill="#BBBCBB"/>
<path d="M71.5314 42.0466L68.8524 40.5806V40.7456L71.5314 42.2156V42.0466Z" fill="#BBBCBB"/>
<path d="M71.5314 41.3037L68.8524 39.8337V40.0027L71.5314 41.4688V41.3037Z" fill="#BBBCBB"/>
<path d="M71.5314 40.5608L68.8524 39.0908V39.2598L71.5314 40.7298V40.5608Z" fill="#BBBCBB"/>
<path d="M71.5314 39.8183L68.8524 38.3484V38.5174L71.5314 39.9873V39.8183Z" fill="#BBBCBB"/>
<path d="M71.5314 37.1535L68.8524 35.6875V37.0081L71.5314 38.4741V37.1535Z" fill="#BBBCBB"/>
<path d="M71.6837 58.0078C71.6837 59.0415 70.9177 59.4581 69.9778 58.9433C69.0337 58.4244 68.2718 57.1707 68.2718 56.137C68.2718 55.1033 69.0379 54.6828 69.9778 55.2016C70.9177 55.7164 71.6837 56.9742 71.6837 58.0078Z" fill="#252728"/>
<path d="M71.4767 58.786C71.1827 59.2105 70.6196 59.293 69.9778 58.9393C69.0337 58.4244 68.2677 57.1667 68.2677 56.133C68.2677 55.6614 68.4251 55.3234 68.6901 55.1426C68.5617 55.3352 68.4872 55.5985 68.4872 55.9169C68.4872 56.9466 69.249 58.2043 70.1931 58.7192C70.7065 59.0022 71.1661 59.0061 71.4767 58.786Z" fill="#5A5A5A"/>
<g style="mix-blend-mode:overlay">
<path d="M92.3634 23.9868L73.9004 34.19L73.743 62.3509L73.5981 34.3315L67.1636 30.5859L73.743 34.0681L92.3634 23.9868Z" fill="#B6BDBF"/>
</g>
<g style="mix-blend-mode:multiply">
<path d="M90.4054 48.3508L74.994 55.6023V66.1553L85.4988 71.9093L94.0947 69.6415L111.833 60.6489L90.4054 48.3508Z" fill="#E2E7E8"/>
</g>
<path d="M102.517 26.9814L82.0952 38.2026L75.8015 34.7517L96.2603 23.5385L95.8587 23.3184L74.9941 34.7517L82.0952 38.6467L102.964 27.2094L102.517 26.9814Z" fill="#656565"/>
<path d="M101.767 27.4178L82.0946 38.2027L75.8009 34.7518L96.2597 23.5386H96.2638V24.5487L101.767 27.4178Z" fill="#252728"/>
<path d="M82.0952 70.0423L102.964 58.605V27.2095L82.0952 38.6468L81.6191 52.7056L82.0952 70.0423Z" fill="#252728"/>
<path d="M82.0958 70.0425L74.9947 66.1475V34.752L82.0958 38.6469V70.0425Z" fill="url(#paint8_linear_14904_26993)"/>
<path d="M101.767 27.4177L82.0946 38.2026L76.6994 35.243L96.2638 24.5486L101.767 27.4177Z" fill="#FCFBFA"/>
<path d="M80.4679 40.2819L76.6213 38.1792V52.069L80.4679 54.1757V40.2819Z" fill="#FCFBFA"/>
<path d="M79.8839 50.2141L77.2049 48.7441V48.9131L79.8839 50.3792V50.2141Z" fill="#BBBCBB"/>
<path d="M79.8839 49.4712L77.2049 48.0012V48.1702L79.8839 49.6362V49.4712Z" fill="#BBBCBB"/>
<path d="M79.8839 48.7283L77.2049 47.2583V47.4273L79.8839 48.8973V48.7283Z" fill="#BBBCBB"/>
<path d="M79.8839 47.9853L77.2049 46.5154V46.6844L79.8839 48.1504V47.9853Z" fill="#BBBCBB"/>
<path d="M79.8839 47.2426L77.2049 45.7766V45.9417L79.8839 47.4116V47.2426Z" fill="#BBBCBB"/>
<path d="M79.8839 46.4997L77.2049 45.0337V45.1988L79.8839 46.6687V46.4997Z" fill="#BBBCBB"/>
<path d="M79.8839 45.7568L77.2049 44.2908V44.4558L79.8839 45.9258V45.7568Z" fill="#BBBCBB"/>
<path d="M79.8839 45.0178L77.2049 43.5479V43.7129L79.8839 45.1829V45.0178Z" fill="#BBBCBB"/>
<path d="M79.8839 44.2751L77.2049 42.8052V42.9742L79.8839 44.4402V44.2751Z" fill="#BBBCBB"/>
<path d="M79.8839 41.6064L77.2049 40.1404V41.461L79.8839 42.927V41.6064Z" fill="#BBBCBB"/>
<path d="M80.0372 62.4607C80.0372 63.4944 79.2712 63.911 78.3313 63.3961C77.3914 62.8773 76.6254 61.6236 76.6254 60.5899C76.6254 59.5562 77.3914 59.1356 78.3313 59.6544C79.2754 60.1693 80.0372 61.427 80.0372 62.4607Z" fill="#252728"/>
<path d="M79.8302 63.243C79.5404 63.6675 78.9731 63.7501 78.3313 63.3963C77.3872 62.8814 76.6212 61.6237 76.6212 60.5901C76.6212 60.1184 76.7786 59.7804 77.0436 59.5996C76.9152 59.7922 76.8407 60.0555 76.8407 60.3739C76.8407 61.4036 77.6026 62.6613 78.5466 63.1762C79.0601 63.4592 79.5197 63.4631 79.8302 63.247V63.243Z" fill="#5A5A5A"/>
<g style="mix-blend-mode:overlay">
<path d="M100.72 28.4397L82.2527 38.6468L82.0953 66.8077L81.9504 38.7883L75.5159 35.0387L82.0953 38.521L100.72 28.4397Z" fill="#B6BDBF"/>
</g>
<g style="mix-blend-mode:multiply">
<path d="M98.757 52.8982L83.3456 60.1497V70.6987L93.8503 76.4567L102.45 74.1849L120.185 65.1962L98.757 52.8982Z" fill="#E2E7E8"/>
</g>
<path d="M110.867 31.529L90.4458 42.7502L84.1562 39.2993L104.611 28.0861L104.213 27.866L83.3447 39.2993L90.4458 43.1904L111.315 31.757L110.867 31.529Z" fill="#656565"/>
<path d="M110.118 31.9654L90.4462 42.7503L84.1566 39.2994L104.611 28.0862H104.615V29.0923L110.118 31.9654Z" fill="#252728"/>
<path d="M90.45 74.5858L111.315 63.1524V31.7568L90.45 43.1902L89.9738 57.253L90.45 74.5858Z" fill="#252728"/>
<path d="M90.4503 74.5859L83.345 70.6949V39.2993L90.4503 43.1904V74.5859Z" fill="url(#paint9_linear_14904_26993)"/>
<path d="M110.118 31.9654L90.4462 42.7502L85.0509 39.7907L104.615 29.0923L110.118 31.9654Z" fill="#FCFBFA"/>
<path d="M88.8195 44.8293L84.977 42.7266V56.6164L88.8195 58.7231V44.8293Z" fill="#FCFBFA"/>
<path d="M88.2355 54.7615L85.5565 53.2915V53.4566L88.2355 54.9265V54.7615Z" fill="#BBBCBB"/>
<path d="M88.2355 54.0185L85.5565 52.5486V52.7176L88.2355 54.1836V54.0185Z" fill="#BBBCBB"/>
<path d="M88.2355 53.2759L85.5565 51.8059V51.9749L88.2355 53.4449V53.2759Z" fill="#BBBCBB"/>
<path d="M88.2355 52.5329L85.5565 51.063V51.232L88.2355 52.698V52.5329Z" fill="#BBBCBB"/>
<path d="M88.2355 51.79L85.5565 50.3201V50.4891L88.2355 51.959V51.79Z" fill="#BBBCBB"/>
<path d="M88.2355 51.0471L85.5565 49.5811V49.7461L88.2355 51.2161V51.0471Z" fill="#BBBCBB"/>
<path d="M88.2355 50.3042L85.5565 48.8342V49.0032L88.2355 50.4732V50.3042Z" fill="#BBBCBB"/>
<path d="M88.2355 49.5615L85.5565 48.0955V48.2605L88.2355 49.7305V49.5615Z" fill="#BBBCBB"/>
<path d="M88.2355 48.8188L85.5565 47.3528V47.5179L88.2355 48.9878V48.8188Z" fill="#BBBCBB"/>
<path d="M88.2355 46.154L85.5565 44.688V46.0086L88.2355 47.4746V46.154Z" fill="#BBBCBB"/>
<path d="M88.3888 67.0083C88.3888 68.042 87.6228 68.4586 86.6829 67.9437C85.7388 67.4249 84.9769 66.1712 84.9769 65.1375C84.9769 64.1038 85.7429 63.6833 86.6829 64.2021C87.6269 64.7169 88.3888 65.9746 88.3888 67.0083Z" fill="#252728"/>
<path d="M88.1857 67.7865C87.8917 68.2109 87.3286 68.2974 86.6868 67.9437C85.7427 67.4288 84.9767 66.1711 84.9767 65.1374C84.9767 64.6658 85.134 64.3278 85.399 64.147C85.2707 64.3356 85.1961 64.6029 85.1961 64.9212C85.1961 65.951 85.958 67.2087 86.9021 67.7236C87.4155 68.0066 87.8751 68.0105 88.1857 67.7904V67.7865Z" fill="#5A5A5A"/>
<g style="mix-blend-mode:overlay">
<path d="M109.071 32.9873L90.6084 43.1905L90.451 71.3553L90.302 43.332L83.8716 39.5863L90.451 43.0686L109.071 32.9873Z" fill="#B6BDBF"/>
</g>
<g style="mix-blend-mode:multiply">
<path d="M107.121 57.5559L91.714 64.8074V75.3604L102.215 81.1183L110.815 78.8466L128.549 69.8539L107.121 57.5559Z" fill="#E2E7E8"/>
</g>
<path d="M119.236 36.1865L98.8099 47.4076L92.5203 43.9607L112.975 32.7435L112.577 32.5234L91.7128 43.9607L98.8099 47.8518L119.683 36.4145L119.236 36.1865Z" fill="#656565"/>
<path d="M118.483 36.6229L98.8104 47.4078L92.5208 43.9608L112.976 32.7437H112.984V33.7537L118.483 36.6229Z" fill="#252728"/>
<path d="M98.814 79.2474L119.683 67.8141V36.4146L98.814 47.8518L98.3378 61.9107L98.814 79.2474Z" fill="#252728"/>
<path d="M98.8146 79.2476L91.7134 75.3526V43.957L98.8146 47.852V79.2476Z" fill="url(#paint10_linear_14904_26993)"/>
<path d="M118.483 36.6228L98.8104 47.4077L93.4152 44.4521L112.984 33.7537L118.483 36.6228Z" fill="#FCFBFA"/>
<path d="M97.1876 49.4909L93.341 47.3843V61.278L97.1876 63.3808V49.4909Z" fill="#FCFBFA"/>
<path d="M96.6027 59.4192L93.9237 57.9492V58.1182L96.6027 59.5842V59.4192Z" fill="#BBBCBB"/>
<path d="M96.6027 58.6762L93.9237 57.2063V57.3753L96.6027 58.8453V58.6762Z" fill="#BBBCBB"/>
<path d="M96.6027 57.9333L93.9237 56.4634V56.6324L96.6027 58.1023V57.9333Z" fill="#BBBCBB"/>
<path d="M96.6027 57.1906L93.9237 55.7246V55.8936L96.6027 57.3596V57.1906Z" fill="#BBBCBB"/>
<path d="M96.6027 56.4477L93.9237 54.9817V55.1468L96.6027 56.6167V56.4477Z" fill="#BBBCBB"/>
<path d="M96.6027 55.7048L93.9237 54.2388V54.4078L96.6027 55.8738V55.7048Z" fill="#BBBCBB"/>
<path d="M96.6027 54.9619L93.9237 53.4958V53.6609L96.6027 55.1309V54.9619Z" fill="#BBBCBB"/>
<path d="M96.6027 54.2229L93.9237 52.7529V52.9219L96.6027 54.388V54.2229Z" fill="#BBBCBB"/>
<path d="M96.6027 53.4802L93.9237 52.0103V52.1793L96.6027 53.6492V53.4802Z" fill="#BBBCBB"/>
<path d="M96.6027 50.8156L93.9237 49.3457V50.6663L96.6027 52.1362V50.8156Z" fill="#BBBCBB"/>
<path d="M96.7521 71.6658C96.7521 72.6995 95.9861 73.1161 95.0461 72.6012C94.1021 72.0824 93.3402 70.8286 93.3402 69.7949C93.3402 68.7613 94.1062 68.3407 95.0461 68.8595C95.9861 69.3744 96.7521 70.6321 96.7521 71.6658Z" fill="#252728"/>
<path d="M96.549 72.4481C96.255 72.8726 95.6918 72.9551 95.0501 72.6014C94.106 72.0865 93.34 70.8288 93.34 69.7951C93.34 69.3274 93.4973 68.9855 93.7623 68.8047C93.634 68.9973 93.5594 69.2606 93.5594 69.579C93.5594 70.6087 94.3213 71.8664 95.2654 72.3813C95.7788 72.6643 96.2384 72.6721 96.549 72.4481Z" fill="#5A5A5A"/>
<g style="mix-blend-mode:overlay">
<path d="M117.436 37.6448L98.9726 47.8519L98.8153 76.0128L98.6704 47.9934L92.2358 44.2478L98.8153 47.73L117.436 37.6448Z" fill="#B6BDBF"/>
</g>
<g style="mix-blend-mode:multiply">
<path d="M32.2379 9.34227L120.131 57.5086V46.8377L32.2379 -1.32861V9.34227Z" fill="#E2E7E8"/>
</g>
</g>
<defs>
<linearGradient id="paint0_linear_14904_26993" x1="49.4017" y1="93.9982" x2="36.8501" y2="116.171" gradientUnits="userSpaceOnUse">
<stop stop-color="#EEF0F3"/>
<stop offset="0.6" stop-color="#ECEEF1"/>
<stop offset="0.81" stop-color="#E5E9ED"/>
<stop offset="0.97" stop-color="#D9E0E7"/>
<stop offset="1" stop-color="#D6DEE5"/>
</linearGradient>
<linearGradient id="paint1_linear_14904_26993" x1="85.632" y1="122.037" x2="62.1629" y2="122.037" gradientUnits="userSpaceOnUse">
<stop stop-color="#D3D7DD"/>
<stop offset="0.6" stop-color="#D1D5DB"/>
<stop offset="0.82" stop-color="#CAD0D7"/>
<stop offset="0.98" stop-color="#BEC7D0"/>
<stop offset="1" stop-color="#BCC6CF"/>
</linearGradient>
<linearGradient id="paint2_linear_14904_26993" x1="82.141" y1="86.5186" x2="53.3264" y2="86.5186" gradientUnits="userSpaceOnUse">
<stop stop-color="#C2CCD3"/>
<stop offset="0.32" stop-color="#B2BBC1"/>
<stop offset="1" stop-color="#C4CED6"/>
</linearGradient>
<linearGradient id="paint3_linear_14904_26993" x1="53.3303" y1="85.367" x2="82.1366" y2="85.367" gradientUnits="userSpaceOnUse">
<stop stop-color="#F5F5F6"/>
<stop offset="1" stop-color="#D1D5DE"/>
</linearGradient>
<linearGradient id="paint4_linear_14904_26993" x1="99.8341" y1="45.1558" x2="38.7102" y2="45.1558" gradientUnits="userSpaceOnUse">
<stop stop-color="#1C819F"/>
<stop offset="0.5" stop-color="#00719A"/>
<stop offset="1" stop-color="#005C86"/>
</linearGradient>
<linearGradient id="paint5_linear_14904_26993" x1="39.9192" y1="33.573" x2="47.0245" y2="33.573" gradientUnits="userSpaceOnUse">
<stop stop-color="#4F5050"/>
<stop offset="1" stop-color="#3F4142"/>
</linearGradient>
<linearGradient id="paint6_linear_14904_26993" x1="47.9886" y1="37.8374" x2="55.0897" y2="37.8374" gradientUnits="userSpaceOnUse">
<stop stop-color="#4F5050"/>
<stop offset="1" stop-color="#3F4142"/>
</linearGradient>
<linearGradient id="paint7_linear_14904_26993" x1="66.638" y1="47.9421" x2="73.7433" y2="47.9421" gradientUnits="userSpaceOnUse">
<stop stop-color="#4F5050"/>
<stop offset="1" stop-color="#3F4142"/>
</linearGradient>
<linearGradient id="paint8_linear_14904_26993" x1="74.9905" y1="52.3953" x2="82.0958" y2="52.3953" gradientUnits="userSpaceOnUse">
<stop stop-color="#4F5050"/>
<stop offset="1" stop-color="#3F4142"/>
</linearGradient>
<linearGradient id="paint9_linear_14904_26993" x1="83.345" y1="56.9426" x2="90.4462" y2="56.9426" gradientUnits="userSpaceOnUse">
<stop stop-color="#4F5050"/>
<stop offset="1" stop-color="#3F4142"/>
</linearGradient>
<linearGradient id="paint10_linear_14904_26993" x1="91.7093" y1="61.6003" x2="98.8146" y2="61.6003" gradientUnits="userSpaceOnUse">
<stop stop-color="#4F5050"/>
<stop offset="1" stop-color="#3F4142"/>
</linearGradient>
</defs>
</svg>
