<svg width="48" height="48" viewBox="0 0 48 48" fill="none" xmlns="http://www.w3.org/2000/svg">
<path d="M8.46973 41.9992V17.8461C8.46973 17.5985 8.51782 17.3534 8.61127 17.1247C8.70472 16.8959 8.84169 16.6881 9.01436 16.5131C9.18703 16.338 9.39201 16.1992 9.61762 16.1044C9.84322 16.0097 10.085 15.9609 10.3292 15.9609H12.9283" stroke="#FF7860" stroke-width="2" stroke-linecap="round" stroke-linejoin="round"/>
<path d="M8.4691 41.9999H42.7639C43.0927 41.9971 43.4071 41.8627 43.6386 41.626C43.8701 41.3892 44 41.0694 44 40.736V14.7299C44 14.3975 43.8698 14.0788 43.6379 13.8438C43.4061 13.6087 43.0917 13.4767 42.7639 13.4767H14.1743C14.0111 13.4753 13.8492 13.5067 13.698 13.569C13.5468 13.6314 13.4093 13.7234 13.2934 13.84C13.1775 13.9565 13.0855 14.0951 13.0227 14.2478C12.9599 14.4006 12.9276 14.5644 12.9276 14.7299V37.4692C12.929 38.0637 12.8147 38.6526 12.5913 39.2022C12.3678 39.7518 12.0396 40.2514 11.6255 40.6723C11.2113 41.0931 10.7194 41.427 10.1777 41.6548C9.63612 41.8827 9.05549 41.9999 8.4691 41.9999V41.9999ZM8.4691 41.9999C7.28382 41.9999 6.14709 41.5226 5.30897 40.6729C4.47085 39.8232 4 38.6708 4 37.4692V7.45717C3.99999 7.26497 4.03751 7.07467 4.11038 6.89724C4.18325 6.7198 4.29003 6.55874 4.42458 6.42334C4.55913 6.28793 4.71877 6.18085 4.89433 6.10828C5.06988 6.03571 5.25786 5.99907 5.44744 6.00049H14.9562C15.2039 5.99478 15.4502 6.03932 15.6807 6.1315C15.9112 6.22367 16.1212 6.36163 16.2984 6.53725C16.4756 6.71287 16.6163 6.92262 16.7124 7.15417C16.8085 7.38572 16.858 7.63441 16.8579 7.88561V7.88561C16.8579 8.38842 17.0549 8.87063 17.4056 9.22617C17.7563 9.58171 18.232 9.78144 18.7279 9.78144H36.2451C36.6244 9.78143 36.9883 9.93344 37.2574 10.2043C37.5266 10.4752 37.6792 10.8429 37.682 11.2274V13.4874" stroke="#45516F" stroke-width="2" stroke-linecap="round" stroke-linejoin="round"/>
<path d="M37.904 17.3105H19.045C18.0822 17.3105 17.3018 18.1018 17.3018 19.0778V35.9047C17.3018 36.8808 18.0822 37.672 19.045 37.672H37.904C38.8668 37.672 39.6472 36.8808 39.6472 35.9047V19.0778C39.6472 18.1018 38.8668 17.3105 37.904 17.3105Z" stroke="#FF7860" stroke-width="2" stroke-linecap="round" stroke-linejoin="round"/>
<path d="M21.2529 27.1133H35.8435" stroke="#FF7860" stroke-width="2" stroke-linecap="round" stroke-linejoin="round"/>
<path d="M21.2529 22.4609H35.8435" stroke="#FF7860" stroke-width="2" stroke-linecap="round" stroke-linejoin="round"/>
<path d="M21.2529 31.7656H30.1738" stroke="#FF7860" stroke-width="2" stroke-linecap="round" stroke-linejoin="round"/>
</svg>
