<svg width="48" height="48" viewBox="0 0 48 48" fill="none" xmlns="http://www.w3.org/2000/svg">
<path d="M44.2042 14.6855H44.3467C44.9663 14.6853 45.5615 14.9504 46.0052 15.4241C46.4489 15.8978 46.7059 16.5426 46.7214 17.221V39.8186C46.7059 40.497 46.4489 41.1418 46.0052 41.6155C45.5615 42.0892 44.9663 42.3543 44.3467 42.3541H6.68444C6.07513 42.3376 5.49492 42.0652 5.06394 41.5932C4.63296 41.1212 4.38419 40.4859 4.36914 39.8186V39.8186" stroke="#FF7860" stroke-width="2" stroke-miterlimit="10"/>
<path d="M25.1108 12.4258H40.9384C41.6026 12.4258 42.2395 12.7113 42.709 13.2195C43.1786 13.7277 43.4424 14.417 43.4424 15.1357V36.5629C43.4424 37.2816 43.1786 37.9709 42.709 38.4791C42.2395 38.9873 41.6026 39.2728 40.9384 39.2728H4.47324C3.80914 39.2728 3.17223 38.9873 2.70264 38.4791C2.23305 37.9709 1.96924 37.2816 1.96924 36.5629V15.1357C1.96924 14.417 2.23305 13.7277 2.70264 13.2195C3.17223 12.7113 3.80914 12.4258 4.47324 12.4258H20.1145" stroke="#45516F" stroke-width="2" stroke-linecap="round" stroke-linejoin="round"/>
<path d="M25.1461 15.4305L22.7819 13.9398L20.1265 15.4305V8.95508H25.1461V15.4305Z" stroke="#FF7860" stroke-width="2" stroke-linecap="round" stroke-linejoin="round"/>
<path d="M11.8569 23.9901C13.7737 23.9901 15.3275 22.4363 15.3275 20.5195C15.3275 18.6027 13.7737 17.0488 11.8569 17.0488C9.9401 17.0488 8.38623 18.6027 8.38623 20.5195C8.38623 22.4363 9.9401 23.9901 11.8569 23.9901Z" stroke="#FF7860" stroke-width="2" stroke-linecap="round" stroke-linejoin="round"/>
<path d="M11.8572 23.9902C13.3491 23.9902 14.7799 24.5829 15.8349 25.6378C16.8898 26.6928 17.4825 28.1236 17.4825 29.6155V32.9115H6.23195V29.6271C6.23041 28.8874 6.37479 28.1547 6.6568 27.4709C6.93881 26.787 7.35292 26.1655 7.87542 25.642C8.39793 25.1184 9.01857 24.703 9.70182 24.4195C10.3851 24.1361 11.1175 23.9902 11.8572 23.9902V23.9902Z" stroke="#FF7860" stroke-width="2" stroke-linecap="round" stroke-linejoin="round"/>
<path d="M21.6055 20.5547H38.9471" stroke="#45516F" stroke-width="2" stroke-linecap="round" stroke-linejoin="round"/>
<path d="M21.6055 24.9336H32.8909" stroke="#45516F" stroke-width="2" stroke-linecap="round" stroke-linejoin="round"/>
<path d="M36.5122 24.9336L38.9482 24.9336" stroke="#45516F" stroke-width="2" stroke-linecap="round" stroke-linejoin="round"/>
<path d="M21.6055 29.3125H35.8026" stroke="#45516F" stroke-width="2" stroke-linecap="round" stroke-linejoin="round"/>
</svg>
