<svg width="48" height="48" viewBox="0 0 48 48" fill="none" xmlns="http://www.w3.org/2000/svg">
<path d="M11.918 13.3023V8.90673C11.9444 8.39201 12.1727 7.90691 12.5557 7.55195C12.9387 7.19699 13.447 6.99936 13.9753 7H34.1061C34.6343 6.99936 35.1426 7.19699 35.5256 7.55195C35.9086 7.90691 36.137 8.39201 36.1634 8.90673V13.5431" stroke="#FF7860" stroke-width="2" stroke-miterlimit="10"/>
<path d="M42.5725 25.9375V38.9836C42.5725 39.5159 42.3557 40.0264 41.9699 40.4028C41.5841 40.7792 41.0608 40.9906 40.5152 40.9906H7.63934C7.09371 40.9906 6.57042 40.7792 6.1846 40.4028C5.79878 40.0264 5.58203 39.5159 5.58203 38.9836V25.9375" stroke="#45516F" stroke-width="2" stroke-miterlimit="10"/>
<path d="M28.809 26.0969H41.4923C41.9533 26.0982 42.41 26.0106 42.8362 25.8391C43.2624 25.6676 43.6496 25.4156 43.9756 25.0975C44.3016 24.7795 44.5599 24.4017 44.7357 23.986C44.9115 23.5702 45.0013 23.1246 45 22.6748V14.9275C44.9973 14.5264 44.8328 14.1425 44.5421 13.8589C44.2514 13.5752 43.8578 13.4147 43.4467 13.4121H4.54298C4.13282 13.4148 3.74037 13.5756 3.4513 13.8595C3.16223 14.1434 2.99999 14.5273 3 14.9275V22.6748C3 23.1251 3.09107 23.5709 3.26799 23.9867C3.44491 24.4026 3.70421 24.7802 4.03102 25.0981C4.35783 25.416 4.74573 25.6679 5.1725 25.8393C5.59926 26.0107 6.0565 26.0982 6.518 26.0969H18.9647" stroke="#45516F" stroke-width="2" stroke-miterlimit="10"/>
<path d="M20.0964 20.7285H27.6878C27.9879 20.7285 28.2757 20.8448 28.4879 21.0518C28.7001 21.2589 28.8194 21.5396 28.8194 21.8324V28.8572C28.8194 29.3211 28.7257 29.7805 28.5437 30.209C28.3618 30.6376 28.0951 31.027 27.7588 31.3551C27.4226 31.6831 27.0234 31.9433 26.5841 32.1208C26.1448 32.2983 25.674 32.3897 25.1985 32.3897H22.5857C21.6254 32.3897 20.7044 32.0175 20.0254 31.3551C19.3463 30.6926 18.9648 29.7941 18.9648 28.8572V21.8324C18.9648 21.5396 19.0841 21.2589 19.2963 21.0518C19.5085 20.8448 19.7963 20.7285 20.0964 20.7285V20.7285Z" stroke="#FF7860" stroke-width="2" stroke-miterlimit="10"/>
<path d="M24.0053 28.1839C24.5848 28.1839 25.0545 27.7257 25.0545 27.1603C25.0545 26.595 24.5848 26.1367 24.0053 26.1367C23.4258 26.1367 22.9561 26.595 22.9561 27.1603C22.9561 27.7257 23.4258 28.1839 24.0053 28.1839Z" fill="#FF7860"/>
<path d="M10.5615 26.0176V41.0005" stroke="#45516F" stroke-width="2" stroke-miterlimit="10"/>
<path d="M37.666 26.0176V41.0005" stroke="#45516F" stroke-width="2" stroke-miterlimit="10"/>
</svg>
