<svg width="48" height="48" viewBox="0 0 48 48" fill="none" xmlns="http://www.w3.org/2000/svg">
<path d="M33.805 45.9998H13.499L18.4063 40.9749C19.9218 41.4051 21.4871 41.6237 23.0597 41.6247C24.7934 41.6278 26.5169 41.3538 28.168 40.8125L33.805 45.9998Z" stroke="#FF7860" stroke-width="2" stroke-linecap="round" stroke-linejoin="round"/>
<path d="M18.4072 40.9749C19.9227 41.4051 21.488 41.6237 23.0607 41.6247C24.7943 41.6278 26.5178 41.3538 28.1689 40.8125" stroke="#45516F" stroke-width="2" stroke-miterlimit="10"/>
<path d="M37.4957 46H33.8047" stroke="#FF7860" stroke-width="2" stroke-linecap="round" stroke-linejoin="round"/>
<path d="M13.4994 46H9.11035" stroke="#FF7860" stroke-width="2" stroke-linecap="round" stroke-linejoin="round"/>
<path d="M21.7368 9.78634C21.7361 10.5552 21.9419 11.3094 22.3318 11.9664C22.7216 12.6235 23.2805 13.158 23.9472 13.5117V17.4536C23.9472 17.8557 23.7912 18.2413 23.5135 18.5256C23.2358 18.8099 22.8592 18.9697 22.4665 18.9697H16.0363C15.6436 18.9697 15.267 18.8099 14.9893 18.5256C14.7117 18.2413 14.5557 17.8557 14.5557 17.4536V3.51612C14.5557 3.11402 14.7117 2.72839 14.9893 2.44406C15.267 2.15973 15.6436 2 16.0363 2H22.4877C22.8804 2 23.257 2.15973 23.5346 2.44406C23.8123 2.72839 23.9683 3.11402 23.9683 3.51612V6.06103C23.2977 6.41169 22.7345 6.945 22.3408 7.60227C21.9471 8.25953 21.7381 9.01528 21.7368 9.78634V9.78634Z" stroke="#FF7860" stroke-width="2" stroke-miterlimit="10"/>
<path d="M14.6953 15.4492H23.9388" stroke="#FF7860" stroke-width="2" stroke-miterlimit="10"/>
<path d="M16.4066 18.959H22.1388V23.3882C22.1388 23.7415 22.0017 24.0803 21.7578 24.3301C21.5138 24.5799 21.1829 24.7202 20.8379 24.7202H17.6651C17.3201 24.7202 16.9892 24.5799 16.7453 24.3301C16.5013 24.0803 16.3643 23.7415 16.3643 23.3882V18.959H16.4066Z" stroke="#FF7860" stroke-width="2" stroke-miterlimit="10"/>
<path d="M8.02051 32.1602C9.55403 36.5894 13.9642 39.6758 18.4062 40.9753" stroke="#45516F" stroke-width="2" stroke-linecap="round" stroke-linejoin="round"/>
<path d="M29.6592 8.3457C32.8496 9.72458 35.55 12.0725 37.3959 15.0726C39.2419 18.0727 40.1445 21.5805 39.9819 25.1225C39.8193 28.6645 38.5994 32.0701 36.4868 34.8797C34.3742 37.6893 31.4706 39.7675 28.168 40.8339" stroke="#45516F" stroke-width="2" stroke-linecap="round" stroke-linejoin="round"/>
<path d="M27.8409 13.4023C29.4134 14.1377 30.8061 15.2227 31.9177 16.5784C33.0292 17.9341 33.8318 19.5264 34.2669 21.2396C34.7021 22.9527 34.7589 24.7437 34.4333 26.4821C34.1076 28.2206 33.4077 29.8629 32.3843 31.2896C31.361 32.7163 30.04 33.8915 28.5175 34.7299C26.9949 35.5682 25.309 36.0485 23.5823 36.1359C21.8557 36.2233 20.1318 35.9156 18.5359 35.2351C16.94 34.5547 15.5122 33.5186 14.3564 32.2022" stroke="#45516F" stroke-width="2" stroke-linecap="round" stroke-linejoin="round"/>
<path d="M8 32.0254H23.441" stroke="#45516F" stroke-width="2" stroke-linecap="round" stroke-linejoin="round"/>
<path d="M29.9231 9.78675C29.9231 10.8983 29.4919 11.9643 28.7243 12.7502C27.9567 13.5362 26.9157 13.9777 25.8302 13.9777C25.175 13.9815 24.5289 13.8217 23.9476 13.5121C23.2826 13.1568 22.7254 12.6217 22.3366 11.9649C21.9478 11.3081 21.7422 10.5548 21.7422 9.78675C21.7422 9.01871 21.9478 8.26535 22.3366 7.60857C22.7254 6.95178 23.2826 6.41668 23.9476 6.06143C24.5289 5.75181 25.175 5.59197 25.8302 5.59577C26.9157 5.59577 27.9567 6.03732 28.7243 6.82328C29.4919 7.60924 29.9231 8.67523 29.9231 9.78675Z" stroke="#FF7860" stroke-width="2" stroke-miterlimit="10"/>
</svg>
