<svg width="48" height="48" viewBox="0 0 48 48" fill="none" xmlns="http://www.w3.org/2000/svg">
<path d="M15.6296 15.0002C14.6296 11.0002 13.8896 8.16016 13.8896 8.16016" stroke="#FF7860" stroke-width="2" stroke-linecap="round" stroke-linejoin="round"/>
<path d="M21.1504 37.0703C21.1504 36.9703 20.3004 33.5203 19.1504 29.0703" stroke="#FF7860" stroke-width="2" stroke-linecap="round" stroke-linejoin="round"/>
<path d="M35.8004 20.5492C36.4592 20.3343 37.101 20.0702 37.7204 19.7592L42.0004 17.6392L38.3204 3.44922L35.2004 5.29922C32.8967 6.65393 30.2729 7.36857 27.6004 7.36922C26.9956 7.3708 26.3913 7.33741 25.7904 7.26922C22.6809 6.88865 19.5307 7.50119 16.7904 9.01922L14.6104 10.2192L15.7604 14.9292" stroke="#FF7860" stroke-width="2" stroke-linecap="round" stroke-linejoin="round"/>
<path d="M13.4096 8.09852C14.4092 8.09852 15.2196 7.28815 15.2196 6.28852C15.2196 5.28888 14.4092 4.47852 13.4096 4.47852C12.41 4.47852 11.5996 5.28888 11.5996 6.28852C11.5996 7.28815 12.41 8.09852 13.4096 8.09852Z" stroke="#FF7860" stroke-width="2" stroke-linecap="round" stroke-linejoin="round"/>
<path d="M16.1504 44.4891L8.90039 15.5391" stroke="#45516F" stroke-width="2" stroke-linecap="round" stroke-linejoin="round"/>
<path d="M9.58008 17.6401L11.7601 16.4301C14.5023 14.9172 17.6508 14.305 20.7601 14.6801V14.6801C24.0282 15.0684 27.3331 14.3653 30.1601 12.6801L33.2901 10.8301L37.0001 25.0601L32.7701 27.1701C30.366 28.373 27.6808 28.9018 25.0001 28.7001L24.0001 28.6301C20.9154 28.4 17.8358 29.1375 15.1901 30.7401L13.0901 32.0001L9.58008 17.6401Z" stroke="#45516F" stroke-width="2" stroke-miterlimit="10"/>
<path d="M8.40961 15.5184C9.40924 15.5184 10.2196 14.7081 10.2196 13.7084C10.2196 12.7088 9.40924 11.8984 8.40961 11.8984C7.40997 11.8984 6.59961 12.7088 6.59961 13.7084C6.59961 14.7081 7.40997 15.5184 8.40961 15.5184Z" stroke="#45516F" stroke-width="2" stroke-miterlimit="10"/>
</svg>
