<svg width="48" height="48" viewBox="0 0 48 48" fill="none" xmlns="http://www.w3.org/2000/svg">
<path d="M27.3945 4.03516V22.1226" stroke="#FF7860" stroke-width="2.31885" stroke-linecap="round" stroke-linejoin="round"/>
<path d="M13.4561 8V11.9184" stroke="#FF7860" stroke-width="2.31885" stroke-linecap="round" stroke-linejoin="round"/>
<path d="M32.3428 15.4512H35.1258C35.7435 15.4512 36.3359 15.6969 36.7726 16.1343C37.2094 16.5717 37.4547 17.165 37.4547 17.7835V22.2383" stroke="#45516F" stroke-width="2.31885" stroke-linecap="round" stroke-linejoin="round"/>
<path d="M9.74049 22.379V6.46064C9.73586 6.13916 9.79509 5.81998 9.91473 5.52163C10.0344 5.22329 10.2121 4.95174 10.4374 4.72278C10.6628 4.49382 10.9314 4.31201 11.2275 4.18793C11.5237 4.06385 11.8415 3.99997 12.1626 4H29.9322C30.5725 4.00308 31.1856 4.26 31.6373 4.71457C32.089 5.16913 32.3426 5.78435 32.3426 6.42565V22.379" stroke="#FF7860" stroke-width="2.31885" stroke-linecap="round" stroke-linejoin="round"/>
<path d="M4 18.916C4 19.8439 4.36805 20.7338 5.02319 21.3899C5.67832 22.046 6.56687 22.4146 7.49337 22.4146H39.2714C39.5364 22.413 39.7991 22.4641 40.0442 22.565C40.2893 22.6658 40.512 22.8144 40.6994 23.002C40.8867 23.1897 41.0351 23.4127 41.1357 23.6582C41.2364 23.9036 41.2875 24.1667 41.2859 24.432V28.3271" stroke="#45516F" stroke-width="2.31885" stroke-linejoin="round"/>
<path d="M41.2627 37.8183V41.5384C41.2565 42.1912 40.9941 42.8152 40.5322 43.2757C40.0702 43.7362 39.4458 43.996 38.794 43.9991H6.46865C5.81392 43.9991 5.18601 43.7386 4.72305 43.275C4.26009 42.8113 4 42.1825 4 41.5268V18.9146C4 17.9867 4.36805 17.0968 5.02319 16.4407C5.67832 15.7846 6.56687 15.416 7.49337 15.416H9.13526" stroke="#45516F" stroke-width="2.31885" stroke-linejoin="round"/>
<path d="M35.674 28.2912H42.6608C42.8395 28.288 43.017 28.3212 43.1825 28.3889C43.348 28.4566 43.498 28.5574 43.6233 28.6851C43.7486 28.8127 43.8466 28.9647 43.9114 29.1315C43.9761 29.2984 44.0062 29.4767 43.9999 29.6557V36.5245C43.9938 36.8699 43.8525 37.1991 43.6064 37.4412C43.3602 37.6833 43.029 37.819 42.6841 37.8189H35.6973C35.1316 37.8205 34.5712 37.7098 34.0484 37.4934C33.5257 37.277 33.0509 36.959 32.6514 36.5579C32.2519 36.1567 31.9357 35.6804 31.721 35.1562C31.5063 34.6321 31.3974 34.0706 31.4005 33.5041V32.5828C31.4005 31.4446 31.8519 30.353 32.6556 29.5482C33.4592 28.7434 34.5492 28.2912 35.6857 28.2912H35.674Z" stroke="#FF7860" stroke-width="2.31885" stroke-linecap="round" stroke-linejoin="round"/>
<path d="M36.7093 34.2976C37.4425 34.2976 38.0368 33.7023 38.0368 32.9681C38.0368 32.2339 37.4425 31.6387 36.7093 31.6387C35.9762 31.6387 35.3818 32.2339 35.3818 32.9681C35.3818 33.7023 35.9762 34.2976 36.7093 34.2976Z" fill="#FF7860"/>
</svg>
