<svg width="100" height="39" viewBox="0 0 100 39" fill="none" xmlns="http://www.w3.org/2000/svg">
    <path
        d="M75.7719 23.888C75.7719 23.7495 75.8843 23.6372 76.0229 23.6372C76.1616 23.6372 76.274 23.7495 76.274 23.888V25.8318H75.7719V23.888Z"
        fill="#3D9ED6" />
    <path
        d="M65.5408 24.3896C65.5408 24.2511 65.4284 24.1388 65.2898 24.1388C65.1511 24.1388 65.0387 24.2511 65.0387 24.3896V25.8318H65.5408V24.3896Z"
        fill="#3D9ED6" />
    <path
        d="M76.7762 24.7658C76.7762 24.6273 76.8886 24.515 77.0272 24.515C77.1659 24.515 77.2783 24.6273 77.2783 24.7658V25.8318H76.7762V24.7658Z"
        fill="#3D9ED6" />
    <path
        d="M64.5366 24.515C64.5366 24.3765 64.4242 24.2642 64.2855 24.2642C64.1468 24.2642 64.0344 24.3765 64.0344 24.515V25.8318H64.5366V24.515Z"
        fill="#3D9ED6" />
    <path
        d="M81.672 24.7658C81.672 24.6273 81.7844 24.515 81.9231 24.515C82.0617 24.515 82.1741 24.6273 82.1741 24.7658V25.8318H81.672V24.7658Z"
        fill="#3D9ED6" />
    <path
        d="M59.578 24.7972C59.578 24.676 59.4796 24.5777 59.3583 24.5777C59.2369 24.5777 59.1386 24.676 59.1386 24.7972V25.8318H59.578V24.7972Z"
        fill="#3D9ED6" />
    <path
        d="M75.3953 24.8285C75.3953 24.69 75.2829 24.5777 75.1442 24.5777C75.0055 24.5777 74.8931 24.69 74.8931 24.8285V25.8318H75.3953V24.8285Z"
        fill="#3D9ED6" />
    <path
        d="M77.7177 23.3237C77.7177 23.1852 77.8301 23.0729 77.9687 23.0729C78.1074 23.0729 78.2198 23.1852 78.2198 23.3237V25.8318H77.7177V23.3237Z"
        fill="#3D9ED6" />
    <path
        d="M63.5951 23.3237C63.5951 23.1852 63.4826 23.0729 63.344 23.0729C63.2053 23.0729 63.0929 23.1852 63.0929 23.3237V25.8318H63.5951V23.3237Z"
        fill="#3D9ED6" />
    <path
        d="M80.7305 24.515C80.7305 24.3765 80.8429 24.2642 80.9816 24.2642C81.1202 24.2642 81.2326 24.3765 81.2326 24.515V25.8318H80.7305V24.515Z"
        fill="#3D9ED6" />
    <path
        d="M60.5822 23.6999C60.5822 23.5614 60.4698 23.4491 60.3312 23.4491C60.1925 23.4491 60.0801 23.5614 60.0801 23.6999V25.8318H60.5822V23.6999Z"
        fill="#3D9ED6" />
    <path
        d="M51.2299 25.2048C51.2299 25.0662 51.3423 24.954 51.481 24.954C51.6197 24.954 51.7321 25.0662 51.7321 25.2048V25.8318H51.2299V25.2048Z"
        fill="#3D9ED6" />
    <path
        d="M52.2342 24.8599C52.2342 24.7387 52.3326 24.6404 52.4539 24.6404C52.5752 24.6404 52.6736 24.7387 52.6736 24.8599V25.8318H52.2342V24.8599Z"
        fill="#3D9ED6" />
    <path
        d="M53.1757 24.1388C53.1757 24.0003 53.2881 23.888 53.4268 23.888C53.5654 23.888 53.6778 24.0003 53.6778 24.1388V25.8318H53.1757V24.1388Z"
        fill="#3D9ED6" />
    <path
        d="M54.18 24.5777C54.18 24.4392 54.2924 24.3269 54.431 24.3269C54.5697 24.3269 54.6821 24.4392 54.6821 24.5777V25.8318H54.18V24.5777Z"
        fill="#3D9ED6" />
    <path
        d="M55.1843 24.8912C55.1843 24.7527 55.2967 24.6404 55.4353 24.6404C55.574 24.6404 55.6864 24.7527 55.6864 24.8912V25.8318H55.1843V24.8912Z"
        fill="#3D9ED6" />
    <path
        d="M84.6848 24.515C84.6848 24.3765 84.7972 24.2642 84.9359 24.2642C85.0745 24.2642 85.187 24.3765 85.187 24.515V25.8318H84.6848V24.515Z"
        fill="#3D9ED6" />
    <path
        d="M56.6279 24.3896C56.6279 24.2511 56.5155 24.1388 56.3768 24.1388C56.2382 24.1388 56.1258 24.2511 56.1258 24.3896V25.8318H56.6279V24.3896Z"
        fill="#3D9ED6" />
    <path
        d="M78.7219 22.634C78.7219 22.4954 78.8343 22.3832 78.973 22.3832C79.1117 22.3832 79.2241 22.4954 79.2241 22.634V25.8318H78.7219V22.634Z"
        fill="#3D9ED6" />
    <path
        d="M62.5908 24.1388C62.5908 24.0003 62.4784 23.888 62.3397 23.888C62.201 23.888 62.0886 24.0003 62.0886 24.1388V25.8318H62.5908V24.1388Z"
        fill="#3D9ED6" />
    <path
        d="M82.6763 23.5118C82.6763 23.3733 82.7887 23.261 82.9273 23.261C83.066 23.261 83.1784 23.3733 83.1784 23.5118V25.8318H82.6763V23.5118Z"
        fill="#3D9ED6" />
    <path
        d="M58.6364 23.5118C58.6364 23.3733 58.524 23.261 58.3854 23.261C58.2467 23.261 58.1343 23.3733 58.1343 23.5118V25.8318H58.6364V23.5118Z"
        fill="#3D9ED6" />
    <path
        d="M85.6891 22.6653C85.6891 22.5441 85.7874 22.4459 85.9088 22.4459C86.0301 22.4459 86.1285 22.5441 86.1285 22.6653V25.8318H85.6891V22.6653Z"
        fill="#3D9ED6" />
    <path
        d="M96.5478 22.6967C96.5478 22.5581 96.6602 22.4459 96.7989 22.4459C96.9375 22.4459 97.0499 22.5581 97.0499 22.6967V25.8318H96.5478V22.6967Z"
        fill="#3D9ED6" />
    <path
        d="M47.2756 22.6967C47.2756 22.5581 47.388 22.4459 47.5267 22.4459C47.6653 22.4459 47.7777 22.5581 47.7777 22.6967V25.8318H47.2756V22.6967Z"
        fill="#3D9ED6" />
    <path
        d="M71.0016 23.2923C71.0016 23.1711 71.0999 23.0729 71.2213 23.0729C71.3426 23.0729 71.4409 23.1711 71.4409 23.2923V25.8318H71.0016V23.2923Z"
        fill="#3D9ED6" />
    <path
        d="M86.6306 22.2577C86.6306 22.1192 86.743 22.0069 86.8817 22.0069C87.0203 22.0069 87.1327 22.1192 87.1327 22.2577V25.8318H86.6306V22.2577Z"
        fill="#3D9ED6" />
    <path
        d="M83.6805 23.8253C83.6805 23.6868 83.7929 23.5745 83.9316 23.5745C84.0703 23.5745 84.1827 23.6868 84.1827 23.8253V25.8318H83.6805V23.8253Z"
        fill="#3D9ED6" />
    <path
        d="M57.6322 23.888C57.6322 23.7495 57.5198 23.6372 57.3811 23.6372C57.2424 23.6372 57.13 23.7495 57.13 23.888V25.8318H57.6322V23.888Z"
        fill="#3D9ED6" />
    <path
        d="M87.6349 24.1388C87.6349 24.0003 87.7473 23.888 87.8859 23.888C88.0246 23.888 88.137 24.0003 88.137 24.1388V25.8318H87.6349V24.1388Z"
        fill="#3D9ED6" />
    <path
        d="M38.3627 24.1388C38.3627 24.0003 38.4751 23.888 38.6137 23.888C38.7524 23.888 38.8648 24.0003 38.8648 24.1388V25.8318H38.3627V24.1388Z"
        fill="#3D9ED6" />
    <path
        d="M88.6391 24.7658C88.6391 24.6273 88.7515 24.515 88.8902 24.515C89.0289 24.515 89.1413 24.6273 89.1413 24.7658V25.8318H88.6391V24.7658Z"
        fill="#3D9ED6" />
    <path
        d="M39.3669 24.8285C39.3669 24.69 39.4793 24.5777 39.618 24.5777C39.7567 24.5777 39.8691 24.69 39.8691 24.8285V25.8318H39.3669V24.8285Z"
        fill="#3D9ED6" />
    <path
        d="M89.6434 24.1075C89.6434 23.9863 89.7418 23.888 89.8631 23.888C89.9844 23.888 90.0828 23.9863 90.0828 24.1075V25.8318H89.6434V24.1075Z"
        fill="#3D9ED6" />
    <path
        d="M40.3084 24.1388C40.3084 24.0003 40.4208 23.888 40.5595 23.888C40.6982 23.888 40.8106 24.0003 40.8106 24.1388V25.8318H40.3084V24.1388Z"
        fill="#3D9ED6" />
    <path
        d="M90.5849 23.5118C90.5849 23.3733 90.6973 23.261 90.836 23.261C90.9747 23.261 91.0871 23.3733 91.0871 23.5118V25.8318H90.5849V23.5118Z"
        fill="#3D9ED6" />
    <path
        d="M41.3127 23.5118C41.3127 23.3733 41.4251 23.261 41.5638 23.261C41.7024 23.261 41.8148 23.3733 41.8148 23.5118V25.8318H41.3127V23.5118Z"
        fill="#3D9ED6" />
    <path
        d="M97.5521 23.4804C97.5521 23.3592 97.6504 23.261 97.7718 23.261C97.8931 23.261 97.9915 23.3592 97.9915 23.4804V25.8318H97.5521V23.4804Z"
        fill="#3D9ED6" />
    <path
        d="M48.2799 23.4804C48.2799 23.3592 48.3782 23.261 48.4996 23.261C48.6209 23.261 48.7192 23.3592 48.7192 23.4804V25.8318H48.2799V23.4804Z"
        fill="#3D9ED6" />
    <path
        d="M72.0059 24.1075C72.0059 23.9863 72.1042 23.888 72.2255 23.888C72.3469 23.888 72.4452 23.9863 72.4452 24.1075V25.8318H72.0059V24.1075Z"
        fill="#3D9ED6" />
    <path
        d="M74.0144 24.1075C74.0144 23.9863 74.1128 23.888 74.2341 23.888C74.3554 23.888 74.4538 23.9863 74.4538 24.1075V25.8318H74.0144V24.1075Z"
        fill="#3D9ED6" />
    <path
        d="M91.5892 23.8253C91.5892 23.6868 91.7016 23.5745 91.8403 23.5745C91.9789 23.5745 92.0913 23.6868 92.0913 23.8253V25.8318H91.5892V23.8253Z"
        fill="#3D9ED6" />
    <path
        d="M42.317 23.888C42.317 23.7495 42.4294 23.6372 42.5681 23.6372C42.7067 23.6372 42.8191 23.7495 42.8191 23.888V25.8318H42.317V23.888Z"
        fill="#3D9ED6" />
    <path
        d="M66.043 23.888C66.043 23.7495 66.1554 23.6372 66.294 23.6372C66.4327 23.6372 66.5451 23.7495 66.5451 23.888V25.8318H66.043V23.888Z"
        fill="#3D9ED6" />
    <path
        d="M98.4936 23.8253C98.4936 23.6868 98.606 23.5745 98.7447 23.5745C98.8833 23.5745 98.9957 23.6868 98.9957 23.8253V25.8318H98.4936V23.8253Z"
        fill="#3D9ED6" />
    <path
        d="M49.2214 23.888C49.2214 23.7495 49.3338 23.6372 49.4724 23.6372C49.6111 23.6372 49.7235 23.7495 49.7235 23.888V25.8318H49.2214V23.888Z"
        fill="#3D9ED6" />
    <path
        d="M73.0101 23.888C73.0101 23.7495 73.1225 23.6372 73.2612 23.6372C73.3999 23.6372 73.5123 23.7495 73.5123 23.888V25.8318H73.0101V23.888Z"
        fill="#3D9ED6" />
    <path
        d="M92.5935 24.4523C92.5935 24.3138 92.7059 24.2015 92.8445 24.2015C92.9832 24.2015 93.0956 24.3138 93.0956 24.4523V25.8318H92.5935V24.4523Z"
        fill="#3D9ED6" />
    <path
        d="M43.3213 24.515C43.3213 24.3765 43.4337 24.2642 43.5723 24.2642C43.711 24.2642 43.8234 24.3765 43.8234 24.515V25.8318H43.3213V24.515Z"
        fill="#3D9ED6" />
    <path
        d="M67.0472 24.515C67.0472 24.3765 67.1596 24.2642 67.2983 24.2642C67.437 24.2642 67.5494 24.3765 67.5494 24.515V25.8318H67.0472V24.515Z"
        fill="#3D9ED6" />
    <path
        d="M99.4979 24.4523C99.4979 24.3138 99.6103 24.2015 99.7489 24.2015C99.8876 24.2015 100 24.3138 100 24.4523V25.8318H99.4979V24.4523Z"
        fill="#3D9ED6" />
    <path
        d="M50.2257 24.515C50.2257 24.3765 50.3381 24.2642 50.4767 24.2642C50.6154 24.2642 50.7278 24.3765 50.7278 24.515V25.8318H50.2257V24.515Z"
        fill="#3D9ED6" />
    <path
        d="M93.5977 22.2264C93.5977 22.1052 93.6961 22.0069 93.8174 22.0069C93.9388 22.0069 94.0371 22.1052 94.0371 22.2264V25.8318H93.5977V22.2264Z"
        fill="#3D9ED6" />
    <path
        d="M44.3255 25.1734C44.3255 25.0522 44.4239 24.954 44.5452 24.954C44.6666 24.954 44.7649 25.0522 44.7649 25.1734V25.8318H44.3255V25.1734Z"
        fill="#3D9ED6" />
    <path
        d="M68.0515 24.7658C68.0515 24.6273 68.1639 24.515 68.3026 24.515C68.4413 24.515 68.5537 24.6273 68.5537 24.7658V25.8318H68.0515V24.7658Z"
        fill="#3D9ED6" />
    <path
        d="M94.5393 23.0729C94.5393 22.9344 94.6517 22.8221 94.7903 22.8221C94.929 22.8221 95.0414 22.9344 95.0414 23.0729V25.8318H94.5393V23.0729Z"
        fill="#3D9ED6" />
    <path
        d="M45.267 23.0729C45.267 22.9344 45.3795 22.8221 45.5181 22.8221C45.6568 22.8221 45.7692 22.9344 45.7692 23.0729V25.8318H45.267V23.0729Z"
        fill="#3D9ED6" />
    <path
        d="M69.0558 23.4804C69.0558 23.3592 69.1541 23.261 69.2755 23.261C69.3968 23.261 69.4952 23.3592 69.4952 23.4804V25.8318H69.0558V23.4804Z"
        fill="#3D9ED6" />
    <path
        d="M95.5435 22.2577C95.5435 22.1192 95.6559 22.0069 95.7946 22.0069C95.9333 22.0069 96.0457 22.1192 96.0457 22.2577V25.8318H95.5435V22.2577Z"
        fill="#3D9ED6" />
    <path
        d="M46.2713 22.2577C46.2713 22.1192 46.3837 22.0069 46.5224 22.0069C46.661 22.0069 46.7735 22.1192 46.7735 22.2577V25.8318H46.2713V22.2577Z"
        fill="#3D9ED6" />
    <path
        d="M70.0601 22.6026C70.0601 22.4814 70.1584 22.3832 70.2798 22.3832C70.4011 22.3832 70.4994 22.4814 70.4994 22.6026V25.8318H70.0601V22.6026Z"
        fill="#3D9ED6" />
    <path
        d="M79.7262 23.1356C79.7262 22.9971 79.8386 22.8848 79.9773 22.8848C80.1159 22.8848 80.2283 22.9971 80.2283 23.1356V25.8318H79.7262V23.1356Z"
        fill="#3D9ED6" />
    <path
        d="M61.5865 24.515C61.5865 24.3765 61.4741 24.2642 61.3354 24.2642C61.1968 24.2642 61.0844 24.3765 61.0844 24.515V25.8318H61.5865V24.515Z"
        fill="#3D9ED6" />
    <path
        d="M30.8856 38.5C30.0942 38.5 29.3209 38.3966 28.566 38.1898C27.811 37.983 27.2082 37.7215 26.7577 37.4052L27.6344 35.6718C28.0728 35.9637 28.5964 36.201 29.2052 36.3834C29.8263 36.5537 30.4351 36.6389 31.0318 36.6389C32.3956 36.6389 33.0775 36.28 33.0775 35.5623C33.0775 35.2217 32.9009 34.9845 32.5478 34.8507C32.2068 34.7169 31.6528 34.5892 30.8856 34.4675C30.082 34.3459 29.4244 34.206 28.913 34.0479C28.4137 33.8897 27.9754 33.616 27.5979 33.2268C27.2326 32.8254 27.0499 32.2719 27.0499 31.5664C27.0499 30.6419 27.4335 29.9059 28.2007 29.3585C28.98 28.799 30.0272 28.5192 31.3423 28.5192C32.012 28.5192 32.6817 28.5983 33.3515 28.7564C34.0212 28.9024 34.5691 29.1031 34.9953 29.3585L34.1186 31.092C33.2906 30.6054 32.359 30.3621 31.324 30.3621C30.6543 30.3621 30.1429 30.4655 29.7897 30.6723C29.4488 30.8669 29.2783 31.1284 29.2783 31.4569C29.2783 31.8218 29.461 32.0833 29.8263 32.2415C30.2037 32.3875 30.7821 32.5273 31.5615 32.6611C32.3408 32.7828 32.9801 32.9227 33.4793 33.0808C33.9786 33.2389 34.4048 33.5066 34.7579 33.8837C35.1232 34.2607 35.3058 34.796 35.3058 35.4893C35.3058 36.4017 34.9101 37.1315 34.1186 37.6789C33.3271 38.2263 32.2495 38.5 30.8856 38.5Z"
        fill="white" />
    <path
        d="M49.5463 33.5552C49.5463 33.7134 49.5341 33.9384 49.5098 34.2303H41.8566C41.9906 34.948 42.3376 35.5197 42.8978 35.9455C43.4701 36.3591 44.1763 36.5659 45.0165 36.5659C46.0881 36.5659 46.9709 36.2131 47.665 35.5076L48.8888 36.9126C48.4504 37.4356 47.8963 37.831 47.2266 38.0986C46.5569 38.3662 45.8019 38.5 44.9617 38.5C43.8902 38.5 42.9465 38.2871 42.1306 37.8614C41.3148 37.4356 40.6816 36.8457 40.231 36.0915C39.7927 35.3251 39.5735 34.4615 39.5735 33.5005C39.5735 32.5517 39.7866 31.7002 40.2128 30.946C40.6511 30.1796 41.2539 29.5836 42.021 29.1578C42.7882 28.7321 43.6527 28.5192 44.6147 28.5192C45.5645 28.5192 46.4108 28.7321 47.1536 29.1578C47.9085 29.5714 48.493 30.1614 48.907 30.9277C49.3332 31.6819 49.5463 32.5578 49.5463 33.5552ZM44.6147 30.3439C43.8841 30.3439 43.2631 30.5628 42.7516 31.0007C42.2524 31.4265 41.948 31.9982 41.8384 32.7159H47.3727C47.2753 32.0104 46.977 31.4386 46.4777 31.0007C45.9785 30.5628 45.3575 30.3439 44.6147 30.3439Z"
        fill="white" />
    <path
        d="M59.3195 38.5C58.3088 38.5 57.4016 38.2871 56.598 37.8614C55.7943 37.4356 55.1672 36.8457 54.7166 36.0915C54.2661 35.3251 54.0408 34.4615 54.0408 33.5005C54.0408 32.5395 54.2661 31.6819 54.7166 30.9277C55.1672 30.1736 55.7882 29.5836 56.5797 29.1578C57.3834 28.7321 58.2966 28.5192 59.3195 28.5192C60.2815 28.5192 61.1217 28.7138 61.8401 29.1031C62.5707 29.4924 63.1187 30.0519 63.484 30.7818L61.7305 31.8036C61.4504 31.3535 61.0973 31.019 60.6711 30.8C60.2571 30.5689 59.8005 30.4533 59.3012 30.4533C58.4488 30.4533 57.7426 30.7331 57.1825 31.2927C56.6223 31.8401 56.3423 32.576 56.3423 33.5005C56.3423 34.425 56.6162 35.167 57.1642 35.7265C57.7243 36.2739 58.4367 36.5476 59.3012 36.5476C59.8005 36.5476 60.2571 36.4382 60.6711 36.2192C61.0973 35.9881 61.4504 35.6475 61.7305 35.1974L63.484 36.2192C63.1065 36.9491 62.5524 37.5147 61.8218 37.9161C61.1034 38.3054 60.2693 38.5 59.3195 38.5Z"
        fill="white" />
    <path
        d="M74.5507 37.8431C74.2828 38.0621 73.954 38.2263 73.5644 38.3358C73.1869 38.4453 72.7851 38.5 72.3589 38.5C71.2873 38.5 70.4593 38.2202 69.8748 37.6607C69.2903 37.1011 68.9981 36.2861 68.9981 35.2156V30.5263H67.3907V28.7017H68.9981V26.4756H71.2812V28.7017H73.8932V30.5263H71.2812V35.1609C71.2812 35.6353 71.3969 36.0002 71.6283 36.2557C71.8596 36.499 72.1945 36.6206 72.6329 36.6206C73.1443 36.6206 73.5705 36.4868 73.9114 36.2192L74.5507 37.8431Z"
        fill="white" />
    <path
        d="M83.5966 38.5C82.6102 38.5 81.7213 38.2871 80.9298 37.8614C80.1383 37.4356 79.5173 36.8457 79.0668 36.0915C78.6284 35.3251 78.4092 34.4615 78.4092 33.5005C78.4092 32.5395 78.6284 31.6819 79.0668 30.9277C79.5173 30.1736 80.1383 29.5836 80.9298 29.1578C81.7213 28.7321 82.6102 28.5192 83.5966 28.5192C84.5951 28.5192 85.4901 28.7321 86.2816 29.1578C87.0731 29.5836 87.688 30.1736 88.1264 30.9277C88.5769 31.6819 88.8022 32.5395 88.8022 33.5005C88.8022 34.4615 88.5769 35.3251 88.1264 36.0915C87.688 36.8457 87.0731 37.4356 86.2816 37.8614C85.4901 38.2871 84.5951 38.5 83.5966 38.5ZM83.5966 36.5476C84.4368 36.5476 85.1309 36.2679 85.6788 35.7083C86.2268 35.1487 86.5007 34.4128 86.5007 33.5005C86.5007 32.5882 86.2268 31.8522 85.6788 31.2927C85.1309 30.7331 84.4368 30.4533 83.5966 30.4533C82.7564 30.4533 82.0623 30.7331 81.5143 31.2927C80.9785 31.8522 80.7107 32.5882 80.7107 33.5005C80.7107 34.4128 80.9785 35.1487 81.5143 35.7083C82.0623 36.2679 82.7564 36.5476 83.5966 36.5476Z"
        fill="white" />
    <path
        d="M96.2641 30.0519C96.9216 29.0301 98.0784 28.5192 99.7345 28.5192V30.6905C99.5396 30.654 99.3631 30.6358 99.2048 30.6358C98.3159 30.6358 97.6218 30.8973 97.1226 31.4204C96.6233 31.9313 96.3737 32.6733 96.3737 33.6465V38.3723H94.0905V28.6287H96.2641V30.0519Z"
        fill="white" />
    <path
        d="M15.2031 16.2398H5.58088L3.68393 20.6889H0L8.65998 1.46436H12.179L20.8664 20.6889H17.1275L15.2031 16.2398ZM14.0209 13.4385L10.392 5.03464L6.79053 13.4385H14.0209Z"
        fill="white" />
    <path
        d="M46.8034 1.46436H55.216C57.2687 1.46436 59.0924 1.86716 60.6869 2.67276C62.2814 3.46005 63.5186 4.58606 64.3983 6.05079C65.2781 7.49721 65.7179 9.1725 65.7179 11.0766C65.7179 12.9808 65.2781 14.6652 64.3983 16.13C63.5186 17.5764 62.2814 18.7024 60.6869 19.508C59.0924 20.2953 57.2687 20.6889 55.216 20.6889H46.8034V1.46436ZM55.051 17.6679C56.4623 17.6679 57.6994 17.4024 58.7625 16.8715C59.8438 16.3222 60.6686 15.5532 61.2367 14.5645C61.8232 13.5575 62.1165 12.3949 62.1165 11.0766C62.1165 9.75839 61.8232 8.60491 61.2367 7.61622C60.6686 6.60922 59.8438 5.84024 58.7625 5.30927C57.6994 4.76 56.4623 4.48536 55.051 4.48536H50.3774V17.6679H55.051Z"
        fill="white" />
    <path d="M70.6162 1.46436H74.1902V20.6889H70.6162V1.46436Z" fill="white" />
    <path
        d="M89.485 20.9636C87.5239 20.9636 85.7552 20.5425 84.179 19.7002C82.6028 18.8397 81.3657 17.6588 80.4676 16.1574C79.5695 14.6378 79.1205 12.9442 79.1205 11.0766C79.1205 9.20912 79.5695 7.52468 80.4676 6.02333C81.3657 4.50367 82.6028 3.32273 84.179 2.48051C85.7552 1.61999 87.5239 1.18972 89.485 1.18972C91.4461 1.18972 93.2148 1.61999 94.791 2.48051C96.3672 3.32273 97.6043 4.49452 98.5024 5.99586C99.4005 7.49721 99.8495 9.19081 99.8495 11.0766C99.8495 12.9625 99.4005 14.6561 98.5024 16.1574C97.6043 17.6588 96.3672 18.8397 94.791 19.7002C93.2148 20.5425 91.4461 20.9636 89.485 20.9636ZM89.485 17.8327C90.768 17.8327 91.9226 17.5489 92.949 16.9813C93.9754 16.3954 94.7818 15.5898 95.3683 14.5645C95.9548 13.5209 96.248 12.3583 96.248 11.0766C96.248 9.79501 95.9548 8.64153 95.3683 7.61622C94.7818 6.5726 93.9754 5.767 92.949 5.19942C91.9226 4.61353 90.768 4.32058 89.485 4.32058C88.202 4.32058 87.0474 4.61353 86.021 5.19942C84.9946 5.767 84.1882 6.5726 83.6017 7.61622C83.0152 8.64153 82.722 9.79501 82.722 11.0766C82.722 12.3583 83.0152 13.5209 83.6017 14.5645C84.1882 15.5898 84.9946 16.3954 86.021 16.9813C87.0474 17.5489 88.202 17.8327 89.485 17.8327Z"
        fill="white" />
    <path
        d="M28.3951 0.565546C27.9901 0.663029 27.6827 0.838497 27.3656 1.15044C26.8874 1.62811 26.7118 2.11552 26.7118 2.95875V3.42179H28.6146C30.4297 3.42179 30.5321 3.42666 30.7127 3.51927C30.9322 3.63138 31.103 3.9092 31.103 4.15291C31.103 4.39662 30.9322 4.67444 30.7127 4.78655C30.5321 4.87915 30.4297 4.88403 28.6146 4.88403H26.7118V6.34627H28.6146C30.4297 6.34627 30.5321 6.35114 30.7127 6.44375C30.9322 6.55586 31.103 6.83368 31.103 7.07739C31.103 7.3211 30.9322 7.59892 30.7127 7.71103C30.5321 7.80364 30.4297 7.80851 28.6146 7.80851H26.7118V9.27075H28.6146C30.4297 9.27075 30.5321 9.27563 30.7127 9.36823C30.9322 9.48034 31.103 9.75816 31.103 10.0019C31.103 10.2456 30.9322 10.5234 30.7127 10.6355C30.5321 10.7281 30.4297 10.733 28.6146 10.733H26.7118V12.1952H28.6146C30.4297 12.1952 30.5321 12.2001 30.7127 12.2927C30.9322 12.4048 31.103 12.6826 31.103 12.9264C31.103 13.1701 30.9322 13.4479 30.7127 13.56C30.5321 13.6526 30.4297 13.6575 28.6146 13.6575H26.7118V14.1205C26.7118 14.9637 26.8874 15.4463 27.3656 15.9288C27.6876 16.2456 28.0389 16.4406 28.4585 16.5283C28.8195 16.6014 34.8502 16.6014 35.2113 16.5283C35.6309 16.4406 35.9822 16.2456 36.3042 15.9288C36.7823 15.4463 36.958 14.9637 36.958 14.1205V13.6575H35.0502C33.162 13.6575 33.1376 13.6575 32.9473 13.5502C32.7278 13.4284 32.5667 13.1603 32.5667 12.9264C32.5667 12.6924 32.7278 12.4243 32.9473 12.3025C33.1376 12.1952 33.162 12.1952 35.0502 12.1952H36.958V10.733H35.0502C33.162 10.733 33.1376 10.733 32.9473 10.6258C32.4545 10.3479 32.4545 9.65581 32.9473 9.37798C33.1376 9.27075 33.162 9.27075 35.0502 9.27075H36.958V7.80851H35.0502C33.162 7.80851 33.1376 7.80851 32.9473 7.70128C32.4545 7.42345 32.4545 6.73133 32.9473 6.4535C33.1376 6.34627 33.162 6.34627 35.0502 6.34627H36.958V4.88403H35.0502C33.162 4.88403 33.1376 4.88403 32.9473 4.7768C32.4545 4.49897 32.4545 3.80685 32.9473 3.52902C33.1376 3.42179 33.162 3.42179 35.0502 3.42179H36.958V2.95875C36.958 2.11552 36.7823 1.63298 36.3042 1.15044C35.9822 0.828749 35.6016 0.624035 35.1966 0.546049C34.8112 0.472937 28.7024 0.492434 28.3951 0.565546Z"
        fill="#3D9ED6" />
    <path
        d="M24.1843 3.34177C24.0965 3.38564 23.9745 3.48799 23.916 3.57085L23.8086 3.72195L23.8087 12.8178C23.8087 15.4255 23.8135 15.5376 23.9111 15.9129C24.2771 17.2826 25.0284 18.3451 26.136 19.0567C26.9801 19.6026 27.7461 19.8317 28.8732 19.8707L29.6393 19.9V24.3695H28.4683C27.3851 24.3695 27.2777 24.3793 27.1021 24.467C26.8825 24.5791 26.7118 24.857 26.7118 25.1007C26.7118 25.3444 26.8825 25.6222 27.1021 25.7343C27.2875 25.8318 27.3802 25.8318 31.8349 25.8318C36.2896 25.8318 36.3823 25.8318 36.5677 25.7343C36.7872 25.6222 36.958 25.3444 36.958 25.1007C36.958 24.857 36.7872 24.5791 36.5677 24.467C36.392 24.3793 36.2847 24.3695 35.2015 24.3695H34.0305V19.9L34.8014 19.8707C35.948 19.8317 36.6897 19.6075 37.5728 19.0324C38.6316 18.3451 39.3732 17.2923 39.7538 15.9373C39.8514 15.5912 39.8562 15.4353 39.8758 12.9056C39.8953 9.94698 39.9554 3.60377 39.6808 3.38431C39.5238 3.25891 39.3439 3.26866 38.9243 3.25891L38.4266 3.23941L38.4071 12.5351C38.3925 15.0697 38.3827 15.4596 38.3095 15.6985C37.8948 17.0778 36.8409 18.0673 35.4845 18.3451C34.9234 18.4621 28.7464 18.4621 28.1853 18.3451C27.0094 18.1014 25.9555 17.2338 25.5212 16.1518C25.2626 15.5035 25.248 15.3329 25.248 12.3792L25.248 3.25891H24.7991C24.482 3.25891 24.2966 3.28328 24.1843 3.34177Z"
        fill="white" />
</svg>
    