<svg width="101" height="38" viewBox="0 0 101 38" fill="none" xmlns="http://www.w3.org/2000/svg">
<path d="M76.2719 23.388C76.2719 23.2495 76.3843 23.1372 76.5229 23.1372C76.6616 23.1372 76.774 23.2495 76.774 23.388V25.3318H76.2719V23.388Z" fill="white"/>
<path d="M66.0408 23.8896C66.0408 23.7511 65.9284 23.6388 65.7898 23.6388C65.6511 23.6388 65.5387 23.7511 65.5387 23.8896V25.3318H66.0408V23.8896Z" fill="white"/>
<path d="M77.2762 24.2658C77.2762 24.1273 77.3886 24.015 77.5272 24.015C77.6659 24.015 77.7783 24.1273 77.7783 24.2658V25.3318H77.2762V24.2658Z" fill="white"/>
<path d="M65.0366 24.015C65.0366 23.8765 64.9241 23.7642 64.7855 23.7642C64.6468 23.7642 64.5344 23.8765 64.5344 24.015V25.3318H65.0366V24.015Z" fill="white"/>
<path d="M82.172 24.2658C82.172 24.1273 82.2844 24.015 82.4231 24.015C82.5617 24.015 82.6741 24.1273 82.6741 24.2658V25.3318H82.172V24.2658Z" fill="white"/>
<path d="M60.078 24.2972C60.078 24.176 59.9796 24.0777 59.8583 24.0777C59.7369 24.0777 59.6386 24.176 59.6386 24.2972V25.3318H60.078V24.2972Z" fill="white"/>
<path d="M75.8953 24.3286C75.8953 24.19 75.7829 24.0777 75.6442 24.0777C75.5055 24.0777 75.3931 24.19 75.3931 24.3286V25.3318H75.8953V24.3286Z" fill="white"/>
<path d="M78.2177 22.8237C78.2177 22.6852 78.3301 22.5729 78.4687 22.5729C78.6074 22.5729 78.7198 22.6852 78.7198 22.8237V25.3318H78.2177V22.8237Z" fill="white"/>
<path d="M64.0951 22.8237C64.0951 22.6852 63.9826 22.5729 63.844 22.5729C63.7053 22.5729 63.5929 22.6852 63.5929 22.8237V25.3318H64.0951V22.8237Z" fill="white"/>
<path d="M81.2305 24.015C81.2305 23.8765 81.3429 23.7642 81.4816 23.7642C81.6202 23.7642 81.7326 23.8765 81.7326 24.015V25.3318H81.2305V24.015Z" fill="white"/>
<path d="M61.0822 23.1999C61.0822 23.0614 60.9698 22.9491 60.8312 22.9491C60.6925 22.9491 60.5801 23.0614 60.5801 23.1999V25.3318H61.0822V23.1999Z" fill="white"/>
<path d="M51.7299 24.7048C51.7299 24.5662 51.8423 24.454 51.981 24.454C52.1197 24.454 52.2321 24.5662 52.2321 24.7048V25.3318H51.7299V24.7048Z" fill="white"/>
<path d="M52.7342 24.3599C52.7342 24.2387 52.8326 24.1404 52.9539 24.1404C53.0752 24.1404 53.1736 24.2387 53.1736 24.3599V25.3318H52.7342V24.3599Z" fill="white"/>
<path d="M53.6757 23.6388C53.6757 23.5003 53.7881 23.388 53.9268 23.388C54.0654 23.388 54.1778 23.5003 54.1778 23.6388V25.3318H53.6757V23.6388Z" fill="white"/>
<path d="M54.68 24.0777C54.68 23.9392 54.7924 23.8269 54.931 23.8269C55.0697 23.8269 55.1821 23.9392 55.1821 24.0777V25.3318H54.68V24.0777Z" fill="white"/>
<path d="M55.6843 24.3913C55.6843 24.2527 55.7967 24.1404 55.9353 24.1404C56.074 24.1404 56.1864 24.2527 56.1864 24.3913V25.3318H55.6843V24.3913Z" fill="white"/>
<path d="M85.1848 24.015C85.1848 23.8765 85.2972 23.7642 85.4359 23.7642C85.5745 23.7642 85.687 23.8765 85.687 24.015V25.3318H85.1848V24.015Z" fill="white"/>
<path d="M57.1279 23.8896C57.1279 23.7511 57.0155 23.6388 56.8768 23.6388C56.7382 23.6388 56.6258 23.7511 56.6258 23.8896V25.3318H57.1279V23.8896Z" fill="white"/>
<path d="M79.2219 22.134C79.2219 21.9954 79.3343 21.8832 79.473 21.8832C79.6117 21.8832 79.7241 21.9954 79.7241 22.134V25.3318H79.2219V22.134Z" fill="white"/>
<path d="M63.0908 23.6388C63.0908 23.5003 62.9784 23.388 62.8397 23.388C62.701 23.388 62.5886 23.5003 62.5886 23.6388V25.3318H63.0908V23.6388Z" fill="white"/>
<path d="M83.1763 23.0118C83.1763 22.8733 83.2887 22.761 83.4273 22.761C83.566 22.761 83.6784 22.8733 83.6784 23.0118V25.3318H83.1763V23.0118Z" fill="white"/>
<path d="M59.1364 23.0118C59.1364 22.8733 59.024 22.761 58.8854 22.761C58.7467 22.761 58.6343 22.8733 58.6343 23.0118V25.3318H59.1364V23.0118Z" fill="white"/>
<path d="M86.1891 22.1653C86.1891 22.0441 86.2874 21.9459 86.4088 21.9459C86.5301 21.9459 86.6285 22.0441 86.6285 22.1653V25.3318H86.1891V22.1653Z" fill="white"/>
<path d="M97.0478 22.1967C97.0478 22.0581 97.1602 21.9459 97.2989 21.9459C97.4375 21.9459 97.5499 22.0581 97.5499 22.1967V25.3318H97.0478V22.1967Z" fill="white"/>
<path d="M47.7756 22.1967C47.7756 22.0581 47.888 21.9459 48.0267 21.9459C48.1653 21.9459 48.2777 22.0581 48.2777 22.1967V25.3318H47.7756V22.1967Z" fill="white"/>
<path d="M71.5016 22.7923C71.5016 22.6711 71.5999 22.5729 71.7213 22.5729C71.8426 22.5729 71.9409 22.6711 71.9409 22.7923V25.3318H71.5016V22.7923Z" fill="white"/>
<path d="M87.1306 21.7577C87.1306 21.6192 87.243 21.5069 87.3817 21.5069C87.5203 21.5069 87.6327 21.6192 87.6327 21.7577V25.3318H87.1306V21.7577Z" fill="white"/>
<path d="M84.1805 23.3253C84.1805 23.1868 84.2929 23.0745 84.4316 23.0745C84.5703 23.0745 84.6827 23.1868 84.6827 23.3253V25.3318H84.1805V23.3253Z" fill="white"/>
<path d="M58.1322 23.388C58.1322 23.2495 58.0198 23.1372 57.8811 23.1372C57.7424 23.1372 57.63 23.2495 57.63 23.388V25.3318H58.1322V23.388Z" fill="white"/>
<path d="M88.1349 23.6388C88.1349 23.5003 88.2473 23.388 88.3859 23.388C88.5246 23.388 88.637 23.5003 88.637 23.6388V25.3318H88.1349V23.6388Z" fill="white"/>
<path d="M38.8627 23.6388C38.8627 23.5003 38.9751 23.388 39.1137 23.388C39.2524 23.388 39.3648 23.5003 39.3648 23.6388V25.3318H38.8627V23.6388Z" fill="white"/>
<path d="M89.1391 24.2658C89.1391 24.1273 89.2516 24.015 89.3902 24.015C89.5289 24.015 89.6413 24.1273 89.6413 24.2658V25.3318H89.1391V24.2658Z" fill="white"/>
<path d="M39.8669 24.3286C39.8669 24.19 39.9793 24.0777 40.118 24.0777C40.2567 24.0777 40.3691 24.19 40.3691 24.3286V25.3318H39.8669V24.3286Z" fill="white"/>
<path d="M90.1434 23.6075C90.1434 23.4863 90.2418 23.388 90.3631 23.388C90.4844 23.388 90.5828 23.4863 90.5828 23.6075V25.3318H90.1434V23.6075Z" fill="white"/>
<path d="M40.8084 23.6388C40.8084 23.5003 40.9208 23.388 41.0595 23.388C41.1982 23.388 41.3106 23.5003 41.3106 23.6388V25.3318H40.8084V23.6388Z" fill="white"/>
<path d="M91.0849 23.0118C91.0849 22.8733 91.1973 22.761 91.336 22.761C91.4747 22.761 91.5871 22.8733 91.5871 23.0118V25.3318H91.0849V23.0118Z" fill="white"/>
<path d="M41.8127 23.0118C41.8127 22.8733 41.9251 22.761 42.0638 22.761C42.2024 22.761 42.3148 22.8733 42.3148 23.0118V25.3318H41.8127V23.0118Z" fill="white"/>
<path d="M98.0521 22.9804C98.0521 22.8592 98.1504 22.761 98.2718 22.761C98.3931 22.761 98.4915 22.8592 98.4915 22.9804V25.3318H98.0521V22.9804Z" fill="white"/>
<path d="M48.7799 22.9804C48.7799 22.8592 48.8782 22.761 48.9996 22.761C49.1209 22.761 49.2192 22.8592 49.2192 22.9804V25.3318H48.7799V22.9804Z" fill="white"/>
<path d="M72.5059 23.6075C72.5059 23.4863 72.6042 23.388 72.7255 23.388C72.8469 23.388 72.9452 23.4863 72.9452 23.6075V25.3318H72.5059V23.6075Z" fill="white"/>
<path d="M74.5144 23.6075C74.5144 23.4863 74.6128 23.388 74.7341 23.388C74.8554 23.388 74.9538 23.4863 74.9538 23.6075V25.3318H74.5144V23.6075Z" fill="white"/>
<path d="M92.0892 23.3253C92.0892 23.1868 92.2016 23.0745 92.3403 23.0745C92.4789 23.0745 92.5913 23.1868 92.5913 23.3253V25.3318H92.0892V23.3253Z" fill="white"/>
<path d="M42.817 23.388C42.817 23.2495 42.9294 23.1372 43.0681 23.1372C43.2067 23.1372 43.3191 23.2495 43.3191 23.388V25.3318H42.817V23.388Z" fill="white"/>
<path d="M66.543 23.388C66.543 23.2495 66.6554 23.1372 66.794 23.1372C66.9327 23.1372 67.0451 23.2495 67.0451 23.388V25.3318H66.543V23.388Z" fill="white"/>
<path d="M98.9936 23.3253C98.9936 23.1868 99.106 23.0745 99.2447 23.0745C99.3833 23.0745 99.4957 23.1868 99.4957 23.3253V25.3318H98.9936V23.3253Z" fill="white"/>
<path d="M49.7214 23.388C49.7214 23.2495 49.8338 23.1372 49.9724 23.1372C50.1111 23.1372 50.2235 23.2495 50.2235 23.388V25.3318H49.7214V23.388Z" fill="white"/>
<path d="M73.5101 23.388C73.5101 23.2495 73.6225 23.1372 73.7612 23.1372C73.8999 23.1372 74.0123 23.2495 74.0123 23.388V25.3318H73.5101V23.388Z" fill="white"/>
<path d="M93.0935 23.9523C93.0935 23.8138 93.2059 23.7015 93.3445 23.7015C93.4832 23.7015 93.5956 23.8138 93.5956 23.9523V25.3318H93.0935V23.9523Z" fill="white"/>
<path d="M43.8213 24.015C43.8213 23.8765 43.9337 23.7642 44.0723 23.7642C44.211 23.7642 44.3234 23.8765 44.3234 24.015V25.3318H43.8213V24.015Z" fill="white"/>
<path d="M67.5472 24.015C67.5472 23.8765 67.6597 23.7642 67.7983 23.7642C67.937 23.7642 68.0494 23.8765 68.0494 24.015V25.3318H67.5472V24.015Z" fill="white"/>
<path d="M99.9979 23.9523C99.9979 23.8138 100.11 23.7015 100.249 23.7015C100.388 23.7015 100.5 23.8138 100.5 23.9523V25.3318H99.9979V23.9523Z" fill="white"/>
<path d="M50.7257 24.015C50.7257 23.8765 50.8381 23.7642 50.9767 23.7642C51.1154 23.7642 51.2278 23.8765 51.2278 24.015V25.3318H50.7257V24.015Z" fill="white"/>
<path d="M94.0977 21.7264C94.0977 21.6052 94.1961 21.5069 94.3174 21.5069C94.4388 21.5069 94.5371 21.6052 94.5371 21.7264V25.3318H94.0977V21.7264Z" fill="white"/>
<path d="M44.8255 24.6734C44.8255 24.5522 44.9239 24.454 45.0452 24.454C45.1665 24.454 45.2649 24.5522 45.2649 24.6734V25.3318H44.8255V24.6734Z" fill="white"/>
<path d="M68.5515 24.2658C68.5515 24.1273 68.6639 24.015 68.8026 24.015C68.9412 24.015 69.0537 24.1273 69.0537 24.2658V25.3318H68.5515V24.2658Z" fill="white"/>
<path d="M95.0393 22.5729C95.0393 22.4344 95.1517 22.3221 95.2903 22.3221C95.429 22.3221 95.5414 22.4344 95.5414 22.5729V25.3318H95.0393V22.5729Z" fill="white"/>
<path d="M45.767 22.5729C45.767 22.4344 45.8795 22.3221 46.0181 22.3221C46.1568 22.3221 46.2692 22.4344 46.2692 22.5729V25.3318H45.767V22.5729Z" fill="white"/>
<path d="M69.5558 22.9804C69.5558 22.8592 69.6542 22.761 69.7755 22.761C69.8968 22.761 69.9952 22.8592 69.9952 22.9804V25.3318H69.5558V22.9804Z" fill="white"/>
<path d="M96.0435 21.7577C96.0435 21.6192 96.1559 21.5069 96.2946 21.5069C96.4333 21.5069 96.5457 21.6192 96.5457 21.7577V25.3318H96.0435V21.7577Z" fill="white"/>
<path d="M46.7713 21.7577C46.7713 21.6192 46.8837 21.5069 47.0224 21.5069C47.161 21.5069 47.2735 21.6192 47.2735 21.7577V25.3318H46.7713V21.7577Z" fill="white"/>
<path d="M70.5601 22.1026C70.5601 21.9814 70.6584 21.8832 70.7798 21.8832C70.9011 21.8832 70.9994 21.9814 70.9994 22.1026V25.3318H70.5601V22.1026Z" fill="white"/>
<path d="M80.2262 22.6356C80.2262 22.4971 80.3386 22.3848 80.4773 22.3848C80.6159 22.3848 80.7283 22.4971 80.7283 22.6356V25.3318H80.2262V22.6356Z" fill="white"/>
<path d="M62.0865 24.015C62.0865 23.8765 61.9741 23.7642 61.8354 23.7642C61.6968 23.7642 61.5844 23.8765 61.5844 24.015V25.3318H62.0865V24.015Z" fill="white"/>
<path d="M31.3856 38C30.5942 38 29.8209 37.8966 29.066 37.6898C28.311 37.483 27.7082 37.2215 27.2577 36.9052L28.1344 35.1718C28.5728 35.4638 29.0964 35.701 29.7052 35.8834C30.3263 36.0537 30.9351 36.1389 31.5318 36.1389C32.8956 36.1389 33.5775 35.78 33.5775 35.0623C33.5775 34.7217 33.4009 34.4845 33.0478 34.3507C32.7068 34.2169 32.1528 34.0892 31.3856 33.9675C30.582 33.8459 29.9244 33.706 29.413 33.5479C28.9137 33.3897 28.4754 33.116 28.0979 32.7268C27.7326 32.3254 27.5499 31.7719 27.5499 31.0664C27.5499 30.1419 27.9335 29.4059 28.7007 28.8586C29.48 28.299 30.5272 28.0192 31.8423 28.0192C32.512 28.0192 33.1817 28.0983 33.8515 28.2564C34.5212 28.4024 35.0691 28.6031 35.4953 28.8586L34.6186 30.592C33.7906 30.1054 32.859 29.8621 31.824 29.8621C31.1543 29.8621 30.6429 29.9655 30.2897 30.1723C29.9488 30.3669 29.7783 30.6285 29.7783 30.9569C29.7783 31.3218 29.961 31.5833 30.3263 31.7415C30.7037 31.8875 31.2821 32.0273 32.0615 32.1612C32.8408 32.2828 33.4801 32.4227 33.9793 32.5808C34.4786 32.739 34.9048 33.0066 35.2579 33.3837C35.6232 33.7608 35.8058 34.296 35.8058 34.9893C35.8058 35.9017 35.4101 36.6315 34.6186 37.1789C33.8271 37.7263 32.7495 38 31.3856 38Z" fill="white"/>
<path d="M50.0463 33.0552C50.0463 33.2134 50.0341 33.4384 50.0098 33.7303H42.3566C42.4906 34.448 42.8376 35.0198 43.3978 35.4455C43.9701 35.8591 44.6763 36.0659 45.5165 36.0659C46.5881 36.0659 47.4709 35.7131 48.165 35.0076L49.3888 36.4126C48.9504 36.9356 48.3963 37.331 47.7266 37.5986C47.0569 37.8662 46.3019 38 45.4617 38C44.3902 38 43.4465 37.7871 42.6306 37.3614C41.8148 36.9356 41.1816 36.3457 40.731 35.5915C40.2927 34.8251 40.0735 33.9615 40.0735 33.0005C40.0735 32.0517 40.2866 31.2002 40.7128 30.446C41.1511 29.6796 41.7539 29.0836 42.521 28.6578C43.2882 28.2321 44.1527 28.0192 45.1147 28.0192C46.0645 28.0192 46.9108 28.2321 47.6536 28.6578C48.4085 29.0714 48.993 29.6614 49.407 30.4277C49.8332 31.1819 50.0463 32.0578 50.0463 33.0552ZM45.1147 29.8439C44.3841 29.8439 43.7631 30.0628 43.2516 30.5007C42.7524 30.9265 42.448 31.4982 42.3384 32.2159H47.8727C47.7753 31.5104 47.477 30.9386 46.9777 30.5007C46.4785 30.0628 45.8575 29.8439 45.1147 29.8439Z" fill="white"/>
<path d="M59.8195 38C58.8088 38 57.9016 37.7871 57.098 37.3614C56.2943 36.9356 55.6672 36.3457 55.2166 35.5915C54.7661 34.8251 54.5408 33.9615 54.5408 33.0005C54.5408 32.0395 54.7661 31.1819 55.2166 30.4277C55.6672 29.6736 56.2882 29.0836 57.0797 28.6578C57.8834 28.2321 58.7966 28.0192 59.8195 28.0192C60.7815 28.0192 61.6217 28.2138 62.3401 28.6031C63.0707 28.9924 63.6187 29.5519 63.984 30.2818L62.2305 31.3036C61.9504 30.8535 61.5973 30.519 61.1711 30.3C60.7571 30.0689 60.3005 29.9533 59.8012 29.9533C58.9488 29.9533 58.2426 30.2331 57.6825 30.7927C57.1223 31.3401 56.8423 32.076 56.8423 33.0005C56.8423 33.925 57.1162 34.667 57.6642 35.2265C58.2243 35.7739 58.9367 36.0476 59.8012 36.0476C60.3005 36.0476 60.7571 35.9382 61.1711 35.7192C61.5973 35.4881 61.9504 35.1475 62.2305 34.6974L63.984 35.7192C63.6065 36.4491 63.0524 37.0147 62.3218 37.4161C61.6034 37.8054 60.7693 38 59.8195 38Z" fill="white"/>
<path d="M75.0507 37.3431C74.7828 37.5621 74.454 37.7263 74.0644 37.8358C73.6869 37.9453 73.2851 38 72.8589 38C71.7873 38 70.9593 37.7202 70.3748 37.1607C69.7903 36.6011 69.4981 35.7861 69.4981 34.7156V30.0263H67.8907V28.2017H69.4981V25.9756H71.7812V28.2017H74.3932V30.0263H71.7812V34.6609C71.7812 35.1353 71.8969 35.5002 72.1283 35.7557C72.3596 35.999 72.6945 36.1206 73.1329 36.1206C73.6443 36.1206 74.0705 35.9868 74.4114 35.7192L75.0507 37.3431Z" fill="white"/>
<path d="M84.0966 38C83.1102 38 82.2213 37.7871 81.4298 37.3614C80.6384 36.9356 80.0173 36.3457 79.5668 35.5915C79.1284 34.8251 78.9092 33.9615 78.9092 33.0005C78.9092 32.0395 79.1284 31.1819 79.5668 30.4277C80.0173 29.6736 80.6384 29.0836 81.4298 28.6578C82.2213 28.2321 83.1102 28.0192 84.0966 28.0192C85.0951 28.0192 85.9901 28.2321 86.7816 28.6578C87.5731 29.0836 88.188 29.6736 88.6264 30.4277C89.0769 31.1819 89.3022 32.0395 89.3022 33.0005C89.3022 33.9615 89.0769 34.8251 88.6264 35.5915C88.188 36.3457 87.5731 36.9356 86.7816 37.3614C85.9901 37.7871 85.0951 38 84.0966 38ZM84.0966 36.0476C84.9368 36.0476 85.6309 35.7679 86.1788 35.2083C86.7268 34.6487 87.0007 33.9128 87.0007 33.0005C87.0007 32.0882 86.7268 31.3522 86.1788 30.7927C85.6309 30.2331 84.9368 29.9533 84.0966 29.9533C83.2564 29.9533 82.5623 30.2331 82.0143 30.7927C81.4785 31.3522 81.2107 32.0882 81.2107 33.0005C81.2107 33.9128 81.4785 34.6487 82.0143 35.2083C82.5623 35.7679 83.2564 36.0476 84.0966 36.0476Z" fill="white"/>
<path d="M96.7641 29.5519C97.4216 28.5301 98.5784 28.0192 100.234 28.0192V30.1905C100.04 30.154 99.8631 30.1358 99.7048 30.1358C98.8159 30.1358 98.1218 30.3973 97.6226 30.9204C97.1233 31.4313 96.8737 32.1733 96.8737 33.1465V37.8723H94.5905V28.1287H96.7641V29.5519Z" fill="white"/>
<path d="M15.7031 15.7398H6.08088L4.18393 20.1889H0.5L9.15998 0.964359H12.679L21.3664 20.1889H17.6275L15.7031 15.7398ZM14.5209 12.9385L10.892 4.53464L7.29053 12.9385H14.5209Z" fill="white"/>
<path d="M47.3034 0.964359H55.716C57.7687 0.964359 59.5924 1.36716 61.1869 2.17276C62.7814 2.96005 64.0186 4.08606 64.8983 5.55079C65.7781 6.99721 66.2179 8.6725 66.2179 10.5766C66.2179 12.4808 65.7781 14.1652 64.8983 15.63C64.0186 17.0764 62.7814 18.2024 61.1869 19.008C59.5924 19.7953 57.7687 20.1889 55.716 20.1889H47.3034V0.964359ZM55.551 17.1679C56.9623 17.1679 58.1994 16.9024 59.2625 16.3715C60.3438 15.8222 61.1686 15.0532 61.7367 14.0645C62.3232 13.0575 62.6165 11.8949 62.6165 10.5766C62.6165 9.25839 62.3232 8.10491 61.7367 7.11622C61.1686 6.10922 60.3438 5.34024 59.2625 4.80927C58.1994 4.26 56.9623 3.98536 55.551 3.98536H50.8774V17.1679H55.551Z" fill="white"/>
<path d="M71.1162 0.964359H74.6902V20.1889H71.1162V0.964359Z" fill="white"/>
<path d="M89.985 20.4636C88.0239 20.4636 86.2552 20.0425 84.679 19.2002C83.1028 18.3397 81.8657 17.1588 80.9676 15.6574C80.0695 14.1378 79.6205 12.4442 79.6205 10.5766C79.6205 8.70912 80.0695 7.02468 80.9676 5.52333C81.8657 4.00367 83.1028 2.82273 84.679 1.98052C86.2552 1.11999 88.0239 0.689723 89.985 0.689723C91.9461 0.689723 93.7148 1.11999 95.291 1.98052C96.8672 2.82273 98.1043 3.99452 99.0024 5.49587C99.9005 6.99721 100.349 8.69081 100.349 10.5766C100.349 12.4625 99.9005 14.1561 99.0024 15.6574C98.1043 17.1588 96.8672 18.3397 95.291 19.2002C93.7148 20.0425 91.9461 20.4636 89.985 20.4636ZM89.985 17.3327C91.268 17.3327 92.4226 17.0489 93.449 16.4813C94.4754 15.8954 95.2818 15.0898 95.8683 14.0645C96.4548 13.0209 96.748 11.8583 96.748 10.5766C96.748 9.29501 96.4548 8.14153 95.8683 7.11622C95.2818 6.0726 94.4754 5.267 93.449 4.69942C92.4226 4.11353 91.268 3.82058 89.985 3.82058C88.702 3.82058 87.5474 4.11353 86.521 4.69942C85.4946 5.267 84.6882 6.0726 84.1017 7.11622C83.5152 8.14153 83.222 9.29501 83.222 10.5766C83.222 11.8583 83.5152 13.0209 84.1017 14.0645C84.6882 15.0898 85.4946 15.8954 86.521 16.4813C87.5474 17.0489 88.702 17.3327 89.985 17.3327Z" fill="white"/>
<path d="M28.8951 0.0655459C28.4901 0.163029 28.1827 0.338497 27.8656 0.650442C27.3874 1.12811 27.2118 1.61552 27.2118 2.45875V2.92179H29.1146C30.9297 2.92179 31.0321 2.92666 31.2127 3.01927C31.4322 3.13138 31.603 3.4092 31.603 3.65291C31.603 3.89662 31.4322 4.17444 31.2127 4.28655C31.0321 4.37916 30.9297 4.38403 29.1146 4.38403H27.2118V5.84627H29.1146C30.9297 5.84627 31.0321 5.85114 31.2127 5.94375C31.4322 6.05586 31.603 6.33368 31.603 6.57739C31.603 6.8211 31.4322 7.09892 31.2127 7.21103C31.0321 7.30364 30.9297 7.30851 29.1146 7.30851H27.2118V8.77075H29.1146C30.9297 8.77075 31.0321 8.77563 31.2127 8.86823C31.4322 8.98034 31.603 9.25817 31.603 9.50187C31.603 9.74558 31.4322 10.0234 31.2127 10.1355C31.0321 10.2281 30.9297 10.233 29.1146 10.233H27.2118V11.6952H29.1146C30.9297 11.6952 31.0321 11.7001 31.2127 11.7927C31.4322 11.9048 31.603 12.1826 31.603 12.4264C31.603 12.6701 31.4322 12.9479 31.2127 13.06C31.0321 13.1526 30.9297 13.1575 29.1146 13.1575H27.2118V13.6205C27.2118 14.4637 27.3874 14.9463 27.8656 15.4288C28.1876 15.7456 28.5389 15.9406 28.9585 16.0283C29.3195 16.1015 35.3502 16.1015 35.7113 16.0283C36.1309 15.9406 36.4822 15.7456 36.8042 15.4288C37.2823 14.9463 37.458 14.4637 37.458 13.6205V13.1575H35.5502C33.662 13.1575 33.6376 13.1575 33.4473 13.0502C33.2278 12.9284 33.0667 12.6603 33.0667 12.4264C33.0667 12.1924 33.2278 11.9243 33.4473 11.8025C33.6376 11.6952 33.662 11.6952 35.5502 11.6952H37.458V10.233H35.5502C33.662 10.233 33.6376 10.233 33.4473 10.1258C32.9545 9.84794 32.9545 9.15581 33.4473 8.87798C33.6376 8.77075 33.662 8.77075 35.5502 8.77075H37.458V7.30851H35.5502C33.662 7.30851 33.6376 7.30851 33.4473 7.20128C32.9545 6.92345 32.9545 6.23133 33.4473 5.9535C33.6376 5.84627 33.662 5.84627 35.5502 5.84627H37.458V4.38403H35.5502C33.662 4.38403 33.6376 4.38403 33.4473 4.2768C32.9545 3.99897 32.9545 3.30685 33.4473 3.02902C33.6376 2.92179 33.662 2.92179 35.5502 2.92179H37.458V2.45875C37.458 1.61552 37.2823 1.13298 36.8042 0.650442C36.4822 0.328749 36.1016 0.124035 35.6966 0.0460493C35.3112 -0.0270627 29.2024 -0.00756617 28.8951 0.0655459Z" fill="white"/>
<path d="M24.6843 2.84177C24.5965 2.88564 24.4745 2.98799 24.416 3.07085L24.3086 3.22195L24.3087 12.3178C24.3087 14.9255 24.3135 15.0376 24.4111 15.4129C24.7771 16.7826 25.5284 17.8451 26.636 18.5567C27.4801 19.1026 28.2461 19.3317 29.3732 19.3707L30.1393 19.4V23.8695H28.9683C27.8851 23.8695 27.7777 23.8793 27.6021 23.967C27.3825 24.0791 27.2118 24.357 27.2118 24.6007C27.2118 24.8444 27.3825 25.1222 27.6021 25.2343C27.7875 25.3318 27.8802 25.3318 32.3349 25.3318C36.7896 25.3318 36.8823 25.3318 37.0677 25.2343C37.2872 25.1222 37.458 24.8444 37.458 24.6007C37.458 24.357 37.2872 24.0791 37.0677 23.967C36.892 23.8793 36.7847 23.8695 35.7015 23.8695H34.5305V19.4L35.3014 19.3707C36.448 19.3317 37.1897 19.1075 38.0728 18.5324C39.1316 17.8451 39.8732 16.7923 40.2538 15.4373C40.3514 15.0912 40.3562 14.9353 40.3758 12.4056C40.3953 9.44698 40.4554 3.10377 40.1808 2.88431C40.0238 2.75891 39.8439 2.76866 39.4243 2.75891L38.9266 2.73941L38.9071 12.0351C38.8925 14.5697 38.8827 14.9596 38.8095 15.1985C38.3948 16.5778 37.3409 17.5673 35.9845 17.8451C35.4234 17.9621 29.2464 17.9621 28.6853 17.8451C27.5094 17.6014 26.4555 16.7338 26.0212 15.6518C25.7626 15.0035 25.748 14.8329 25.748 11.8792L25.748 2.75891H25.2991C24.982 2.75891 24.7966 2.78328 24.6843 2.84177Z" fill="white"/>
</svg>
