<svg width="245" height="32" viewBox="0 0 245 32" fill="none" xmlns="http://www.w3.org/2000/svg">
<path d="M21.9106 32L20.8713 23.6925H9.63445L5.60608 32H0L16.9634 0H22.5919L26.9782 32H21.9106ZM19.9187 16L18.9084 5.15711H18.8082C18.5412 6.02023 18.2273 6.81142 17.8668 7.53068L11.6975 19.3769H20.3505L19.9187 16Z" fill="#353535"/>
<path d="M40.5144 32C37.4966 32 35.0996 31.0865 33.3236 29.2596C31.561 27.4183 30.6797 24.9584 30.6797 21.88C30.6797 20.3839 30.8399 18.8375 31.1604 17.2407L34.6436 0H39.6311L36.1479 17.1544C35.7873 19.0964 35.6071 20.5062 35.6071 21.3837C35.6071 23.2394 36.1011 24.6995 37.0893 25.764C38.0774 26.8285 39.4128 27.3608 41.0953 27.3608C43.0983 27.3608 44.674 26.7134 45.8224 25.4187C46.9841 24.1097 47.8454 22.0454 48.4063 19.2259L52.2901 0H57.2776L53.4338 19.0964C52.7929 22.3187 51.9383 24.8361 50.87 26.6487C49.8151 28.4612 48.4463 29.8062 46.7638 30.6838C45.0813 31.5613 42.9982 32 40.5144 32Z" fill="#353535"/>
<path d="M83.6585 12.5152C83.6585 16.1834 82.873 20.4918 81.4309 23.3257C79.9887 26.1596 77.9657 28.3174 75.3618 29.7991C72.7579 31.2664 69.6799 32 66.1279 32H55.7724L61.9459 0H70.9995C74.872 0 77.95 1.11486 80.2334 3.34457C82.5168 5.57429 83.6585 8.63115 83.6585 12.5152ZM78.4707 12.9252C78.4707 10.1632 77.7296 8.07013 76.2474 6.64599C74.7652 5.20746 72.6153 4.4882 69.7977 4.4882H66.0321L61.6211 27.5334H66.2681C68.6984 27.5334 70.835 26.9724 72.6777 25.8503C74.5205 24.7283 75.936 23.1315 76.9241 21.06C77.9123 18.9742 78.4707 15.5577 78.4707 12.9252Z" fill="#353535"/>
<path d="M88.646 32H83.6585L90.0497 0H95.0572L88.646 32Z" fill="#353535"/>
<path d="M122.599 13.1841C122.599 16.5215 121.938 19.6503 120.616 22.5705C119.307 25.4763 117.491 27.7779 115.167 29.4754C112.844 31.1585 110.086 32 106.895 32C104.558 32 102.488 31.4462 100.686 30.3385C98.8963 29.2308 97.5075 27.6628 96.5194 25.6345C95.5446 23.6062 95.0572 21.3118 95.0572 18.7512C95.0572 16.0468 95.4511 13.5437 96.239 11.2421C97.0268 8.94044 98.1685 6.91931 99.6641 5.17869C101.173 3.42369 102.856 2.12182 104.712 1.2731C106.581 0.424365 108.618 0 110.821 0C113.131 0 115.181 0.54664 116.97 1.63992C118.773 2.71881 120.162 4.26523 121.136 6.27916C122.111 8.27871 122.599 10.5804 122.599 13.1841ZM117.391 13.3783C117.391 10.7026 116.75 8.588 115.468 7.03439C114.199 5.4664 112.477 4.6824 110.3 4.6824C108.484 4.6824 106.788 5.30097 105.212 6.5381C103.65 7.76085 102.428 9.48708 101.547 11.7168C100.679 13.9465 100.245 16.2841 100.245 18.7296C100.245 21.3621 100.866 23.4624 102.108 25.0303C103.363 26.584 105.092 27.3608 107.296 27.3608C109.205 27.3608 110.921 26.7566 112.443 25.5482C113.979 24.3399 115.187 22.6064 116.069 20.3479C116.95 18.0895 117.391 15.7662 117.391 13.3783Z" fill="#353535"/>
<path d="M137.294 25.635C137.494 24.4986 137.321 23.5779 136.773 22.873C136.226 22.1538 135.511 21.9105 134.63 21.5078C133.762 21.0906 132.914 20.7669 132.086 20.5367C131.298 20.321 130.497 20.0692 129.683 19.7815C128.881 19.4794 128.154 19.091 127.499 18.6163C126.858 18.1416 126.364 17.5446 126.017 16.8254C125.683 16.0917 125.583 15.1854 125.717 14.1065C125.837 13.0708 126.151 12.1717 126.658 11.4093C127.165 10.6469 127.793 10.0139 128.541 9.51045C129.302 9.00697 130.123 8.63295 131.004 8.3884C131.899 8.12947 132.78 8 133.648 8C134.944 8 136.125 8.25893 137.194 8.7768C138.275 9.28029 139.117 10.0355 139.718 11.0425C140.332 12.0351 140.572 13.2866 140.439 14.797H138.876C138.97 13.6462 138.783 12.6896 138.315 11.9272C137.848 11.1504 137.194 10.5678 136.353 10.1794C135.511 9.77658 134.61 9.57519 133.648 9.57519C132.754 9.57519 131.852 9.73342 130.944 10.0499C130.036 10.352 129.242 10.8339 128.561 11.4956C127.893 12.1573 127.466 13.0061 127.279 14.0418C127.145 14.8905 127.219 15.6026 127.499 16.178C127.78 16.7534 128.2 17.2281 128.761 17.6022C129.322 17.9618 129.93 18.2567 130.584 18.4869C131.252 18.717 131.892 18.9184 132.507 19.091C133.602 19.4075 134.67 19.8175 135.712 20.321C136.753 20.8245 137.581 21.2043 138.195 22.0962C138.823 22.9737 139.05 24.1317 138.876 25.5703C138.743 26.6779 138.409 27.6274 137.875 28.4185C137.354 29.2097 136.693 29.8643 135.892 30.3821C135.104 30.8856 134.243 31.2596 133.308 31.5042C132.387 31.7631 131.472 31.8926 130.564 31.8926C129.309 31.8926 128.107 31.6552 126.958 31.1805C125.823 30.7058 124.909 29.9793 124.214 29.0011C123.52 28.0229 123.226 26.7786 123.333 25.2682L124.895 25.2897C124.855 26.4837 125.096 27.4547 125.616 28.2028C126.151 28.9508 126.858 29.4902 127.74 29.8211C128.621 30.152 129.562 30.3174 130.564 30.3174C131.472 30.303 132.407 30.1376 133.368 29.8211C134.343 29.4902 135.191 28.9868 135.912 28.3107C136.646 27.6202 137.107 26.7283 137.294 25.635Z" fill="#353535"/>
<path d="M149.726 31.8926C148.27 31.8926 147.015 31.5617 145.96 30.9C144.905 30.2239 144.051 29.332 143.396 28.2243C142.755 27.1023 142.315 25.8652 142.074 24.5129C141.847 23.1463 141.814 22.0832 141.974 20.6878L142.114 19.7384C142.301 18.3142 142.675 16.9117 143.236 15.5307C143.81 14.1353 144.545 12.8694 145.439 11.733C146.348 10.5965 147.396 9.69027 148.584 9.01416C149.786 8.32367 151.121 7.98561 152.59 8C153.926 8 155.054 8.2949 155.975 8.88469C156.897 9.47449 157.631 10.2585 158.179 11.2367C158.739 12.2149 159.113 13.3154 159.3 14.5381C159.487 15.7465 159.507 16.9836 159.36 18.2495L159.18 19.6952H143.076L143.296 18.12H157.738L157.798 17.8395C158.012 16.5305 157.958 15.243 157.638 13.9771C157.331 12.7112 156.75 11.6682 155.895 10.8483C155.054 10.0139 153.939 9.58957 152.55 9.57519C151.295 9.5608 150.16 9.8557 149.145 10.4599C148.13 11.0497 147.249 11.8481 146.501 12.855C145.753 13.8476 145.139 14.9481 144.658 16.1564C144.191 17.3504 143.864 18.5444 143.677 19.7384L143.557 20.6662C143.396 21.817 143.396 22.6644 143.557 23.844C143.73 25.0092 144.064 26.0809 144.558 27.0591C145.066 28.0373 145.753 28.8285 146.621 29.4327C147.489 30.0225 148.544 30.3246 149.786 30.339C151.108 30.3534 152.303 30.0728 153.371 29.4974C154.453 28.922 155.455 28.1452 156.376 27.167L157.357 28.0086C156.716 28.8429 155.995 29.555 155.194 30.1448C154.406 30.7202 153.552 31.1589 152.63 31.461C151.709 31.7487 150.741 31.8926 149.726 31.8926Z" fill="#353535"/>
<path d="M167.907 30.3174C169.095 30.3174 170.183 30.0728 171.171 29.5837C172.16 29.0946 173.001 28.4042 173.695 27.5123C174.403 26.606 174.91 25.5487 175.218 24.3403H176.76C176.466 25.8508 175.885 27.1742 175.017 28.3107C174.163 29.4471 173.121 30.3318 171.893 30.9647C170.664 31.5833 169.335 31.8926 167.907 31.8926C166.384 31.8926 165.116 31.5545 164.101 30.8784C163.099 30.1879 162.318 29.2817 161.757 28.1596C161.21 27.0232 160.856 25.7717 160.696 24.4051C160.535 23.0241 160.542 21.9609 160.716 20.5799L160.816 19.6521C161.03 18.1991 161.397 16.7822 161.918 15.4012C162.452 14.0058 163.146 12.7543 164.001 11.6467C164.855 10.5246 165.877 9.63273 167.065 8.971C168.254 8.30928 169.602 7.98561 171.111 8C172.594 8 173.869 8.35963 174.937 9.07889C176.005 9.79816 176.807 10.7764 177.341 12.0135C177.875 13.2362 178.102 14.6316 178.022 16.1996H176.479C176.573 14.9481 176.413 13.826 175.999 12.8334C175.598 11.8409 174.977 11.0497 174.136 10.4599C173.308 9.87008 172.293 9.57519 171.091 9.57519C169.783 9.5608 168.628 9.84851 167.626 10.4383C166.625 11.0137 165.77 11.7905 165.062 12.7687C164.355 13.7325 163.78 14.8186 163.34 16.027C162.899 17.2209 162.592 18.4293 162.418 19.6521L162.278 20.5583C162.118 21.7091 162.078 22.5565 162.158 23.7361C162.251 24.9157 162.498 26.0018 162.899 26.9944C163.3 27.987 163.907 28.7854 164.722 29.3895C165.55 29.9937 166.611 30.303 167.907 30.3174Z" fill="#353535"/>
<path d="M189.786 8L189.566 9.55361H179.471L179.711 8H189.786ZM185.244 2H186.846L182.622 25.8508C182.515 26.5413 182.475 27.2246 182.502 27.9007C182.542 28.5768 182.729 29.1378 183.063 29.5837C183.41 30.0297 183.984 30.2599 184.785 30.2742C185.146 30.2742 185.5 30.2527 185.847 30.2095C186.194 30.1663 186.541 30.1232 186.888 30.08L186.868 31.6121C186.494 31.7128 186.114 31.7847 185.727 31.8278C185.353 31.871 184.972 31.8926 184.585 31.8926C183.463 31.8782 182.622 31.5833 182.061 31.0079C181.514 30.4325 181.166 29.6844 181.02 28.7638C180.886 27.8431 180.899 26.8649 181.06 25.8292L185.244 2Z" fill="#353535"/>
<path d="M189.786 20.2185L189.786 19.7168C190 18.2207 190.4 16.775 190.988 15.3796C191.575 13.9699 192.33 12.7112 193.251 11.6035C194.173 10.4815 195.254 9.59676 196.496 8.94943C197.738 8.30209 199.12 7.98561 200.642 8C202.151 8 203.433 8.33805 204.488 9.01416C205.556 9.69027 206.404 10.5893 207.032 11.7114C207.66 12.8191 208.08 14.0706 208.294 15.4659C208.521 16.8469 208.548 18.2567 208.374 19.6952V20.1969C208.16 21.693 207.76 23.1387 207.172 24.5341C206.585 25.9294 205.83 27.1881 204.909 28.3102C203.987 29.4178 202.906 30.2953 201.664 30.9427C200.435 31.59 199.06 31.9065 197.538 31.8921C196.029 31.8921 194.74 31.5613 193.672 30.8995C192.617 30.2234 191.776 29.3243 191.148 28.2023C190.52 27.0802 190.093 25.8287 189.866 24.4477C189.639 23.0668 189.612 21.657 189.786 20.2185ZM191.388 19.7168L191.368 20.2401C191.208 21.4053 191.202 22.5849 191.348 23.7788C191.495 24.9584 191.809 26.0445 192.29 27.0371C192.784 28.0153 193.465 28.8065 194.333 29.4107C195.201 30.0148 196.269 30.3169 197.538 30.3169C198.833 30.3313 200.001 30.0508 201.043 29.4754C202.098 28.8856 203.019 28.1088 203.807 27.145C204.595 26.1668 205.236 25.0735 205.73 23.8651C206.224 22.6568 206.571 21.434 206.772 20.1969L206.792 19.6952C206.952 18.53 206.952 17.3576 206.792 16.178C206.645 14.984 206.331 13.8908 205.85 12.8982C205.369 11.9056 204.695 11.1072 203.827 10.503C202.959 9.88447 201.891 9.57519 200.622 9.57519C199.34 9.5608 198.172 9.84851 197.117 10.4383C196.076 11.0137 195.161 11.7905 194.373 12.7687C193.585 13.7469 192.937 14.8402 192.43 16.0485C191.923 17.2569 191.575 18.4797 191.388 19.7168Z" fill="#353535"/>
<path d="M214.456 12.5588L211.372 31.8926H209.789L213.515 8.54531H215.077L214.456 12.5588ZM223.089 8.37269L222.809 9.90472C222.582 9.86156 222.355 9.83279 222.128 9.8184C221.901 9.78963 221.667 9.77525 221.427 9.77525C220.225 9.77525 219.157 10.0414 218.222 10.5736C217.301 11.1059 216.499 11.8251 215.818 12.7314C215.151 13.6377 214.59 14.6375 214.136 15.7307C213.695 16.824 213.361 17.9317 213.134 19.0537L212.333 19.2264C212.547 17.9173 212.874 16.6082 213.315 15.2992C213.769 13.9757 214.363 12.7674 215.097 11.6741C215.845 10.5808 216.747 9.71052 217.801 9.06318C218.856 8.40146 220.098 8.07779 221.527 8.09217C221.794 8.09217 222.055 8.12094 222.308 8.17849C222.575 8.22164 222.836 8.28638 223.089 8.37269Z" fill="#353535"/>
<path d="M233.049 4C233.049 1.79086 234.832 0 237.033 0H241.016C243.216 0 245 1.79086 245 4V8C245 10.2091 243.216 12 241.016 12H237.033C234.832 12 233.049 10.2091 233.049 8V4Z" fill="#3D9ED6"/>
</svg>
