<svg width="16" height="16" viewBox="0 0 16 16" fill="none" xmlns="http://www.w3.org/2000/svg">
<path opacity="0.2" fill-rule="evenodd" clip-rule="evenodd" d="M7.9974 12.6654C5.42007 12.6654 3.33073 10.576 3.33073 7.9987C3.33073 5.42137 5.42007 3.33203 7.9974 3.33203C10.5747 3.33203 12.6641 5.42137 12.6641 7.9987C12.6641 10.576 10.5747 12.6654 7.9974 12.6654ZM7.9974 14.6654C4.3155 14.6654 1.33073 11.6806 1.33073 7.9987C1.33073 4.3168 4.3155 1.33203 7.9974 1.33203C11.6793 1.33203 14.6641 4.3168 14.6641 7.9987C14.6641 11.6806 11.6793 14.6654 7.9974 14.6654Z" fill="white"/>
<path d="M14.6641 7.9987C14.6641 4.3168 11.6793 1.33203 7.9974 1.33203V3.33203C10.5747 3.33203 12.6641 5.42137 12.6641 7.9987H14.6641Z" fill="white"/>
</svg>
