<svg width="165" height="165" viewBox="0 0 165 165" fill="none" xmlns="http://www.w3.org/2000/svg">
<path d="M50.5292 97.6636L164.206 0.0678711L60.4308 71.4479L50.5292 97.6636Z" fill="url(#paint0_linear_2430_1009)"/>
<path d="M164.206 0.0676575L40.6276 60.0055L0.0264282 36.5543L164.206 0.0676575Z" fill="url(#paint1_linear_2430_1009)"/>
<path d="M164.206 0.0678711L60.431 71.4479L101.032 94.8991L164.206 0.0678711Z" fill="url(#paint2_linear_2430_1009)"/>
<path d="M60.4306 71.4479L164.206 0.0678711L40.6273 60.0057L50.529 97.6636L60.4306 71.4479Z" fill="url(#paint3_linear_2430_1009)"/>
<path opacity="0.4" d="M137.899 100.403L26.3309 125.202L52.6933 140.429L53.9208 141.134L68.6568 140.076L75.7636 153.754L94.9689 164.844L137.899 100.403Z" fill="#090A0C"/>
<defs>
<linearGradient id="paint0_linear_2430_1009" x1="104.519" y1="44.4639" x2="107.37" y2="97.6635" gradientUnits="userSpaceOnUse">
<stop stop-color="#34446D"/>
<stop offset="1" stop-color="#000A25"/>
</linearGradient>
<linearGradient id="paint1_linear_2430_1009" x1="115.535" y1="94.2125" x2="75.5954" y2="2.2441" gradientUnits="userSpaceOnUse">
<stop stop-color="#34446D"/>
<stop offset="0.697295" stop-color="#4A5D8E"/>
<stop offset="1" stop-color="#5F72A6"/>
</linearGradient>
<linearGradient id="paint2_linear_2430_1009" x1="190" y1="83.5" x2="139.265" y2="14.9139" gradientUnits="userSpaceOnUse">
<stop offset="0.410421" stop-color="#5F72A6"/>
<stop offset="1" stop-color="#34446D"/>
</linearGradient>
<linearGradient id="paint3_linear_2430_1009" x1="101.372" y1="31.2396" x2="102.418" y2="97.6636" gradientUnits="userSpaceOnUse">
<stop stop-color="#253458"/>
<stop offset="1" stop-color="#000831"/>
</linearGradient>
</defs>
</svg>
