<svg width="40" height="40" viewBox="0 0 40 40" fill="none" xmlns="http://www.w3.org/2000/svg">
<path d="M34.9419 23.8117L34.9134 23.4203C34.4552 17.4554 31.6778 13.716 29.2276 10.4178C26.9588 7.3637 24.9993 4.7263 24.9993 0.834802C24.9993 0.522313 24.8243 0.236699 24.5468 0.0934227C24.2684 -0.0506345 23.934 -0.0270416 23.6809 0.156936C20.0011 2.79028 16.9307 7.22863 15.8582 11.4635C15.1136 14.4118 15.0151 17.7263 15.0013 19.9153C11.603 19.1894 10.8331 14.1058 10.825 14.0505C10.7867 13.7868 10.6257 13.5573 10.3913 13.432C10.1545 13.3083 9.87615 13.2993 9.63608 13.4182C9.45788 13.5044 5.26202 15.6365 5.01789 24.1502C5.00078 24.4334 5 24.7166 5 25.0005C5 33.2709 11.729 40 19.9994 40C28.2698 40 34.9989 33.2709 34.9989 25.0005C34.9989 24.5856 34.9704 24.1982 34.9419 23.8117ZM19.9994 38.3334C17.2424 38.3334 14.9996 35.9442 14.9996 33.0073C14.9996 32.9072 14.9988 32.8063 15.0061 32.6826C15.0395 31.4441 15.2747 30.5985 15.5327 30.0362C16.0161 31.0746 16.881 32.0291 18.284 32.0291C18.7446 32.0291 19.1174 31.6564 19.1174 31.1958C19.1174 30.0093 19.1418 28.6406 19.4372 27.4052C19.7001 26.3091 20.3283 25.1445 21.1242 24.2103C21.4781 25.4229 22.1683 26.4042 22.8421 27.3621C23.8064 28.7325 24.8032 30.1493 24.9782 32.5653C24.9888 32.7085 24.9994 32.8526 24.9994 33.0072C24.9993 35.9442 22.7565 38.3334 19.9994 38.3334ZM25.2658 37.2446C26.1308 36.0651 26.6659 34.607 26.6659 33.0073C26.6659 32.8112 26.6537 32.6289 26.6293 32.2879C26.4315 29.5675 25.2491 27.8862 24.2051 26.4028C23.3156 25.1398 22.5483 24.0486 22.5483 22.5007C22.5483 22.1842 22.3692 21.8953 22.086 21.7545C21.8045 21.6129 21.4643 21.6447 21.2128 21.8359C19.6146 23.0435 18.2816 25.0763 17.8162 27.0172C17.5785 28.0125 17.4956 29.0891 17.4663 29.9744C16.8885 29.3527 16.7094 28.2004 16.7078 28.185C16.6704 27.9172 16.5061 27.6837 16.266 27.5592C16.0276 27.4355 15.7419 27.4323 15.5019 27.5559C15.2919 27.6633 13.4471 28.7213 13.3413 32.6127C13.334 32.7446 13.3332 32.8764 13.3332 33.0074C13.3332 34.6071 13.8683 36.0651 14.7333 37.2447C9.99411 35.1983 6.66681 30.4822 6.66681 25.0007C6.66681 24.7509 6.66603 24.5019 6.68306 24.2243C6.82626 19.2294 8.42456 16.7523 9.4678 15.6594C10.1953 18.2635 12.1011 21.6675 15.8331 21.6675C16.2937 21.6675 16.6664 21.2947 16.6664 20.8341C16.6664 18.0453 16.7291 14.8228 17.4745 11.872C18.3208 8.52905 20.6393 4.91918 23.4378 2.47544C23.9025 6.04469 25.8466 8.66178 27.89 11.4114C30.3191 14.6812 32.8305 18.0624 33.2511 23.5375L33.2797 23.9362C33.3057 24.2829 33.3325 24.6288 33.3325 25.0006C33.3323 30.4821 30.005 35.1982 25.2658 37.2446Z" fill="white"/>
</svg>
