<svg width="40" height="40" viewBox="0 0 40 40" fill="none" xmlns="http://www.w3.org/2000/svg">
<path d="M36.3272 0H25.3068C24.884 0 24.5415 0.342653 24.5415 0.765306V4.8548H20.2048C19.7821 4.8548 19.4395 5.19745 19.4395 5.6201C19.4395 6.04276 19.7821 6.38541 20.2048 6.38541H35.5619V9.7449C35.5619 12.3612 33.4334 14.4898 30.817 14.4898C28.2006 14.4898 26.0721 12.3612 26.0721 9.7449V8.68143C26.0721 8.25878 25.7296 7.91612 25.3068 7.91612C24.884 7.91612 24.5415 8.25878 24.5415 8.68143V9.7449C24.5415 13.2052 27.3567 16.0204 30.817 16.0204C34.2773 16.0204 37.0925 13.2052 37.0925 9.7449V0.765306C37.0925 0.342653 36.75 0 36.3272 0ZM35.5619 4.8548H26.0721V1.53061H35.5619V4.8548Z" fill="white"/>
<path d="M34.1323 17.5508H9.6425C7.81393 17.5508 6.32617 19.0385 6.32617 20.8671C6.32617 22.6957 7.81393 24.1834 9.6425 24.1834H21.6323V39.2345C21.6323 39.6571 21.9748 39.9998 22.3976 39.9998H39.2343C39.6571 39.9998 39.9996 39.6571 39.9996 39.2345V23.4181C39.9996 20.1828 37.3676 17.5508 34.1323 17.5508ZM22.3976 22.6528H9.6425C8.65791 22.6528 7.85678 21.8517 7.85678 20.8671C7.85678 19.8825 8.65791 19.0814 9.6425 19.0814H34.1323C35.0521 19.0814 35.9053 19.3701 36.6077 19.8604L23.1629 33.3052V23.4181C23.1629 22.9955 22.8204 22.6528 22.3976 22.6528ZM38.469 38.4691H23.1629V35.9181H38.469V38.4691ZM38.469 34.3875H24.2453L37.6901 20.9427C38.1804 21.6453 38.469 22.4984 38.469 23.4181V34.3875Z" fill="white"/>
<path d="M19.3367 34.3872H4.59184V19.6423C4.59184 19.2196 4.24918 18.877 3.82653 18.877H0.765306C0.342653 18.877 0 19.2196 0 19.6423V35.1525C0 35.5751 0.342653 35.9178 0.765306 35.9178H3.06122V39.2341C3.06122 39.6567 3.40388 39.9994 3.82653 39.9994H19.3367C19.7594 39.9994 20.102 39.6567 20.102 39.2341V35.1525C20.102 34.7298 19.7594 34.3872 19.3367 34.3872ZM3.06122 34.3872H1.53061V20.4076H3.06122V34.3872ZM18.5714 38.4688H4.59184V35.9178H18.5714V38.4688Z" fill="white"/>
</svg>
