<svg width="40" height="40" viewBox="0 0 40 40" fill="none" xmlns="http://www.w3.org/2000/svg">
<g clip-path="url(#clip0_4503_13668)">
<path d="M37.9209 11.6243C37.8012 11.499 37.6354 11.4277 37.4617 11.4277H19.0491C18.8755 11.4277 18.7096 11.499 18.59 11.6243C18.47 11.7495 18.4067 11.9187 18.4148 12.0924L18.8734 21.9534C18.8895 22.3032 19.1914 22.5792 19.5371 22.5581C19.8875 22.5419 20.1582 22.2443 20.142 21.8939L19.7143 12.6976H36.7971L35.5862 38.7292H21.327C20.9764 38.7292 20.6921 39.0132 20.6921 39.3642C20.6921 39.7152 20.9764 39.9991 21.327 39.9991H36.192C36.5312 39.9991 36.8104 39.7325 36.8263 39.3938L38.0961 12.0924C38.1041 11.9187 38.0409 11.7495 37.9209 11.6243Z" fill="white"/>
<path d="M26.031 34.9219H3.17401C2.82338 34.9219 2.53906 35.2058 2.53906 35.5568C2.53906 38.0072 4.53282 40.0013 6.98352 40.0013H22.2215C24.6721 40.0013 26.666 38.0071 26.666 35.5568C26.6659 35.2058 26.3817 34.9219 26.031 34.9219ZM22.2215 38.7314H6.98352C5.45032 38.7314 4.1675 37.6388 3.87276 36.1917H25.3323C25.0374 37.6388 23.7546 38.7314 22.2215 38.7314Z" fill="white"/>
<path d="M26.0315 31.1113H3.17447C1.77418 31.1113 0.634766 32.2504 0.634766 33.651C0.634766 35.0517 1.77408 36.1907 3.17447 36.1907H26.0315C27.4318 36.1907 28.5712 35.0517 28.5712 33.651C28.5712 32.2504 27.4318 31.1113 26.0315 31.1113ZM26.0315 34.9208H3.17447C2.47414 34.9208 1.90466 34.351 1.90466 33.651C1.90466 32.9511 2.47423 32.3812 3.17447 32.3812H26.0315C26.7318 32.3812 27.3013 32.9511 27.3013 33.651C27.3013 34.351 26.7317 34.9208 26.0315 34.9208Z" fill="white"/>
<path d="M27.9359 19.0469C25.039 19.0469 22.511 21.0039 21.7879 23.8051C21.7001 24.145 21.9045 24.4909 22.2439 24.5789C22.5842 24.6658 22.9297 24.4624 23.0175 24.1226C23.5956 21.8816 25.6181 20.3167 27.9359 20.3167C30.7366 20.3167 33.0152 22.5952 33.0152 25.396C33.0152 28.1968 30.7366 30.4753 27.9359 30.4753C27.3534 30.4753 26.7829 30.378 26.2407 30.1858C25.9105 30.0699 25.5472 30.2417 25.4303 30.5721C25.3131 30.9026 25.4862 31.2653 25.8167 31.3825C26.4954 31.623 27.2084 31.7452 27.936 31.7452C31.4371 31.7452 34.285 28.8968 34.285 25.396C34.285 21.8952 31.437 19.0469 27.9359 19.0469Z" fill="white"/>
<path d="M15.8723 20.9531H13.3326C7.38093 20.9531 2.53906 25.795 2.53906 31.7467C2.53906 32.0976 2.82338 32.3816 3.17401 32.3816H26.031C26.3817 32.3816 26.666 32.0977 26.666 31.7467C26.6659 25.7951 21.824 20.9531 15.8723 20.9531ZM3.82998 31.1118C4.15792 26.1552 8.29452 22.223 13.3326 22.223H15.8723C20.9104 22.223 25.0471 26.1552 25.375 31.1118H3.82998Z" fill="white"/>
<path d="M9.52371 24.7617H8.25391V26.0315H9.52371V24.7617Z" fill="white"/>
<path d="M8.88894 27.3008H7.61914V28.5706H8.88894V27.3008Z" fill="white"/>
<path d="M16.5081 24.127H15.2383V25.3968H16.5081V24.127Z" fill="white"/>
<path d="M20.3167 27.3008H19.0469V28.5706H20.3167V27.3008Z" fill="white"/>
<path d="M14.6038 27.9375H13.334V29.2073H14.6038V27.9375Z" fill="white"/>
<path d="M38.73 8.88867H17.1428C16.7921 8.88867 16.5078 9.17262 16.5078 9.52362V12.0633C16.5078 12.4142 16.7921 12.6983 17.1428 12.6983H38.73C39.0806 12.6983 39.3649 12.4143 39.3649 12.0633V9.52362C39.3649 9.17262 39.0806 8.88867 38.73 8.88867ZM38.095 11.4283H17.7777V10.1585H38.095V11.4283Z" fill="white"/>
<path d="M22.2078 9.39059L20.303 0.501783C20.2295 0.159523 19.8926 -0.05997 19.549 0.0145274C19.2062 0.0877227 18.9876 0.425611 19.0611 0.768523L20.9658 9.65733C21.0296 9.95495 21.2931 10.1589 21.5862 10.1589C21.6302 10.1589 21.6752 10.1544 21.7198 10.1446C22.0628 10.0714 22.2813 9.73341 22.2078 9.39059Z" fill="white"/>
</g>
<defs>
<clipPath id="clip0_4503_13668">
<rect width="40" height="40" fill="white"/>
</clipPath>
</defs>
</svg>
