<svg width="40" height="40" viewBox="0 0 40 40" fill="none" xmlns="http://www.w3.org/2000/svg">
<path d="M39.6982 4.43553C39.5078 4.28748 39.2597 4.23569 39.0261 4.29514L35.3093 5.24021C34.7124 5.39185 34.0976 5.46881 33.482 5.46881H28.0274C26.258 5.46881 24.7799 6.73841 24.513 8.48778C24.3635 9.46824 23.535 10.1798 22.5433 10.1798H22.3437V8.54786C23.6911 7.74567 24.5962 6.27498 24.5962 4.59623C24.5963 2.06187 22.5344 0 19.9999 0C17.4655 0 15.4037 2.06187 15.4037 4.59623C15.4037 6.27498 16.3088 7.74567 17.6562 8.54786V10.1798H17.4566C16.4649 10.1798 15.6364 9.46824 15.4868 8.48778C15.22 6.73841 13.7419 5.46881 11.9725 5.46881H6.51787C5.90225 5.46881 5.28748 5.39193 4.69069 5.24021L0.973747 4.29522C0.74031 4.23584 0.492108 4.28756 0.30164 4.43561C0.111328 4.58358 0 4.81123 0 5.05232C0 6.70146 0.636248 8.20434 1.67515 9.33028C1.69796 11.2263 2.59632 12.9144 3.98405 14.0102L4.71897 14.9924C6.39467 17.232 9.0652 18.5692 11.8625 18.5692C14.0083 18.5692 16.0418 17.8149 17.6562 16.4327V19.2188H16.9555C14.1698 19.2188 11.9034 21.4852 11.9034 24.2709C11.9034 25.1222 12.1194 25.964 12.5279 26.7056C12.6703 26.964 12.9374 27.1101 13.2129 27.1101C13.3404 27.1101 13.4697 27.0788 13.5892 27.0129C13.9671 26.8047 14.1047 26.3296 13.8965 25.9517C13.6149 25.4404 13.4659 24.8592 13.4659 24.2709C13.4659 22.3467 15.0313 20.7813 16.9555 20.7813H17.6562V27.7604H15.8203C13.7597 27.7604 12.0833 29.4368 12.0833 31.4975C12.0833 33.558 13.7597 35.2344 15.8203 35.2344H17.9924C18.2633 36.7014 18.6965 38.1363 19.2917 39.5263C19.4148 39.8138 19.6973 40 20.0099 40H20.0113C20.3244 39.9995 20.607 39.812 20.7292 39.5237L20.7445 39.4873C21.3272 38.1092 21.7511 36.6874 22.0159 35.2344H22.9036C23.7867 35.2344 24.5052 35.9528 24.5052 36.8359C24.5052 37.7191 23.7867 38.4375 22.9036 38.4375H22.8506C22.4191 38.4375 22.0693 38.7873 22.0693 39.2188C22.0693 39.6502 22.4191 40 22.8506 40H22.9036C24.6483 40 26.0677 38.5806 26.0677 36.8359C26.0677 35.0913 24.6483 33.6719 22.9036 33.6719H22.2381C22.3081 32.9864 22.3437 32.295 22.3437 31.599V29.3229H22.8645C25.6502 29.3229 27.9166 27.0566 27.9166 24.2709C27.9166 21.4852 25.6502 19.2188 22.8645 19.2188H22.3437V16.4327C23.9581 17.815 25.9916 18.5692 28.1373 18.5692C30.9346 18.5692 33.605 17.2321 35.2809 14.9924L36.0158 14.0102C37.4036 12.9144 38.3019 11.2262 38.3247 9.3302C39.3637 8.20434 39.9999 6.70146 39.9999 5.05232C39.9999 4.81123 39.8885 4.58358 39.6982 4.43553ZM17.0377 14.8796C15.6509 16.2513 13.813 17.0067 11.8625 17.0067C10.1248 17.0067 8.44661 16.381 7.13341 15.2829C7.32951 15.3021 7.52818 15.3125 7.72927 15.3125H9.03755C9.46895 15.3125 9.8188 14.9627 9.8188 14.5313C9.8188 14.0999 9.46895 13.75 9.03755 13.75H7.72927C5.75201 13.75 4.07007 12.4655 3.47093 10.6875C4.326 11.1208 5.29147 11.3668 6.31381 11.3669L7.92966 11.3671H7.92974C8.36107 11.3671 8.71091 11.0174 8.71099 10.586C8.71107 10.1546 8.3613 9.80473 7.92982 9.80465L6.31396 9.80441C4.04889 9.8041 2.1489 8.21059 1.67578 6.08584L4.30585 6.7545C5.02834 6.93825 5.77256 7.0313 6.51787 7.0313H11.9725C12.9643 7.0313 13.7927 7.74286 13.9422 8.72332C14.2091 10.4727 15.6871 11.7423 17.4566 11.7423H17.6562V14.2679L17.0377 14.8796ZM15.8203 33.6718C14.6213 33.6718 13.6458 32.6964 13.6458 31.4974C13.6458 30.2983 14.6213 29.3229 15.8203 29.3229H17.6562V31.5525C17.6562 32.2643 17.6936 32.9711 17.7667 33.6718H15.8203ZM20.7812 31.5989C20.7812 33.418 20.5213 35.2032 20.0069 36.9281C19.4832 35.1889 19.2187 33.3885 19.2187 31.5525V29.3229H20.7812V31.5989ZM20.7812 27.7604H19.2187V9.12473C19.4728 9.16848 19.7335 9.19254 19.9999 9.19254C20.2663 9.19254 20.5271 9.16848 20.7812 9.12473V27.7604ZM22.8645 20.7812C24.7887 20.7812 26.3541 22.3466 26.3541 24.2708C26.3541 26.195 24.7887 27.7604 22.8645 27.7604H22.3437V20.7812H22.8645ZM19.9999 7.62997C18.3271 7.62997 16.9662 6.26904 16.9662 4.59623C16.9662 2.92343 18.3271 1.56249 19.9999 1.56249C21.6727 1.56249 23.0337 2.92343 23.0337 4.59623C23.0337 6.26904 21.6728 7.62997 19.9999 7.62997ZM33.6859 9.80441L32.0702 9.80465C31.6387 9.80473 31.289 10.1546 31.289 10.586C31.2891 11.0175 31.639 11.3672 32.0704 11.3671L33.6862 11.3669C34.7086 11.3668 35.674 11.1209 36.5291 10.6875C35.93 12.4655 34.2479 13.75 32.2708 13.75H30.9624C30.531 13.75 30.1812 14.0999 30.1812 14.5313C30.1812 14.9627 30.531 15.3125 30.9624 15.3125H32.2707C32.4718 15.3125 32.6704 15.3021 32.8665 15.2829C31.5532 16.381 29.8751 17.0067 28.1374 17.0067C26.1869 17.0067 24.3491 16.2513 22.9623 14.8797L22.3437 14.2679V11.7423H22.5433C24.3127 11.7423 25.7908 10.4727 26.0577 8.72332C26.2072 7.74286 27.0356 7.0313 28.0274 7.0313H33.482C34.2273 7.0313 34.9715 6.93825 35.6941 6.7545L38.3241 6.08584C37.851 8.21052 35.951 9.8041 33.6859 9.80441Z" fill="white"/>
</svg>
