<svg width="43" height="40" viewBox="0 0 43 40" fill="none" xmlns="http://www.w3.org/2000/svg">
<g clip-path="url(#clip0_14710_1157)">
<path d="M41.0548 0H11.8007C10.7911 0 9.97266 0.820663 9.97266 1.83301V10L26.9264 15L42.8828 10V1.83301C42.8828 0.820663 42.0644 0 41.0548 0Z" fill="#41A5EE"/>
<path d="M42.8828 10H9.97266V20L26.9264 23L42.8828 20V10Z" fill="#2B7CD3"/>
<path d="M9.97266 20V30L25.9291 32L42.8828 30V20H9.97266Z" fill="#185ABD"/>
<path d="M11.8007 40H41.0548C42.0644 40 42.8828 39.1793 42.8828 38.167V30H9.97266V38.167C9.97266 39.1793 10.7911 40 11.8007 40Z" fill="#103F91"/>
<path opacity="0.1" d="M22.1065 8H9.97266V33H22.1065C23.1147 32.9967 23.9312 32.178 23.9345 31.167V9.83301C23.9312 8.82203 23.1147 8.00329 22.1065 8Z" fill="black"/>
<path opacity="0.2" d="M21.1092 9H9.97266V34H21.1092C22.1175 33.9967 22.934 33.178 22.9372 32.167V10.833C22.934 9.82203 22.1175 9.00329 21.1092 9Z" fill="black"/>
<path opacity="0.2" d="M21.1092 9H9.97266V32H21.1092C22.1175 31.9967 22.934 31.178 22.9372 30.167V10.833C22.934 9.82203 22.1175 9.00329 21.1092 9Z" fill="black"/>
<path opacity="0.2" d="M20.112 9H9.97266V32H20.112C21.1202 31.9967 21.9367 31.178 21.94 30.167V10.833C21.9367 9.82203 21.1202 9.00329 20.112 9Z" fill="black"/>
<path d="M1.82704 9H20.1111C21.1207 9 21.9391 9.82066 21.9391 10.833V29.167C21.9391 30.1794 21.1207 31 20.1111 31H1.82704C0.817451 31 -0.000976562 30.1794 -0.000976562 29.167V10.833C-0.000976562 9.82066 0.817451 9 1.82704 9Z" fill="url(#paint0_linear_14710_1157)"/>
<path d="M7.50121 23.0591C7.53711 23.3421 7.56104 23.5881 7.57201 23.7991H7.61388C7.62984 23.5991 7.66307 23.3581 7.71361 23.0761C7.76414 22.7941 7.80969 22.5557 7.85024 22.3611L9.77299 14.0431H12.2592L14.2538 22.2361C14.3696 22.7455 14.4526 23.2619 14.5021 23.7821H14.535C14.5722 23.2781 14.6415 22.7771 14.7424 22.2821L16.3331 14.0391H18.5959L15.8015 25.9591H13.1578L11.2629 18.0651C11.2081 17.8381 11.1453 17.5411 11.0764 17.176C11.0076 16.811 10.9648 16.544 10.9478 16.376H10.9149C10.8929 16.57 10.85 16.8581 10.7862 17.24C10.7224 17.6221 10.6712 17.9047 10.6326 18.088L8.85148 25.957H6.16283L3.35352 14.043H5.65721L7.38949 22.378C7.4284 22.5491 7.4653 22.7771 7.50121 23.0591Z" fill="white"/>
</g>
<defs>
<linearGradient id="paint0_linear_14710_1157" x1="3.81046" y1="7.56773" x2="18.1863" y2="32.3983" gradientUnits="userSpaceOnUse">
<stop stop-color="#2368C4"/>
<stop offset="0.5" stop-color="#1A5DBE"/>
<stop offset="1" stop-color="#1146AC"/>
</linearGradient>
<clipPath id="clip0_14710_1157">
<rect width="42.8829" height="40" fill="white"/>
</clipPath>
</defs>
</svg>
