<svg width="132" height="120" viewBox="0 0 132 120" fill="none" xmlns="http://www.w3.org/2000/svg">
<path d="M44.3153 8.12114L109.734 9.7921C118.141 10.0071 123.912 16.8087 122.745 25.125L112.622 97.2441C111.294 106.71 101.666 113.918 92.4031 112.381L23.9126 101.016C16.1655 99.7305 11.5196 92.7101 13.1886 84.8121L26.3824 22.3858C28.1132 14.1963 36.017 7.90921 44.3153 8.12114Z" stroke="#38425C" stroke-width="8.05136"/>
<path d="M25.7522 18.3215C27.002 11.8228 32.6884 7.12573 39.3062 7.12573H107.001C115.556 7.12573 122.05 14.8287 120.605 23.2607L107.168 101.622C105.855 109.279 98.4847 114.344 90.8664 112.826L24.0979 99.5202C16.6576 98.0375 11.8087 90.8277 13.2414 83.3775L25.7522 18.3215Z" fill="#DFE0E4"/>
<g filter="url(#filter0_f_15156_1409)">
<path d="M118.025 37.4753C120.96 22.399 116.765 11.734 108.873 11.734L85.6143 10.7896C88.616 11.7676 106.063 14.331 110.763 17.9992C115.463 21.6674 112.418 53.9015 111.676 61.1192L118.025 37.4753Z" fill="#333D56" fill-opacity="0.65"/>
</g>
<path d="M43.8707 8.3773L107.522 10.0387C115.494 10.2467 120.944 16.7268 119.78 24.6137L109.195 96.3368C107.906 105.065 99.1405 111.755 90.5283 110.583L23.9643 101.526C16.4424 100.502 11.837 93.796 13.4327 86.1907L26.9295 21.8633C28.5542 14.1209 36.0269 8.17262 43.8707 8.3773Z" stroke="#8F9EC4" stroke-width="6.90116"/>
<g filter="url(#filter1_ii_15156_1409)">
<path d="M41.923 4.54938L107.301 6.23508C115.708 6.45195 121.478 13.2569 120.307 21.5747L109.686 96.9707C108.349 106.46 98.6775 113.67 89.4041 112.089L20.9221 100.417C13.2179 99.1038 8.60622 92.1111 10.2565 84.2457L23.9806 18.8362C25.7014 10.6356 33.6145 4.33507 41.923 4.54938Z" stroke="#657AAA" stroke-width="8.05136"/>
</g>
<path d="M74.0137 26.4026C77.959 26.957 81.388 29.1579 83.5463 32.521C85.7046 35.8841 86.4153 40.1339 85.5222 44.3356C84.6292 48.5372 82.2054 52.3465 78.7841 54.9255C75.3628 57.5044 71.2242 58.6417 67.2789 58.0873C63.3335 57.5328 59.9045 55.3319 57.7463 51.9688C55.588 48.6057 54.8772 44.3559 55.7703 40.1542C56.6634 35.9526 59.0872 32.1433 62.5085 29.5643C65.9298 26.9854 70.0683 25.8481 74.0137 26.4026ZM65.7829 61.513C82.2208 63.8232 93.8402 77.2792 91.9797 86.0321L90.7743 91.7032C90.5102 92.9459 89.2761 93.81 88.018 93.6332L33.0701 85.9107C31.812 85.7339 31.0063 84.5832 31.2704 83.3405L32.4758 77.6694C34.3363 68.9165 49.3449 59.2028 65.7829 61.513Z" fill="#34446D"/>
<path d="M72.5361 24.5149C76.4815 25.0693 79.9105 27.2702 82.0687 30.6333C84.227 33.9964 84.9378 38.2462 84.0447 42.4479C83.1516 46.6495 80.7278 50.4588 77.3065 53.0378C73.8852 55.6167 69.7467 56.754 65.8013 56.1996C61.856 55.6451 58.427 53.4442 56.2687 50.0811C54.1104 46.718 53.3997 42.4682 54.2928 38.2665C55.1858 34.0649 57.6096 30.2556 61.0309 27.6766C64.4522 25.0977 68.5908 23.9604 72.5361 24.5149ZM64.3053 59.6253C80.7433 61.9355 92.3627 75.3916 90.5022 84.1445L89.2968 89.8155C89.0326 91.0582 87.7986 91.9223 86.5405 91.7455L31.5926 84.0231C30.3345 83.8462 29.5287 82.6955 29.7929 81.4528L30.9983 75.7817C32.8588 67.0288 47.8674 57.3151 64.3053 59.6253Z" fill="#657AAA"/>
<defs>
<filter id="filter0_f_15156_1409" x="78.7131" y="3.88839" width="47.1519" height="64.1319" filterUnits="userSpaceOnUse" color-interpolation-filters="sRGB">
<feFlood flood-opacity="0" result="BackgroundImageFix"/>
<feBlend mode="normal" in="SourceGraphic" in2="BackgroundImageFix" result="shape"/>
<feGaussianBlur stdDeviation="3.45058" result="effect1_foregroundBlur_15156_1409"/>
</filter>
<filter id="filter1_ii_15156_1409" x="4.69746" y="-0.583299" width="120.985" height="118.018" filterUnits="userSpaceOnUse" color-interpolation-filters="sRGB">
<feFlood flood-opacity="0" result="BackgroundImageFix"/>
<feBlend mode="normal" in="SourceGraphic" in2="BackgroundImageFix" result="shape"/>
<feColorMatrix in="SourceAlpha" type="matrix" values="0 0 0 0 0 0 0 0 0 0 0 0 0 0 0 0 0 0 127 0" result="hardAlpha"/>
<feOffset dx="-1.15019" dy="-1.15019"/>
<feGaussianBlur stdDeviation="1.15019"/>
<feComposite in2="hardAlpha" operator="arithmetic" k2="-1" k3="1"/>
<feColorMatrix type="matrix" values="0 0 0 0 0.219608 0 0 0 0 0.258824 0 0 0 0 0.360784 0 0 0 1 0"/>
<feBlend mode="normal" in2="shape" result="effect1_innerShadow_15156_1409"/>
<feColorMatrix in="SourceAlpha" type="matrix" values="0 0 0 0 0 0 0 0 0 0 0 0 0 0 0 0 0 0 127 0" result="hardAlpha"/>
<feOffset dx="1.15019" dy="1.15019"/>
<feGaussianBlur stdDeviation="0.575097"/>
<feComposite in2="hardAlpha" operator="arithmetic" k2="-1" k3="1"/>
<feColorMatrix type="matrix" values="0 0 0 0 0.682353 0 0 0 0 0.796078 0 0 0 0 1 0 0 0 0.46 0"/>
<feBlend mode="normal" in2="effect1_innerShadow_15156_1409" result="effect2_innerShadow_15156_1409"/>
</filter>
</defs>
</svg>
