<svg width="117" height="128" viewBox="0 0 117 128" fill="none" xmlns="http://www.w3.org/2000/svg">
<g opacity="0.2">
<g filter="url(#filter0_f_14904_26884)">
<path d="M108.014 74.4981C109.951 73.379 109.953 70.5868 108.018 69.4624L93.9392 61.2861C91.2615 59.7308 87.9324 59.7272 85.2512 61.2773L8.54082 105.62C6.60427 106.739 6.60075 109.531 8.53554 110.655L22.6125 118.832C25.2885 120.387 28.6193 120.391 31.3006 118.84L108.014 74.4981Z" fill="black"/>
</g>
</g>
<path d="M9.63285 48.8134L18.1097 43.8904L18.1044 39.5339C18.0938 36.2824 20.3737 32.3341 23.2063 30.6996L34.9629 23.9185C37.7956 22.284 40.0895 23.5913 40.1001 26.8428L40.1036 31.1166L88.5667 2.97192L88.3748 47.339C88.359 53.2209 92.5067 60.382 97.6104 63.3291C100.188 64.8159 102.522 64.9531 104.205 63.9748L25.2749 109.82C23.5901 110.798 21.2557 110.659 18.6801 109.172C13.5729 106.227 9.42687 99.0624 9.44095 93.1839L9.63285 48.8134Z" fill="#34446D"/>
<path d="M18.0703 39.4792L6.92812 45.9506C6.64292 46.1177 6.46159 46.4731 6.45983 46.9834L6.26617 91.3504C6.24505 99.2329 11.8047 108.873 18.6671 112.835C25.5313 116.796 31.1421 113.601 31.1632 105.718L31.3551 61.9565L110.287 16.1116C110.289 15.0928 109.578 13.8594 108.69 13.3474C108.254 13.094 107.854 13.0729 107.565 13.2383L28.6386 59.0833C28.6386 59.0833 28.6351 59.0833 28.6334 59.0833C28.3464 59.2505 28.1668 59.6076 28.1668 60.1144L27.9749 103.876C27.9608 109.756 23.8008 112.126 18.6795 109.17C13.5723 106.225 9.42627 99.0604 9.44036 93.182L9.63225 48.8115L18.1108 43.8885L18.0686 39.4774L18.0703 39.4792ZM40.103 31.1164L88.5661 2.97176C88.5696 1.95303 87.8549 0.719631 86.9852 0.214661C86.5468 -0.036945 86.1489 -0.0598182 85.8602 0.109092L40.096 26.686L40.103 31.1164ZM7.43163 45.8485C7.36825 45.8415 7.31719 45.8767 7.25381 45.8837C7.31719 45.8767 7.36649 45.8415 7.43163 45.8485Z" fill="#A2ADC7"/>
<path d="M31.1639 105.718L31.3558 61.9566L110.288 16.1116L110.098 59.8716C110.087 63.7864 108.696 66.547 106.457 67.8455L27.5249 113.694C29.7643 112.394 31.1533 109.633 31.1639 105.718Z" fill="#576C9F"/>
<path d="M17.6263 30.9934C19.3163 29.0597 18.4819 29.7705 31.8036 22.0834C33.2296 21.2617 34.5183 21.1825 35.4496 21.7262L38.6062 23.5596C37.6766 23.0194 36.3862 23.0968 34.9619 23.9185C22.4465 31.1359 22.9852 30.7523 22.0997 31.4843C20.6367 32.693 19.3991 34.6848 18.9854 35.707C17.9361 38.0806 18.1051 42.5707 18.1086 43.9132L14.9503 42.0816C14.9503 40.1726 14.7162 34.5246 17.6263 30.9951V30.9934Z" fill="#A2ADC7"/>
<mask id="mask0_14904_26884" style="mask-type:luminance" maskUnits="userSpaceOnUse" x="9" y="0" width="88" height="111">
<path d="M96.6371 19.5883C96.6371 19.5883 81.2943 0.596463 80.1183 0L18.7683 33.5885L15.5941 40.9184C15.5941 40.9184 9.39714 47.8631 9.44115 47.9317C9.64537 48.2414 10.383 110.082 10.383 110.082C10.383 110.082 24.4353 110.68 26.0726 109.228C28.5056 107.071 27.981 102.245 27.981 102.245L28.1553 61.2967C28.1606 60.1003 28.7996 58.9883 29.8313 58.3795L96.6353 19.59L96.6371 19.5883Z" fill="white"/>
</mask>
<g mask="url(#mask0_14904_26884)">
<path d="M18.0669 99.3387L78.2074 63.8464C78.225 67.9249 82.5981 72.5224 85.1385 71.0234C65.0917 82.8541 45.0466 94.6848 24.9998 106.517C24.2691 106.947 23.2533 106.897 22.1301 106.259C19.8925 104.987 18.0775 101.86 18.0687 99.3404L18.0669 99.3387Z" fill="#B2B2B2"/>
<path d="M14.3755 57.0514L73.296 20.8677L73.4509 58.4713C73.4667 62.5832 77.8574 67.1385 80.382 65.6482C60.3334 77.4789 40.2883 89.3114 20.2415 101.142C19.5109 101.573 18.4951 101.52 17.3719 100.884C15.1431 99.6167 14.541 97.208 14.5304 94.6567L14.3755 57.0514Z" fill="#D1D0CF"/>
<path d="M14.3758 57.0513L73.2963 20.8676L72.078 20.1726L13.1558 56.3581L14.3758 57.0513Z" fill="#F9F9F9"/>
<path d="M14.939 42.2644L75.0812 6.77393L76.2995 7.4654L16.159 42.9576L14.939 42.2644Z" fill="#F9F9F9"/>
<path d="M78.116 58.8898C77.2446 58.3937 76.5351 57.1849 76.5298 56.189L76.2992 7.46729L16.1587 42.9577L16.3893 91.6777C16.3928 92.6771 17.1041 93.8859 17.9738 94.382C18.4104 94.6284 18.8047 94.6495 19.0882 94.4806C39.1368 82.6498 59.1818 70.8191 79.2304 58.9884C78.9452 59.1555 78.5509 59.1362 78.1143 58.8898H78.116Z" fill="#A8A8A8"/>
<path d="M20.4984 37.4661L20.7625 94.1618C20.766 95.0398 20.4579 95.6591 19.9614 95.953C40.0083 84.124 60.0533 72.2933 80.1019 60.4625C80.4752 60.2408 80.741 59.8379 80.8501 59.2784C80.8853 59.0901 80.9047 58.8896 80.903 58.6696L80.6389 1.97217L20.4984 37.4661Z" fill="#D1D0CF"/>
<path d="M19.2788 36.773L79.4193 1.28076L80.6393 1.97224L20.4988 37.4662L19.2788 36.773Z" fill="#F9F9F9"/>
<path d="M20.4998 37.4664L20.7639 94.1621C20.7709 95.9251 19.5245 96.6517 17.9823 95.7755C16.4366 94.8993 15.1778 92.751 15.1725 90.9897L14.9419 42.2662L16.1619 42.9595L16.3925 91.6794C16.3961 92.6788 17.1073 93.8876 17.977 94.3838C18.8467 94.8729 19.5491 94.4665 19.5456 93.4724L19.2815 36.7749L20.5016 37.4681L20.4998 37.4664Z" fill="#F9F9F9"/>
<path d="M22.619 99.2472L22.376 40.5474L82.5183 5.05347L82.7612 63.755C82.7683 65.4018 82.1926 66.5666 81.2543 67.1191C61.2057 78.9516 41.1606 90.7806 21.1138 102.613C22.0521 102.061 22.6278 100.896 22.6208 99.2472H22.619Z" fill="#DDDDDD"/>
<path d="M22.3768 40.5473L82.5173 5.05329L81.2972 4.36182L21.1567 39.8558L22.3768 40.5473Z" fill="#F9F9F9"/>
<path d="M21.1572 39.8557L21.4002 98.5555C21.409 101.105 19.6027 102.147 17.3722 100.881C15.1434 99.6147 14.5413 97.2059 14.5307 94.6547L14.3758 57.0493L13.1558 56.3561L13.3124 93.9632C13.3248 97.2798 14.4797 100.63 17.3792 102.277C20.2823 103.925 22.6325 102.564 22.6185 99.2469L22.3755 40.5472L21.1555 39.8557H21.1572Z" fill="#F9F9F9"/>
<path d="M27.3758 104.622L27.1329 45.9224L79.6205 14.9819L79.2437 14.4893L85.8579 17.7865C86.7452 18.2282 87.3104 19.136 87.3139 20.1266L87.5181 69.1299C87.5234 70.7785 86.9477 71.9433 86.0111 72.4958C65.9643 84.3265 45.9174 96.1572 25.8706 107.988C26.809 107.436 27.3846 106.271 27.3776 104.622H27.3758Z" fill="#DDDDDD"/>
<path d="M56.0871 54.7939L56.3442 80.9539L31.7235 95.3904L31.4683 69.2287L56.0871 54.7939Z" fill="#B9B9B9"/>
<path d="M84.6351 69.0088L84.6545 71.2539L60.9687 85.1415L60.9458 82.8981L84.6351 69.0088Z" fill="#B9B9B9"/>
<path d="M84.5845 63.8779L84.6057 66.1213L60.9181 80.0106L60.897 77.7673L84.5845 63.8779Z" fill="#B9B9B9"/>
<path d="M84.5336 58.7493L84.5564 60.9926L60.8689 74.8802L60.8442 72.6386L84.5336 58.7493Z" fill="#A3A3A3"/>
<path d="M84.4849 53.6187L84.506 55.8637L60.8185 69.7531L60.7974 67.5062L84.4849 53.6187Z" fill="#A3A3A3"/>
<path d="M84.4332 48.488L84.4543 50.7331L60.7667 64.6225L60.7456 62.3774L84.4332 48.488Z" fill="#A3A3A3"/>
<path d="M84.3814 43.3591L84.4043 45.6042L60.7167 59.4936L60.6938 57.2467L84.3814 43.3591Z" fill="#A3A3A3"/>
<path d="M84.3324 38.23L84.3535 40.4751L60.666 54.3644L60.6431 52.1193L84.3324 38.23Z" fill="#A3A3A3"/>
<path d="M83.0649 34.1604C83.3712 33.9792 83.623 34.12 83.6282 34.4736C83.63 34.8308 83.3853 35.2619 83.0772 35.4396L47.4869 56.3052C47.1806 56.4865 46.9288 56.3527 46.9253 55.992C46.9235 55.6401 47.17 55.2056 47.4746 55.0261L83.0666 34.1587L83.0649 34.1604Z" fill="#A3A3A3"/>
<path d="M73.603 27.1085C73.9674 26.8938 74.2667 27.061 74.272 27.4815C74.2755 27.9055 73.9833 28.4175 73.6189 28.6287L31.3386 53.4162C30.9742 53.6309 30.6767 53.4725 30.6714 53.045C30.6679 52.6262 30.9619 52.1107 31.3246 51.8978L73.6065 27.1085H73.603Z" fill="#A3A3A3"/>
<path d="M82.8163 28.8187C83.2582 28.5583 83.6226 28.7606 83.6279 29.2726C83.6314 29.7881 83.2776 30.4092 82.8339 30.6661L31.4713 60.7796C31.0294 61.0418 30.6667 60.8482 30.6597 60.3274C30.6562 59.8189 31.0118 59.1925 31.4519 58.9339L82.8163 28.8187Z" fill="#A3A3A3"/>
<path d="M85.8574 17.7865L79.2432 14.4893L79.62 14.9819L79.0161 15.3373L80.0478 17.6669L82.6551 25.1675L87.2993 19.9507C87.2324 19.0287 86.6901 18.2018 85.8557 17.7865H85.8574Z" fill="#DBDBDB"/>
<path d="M85.8574 17.7865L79.2432 14.4893L79.62 14.9819L79.0161 15.3373L80.0478 17.6669L82.6551 25.1675L87.2993 19.9507C87.2324 19.0287 86.6901 18.2018 85.8557 17.7865H85.8574Z" fill="#CECECE"/>
<path d="M25.9149 45.2295L26.1579 103.931C26.1684 106.48 24.3604 107.524 22.1316 106.257C20.9309 105.578 19.8482 104.364 19.1035 102.988L17.7427 102.471C18.6933 104.628 20.3112 106.616 22.1386 107.652C25.0417 109.301 27.392 107.943 27.3779 104.624L27.135 45.9245L25.9167 45.2313L25.9149 45.2295Z" fill="#F9F9F9"/>
<path d="M82.6573 25.1675L80.2295 15.5396C80.1063 15.0452 79.7313 14.6475 79.2437 14.4892C78.7454 14.3308 78.1979 14.3924 77.7472 14.6563L25.9146 45.229L27.1328 45.9223L78.1134 15.8704C78.8159 15.4551 79.0166 16.2363 79.2278 17.0264L81.439 25.1763L82.6573 25.1675Z" fill="#F9F9F9"/>
</g>
<path d="M45.0952 98.2597L38.694 94.542L38.606 63.4502L45.0071 67.168L45.0952 98.2597Z" fill="#6E727C"/>
<path d="M45.0071 67.1681L38.606 63.4503L95.0793 30.8647L101.479 34.5825L45.0071 67.1681Z" fill="#A5ABB9"/>
<path d="M101.479 34.5825L101.567 65.6743L45.0953 98.2598L45.0073 67.1681L101.479 34.5825Z" fill="#93969D"/>
<path d="M58.1133 64.0432L58.1855 89.0806L52.8424 92.1755L52.772 67.1399L58.1133 64.0432Z" fill="#757575"/>
<path d="M68.1219 58.2246L68.1924 83.262L62.8492 86.3587L62.7788 61.323L68.1219 58.2246Z" fill="#757575"/>
<path d="M78.1478 52.4431L78.1777 77.4383L72.8346 80.535L72.7642 55.4993L78.1478 52.4431Z" fill="#757575"/>
<path d="M88.1439 46.7002L88.1738 71.6954L82.8324 74.792L82.7603 49.7546L88.1439 46.7002Z" fill="#757575"/>
<path d="M98.14 40.9185L98.1716 65.9136L92.8285 69.0103L92.7563 43.9729L98.14 40.9185Z" fill="#757575"/>
<mask id="mask1_14904_26884" style="mask-type:luminance" maskUnits="userSpaceOnUse" x="92" y="40" width="20" height="32">
<path d="M97.7016 41.1261L106.559 40.9185L111.148 71.5721L92.8285 67.279L92.7563 43.9395L97.7016 41.1261Z" fill="white"/>
</mask>
<g mask="url(#mask1_14904_26884)">
<path d="M101.937 48.4737C100.917 46.1688 99.5213 43.9677 97.884 42.1044C96.502 40.5332 94.9493 39.2013 93.3067 38.2547C90.3949 36.5744 87.7576 36.4195 85.8528 37.5245L81.4233 40.0968C83.3282 38.9901 85.9654 39.1467 88.8773 40.8253C90.5199 41.7736 92.0726 43.1038 93.4546 44.6768C95.0919 46.5401 96.488 48.7412 97.5073 51.0461C98.6569 53.6483 99.3276 56.3808 99.3206 58.9039C99.3118 62.2047 98.1446 64.5272 96.2644 65.6198L100.694 63.0475C102.574 61.9548 103.739 59.6323 103.75 56.3316C103.757 53.8085 103.088 51.076 101.937 48.4737Z" fill="#A0A6B4"/>
<path d="M88.8799 40.8271C94.6667 44.1666 99.3408 52.2602 99.3214 58.904C99.3021 65.5496 94.5962 68.2293 88.8112 64.8898C83.0245 61.5503 78.3503 53.4584 78.3697 46.8129C78.3891 40.1673 83.0949 37.4876 88.8799 40.8254V40.8271Z" fill="#6E727C"/>
</g>
<mask id="mask2_14904_26884" style="mask-type:luminance" maskUnits="userSpaceOnUse" x="82" y="46" width="20" height="32">
<path d="M87.7055 46.9078L96.5626 46.7002L101.152 77.3538L82.8324 73.0607L82.7603 49.7212L87.7055 46.9078Z" fill="white"/>
</mask>
<g mask="url(#mask2_14904_26884)">
<path d="M91.9416 54.2555C90.9223 51.9505 89.5262 49.7494 87.8889 47.8861C86.5069 46.3149 84.9542 44.983 83.3116 44.0364C80.3997 42.3561 77.7625 42.2013 75.8576 43.3062L71.4282 45.8786C73.3331 44.7719 75.9703 44.9285 78.8822 46.6088C80.5247 47.5571 82.0775 48.8873 83.4595 50.4603C85.0968 52.3236 86.4928 54.5247 87.5122 56.8296C88.6635 59.4318 89.3325 62.1643 89.3255 64.6874C89.3167 67.9882 88.1495 70.3107 86.2692 71.4033L90.6987 68.831C92.5789 67.7383 93.7461 65.4158 93.7549 62.1151C93.7619 59.592 93.093 56.8595 91.9416 54.2572V54.2555Z" fill="#A0A6B4"/>
<path d="M78.8818 46.6069C84.6686 49.9464 89.3427 58.04 89.3234 64.6838C89.304 71.3294 84.5982 74.009 78.8132 70.6696C73.0264 67.3301 68.3523 59.2382 68.3716 52.5927C68.391 45.9471 73.0968 43.2674 78.8818 46.6052V46.6069Z" fill="#6E727C"/>
</g>
<mask id="mask3_14904_26884" style="mask-type:luminance" maskUnits="userSpaceOnUse" x="72" y="52" width="20" height="32">
<path d="M77.7094 52.6889L86.5647 52.4795L91.1561 83.1349L72.8346 78.8418L72.7642 55.5023L77.7094 52.6889Z" fill="white"/>
</mask>
<g mask="url(#mask3_14904_26884)">
<path d="M81.9455 60.0365C80.9262 57.7315 79.5301 55.5304 77.8928 53.6671C76.5108 52.0959 74.9581 50.764 73.3155 49.8174C70.4036 48.1371 67.7664 47.9823 65.8616 49.0872L61.4321 51.6596C63.337 50.5529 65.9742 50.7095 68.8861 52.388C70.5286 53.3364 72.0814 54.6665 73.4634 56.2395C75.1007 58.1028 76.4967 60.3039 77.5161 62.6088C78.6657 65.2111 79.3364 67.9436 79.3294 70.4667C79.3206 73.7674 78.1534 76.09 76.2732 77.1826L80.7026 74.6102C82.5828 73.5176 83.7482 71.1951 83.7588 67.8943C83.7659 65.3712 83.0969 62.6387 81.9455 60.0365Z" fill="#A0A6B4"/>
<path d="M68.8857 52.3882C74.6725 55.7277 79.3466 63.8213 79.3273 70.4651C79.3079 77.1106 74.6021 79.7903 68.8171 76.4508C63.0303 73.1113 58.3562 65.0195 58.3755 58.3739C58.3949 51.7284 63.1007 49.0487 68.8857 52.3864V52.3882Z" fill="#6E727C"/>
</g>
<mask id="mask4_14904_26884" style="mask-type:luminance" maskUnits="userSpaceOnUse" x="62" y="58" width="20" height="31">
<path d="M67.7133 58.4709L76.5686 58.2615L81.1583 88.9169L62.8385 84.6237L62.7681 61.2843L67.7133 58.4709Z" fill="white"/>
</mask>
<g mask="url(#mask4_14904_26884)">
<path d="M71.9494 65.8167C70.9301 63.5118 69.534 61.3107 67.8967 59.4474C66.5147 57.8762 64.962 56.5443 63.3194 55.5977C60.4076 53.9174 57.7703 53.7625 55.8655 54.8675L51.436 57.4399C53.3409 56.3331 55.9781 56.4897 58.89 58.1683C60.5325 59.1166 62.0853 60.4468 63.4673 62.0198C65.1046 63.8831 66.5006 66.0842 67.52 68.3891C68.6713 70.9914 69.3403 73.7238 69.3333 76.2469C69.3245 79.5477 68.1573 81.8702 66.2771 82.9629L70.7065 80.3905C72.5867 79.2979 73.7522 76.9754 73.7627 73.6746C73.7698 71.1515 73.1008 68.419 71.9494 65.8167Z" fill="#A0A6B4"/>
<path d="M58.8897 58.1699C64.6764 61.5094 69.3506 69.603 69.3312 76.2468C69.3118 82.8923 64.606 85.572 58.821 82.2325C53.0342 78.8931 48.3601 70.8012 48.3795 64.1557C48.3988 57.5101 53.1046 54.8304 58.8897 58.1681V58.1699Z" fill="#6E727C"/>
</g>
<mask id="mask5_14904_26884" style="mask-type:luminance" maskUnits="userSpaceOnUse" x="52" y="64" width="20" height="31">
<path d="M57.7155 64.2526L66.5725 64.0432L71.1622 94.6986L52.8424 90.4055L52.772 67.066L57.7155 64.2526Z" fill="white"/>
</mask>
<g mask="url(#mask5_14904_26884)">
<path d="M61.9523 71.5982C60.933 69.2933 59.5369 67.0922 57.8997 65.2289C56.5177 63.6559 54.9649 62.3258 53.3224 61.3792C50.4105 59.6989 47.7733 59.544 45.8684 60.649L41.439 63.2214C43.3438 62.1146 45.9811 62.2712 48.8929 63.9515C50.5355 64.8999 52.0882 66.2301 53.4702 67.803C55.1075 69.6663 56.5036 71.8674 57.5229 74.1723C58.6725 76.7746 59.3433 79.5071 59.3362 82.0302C59.3274 85.331 58.1602 87.6535 56.28 88.7461L60.7094 86.1738C62.5896 85.0811 63.7551 82.7586 63.7656 79.4578C63.7727 76.9347 63.1037 74.2023 61.9523 71.6V71.5982Z" fill="#A0A6B4"/>
<path d="M48.8936 63.9516C54.6803 67.2911 59.3545 75.3847 59.3351 82.0285C59.3157 88.6741 54.6099 91.3538 48.8249 88.0143C43.0381 84.6748 38.364 76.5829 38.3834 69.9374C38.4027 63.2918 43.1085 60.6122 48.8936 63.9499V63.9516Z" fill="#6E727C"/>
</g>
<path d="M61.4439 77.0002C61.8981 76.738 62.2625 76.6483 62.5354 76.7292C62.8083 76.8119 62.9456 77.0723 62.9474 77.5104C62.9474 77.7286 62.8893 77.9644 62.7713 78.216C62.6551 78.4676 62.4967 78.7016 62.2995 78.9198C62.5248 78.8846 62.6991 78.9268 62.8277 79.0482C62.9544 79.1678 63.0178 79.3614 63.0195 79.6306C63.0195 80.0705 62.8752 80.5033 62.5812 80.9238C62.2889 81.3461 61.914 81.6892 61.458 81.9513C61.0654 82.1783 60.7203 82.2575 60.4246 82.1924C60.1306 82.1255 59.9862 81.8651 59.995 81.4077L60.0003 81.3865L60.9492 80.8393C60.9492 80.9924 61.002 81.091 61.1076 81.1367C61.2115 81.1824 61.34 81.1596 61.4897 81.0734C61.6604 80.9748 61.796 80.8411 61.8981 80.6722C62.0002 80.5033 62.0495 80.3361 62.0495 80.169C62.0495 79.935 61.9949 79.796 61.8893 79.7502C61.7837 79.7045 61.6323 79.7379 61.4386 79.8505L60.9809 80.1144V79.284L61.4351 79.02C61.6094 78.9198 61.7449 78.7878 61.8383 78.6259C61.9316 78.464 61.9773 78.2863 61.9773 78.0946C61.9773 77.9415 61.9333 77.8394 61.8506 77.7849C61.7661 77.7303 61.6428 77.7497 61.4809 77.843C61.3541 77.9151 61.2432 78.0224 61.1481 78.1614C61.0513 78.3004 61.0038 78.4359 61.0055 78.5679L60.0619 79.1115L60.0549 79.0939C60.0425 78.7174 60.1728 78.3303 60.4457 77.9344C60.7186 77.5386 61.0513 77.2271 61.4439 77.0019V77.0002Z" fill="#34446D"/>
<path d="M61.4024 85.0425L61.809 84.7803L61.4112 85.2747L61.0045 85.5369L60.5327 86.1228L59.5961 86.7245L60.0679 86.1404L58.5063 87.1451L58.7669 86.7879L61.8267 83.9586L62.7685 83.3499L61.4041 85.0425H61.4024ZM60.4658 85.6442L61.1559 84.7874L61.1436 84.7944L61.008 84.9193L59.6841 86.1474L60.4658 85.6442Z" fill="#293247"/>
<path d="M72.1898 78.1085C72.2902 78.1419 72.1986 78.3337 71.9134 78.6874L71.3817 79.3472C71.1247 79.6674 70.7673 80.0193 70.3131 80.4046C69.8589 80.79 69.4029 81.1295 68.9487 81.4216C68.8096 81.5113 68.6741 81.5923 68.5438 81.6662C68.4118 81.7401 68.2921 81.8034 68.1899 81.8509L68.6565 81.3301C68.7621 81.2756 68.8677 81.2175 68.9734 81.1559C69.0772 81.0961 69.2022 81.0187 69.3484 80.9237C69.535 80.804 69.7269 80.658 69.9223 80.4873C70.1177 80.3167 70.2814 80.1513 70.4135 79.9876L70.512 79.8662C70.3589 80.0017 70.2075 80.1266 70.0578 80.241C69.9064 80.3571 69.7621 80.4592 69.6265 80.5471C69.2586 80.7829 69.0403 80.8814 68.9716 80.8445C68.9012 80.8075 68.9857 80.6422 69.2234 80.3448C69.4452 80.0703 69.7656 79.7519 70.1828 79.3894C70.6001 79.0287 71.0156 78.7155 71.4293 78.4498C71.8359 78.1877 72.0895 78.0733 72.1898 78.1067V78.1085ZM70.8131 79.4932L71.0437 79.2082C71.1898 79.0269 71.2585 78.9161 71.2479 78.8774C71.2374 78.8369 71.1634 78.8633 71.0279 78.9513C70.8835 79.0445 70.7303 79.166 70.5649 79.3208C70.3994 79.4756 70.2656 79.6164 70.1599 79.7466C70.0367 79.8997 69.9769 79.9947 69.9804 80.0351C69.9821 80.0756 70.0578 80.0492 70.2057 79.9542C70.3113 79.8856 70.4152 79.8134 70.5208 79.7325C70.6247 79.6533 70.7233 79.5724 70.8131 79.4932Z" fill="#293247"/>
<path d="M82.1409 72.1772L79.9033 74.9519L78.9702 75.5519L80.6832 73.4265L79.7836 74.0053L80.148 73.5514L82.1409 72.1772Z" fill="#293247"/>
<path d="M92.7558 66.0312L92.3562 66.5274C91.6995 67.101 91.1731 67.5884 90.777 67.9878C90.3809 68.3872 89.9812 68.8183 89.5799 69.2792L89.3228 69.5731L88.3862 70.1748L88.6397 69.8827C89.0147 69.4517 89.4373 69.003 89.9073 68.5367C90.3791 68.0705 90.8949 67.5919 91.4601 67.1028L89.4478 68.3977L89.8475 67.9033L92.7576 66.0312H92.7558Z" fill="#293247"/>
<path d="M102.094 60.8534C102.195 60.8816 102.094 61.0822 101.791 61.4569L101.321 62.0393C101.02 62.4141 100.665 62.7766 100.258 63.132C99.8513 63.4856 99.4323 63.8006 99.0045 64.0768C98.5732 64.3548 98.3056 64.4797 98.207 64.4516C98.1084 64.4234 98.2088 64.2211 98.5116 63.8481L98.9816 63.2657C99.2827 62.8909 99.6383 62.5267 100.043 62.1748C100.45 61.8212 100.867 61.5062 101.3 61.2282C101.732 60.952 101.996 60.8271 102.094 60.8552V60.8534ZM100.357 62.678L100.894 62.0112C101.064 61.7983 101.147 61.6734 101.14 61.6329C101.135 61.5924 101.054 61.6223 100.901 61.7191C100.746 61.8194 100.591 61.9408 100.438 62.0833C100.284 62.2258 100.122 62.4035 99.9517 62.6164L99.4147 63.2833C99.2404 63.4997 99.1559 63.6281 99.1612 63.6686C99.1665 63.7091 99.2492 63.6792 99.4041 63.5789C99.5573 63.4803 99.7105 63.3589 99.8654 63.2164C100.019 63.0739 100.182 62.8944 100.357 62.678Z" fill="#293247"/>
<path d="M56.9268 67.6959C57.4109 67.4267 57.8651 67.3581 58.2947 67.4848C58.7207 67.6132 59.0693 67.9176 59.3404 68.4015C59.5235 68.7287 59.6115 69.0542 59.6063 69.385C59.6027 69.7158 59.5446 70.2331 59.4337 70.9422L59.2559 72.019L59.277 72.0348L60.9935 71.0829L61.5076 72.0031L58.425 73.7116L57.9901 72.9339L58.432 70.4073C58.476 70.0677 58.4883 69.7792 58.4672 69.5434C58.4478 69.3076 58.3985 69.1211 58.3193 68.9821C58.2084 68.785 58.0764 68.6496 57.925 68.5792C57.7736 68.507 57.6116 68.5211 57.4391 68.6161C57.2859 68.7006 57.2084 68.8431 57.2049 69.0455C57.2049 69.246 57.2683 69.466 57.3986 69.7L56.4004 70.2542L56.3828 70.2366C56.1046 69.7651 56.0113 69.2883 56.1028 68.8044C56.1944 68.3205 56.4673 67.9511 56.9232 67.6977L56.9268 67.6959Z" fill="#6475A3"/>
<path d="M68.6596 61.2332L69.1737 62.1534C69.0628 62.9856 69.0786 63.7246 69.2248 64.3773C69.3709 65.0284 69.6297 65.7656 69.9976 66.5873L70.2353 67.1098L69.2124 67.6764L68.973 67.1556C68.6209 66.3849 68.378 65.6266 68.2406 64.877C68.1033 64.1275 68.0892 63.4008 68.1931 62.697L65.9978 63.9146L65.4819 62.9944L68.6579 61.2332H68.6596Z" fill="#6475A3"/>
<path d="M78.5471 56.1204C79.0435 56.3369 79.4766 56.7732 79.8445 57.4295L80.5294 58.6523C80.8621 59.2488 80.966 59.8136 80.841 60.3538C80.7142 60.8939 80.4044 61.3004 79.9062 61.5748C79.7565 61.6575 79.5875 61.7261 79.4044 61.7772C79.2213 61.83 79.0347 61.8599 78.8481 61.8704L78.4784 60.959C78.6492 60.9344 78.8041 60.901 78.9449 60.8552C79.0858 60.8112 79.2354 60.7426 79.3939 60.6546C79.5981 60.542 79.7178 60.3626 79.7548 60.118C79.7935 59.8734 79.7266 59.5989 79.5593 59.2981L79.4326 59.0711C79.4132 59.2664 79.3569 59.4371 79.2671 59.5831C79.1756 59.7274 79.0576 59.84 78.9097 59.9227C78.5083 60.1444 78.1069 60.1602 77.702 59.9702C77.2971 59.7766 76.9415 59.4072 76.6352 58.8582C76.3482 58.3462 76.2478 57.8307 76.3341 57.3169C76.4204 56.7996 76.6897 56.416 77.1404 56.1662C77.5841 55.9199 78.0541 55.9058 78.5506 56.1204H78.5471ZM79.0382 58.3761L78.7407 57.8447C78.5523 57.5069 78.3587 57.2764 78.165 57.1515C77.9679 57.0266 77.7971 57.0037 77.6474 57.0882C77.4908 57.1761 77.4186 57.338 77.4327 57.5755C77.445 57.8113 77.5172 58.0506 77.6527 58.2916C77.8112 58.5749 77.9767 58.7755 78.1474 58.8952C78.32 59.013 78.4872 59.0289 78.6474 58.9391C78.7618 58.8758 78.8516 58.7949 78.9185 58.6963C78.9837 58.5978 79.0242 58.4905 79.0382 58.3743" fill="#6475A3"/>
<path d="M88.8009 50.0076L89.3167 50.9278L87.565 51.8991L88.058 53.0392C88.095 52.9284 88.1601 52.8193 88.2516 52.7137C88.3432 52.6064 88.4559 52.5149 88.5897 52.4339C88.602 52.4269 88.6161 52.4181 88.6284 52.4111C89.0421 52.1823 89.4417 52.1507 89.8308 52.3213C90.2322 52.4955 90.5878 52.8597 90.9012 53.4175C91.1723 53.9013 91.2691 54.3852 91.1917 54.8673C91.116 55.3494 90.8325 55.7277 90.3396 56.0004C89.9206 56.2327 89.4787 56.2995 89.0192 56.1992C88.558 56.0989 88.2094 55.8245 87.97 55.3705L87.9647 55.3476L88.9224 54.723C89.0368 54.9289 89.1759 55.0626 89.3396 55.1224C89.5016 55.184 89.6618 55.1699 89.8255 55.0784C90.0104 54.9764 90.1002 54.8268 90.0914 54.6315C90.0826 54.4362 90.0157 54.2233 89.8836 53.9893C89.7252 53.706 89.5579 53.5072 89.3801 53.3929C89.2023 53.2767 89.021 53.2732 88.8326 53.377C88.6953 53.4527 88.6037 53.5495 88.5597 53.6638C88.514 53.7782 88.5034 53.8961 88.5298 54.0192L87.5791 54.4679L86.2183 51.4381L88.8009 50.0059V50.0076Z" fill="#6475A3"/>
<path d="M100.602 47.6096C100.846 47.7504 101.043 47.9562 101.195 48.2272C101.464 48.7075 101.529 49.1562 101.392 49.5679C101.253 49.9814 100.955 50.3139 100.499 50.5673C100.045 50.8189 99.6033 50.8963 99.1737 50.796C98.7442 50.6958 98.3956 50.4054 98.128 49.9269C97.9766 49.6559 97.9062 49.3797 97.9132 49.0999C97.9238 48.8201 98.0065 48.5562 98.1632 48.3134C97.9009 48.3099 97.658 48.2413 97.4379 48.1058C97.2178 47.9686 97.0383 47.775 96.8957 47.5216C96.6386 47.0624 96.57 46.6331 96.695 46.232C96.8182 45.8308 97.0964 45.5123 97.5277 45.2713C97.9625 45.0302 98.3833 44.9634 98.79 45.0689C99.1966 45.1763 99.5258 45.4595 99.7829 45.9188C99.9255 46.1721 99.9941 46.4255 99.9959 46.6859C99.9959 46.9428 99.9272 47.1838 99.797 47.4073C100.087 47.402 100.357 47.4706 100.6 47.6096H100.602ZM100.256 49.2635C100.283 49.0929 100.239 48.9028 100.123 48.6952C100.008 48.4911 99.8709 48.3556 99.7107 48.2905C99.5487 48.2237 99.3903 48.236 99.2371 48.3205C99.0822 48.4067 98.9907 48.5333 98.966 48.704C98.9396 48.8729 98.9854 49.0594 99.0998 49.2635C99.216 49.4729 99.3551 49.6102 99.5135 49.6788C99.6737 49.7456 99.8322 49.7368 99.9889 49.6489C100.142 49.5644 100.234 49.4342 100.26 49.2635M97.8252 46.5205C97.8111 46.6648 97.8587 46.8302 97.9625 47.0167C98.0681 47.2049 98.1861 47.3351 98.3217 47.4055C98.4572 47.4759 98.5928 47.4741 98.7283 47.3967C98.8657 47.3211 98.9414 47.2085 98.9484 47.0589C98.959 46.9093 98.9114 46.7387 98.8058 46.5487C98.7019 46.3639 98.584 46.239 98.4519 46.1739C98.3217 46.107 98.1843 46.1123 98.0453 46.1897C97.9097 46.2654 97.8358 46.3745 97.8234 46.5205" fill="#6475A3"/>
<path d="M72.9435 73.9208C73.065 74.0457 73.1266 74.2358 73.1266 74.4909C73.1266 74.9396 72.9946 75.3618 72.727 75.7577C72.4594 76.1518 72.1091 76.4756 71.676 76.7254C71.2411 76.9753 70.889 77.0597 70.6179 76.9718C70.3468 76.8873 70.2112 76.6216 70.2095 76.1747C70.2095 75.9196 70.2693 75.6609 70.389 75.3953C70.5088 75.1278 70.676 74.878 70.889 74.6422C70.6989 74.6475 70.551 74.5877 70.4454 74.4645C70.3397 74.3396 70.2869 74.1601 70.2869 73.9243C70.2869 73.495 70.4102 73.0886 70.6637 72.705C70.9137 72.3232 71.2464 72.0135 71.6566 71.776C72.0721 71.5367 72.4048 71.4628 72.6566 71.5543C72.9083 71.6476 73.0351 71.908 73.0368 72.3373C73.0368 72.5731 72.9858 72.8123 72.8802 73.0587C72.7745 73.3032 72.6302 73.532 72.4453 73.7449C72.6583 73.7343 72.8256 73.7924 72.9471 73.9191L72.9435 73.9208ZM72.0245 75.4955C72.1143 75.3319 72.1583 75.1542 72.1566 74.9589C72.1566 74.7689 72.1108 74.644 72.0193 74.5841C71.9295 74.5261 71.8098 74.5402 71.6619 74.6264C71.5158 74.7108 71.3961 74.834 71.3098 74.9941C71.2218 75.156 71.1795 75.3319 71.1795 75.5219C71.1795 75.7155 71.2235 75.8422 71.3133 75.9037C71.4013 75.9636 71.521 75.9495 71.6707 75.8633C71.8168 75.7788 71.933 75.6574 72.0228 75.4938M71.3608 72.9513C71.2922 73.0903 71.2605 73.2452 71.2605 73.4194C71.2605 73.5953 71.2957 73.7167 71.3644 73.7801C71.4348 73.8434 71.5334 73.8381 71.6654 73.7625C71.7957 73.6868 71.8943 73.5777 71.9629 73.437C72.0316 73.2962 72.0633 73.1361 72.0633 72.9566C72.0633 72.786 72.0281 72.6698 71.9594 72.61C71.889 72.5519 71.7886 72.559 71.6566 72.6346C71.5281 72.7085 71.4295 72.8141 71.3626 72.9513" fill="#34446D"/>
<path d="M82.6352 65.7621C82.9011 65.9434 83.0331 66.3568 83.0348 67.0043L83.0384 68.016C83.0384 68.6653 82.9098 69.2318 82.6475 69.7157C82.3852 70.1996 82.0331 70.5673 81.5877 70.8259C81.1388 71.0846 80.7832 71.125 80.5191 70.9438C80.255 70.7626 80.123 70.3491 80.1212 69.6999L80.1177 68.6882C80.1159 68.0389 80.2445 67.4724 80.505 66.9903C80.7638 66.5082 81.1177 66.1387 81.5684 65.8783C82.0155 65.6196 82.3711 65.5809 82.6352 65.7621ZM82.0683 68.6442L82.0648 67.4882C82.0648 67.1205 82.0208 66.8794 81.9363 66.7686C81.85 66.656 81.7286 66.6472 81.5701 66.7387C81.4081 66.8319 81.2884 66.9815 81.2057 67.1908C81.1247 67.3967 81.0842 67.6853 81.086 68.0547L81.0895 69.2107C81.0895 69.5872 81.1317 69.8283 81.2145 69.9409C81.2972 70.0535 81.4205 70.0623 81.5842 69.9691C81.7444 69.8776 81.8641 69.7262 81.9469 69.5204C82.0278 69.3128 82.0701 69.0225 82.0683 68.6477" fill="#34446D"/>
<path d="M92.7249 61.443C92.9344 61.6312 93.0401 61.969 93.0418 62.4511C93.0418 62.928 92.9063 63.403 92.6316 63.8781C92.357 64.3531 92.0066 64.7121 91.5788 64.9602C91.1193 65.2241 90.7479 65.2681 90.4662 65.0833C90.1845 64.9003 90.0419 64.508 90.0402 63.9062L90.0366 62.9385C90.0349 62.3033 90.1951 61.7122 90.5208 61.1597C90.8447 60.6107 91.2619 60.1867 91.7707 59.8929C91.9362 59.7978 92.0823 59.7292 92.2109 59.6852C92.3394 59.643 92.482 59.6113 92.6387 59.5938L92.4802 60.4981C92.3447 60.5298 92.2267 60.5632 92.1264 60.5984C92.026 60.6336 91.9098 60.6899 91.7795 60.7638C91.5489 60.8975 91.3641 61.0963 91.2267 61.362C91.0877 61.6295 91.0225 61.9391 91.0296 62.2928L91.0366 62.3051C91.1211 62.1467 91.2338 61.9972 91.3729 61.8529C91.5119 61.7104 91.6721 61.5872 91.85 61.4852C92.2249 61.2688 92.5172 61.2565 92.7249 61.4465V61.443ZM91.9327 63.6581C92.0242 63.447 92.07 63.2324 92.0683 63.0142C92.0683 62.7714 92.0225 62.6042 91.9327 62.511C91.8429 62.4195 91.7267 62.4124 91.5859 62.4951C91.4521 62.5725 91.3359 62.6605 91.2391 62.7573C91.1405 62.8558 91.0648 62.9579 91.0102 63.0634V63.3467C91.012 63.6951 91.0613 63.9326 91.1616 64.0593C91.2619 64.1877 91.3993 64.2001 91.5753 64.0998C91.7214 64.0153 91.8394 63.8675 91.9309 63.6564" fill="#34446D"/>
<path d="M102.523 54.4608C102.797 54.6544 102.935 55.0556 102.936 55.6679L102.94 56.8115C102.94 57.3658 102.787 57.9024 102.477 58.4162C102.167 58.9299 101.776 59.3223 101.304 59.595C101.16 59.6777 101.01 59.7463 100.857 59.7991C100.702 59.8519 100.554 59.8853 100.415 59.9012L100.514 59.0461C100.648 59.0214 100.776 58.9845 100.896 58.937C101.016 58.8912 101.151 58.8261 101.303 58.7381C101.496 58.6273 101.657 58.4531 101.783 58.2209C101.908 57.9886 101.972 57.7317 101.97 57.4484V57.2373C101.877 57.4238 101.766 57.5874 101.642 57.7247C101.517 57.8654 101.385 57.9745 101.245 58.0555C100.863 58.2754 100.563 58.3 100.348 58.1276C100.132 57.9569 100.023 57.6138 100.021 57.1001C100.021 56.6215 100.155 56.1376 100.428 55.6467C100.699 55.1558 101.049 54.7864 101.479 54.54C101.901 54.2955 102.248 54.2708 102.524 54.4626L102.523 54.4608ZM101.968 56.5845V56.0884C101.966 55.7734 101.921 55.557 101.827 55.4444C101.736 55.3318 101.62 55.3142 101.477 55.3951C101.327 55.4813 101.209 55.6379 101.121 55.8614C101.033 56.0866 100.991 56.3101 100.991 56.5353C100.991 56.801 101.032 56.9857 101.109 57.0948C101.185 57.2039 101.301 57.2144 101.454 57.1265C101.563 57.0631 101.662 56.9839 101.748 56.8907C101.834 56.7957 101.908 56.6936 101.965 56.5828" fill="#34446D"/>
<defs>
<filter id="filter0_f_14904_26884" x="-0.000188828" y="53.0306" width="116.555" height="74.0568" filterUnits="userSpaceOnUse" color-interpolation-filters="sRGB">
<feFlood flood-opacity="0" result="BackgroundImageFix"/>
<feBlend mode="normal" in="SourceGraphic" in2="BackgroundImageFix" result="shape"/>
<feGaussianBlur stdDeviation="3.54331" result="effect1_foregroundBlur_14904_26884"/>
</filter>
</defs>
</svg>
