<svg width="24" height="24" viewBox="0 0 24 24" fill="none" xmlns="http://www.w3.org/2000/svg">
<path d="M21.9944 6H8.95795C7.85487 6 6.95235 6.83077 6.95235 7.84615V16.1538C6.95235 16.6435 7.16365 17.1131 7.53977 17.4593C7.9159 17.8055 8.42603 18 8.95795 18H21.9944C23.1075 18 24 17.1785 24 16.1538V7.84615C24 7.35652 23.7887 6.88695 23.4126 6.54073C23.0364 6.1945 22.5263 6 21.9944 6ZM21.9944 9.38769L15.4762 12.4615L8.95795 9.38769V7.84615L15.4762 10.9015L21.9944 7.84615V9.38769ZM4.91273 8.30769H5.74888C5.72883 8.46462 5.74888 8.61231 5.74888 8.76923V9.77717H4.91273C3.34926 9.77717 3.36634 9.96525 3.90993 9.03871C4.17201 8.592 4.36119 8.30769 4.91273 8.30769Z" fill="white"/>
<path d="M5.74888 11.3625H3.13342C2.58188 11.3625 2.3927 11.6468 2.13062 12.0935C1.58703 13.02 1.56995 12.8319 3.13342 12.8319H5.74888V11.824C5.74888 11.6671 5.72883 11.5194 5.74888 11.3625Z" fill="white"/>
<path d="M5.74888 14.5062H1.33655C0.785007 14.5062 0.595828 14.7905 0.333745 15.2372C-0.209848 16.1638 -0.226924 15.9757 1.33655 15.9757H5.74888V14.9678C5.74888 14.8108 5.72883 14.6631 5.74888 14.5062Z" fill="white"/>
</svg>
