<svg width="24" height="24" viewBox="0 0 24 24" fill="none" xmlns="http://www.w3.org/2000/svg">
<path d="M6.26026 5.83292C3.11372 8.49102 0.417351 10.7687 0.271981 10.892L0 11.1234L0.830012 12.3008L1.66002 13.4833L1.82415 13.3393C1.91794 13.2571 4.24384 11.2931 7.00117 8.97431L12.0047 4.75323L17.0129 8.97431C19.7655 11.2931 22.0914 13.2571 22.1852 13.3393L22.3494 13.4833L23.1747 12.3059L24 11.1337L23.9015 11.0309C23.8453 10.9794 23.0762 10.3265 22.1946 9.58099L20.5862 8.23395V3.46274L18.8652 3.47303L17.1395 3.48845L17.1254 4.37277C17.1208 4.8612 17.102 5.26223 17.0879 5.26223C17.0739 5.26223 15.925 4.30079 14.5369 3.12855C13.1442 1.95632 12 0.994879 11.9953 1.00002C11.9859 1.00002 9.4068 3.17483 6.26026 5.83292Z" fill="white"/>
<path d="M7.8687 10.1877L3.75147 13.6632V23H10.3634V16.162H13.9273V23H20.2579V13.6632L16.1501 10.1928C13.8898 8.28536 12.0234 6.72238 12.0094 6.71724C11.9953 6.7121 10.129 8.27508 7.8687 10.1877Z" fill="white"/>
</svg>
