<svg width="24" height="24" viewBox="0 0 24 24" fill="none" xmlns="http://www.w3.org/2000/svg">
<path d="M14 0V6.35247C14 6.91407 14.2371 7.45266 14.659 7.84976C15.081 8.24687 15.6533 8.46996 16.25 8.46996H23V20.4691C23 21.0307 22.7629 21.5693 22.341 21.9664C21.919 22.3635 21.3467 22.5866 20.75 22.5866H11V19.2621C11.8501 18.356 12.3688 17.217 12.4797 16.0127C12.5907 14.8084 12.2881 13.6024 11.6164 12.5721C10.9448 11.5417 9.93948 10.7414 8.74845 10.2889C7.55743 9.83635 6.24353 9.75545 5 10.0581V2.11749C5 1.5559 5.23705 1.01731 5.65901 0.620199C6.08097 0.223092 6.65326 0 7.25 0H14ZM15.5 0.352915V6.35247C15.5 6.53967 15.579 6.7192 15.7197 6.85157C15.8603 6.98394 16.0511 7.0583 16.25 7.0583H22.625L15.5 0.352915ZM11 15.5283C11 16.6515 10.5259 17.7286 9.68198 18.5229C8.83807 19.3171 7.69347 19.7632 6.5 19.7632C5.30653 19.7632 4.16193 19.3171 3.31802 18.5229C2.47411 17.7286 2 16.6515 2 15.5283C2 14.4051 2.47411 13.3279 3.31802 12.5337C4.16193 11.7395 5.30653 11.2933 6.5 11.2933C7.69347 11.2933 8.83807 11.7395 9.68198 12.5337C10.5259 13.3279 11 14.4051 11 15.5283ZM9.5 20.4183C8.5879 20.9139 7.55323 21.1749 6.5 21.1749C5.4469 21.1753 4.41225 20.9148 3.5 20.4197V23.6467C3.49993 23.7091 3.51744 23.7704 3.55075 23.8244C3.58406 23.8783 3.63197 23.923 3.6896 23.9538C3.74723 23.9847 3.81252 24.0006 3.87882 24C3.94512 23.9993 4.01005 23.9822 4.067 23.9502L6.5 22.5852L8.933 23.9488C8.98995 23.9808 9.05488 23.9979 9.12118 23.9986C9.18748 23.9992 9.25277 23.9833 9.3104 23.9524C9.36803 23.9216 9.41594 23.8769 9.44925 23.823C9.48256 23.769 9.50007 23.7077 9.5 23.6453V20.4183Z" fill="white"/>
</svg>
