<svg width="24" height="24" viewBox="0 0 24 24" fill="none" xmlns="http://www.w3.org/2000/svg">
<path d="M13.5714 6.75V0H6.5C5.87485 0 5.2753 0.237053 4.83325 0.65901C4.3912 1.08097 4.14286 1.65326 4.14286 2.25V13.5H12.7857C13.4109 13.5 14.0104 13.7371 14.4525 14.159C14.8945 14.581 15.1429 15.1533 15.1429 15.75C15.1429 16.3467 14.8945 16.919 14.4525 17.341C14.0104 17.7629 13.4109 18 12.7857 18H4.14286V21.75C4.14286 22.3467 4.3912 22.919 4.83325 23.341C5.2753 23.7629 5.87485 24 6.5 24H20.6429C21.268 24 21.8676 23.7629 22.3096 23.341C22.7517 22.919 23 22.3467 23 21.75V9H15.9286C15.3034 9 14.7039 8.76295 14.2618 8.34099C13.8198 7.91903 13.5714 7.34674 13.5714 6.75ZM7.28571 11.25C7.28571 11.0511 7.36849 10.8603 7.51584 10.7197C7.66319 10.579 7.86304 10.5 8.07143 10.5H19.0714C19.2798 10.5 19.4797 10.579 19.627 10.7197C19.7744 10.8603 19.8571 11.0511 19.8571 11.25C19.8571 11.4489 19.7744 11.6397 19.627 11.7803C19.4797 11.921 19.2798 12 19.0714 12H8.07143C7.86304 12 7.66319 11.921 7.51584 11.7803C7.36849 11.6397 7.28571 11.4489 7.28571 11.25ZM7.28571 20.25C7.28571 20.0511 7.36849 19.8603 7.51584 19.7197C7.66319 19.579 7.86304 19.5 8.07143 19.5H19.0714C19.2798 19.5 19.4797 19.579 19.627 19.7197C19.7744 19.8603 19.8571 20.0511 19.8571 20.25C19.8571 20.4489 19.7744 20.6397 19.627 20.7803C19.4797 20.921 19.2798 21 19.0714 21H8.07143C7.86304 21 7.66319 20.921 7.51584 20.7803C7.36849 20.6397 7.28571 20.4489 7.28571 20.25ZM15.1429 6.75V0.375L22.6071 7.5H15.9286C15.7202 7.5 15.5203 7.42098 15.373 7.28033C15.2256 7.13968 15.1429 6.94891 15.1429 6.75ZM1.78571 15C1.57733 15 1.37748 15.079 1.23013 15.2197C1.08278 15.3603 1 15.5511 1 15.75C1 15.9489 1.08278 16.1397 1.23013 16.2803C1.37748 16.421 1.57733 16.5 1.78571 16.5H12.7857C12.9941 16.5 13.1939 16.421 13.3413 16.2803C13.4886 16.1397 13.5714 15.9489 13.5714 15.75C13.5714 15.5511 13.4886 15.3603 13.3413 15.2197C13.1939 15.079 12.9941 15 12.7857 15H1.78571Z" fill="white"/>
</svg>
